<svg xmlns="http://www.w3.org/2000/svg" width="24.753" height="27" viewBox="0 0 24.753 27">
  <defs>
    <style>
      .cls-1 {
        fill: #fff;
        fill-rule: evenodd;
      }
    </style>
  </defs>
  <g id="arrow-bar-left" transform="translate(-4.497 -4.5)">
    <path id="Path_132" data-name="Path 132" class="cls-1" d="M13.171,10.454a1.125,1.125,0,0,0-1.593,0L4.828,17.2a1.125,1.125,0,0,0,0,1.593l6.75,6.75a1.126,1.126,0,1,0,1.593-1.593L7.216,18l5.956-5.954a1.125,1.125,0,0,0,0-1.593Z"/>
    <path id="Path_133" data-name="Path 133" class="cls-1" d="M22.5,18a1.125,1.125,0,0,0-1.125-1.125H6.75a1.125,1.125,0,0,0,0,2.25H21.375A1.125,1.125,0,0,0,22.5,18Zm5.625,13.5A1.125,1.125,0,0,1,27,30.375V5.625a1.125,1.125,0,0,1,2.25,0v24.75A1.125,1.125,0,0,1,28.125,31.5Z"/>
  </g>
</svg>
