<svg xmlns="http://www.w3.org/2000/svg" width="37.709" height="37.705" viewBox="0 0 37.709 37.705">
  <defs>
    <style>
      .cls-1 {
        fill: #fff;
        fill-rule: evenodd;
      }
    </style>
  </defs>
  <g id="Group_45" data-name="Group 45" transform="translate(0)">
    <path id="Path_2" data-name="Path 2" class="cls-1" d="M10.915,17.664a2.693,2.693,0,0,1,3.813,0l14.25,14.257L43.23,17.664a2.7,2.7,0,1,1,3.813,3.813L30.886,37.635a2.693,2.693,0,0,1-3.813,0L10.915,21.477a2.693,2.693,0,0,1,0-3.813Z" transform="translate(-10.123 -0.721)"/>
    <path id="Path_3" data-name="Path 3" class="cls-1" d="M19.568,10.125a2.693,2.693,0,0,1,2.693,2.693V39.747a2.693,2.693,0,0,1-5.386,0V12.818A2.693,2.693,0,0,1,19.568,10.125Z" transform="translate(-0.714 -10.125)"/>
  </g>
</svg>
