<svg xmlns="http://www.w3.org/2000/svg" width="49" height="49" viewBox="0 0 49 49">
  <g id="Phone" transform="translate(-152 -6460)">
    <circle id="Ellipse_19" data-name="Ellipse 19" cx="24.5" cy="24.5" r="24.5" transform="translate(152 6460)" fill="#018f85"/>
    <path id="phone-2" data-name="phone" d="M25.268,28.125h-.162C6.4,27.05,3.745,11.266,3.373,6.45A2.856,2.856,0,0,1,6,3.375h5.245a1.9,1.9,0,0,1,1.771,1.2l1.446,3.561a1.9,1.9,0,0,1-.419,2.056l-2.027,2.047a8.919,8.919,0,0,0,7.215,7.235L21.3,17.425a1.9,1.9,0,0,1,2.065-.39l3.589,1.438a1.9,1.9,0,0,1,1.172,1.77v5.026a2.856,2.856,0,0,1-2.856,2.856ZM6.229,5.279a.952.952,0,0,0-.952.952v.076c.438,5.635,3.246,18.962,19.934,19.914a.952.952,0,0,0,1.009-.894V20.243l-3.589-1.438L19.9,21.518l-.457-.058c-8.281-1.037-9.4-9.32-9.4-9.4L9.98,11.6l2.7-2.732L11.255,5.279Z" transform="translate(160.636 6467.875)" fill="#fff"/>
  </g>
</svg>
