<svg xmlns="http://www.w3.org/2000/svg" width="1668.681" height="487" viewBox="0 0 1668.681 487">
  <defs>
    <style>
      .cls-1, .cls-2, .cls-3, .cls-4 {
        fill: #fff;
      }

      .cls-1 {
        stroke: #707070;
      }

      .cls-3 {
        font-size: 20px;
        font-family: SegoeUI, Segoe UI;
        letter-spacing: 0.06em;
      }

      .cls-5, .cls-7 {
        stroke: none;
      }

      .cls-6 {
        fill: none;
      }

      .cls-7 {
        fill: #707070;
      }
    </style>
  </defs>
  <g id="Services" transform="translate(20.181 -516)">
    <g id="Ellipse_20" data-name="Ellipse 20" class="cls-1" transform="translate(279 516)">
      <ellipse class="cls-5" cx="1" cy="243.5" rx="1" ry="243.5"/>
      <ellipse class="cls-6" cx="1" cy="243.5" rx="0.5" ry="243"/>
    </g>
    <g id="Path_148" data-name="Path 148" class="cls-2" transform="translate(-20.181 659) rotate(-90)">
      <path class="cls-5" d="M 0.2553663849830627 1565.59033203125 C 0.2538918852806091 1511.202514648438 0.2929719984531403 1437.611083984375 0.3392745554447174 1350.455078125 C 0.4109412133693695 1215.775756835938 0.4998995363712311 1048.16259765625 0.4998995363712311 857.3536376953125 C 0.4998995363712311 541.0482177734375 0.7015458345413208 263.0545959472656 0.9998959898948669 114.4961471557617 C 1.298246145248413 263.0543518066406 1.499899506568909 541.0474853515625 1.499899506568909 857.3536376953125 C 1.499899506568909 1133.33837890625 1.007816195487976 1339.652954101562 0.7144829034805298 1438.070922851562 C 0.5637043118476868 1488.67626953125 0.4068848192691803 1531.302001953125 0.2553663849830627 1565.59033203125 Z"/>
      <path class="cls-7" d="M 0.9998995065689087 0.0001220703125 C 1.552191257476807 0.0001220703125 1.999899625778198 383.850341796875 1.999899625778198 857.3536376953125 C 1.999899625778198 1330.85693359375 0.5521911978721619 1668.681274414062 -0.0001004934310913086 1668.681274414062 C -0.5521837472915649 1668.681274414062 -0.0001004934310913086 1330.85693359375 -0.0001004934310913086 857.3536376953125 C -0.0001004934310913086 383.850341796875 0.4478161931037903 0.0001220703125 0.9998995065689087 0.0001220703125 Z"/>
    </g>
    <g id="Path_147" data-name="Path 147" class="cls-2" transform="translate(-20.181 832.5) rotate(-90)">
      <path class="cls-5" d="M 1.745343089103699 1622.544067382812 C 1.593469142913818 1604.402465820312 1.432415008544922 1579.124267578125 1.276767373085022 1543.896728515625 C 0.761350691318512 1427.240478515625 0.5001006722450256 1247.139892578125 0.5001006722450256 1008.597351074219 C 0.5001006722450256 636.46435546875 0.7017127275466919 309.546875 1.00010347366333 134.7850494384766 C 1.298494100570679 309.547119140625 1.50010073184967 636.465087890625 1.50010073184967 1008.597351074219 C 1.50010073184967 1266.537353515625 1.619475722312927 1428.47314453125 1.690725684165955 1525.226684570312 C 1.722963094711304 1568.94384765625 1.746190309524536 1600.427856445312 1.745343089103699 1622.544067382812 Z"/>
      <path class="cls-7" d="M 1.00010073184967 0.0001220703125 C 1.552183985710144 0.0001220703125 2.000100612640381 451.564453125 2.000100612640381 1008.597351074219 C 2.000100612640381 1565.630126953125 2.552184104919434 1668.681274414062 2.000100612640381 1668.681274414062 C 1.447808980941772 1668.681274414062 0.0001006126403808594 1565.630126953125 0.0001006126403808594 1008.597351074219 C 0.0001006126403808594 451.564453125 0.4478089809417725 0.0001220703125 1.00010073184967 0.0001220703125 Z"/>
    </g>
    <g id="Ellipse_21" data-name="Ellipse 21" class="cls-1" transform="translate(639 516)">
      <ellipse class="cls-5" cx="1" cy="243.5" rx="1" ry="243.5"/>
      <ellipse class="cls-6" cx="1" cy="243.5" rx="0.5" ry="243"/>
    </g>
    <g id="Ellipse_22" data-name="Ellipse 22" class="cls-1" transform="translate(999 516)">
      <ellipse class="cls-5" cx="1" cy="243.5" rx="1" ry="243.5"/>
      <ellipse class="cls-6" cx="1" cy="243.5" rx="0.5" ry="243"/>
    </g>
    <g id="Ellipse_23" data-name="Ellipse 23" class="cls-1" transform="translate(1359 516)">
      <ellipse class="cls-5" cx="1" cy="243.5" rx="1" ry="243.5"/>
      <ellipse class="cls-6" cx="1" cy="243.5" rx="0.5" ry="243"/>
    </g>
    <g id="Services-2" data-name="Services" transform="translate(-140)">
      <text id="HTML" class="cls-3" transform="translate(243 637)"><tspan x="0" y="0">HTML</tspan></text>
      <text id="CSS" class="cls-3" transform="translate(253 810)"><tspan x="0" y="0">CSS</tspan></text>
      <text id="JavaScript" class="cls-3" transform="translate(222 978)"><tspan x="0" y="0">JavaScript</tspan></text>
      <text id="PHP" class="cls-3" transform="translate(590.5 637)"><tspan x="0" y="0">PHP</tspan></text>
      <text id="NodeJs" class="cls-3" transform="translate(574.5 810)"><tspan x="0" y="0">NodeJs</tspan></text>
      <text id="My_SQL" data-name="My SQL" class="cls-3" transform="translate(573.5 978)"><tspan x="0" y="0">My SQL</tspan></text>
      <text id="MongoDB" class="cls-3" transform="translate(900 637)"><tspan x="0" y="0">MongoDB</tspan></text>
      <text id="Java" class="cls-3" transform="translate(928 810)"><tspan x="0" y="0">Java</tspan></text>
      <text id="C" class="cls-3" transform="translate(942.5 978)"><tspan x="0" y="0">C</tspan></text>
      <text id="C_" data-name="C++" class="cls-3" transform="translate(1295.5 643)"><tspan x="0" y="0">C++</tspan></text>
      <text id="React" class="cls-3" transform="translate(1626.5 643)"><tspan x="0" y="0">React</tspan></text>
      <text id="C_2" data-name="C#" class="cls-3" transform="translate(1303.5 810)"><tspan x="0" y="0">C#</tspan></text>
      <text id="Vue" class="cls-3" transform="translate(1634.5 810)"><tspan x="0" y="0">Vue</tspan></text>
      <text id="_.NET" data-name=".NET" class="cls-3" transform="translate(1294.5 978)"><tspan x="0" y="0">.NET</tspan></text>
      <text id="Angular" class="cls-3" transform="translate(1614.5 977)"><tspan x="0" y="0">Angular</tspan></text>
    </g>
    <path id="html5" class="cls-4" d="M37.952,15.752l.537-5.878H8.8l1.578,17.935H30.932l-.739,7.658-6.617,1.779-6.583-1.779-.436-4.7H10.68l.739,9.337L23.577,43.46h.134v-.033L35.769,40.1l1.679-18.271H15.82l-.5-6.078H37.953ZM0,0H47.289l-4.3,48.3L23.577,53.737,4.3,48.3Z" transform="translate(107.5 539.515)"/>
    <path id="css3" class="cls-4" d="M6.573,5.144l4.436,48.074L30.239,58.4,49.467,53.22,53.906,5.146H6.573Zm37.8,15.581L30.223,26.776l-.035.014H43.875l-1.566,18L30.243,48.318l-.021-.006v.006L18.09,44.731l-.783-9.067H23.33l.391,4.7,6.447,1.628.056-.017v.008L36.9,40.1l.458-7.566-7.131-.021L16.92,32.468l-.456-5.675L30.227,21.06l.8-.333H15.936l-.719-5.807H44.961l-.588,5.805Z" transform="translate(100.927 708.85)"/>
    <path id="social-javascript" class="cls-4" d="M2.25,2.25V55.5H55.5V2.25ZM30.778,43.615c0,5.183-3.062,7.71-7.494,7.71a7.764,7.764,0,0,1-7.506-4.575l4.074-2.466c.786,1.395,1.383,2.573,3.1,2.573,1.427,0,2.6-.642,2.6-3.144V26.974h5.23Zm11.81,7.592c-4.647,0-7.65-2.1-9.115-4.992l4.081-2.363a5.346,5.346,0,0,0,4.933,2.92c2.073,0,3.278-.918,3.278-2.348,0-1.716-1.239-2.323-3.528-3.329l-1.251-.538c-3.611-1.535-6-3.466-6-7.541,0-3.753,2.859-6.493,7.327-6.493,3.182,0,5.467.989,7.114,3.885l-3.9,2.51c-.859-1.537-1.784-2.14-3.217-2.14a2.177,2.177,0,0,0-2.4,2.14c0,1.5.93,2.108,3.073,3.038l1.251.536c4.253,1.824,6.649,3.685,6.649,7.864,0,4.505-3.538,6.852-8.292,6.852Z" transform="translate(102.25 875.744)"/>
    <path id="php-2" data-name="php" class="cls-4" d="M24.957,24.622H21.6L19.764,34.05h2.983a7.227,7.227,0,0,0,4.422-1.118A5.946,5.946,0,0,0,29.128,29.2q.491-2.51-.441-3.541c-.622-.686-1.861-1.032-3.729-1.032ZM42.723,8.532C19.128,8.532,0,18.593,0,31S19.128,53.481,42.723,53.481,85.446,43.415,85.446,31,66.318,8.532,42.723,8.532ZM31.117,35.058a8.654,8.654,0,0,1-3.266,1.963,15.2,15.2,0,0,1-4.574.584h-4.2l-1.165,5.986H13l4.379-22.522h9.435q4.258,0,6.209,2.236T34.2,29.542a9.812,9.812,0,0,1-3.086,5.516Zm14.326,2.547,1.934-9.966a2.7,2.7,0,0,0-.242-2.319,3.417,3.417,0,0,0-2.445-.619H40.8L38.294,37.607h-4.87L37.8,15.081h4.866L41.5,21.069H45.84c2.732,0,4.609.477,5.647,1.429s1.346,2.492.938,4.624L50.387,37.6H45.443Zm27.049-8.063A9.9,9.9,0,0,1,71.4,32.557a10.069,10.069,0,0,1-2,2.5,8.687,8.687,0,0,1-3.266,1.963,15.216,15.216,0,0,1-4.578.584h-4.2L56.2,43.593H51.289l4.379-22.522H65.1q4.258,0,6.209,2.236t1.18,6.235Zm-9.24-4.92H59.9L58.058,34.05h2.983a7.213,7.213,0,0,0,4.422-1.118A5.972,5.972,0,0,0,67.427,29.2c.328-1.673.176-2.855-.446-3.541s-1.866-1.032-3.729-1.032Z" transform="translate(427.777 535.376)"/>
    <g id="logo-nodejs" transform="translate(443.18 711.744)">
      <path id="Path_174" data-name="Path 174" class="cls-4" d="M47.974,13.907,29.5,2.827a4.4,4.4,0,0,0-4.356,0L6.667,13.906A4.54,4.54,0,0,0,4.5,17.8V39.928a4.547,4.547,0,0,0,2.167,3.9l4.845,2.894.027.015a8.138,8.138,0,0,0,4.468,1.251c3.82,0,6.194-2.473,6.194-6.452V20.079a1.011,1.011,0,0,0-1-1.019H18.539a1.011,1.011,0,0,0-1,1.019V41.533a1.783,1.783,0,0,1-.815,1.553,2.964,2.964,0,0,1-2.869-.255L9.213,40.037a.13.13,0,0,1-.057-.11V18.113a.157.157,0,0,1,.069-.127L27.271,6.933a.1.1,0,0,1,.086,0L45.416,17.986a.159.159,0,0,1,.066.13V39.928a.152.152,0,0,1-.054.118L27.354,50.82a.145.145,0,0,1-.095,0l-4.615-2.74a.926.926,0,0,0-.931-.049l-.041.024a12.994,12.994,0,0,1-2.8,1.381c-.193.069-.646.238-.685.686s.39.767.774.989L25.133,54.9a4.24,4.24,0,0,0,2.176.6h.069a4.263,4.263,0,0,0,2.12-.6L47.972,43.831a4.561,4.561,0,0,0,2.169-3.9V17.8A4.542,4.542,0,0,0,47.974,13.907Z"/>
      <path id="Path_175" data-name="Path 175" class="cls-4" d="M25.72,29.763c-4.432,0-5.377-1.239-5.658-3.237a1,1,0,0,0-.977-.871H16.732a1,1,0,0,0-.982,1.019c0,1.733.609,7.389,9.975,7.389A11.347,11.347,0,0,0,32.693,32.1a6.547,6.547,0,0,0,2.549-5.372c0-4.463-2.913-5.685-8.646-6.484-5.83-.811-5.83-1.224-5.83-2.127,0-.651,0-2.172,4.214-2.172,3,0,4.6.379,5.119,2.377a.992.992,0,0,0,.958.793h2.361a.979.979,0,0,0,.732-.34,1.058,1.058,0,0,0,.252-.766c-.306-4.226-3.394-6.368-9.419-6.368-5.475,0-8.741,2.466-8.741,6.6,0,4.529,3.386,5.808,8.474,6.339,5.943.615,5.943,1.511,5.943,2.3,0,1.234-.509,2.88-4.938,2.88Z" transform="translate(7.767 6.487)"/>
    </g>
    <path id="mysql" class="cls-4" d="M53.81,11.449a3.564,3.564,0,0,0-.9.109V11.6h.046a7.5,7.5,0,0,0,.7.9c.177.352.328.7.505,1.05l.046-.048a1.221,1.221,0,0,0,.459-1.093c-.131-.155-.151-.308-.262-.459-.131-.221-.413-.328-.59-.5ZM18.926,54.726H15.884Q15.756,47.478,15,40.261h-.026L10.347,54.726H8.036L3.444,40.261H3.411q-.538,7.221-.639,14.465H0q.272-9.673,1.345-18.139H5.117l4.378,13.33h.026l4.419-13.33h3.593q1.191,9.912,1.4,18.139ZM32.1,41.343q-1.86,10.06-4.894,14.629-2.371,3.523-5.191,3.518a5.125,5.125,0,0,1-1.856-.453v-1.62a8.276,8.276,0,0,0,1.266.085,3.06,3.06,0,0,0,2.123-.728,2.647,2.647,0,0,0,.969-1.983,13.111,13.111,0,0,0-.754-3.1l-3.33-10.352h2.985l2.386,7.741a10.332,10.332,0,0,1,.671,3.682,49.972,49.972,0,0,0,2.738-11.423H32.1ZM72.528,54.726H63.9V36.587h2.9V52.5H72.53Zm-10.89.444-3.333-1.64a7.222,7.222,0,0,0,.838-.82q2.129-2.49,2.125-7.391,0-9-7.067-9.007A6.728,6.728,0,0,0,48.789,38.6q-2.116,2.5-2.119,7.365,0,4.782,1.883,7.019A6.448,6.448,0,0,0,53.744,55a8.365,8.365,0,0,0,2.377-.321l4.345,2.532,1.181-2.04ZM50.84,51.1c-.739-1.181-1.106-3.083-1.106-5.694q0-6.855,4.166-6.855a3.511,3.511,0,0,1,3.206,1.64,11.1,11.1,0,0,1,1.1,5.653q0,6.908-4.166,6.914a3.509,3.509,0,0,1-3.208-1.64ZM45.4,49.7a4.805,4.805,0,0,1-1.692,3.792,6.652,6.652,0,0,1-4.54,1.476,9.1,9.1,0,0,1-5.158-1.688l.776-1.561a8.8,8.8,0,0,0,3.9,1.076,4.1,4.1,0,0,0,2.569-.722,2.473,2.473,0,0,0,.984-2.016c0-1.082-.754-2-2.125-2.773-1.273-.7-3.814-2.156-3.814-2.156a4.343,4.343,0,0,1-2.073-3.862,4.5,4.5,0,0,1,1.542-3.558,5.812,5.812,0,0,1,4-1.36A8.234,8.234,0,0,1,44.368,37.7l-.7,1.561a8.941,8.941,0,0,0-3.49-.754,3.09,3.09,0,0,0-2.145.676A2.248,2.248,0,0,0,37.22,40.9c0,1.076.768,2,2.185,2.788,1.29.706,3.892,2.2,3.892,2.2a4.273,4.273,0,0,1,2.125,3.831ZM76.175,30.508a10.068,10.068,0,0,0-4.255.617c-.328.131-.853.131-.9.549.181.175.208.459.361.7a4.993,4.993,0,0,0,1.135,1.334c.459.361.918.708,1.4,1.017.853.525,1.822.838,2.657,1.364.475.308.962.7,1.443,1.028.238.164.394.459.7.564v-.066c-.151-.2-.2-.481-.345-.7-.221-.221-.44-.418-.656-.632a10.573,10.573,0,0,0-2.279-2.215c-.7-.479-2.237-1.148-2.526-1.951l-.042-.046a8.724,8.724,0,0,0,1.509-.348c.746-.2,1.426-.155,2.2-.348.348-.09.7-.2,1.05-.308v-.2c-.394-.394-.689-.927-1.1-1.3a29.086,29.086,0,0,0-3.621-2.7c-.689-.44-1.561-.722-2.285-1.1-.262-.131-.7-.2-.853-.418a8.517,8.517,0,0,1-.9-1.686q-.967-1.874-1.8-3.814a22.71,22.71,0,0,0-1.115-2.5,22.083,22.083,0,0,0-8.482-8.2,10.682,10.682,0,0,0-2.808-.9c-.549-.026-1.1-.066-1.64-.09a8.158,8.158,0,0,1-1.017-.77c-1.246-.787-4.474-2.493-5.392-.236C46.03,8.589,47.5,9.993,48,10.714a10,10,0,0,1,1.115,1.64c.155.38.2.77.352,1.168a26.143,26.143,0,0,0,1.137,2.941,9.928,9.928,0,0,0,.809,1.354c.177.238.479.352.549.746a6.385,6.385,0,0,0-.505,1.64,9.716,9.716,0,0,0,.636,7.38c.352.544,1.187,1.752,2.3,1.29.984-.394.768-1.64,1.05-2.738.066-.262.024-.437.157-.612v.048c.308.617.617,1.2.9,1.822a12.384,12.384,0,0,0,2.843,2.937c.525.394.94,1.076,1.6,1.319v-.066H60.9a3.025,3.025,0,0,0-.505-.437,11.3,11.3,0,0,1-1.148-1.312,28.733,28.733,0,0,1-2.451-4c-.361-.689-.663-1.43-.951-2.11-.131-.262-.131-.656-.352-.787a8.214,8.214,0,0,0-1.05,1.485,12.488,12.488,0,0,0-.617,3.313c-.09.024-.046,0-.09.046-.7-.171-.94-.9-1.2-1.509a9.509,9.509,0,0,1-.2-5.854c.155-.459.809-1.909.549-2.349-.138-.418-.571-.656-.809-.995a8.128,8.128,0,0,1-.787-1.4c-.525-1.227-.787-2.585-1.358-3.811a11.485,11.485,0,0,0-1.1-1.684,10.942,10.942,0,0,1-1.207-1.706c-.109-.238-.262-.636-.09-.9a.375.375,0,0,1,.308-.3c.289-.236,1.1.072,1.384.2a11.28,11.28,0,0,1,2.171,1.1c.308.216.639.632,1.034.741H52.9c.7.155,1.491.046,2.15.238A14.035,14.035,0,0,1,58.2,11.071a19.527,19.527,0,0,1,6.838,7.5c.262.505.378.969.617,1.491.459,1.082,1.028,2.176,1.491,3.221a14.27,14.27,0,0,0,1.561,2.941c.328.459,1.647.7,2.237.938a16.11,16.11,0,0,1,1.509.617c.754.459,1.489.984,2.2,1.489.361.249,1.452.8,1.52,1.24Z" transform="translate(431.141 871.953)"/>
    <path id="mongodb-2" data-name="mongodb" class="cls-4" d="M33.576,21.311c-2.827-12.449-9.5-16.539-10.215-18.1A20.123,20.123,0,0,1,21.721,0l-.01.11V.139h0Q21.7.182,21.7.225V.258h0l0,.058V.375h-.007c0,.018,0,.04-.007.057V.479h0a.168.168,0,0,1,0,.048V.572h0l0,.072v0L21.637.76V.778h0L21.625.8V.843h-.007V.893h-.01v.04H21.6V.981h-.009v.042h-.009v.039h-.013v.031h-.009v.04h-.009v.031h-.01v.028h-.007v.033h-.009l0,.009v.022H21.51l0,.013v.013h0a.1.1,0,0,0,0,.022l-.022.048v0a.067.067,0,0,0-.01.016v.018h-.009v.018h-.01v.018h-.007v.022h-.013v.031h-.009v.009h-.009v.018H21.4v.025h-.009v.018h-.013v.025h-.009V1.6h-.01v.018h-.007v.022h-.01v.018h-.009v.013H21.32v.018h-.013V1.7H21.3v.013h-.01v.018h-.009v.025h-.01v.009h-.007v.018h-.013v.009h-.009v.022h-.009v.009H21.22v.018h-.01v.013H21.2l0,.009v.009h0l0,.009v0h0a.036.036,0,0,1-.009.016v.007h0l-.025.037v0s-.016.013-.019.022v0h0l-.007.007v.007h0L21.107,2V2h0l-.007.009v.009h-.007l0,0v0h0s0,0,0,.007v.007h-.009l0,.007V2.06h-.007v.009h-.009v.013h-.009V2.1h-.01V2.082h-.01v.009h-.009V2.1H21v.018h-.01v.009h-.009v.013h-.009v.009h-.009v.018h-.013v.009h-.009v.013h-.01V2.2h-.009v.01h-.01v.022h0v.009h-.013v.01H20.88v0h-.009v.009h-.01v.022h-.009V2.3h-.01v.009h-.009v.013h-.01v.009h-.01v.009H20.8V2.35h-.009v.022h-.009v.01h-.013v.009h-.009V2.4h-.01v.013h-.009v.009h-.01v.016h-.009v.009H20.71v.015h0v.009H20.7v.009h-.01V2.49h-.009V2.5h-.01v.009h-.007l0,0v0h0l-.009.009-.009.007v.013h-.009v.01h-.009V2.57h-.009v.009H20.6l-.007.007v.007h0l0,0v.007h0a.224.224,0,0,1-.031.036.819.819,0,0,0-.113.094l-.049.039v0h0l-.11.087v0l-.166.139V3h0c-.128.106-.263.224-.416.355v0h0c-.379.331-.828.757-1.331,1.272l-.033.033-.009.009A30.817,30.817,0,0,0,9.957,25a23.211,23.211,0,0,0,.013,2.561v.019a24.4,24.4,0,0,0,3.2,10.649v0a27.8,27.8,0,0,0,2.073,3.145v0a28.585,28.585,0,0,0,5.629,5.656,18.724,18.724,0,0,1,.9,6.222l1.442.482a26.765,26.765,0,0,1,.119-5.647,3.5,3.5,0,0,1,.781-1.482,18.761,18.761,0,0,0,1.785-1.445c.04-.042.063-.081.1-.121,3.4-3.175,9.767-10.994,7.586-23.732Z" transform="translate(784.573 539.515)"/>
    <path id="java-2" data-name="java" class="cls-4" d="M17.375,41.182s-2.035,1.185,1.45,1.584A30.353,30.353,0,0,0,29.851,42.3a19.315,19.315,0,0,0,2.932,1.433C22.357,48.2,9.19,43.468,17.376,41.18M16.1,35.352S13.82,37.04,17.3,37.4a43,43,0,0,0,14.23-.683,6.313,6.313,0,0,0,2.189,1.336c-12.6,3.686-26.642.288-17.622-2.7M26.84,25.46c2.569,2.957-.675,5.621-.675,5.621s6.522-3.368,3.525-7.584c-2.8-3.932-4.944-5.884,6.673-12.621,0,0-18.23,4.552-9.523,14.585M40.628,45.495s1.506,1.241-1.658,2.2c-6.017,1.824-25.046,2.371-30.33.074-1.9-.827,1.664-1.975,2.782-2.214a7.292,7.292,0,0,1,1.837-.207C11.146,43.857-.4,48.267,7.4,49.532c21.256,3.445,38.745-1.553,33.231-4.038M18.353,29.311s-9.679,2.3-3.426,3.133a72.929,72.929,0,0,0,12.8-.138c4.007-.337,8.028-1.059,8.028-1.059a16.879,16.879,0,0,0-2.436,1.3c-9.828,2.586-28.814,1.382-23.347-1.26a18.318,18.318,0,0,1,8.378-1.979m17.36,9.705c9.992-5.192,5.371-10.183,2.148-9.508a7.648,7.648,0,0,0-1.142.306,1.83,1.83,0,0,1,.855-.66c6.38-2.243,11.285,6.614-2.059,10.122a.878.878,0,0,0,.2-.262M29.689,0s5.534,5.534-5.248,14.045c-8.645,6.827-1.97,10.721,0,15.168-5.046-4.555-8.75-8.56-6.266-12.289C21.82,11.445,31.923,8.791,29.688,0M19.333,53.083c9.59.615,24.315-.339,24.665-4.877,0,0-.67,1.72-7.926,3.087a78.868,78.868,0,0,1-24.267.373s1.228,1.013,7.528,1.419" transform="translate(781.774 713.994)"/>
    <path id="c-2" data-name="c" class="cls-4" d="M25.535,13.824A5.9,5.9,0,0,0,19.6,8.747c-5.355-.137-8.1,3.7-8.1,9.195s3.039,9.882,8.247,9.882,5.79-5.49,5.79-5.49l9.984.549a10.891,10.891,0,0,1-3.591,8.742c-4.179,3.782-9.306,4.4-12.888,4.375s-8.547.051-13.35-4.454A16.418,16.418,0,0,1,.075,18.372c0-4.3.91-9.991,6.621-14.31A18.873,18.873,0,0,1,18.444.05C34.869.048,35.97,13.92,35.97,13.92Z" transform="translate(790.478 881.95)"/>
    <path id="Icon_simple-cplusplus" data-name="Icon simple-cplusplus" class="cls-4" d="M48.726,13.313a4.191,4.191,0,0,0-1.447-1.531L27.718.488a4.55,4.55,0,0,0-4.1,0L4.054,11.782a4.544,4.544,0,0,0-2.048,3.55V37.92a4.537,4.537,0,0,0,2.048,3.548l19.562,11.3a4.55,4.55,0,0,0,4.1,0l19.562-11.3a4.537,4.537,0,0,0,2.048-3.548V15.332a4.144,4.144,0,0,0-.6-2.019ZM25.665,42.4A15.774,15.774,0,1,1,39.325,18.734L32.5,22.686a7.887,7.887,0,1,0,0,7.884l6.827,3.95A15.832,15.832,0,0,1,25.665,42.4ZM41.439,27.5H39.686v1.753H37.933V27.5H36.181V25.75h1.753V24h1.753V25.75h1.753Zm6.572,0H46.259v1.753H44.506V27.5H42.755V25.75h1.751V24h1.753V25.75h1.753Z" transform="translate(1151.164 540)"/>
    <path id="csharp" class="cls-4" d="M26.5,0a26.5,26.5,0,1,0,26.5,26.5A26.5,26.5,0,0,0,26.5,0ZM20.818,15.725a12.258,12.258,0,0,1,4.385.839v2.609a9.939,9.939,0,0,0-4.969-1.25,7.6,7.6,0,0,0-5.8,2.4A9.054,9.054,0,0,0,12.2,26.743a8.614,8.614,0,0,0,2.086,6.082,7.1,7.1,0,0,0,5.482,2.259,10.286,10.286,0,0,0,5.442-1.4L25.2,36.069A12.243,12.243,0,0,1,19.4,37.3a9.3,9.3,0,0,1-7.129-2.865A10.587,10.587,0,0,1,9.6,26.9a11.089,11.089,0,0,1,3.014-8.089,10.229,10.229,0,0,1,7.671-3.074l.265-.009h.269Zm12.95.342h1.846l-1.227,5.857h3.669l1.252-5.857H41.1l-1.227,5.857,3.825-.009-.331,1.539H39.556l-.91,4.373h4.09l-.389,1.542H38.337l-1.281,5.8H35.223l1.252-5.8H32.83l-1.227,5.8H29.815l1.227-5.8H27.2l.29-1.542h3.861l.886-4.364H28.2l.3-1.539H32.54Zm.314,7.388-.953,4.373h3.7l.934-4.373Z" transform="translate(1150.5 713.994)"/>
    <path id="dot-net" class="cls-4" d="M12.836,11.349V46.813h4.149V21.176a36.4,36.4,0,0,0-.2-4.865h.157a11.789,11.789,0,0,0,1.127,2.219L36.3,46.816h5.095V11.349H37.255v24.94a37.53,37.53,0,0,0,.251,5.213h-.089q-.674-1.212-1.438-2.37L18.225,11.349Zm37.764,0V46.813H69.452l.019-3.892H54.841V30.63h12.8V26.892h-12.8V15.1H68.579V11.349Zm22.046,0V15.1H82.838v31.71h4.143V15.106H97.294V11.352Zm-70,30.41A2.608,2.608,0,0,0,.8,42.594,2.724,2.724,0,0,0,0,44.54a2.684,2.684,0,0,0,.8,1.946,2.627,2.627,0,0,0,1.946.814,2.684,2.684,0,0,0,1.946-.814A2.665,2.665,0,0,0,5.5,44.54a2.705,2.705,0,0,0-.814-1.946,2.665,2.665,0,0,0-1.946-.835Z" transform="translate(1128.355 870.651)"/>
    <path id="react-2" data-name="react" class="cls-4" d="M27.454,21.518a4.894,4.894,0,1,0,4.894,4.894A4.894,4.894,0,0,0,27.454,21.518ZM13.745,36.147l-1.08-.275C4.617,33.838,0,30.385,0,26.4s4.617-7.436,12.666-9.47l1.08-.271.305,1.071a53.834,53.834,0,0,0,3.119,8.186l.232.488-.232.488a53.322,53.322,0,0,0-3.119,8.186l-.305,1.069Zm-1.58-16.714C6.048,21.152,2.292,23.78,2.292,26.4s3.755,5.248,9.873,6.969a57.082,57.082,0,0,1,2.7-6.969,56.628,56.628,0,0,1-2.7-6.969Zm29,16.712-.305-1.074a53.436,53.436,0,0,0-3.121-8.183l-.232-.488.232-.488a53.582,53.582,0,0,0,3.121-8.186l.305-1.071,1.083.271c8.047,2.033,12.664,5.486,12.664,9.472s-4.617,7.436-12.664,9.47l-1.083.275ZM40.042,26.4a56.4,56.4,0,0,1,2.7,6.969c6.119-1.72,9.873-4.35,9.873-6.969s-3.755-5.248-9.873-6.969A56.711,56.711,0,0,1,40.042,26.4ZM12.149,19.423l-.305-1.069C9.582,10.378,10.268,4.663,13.727,2.668c3.392-1.958,8.84.354,14.548,6.214l.778.8-.778.8a53.884,53.884,0,0,0-5.541,6.787l-.31.441-.537.046a54.125,54.125,0,0,0-8.66,1.4l-1.08.271ZM16.486,4.254a3.193,3.193,0,0,0-1.612.4C12.6,5.96,12.2,10.518,13.764,16.668a57.475,57.475,0,0,1,7.4-1.147A56.845,56.845,0,0,1,25.854,9.7c-3.569-3.474-6.949-5.447-9.37-5.447ZM38.425,50.84h0c-3.261,0-7.448-2.454-11.792-6.917l-.778-.8.778-.8a53.834,53.834,0,0,0,5.538-6.79l.31-.441.535-.046a54.062,54.062,0,0,0,8.665-1.393l1.08-.271.307,1.071c2.257,7.971,1.574,13.687-1.885,15.681a5.445,5.445,0,0,1-2.758.7Zm-9.371-7.734c3.569,3.474,6.949,5.447,9.37,5.447h0a3.187,3.187,0,0,0,1.611-.4c2.274-1.31,2.678-5.871,1.11-12.02a57.24,57.24,0,0,1-7.4,1.147,56.45,56.45,0,0,1-4.693,5.822ZM42.76,19.423l-1.08-.271a53.716,53.716,0,0,0-8.665-1.4l-.535-.046-.31-.441a53.568,53.568,0,0,0-5.538-6.787l-.778-.8.778-.8C32.34,3.025,37.785.713,41.181,2.668c3.459,2,4.146,7.71,1.885,15.684l-.307,1.071Zm-9.014-3.9a57.073,57.073,0,0,1,7.4,1.147c1.569-6.15,1.165-10.707-1.11-12.019-2.26-1.306-6.51.7-10.982,5.052a56.85,56.85,0,0,1,4.693,5.82ZM16.486,50.84a5.445,5.445,0,0,1-2.759-.706c-3.459-1.992-4.146-7.709-1.882-15.681l.3-1.071,1.08.271a53.972,53.972,0,0,0,8.66,1.393l.537.046.307.441a53.984,53.984,0,0,0,5.541,6.79l.778.8-.778.8c-4.342,4.461-8.529,6.917-11.784,6.917Zm-2.723-14.7c-1.569,6.15-1.165,10.709,1.11,12.02,2.257,1.287,6.5-.7,10.982-5.052a57.193,57.193,0,0,1-4.695-5.822,57.142,57.142,0,0,1-7.4-1.147Zm13.691,1.437c-1.882,0-3.818-.082-5.756-.243l-.537-.046-.31-.441q-1.644-2.362-3.089-4.855t-2.668-5.1l-.229-.488.229-.488q1.227-2.6,2.668-5.1c.947-1.638,1.989-3.272,3.089-4.855l.31-.441.537-.046a68.145,68.145,0,0,1,11.516,0l.535.046.307.441a68.649,68.649,0,0,1,5.759,9.952l.232.488-.232.488a67.721,67.721,0,0,1-5.759,9.952l-.307.441-.535.046C31.277,37.491,29.338,37.573,27.454,37.573Zm-5.027-2.48a66.242,66.242,0,0,0,10.054,0A66.362,66.362,0,0,0,37.506,26.4a65.4,65.4,0,0,0-5.027-8.689,66.42,66.42,0,0,0-10.053,0A65.151,65.151,0,0,0,17.4,26.4a66.61,66.61,0,0,0,5.027,8.689Z" transform="translate(1485.777 538.014)"/>
    <path id="vue-dot-js" class="cls-4" d="M61.5,2.415H36.031l-5.279,9.1-5.279-9.1H0L30.752,55.667ZM30.752,34.371,13.223,4H24.576l6.176,10.712L36.928,4H48.28Z" transform="translate(1482.481 703.833)"/>
    <path id="angular-2" data-name="angular" class="cls-4" d="M21.3,30.314h9.058L25.825,19.426ZM25.825,2.25l-24.7,8.843,3.78,32.771L25.825,55.5l20.92-11.638,3.78-32.771ZM41.3,42.879H35.526l-3.114-7.773H19.264L16.15,42.879H10.36L25.825,8.133Z" transform="translate(1487.407 871.1)"/>
  </g>
</svg>
