<svg width="60" height="45" viewBox="0 0 60 45" fill="none" xmlns="http://www.w3.org/2000/svg">
<path d="M36.955 0C36.3775 0.05 35.775 0.0999998 35.1975 0.175C32.7335 0.449308 30.3369 1.15507 28.1175 2.26C25.8296 3.38 23.7497 4.88242 21.9675 6.7025C21.8925 6.8025 21.7425 6.8525 21.615 6.8275C20.3774 6.64352 19.1244 6.58489 17.875 6.6525C15.3265 6.77773 12.8312 7.42708 10.545 8.56C6.125 10.77 3.0125 14.21 1.205 18.83C0.54554 20.542 0.155898 22.346 0.05 24.1775C0.05 24.3025 0.025 24.4025 0 24.5025V26.435C0.05 26.9375 0.125 27.415 0.175 27.9175C0.425 29.95 1.005 31.9075 1.9325 33.7425C3.9925 37.8575 7.155 40.87 11.3975 42.7275C13.3349 43.5817 15.409 44.0837 17.5225 44.21C17.6025 44.21 17.6725 44.22 17.7375 44.235H39.1775C39.635 44.1925 40.0825 44.1475 40.545 44.085C42.9922 43.8103 45.3714 43.1044 47.5725 42C51.3316 40.1652 54.4925 37.3008 56.6875 33.74C58.1906 31.3911 59.1979 28.7597 59.6475 26.0075C59.7725 25.1575 59.8475 24.2775 59.95 23.4225C59.95 23.2975 59.975 23.1975 60 23.0975V21.1125C59.95 20.5375 59.875 19.9825 59.875 19.4575C59.6005 17.0094 58.8946 14.6294 57.79 12.4275C55.9281 8.67167 53.0488 5.51428 49.48 3.315C47.1433 1.82998 44.5313 0.830937 41.8 0.377499C40.895 0.227499 40.0175 0.1525 39.1125 0.0524998C38.9875 0.0524998 38.8875 0.0274998 38.7625 0.00249982L36.955 0ZM37.8775 4.2325C43.1925 4.245 47.7025 6.2975 51.365 10.37C53.4387 12.7225 54.835 15.5937 55.405 18.6775C55.78 20.5875 55.8575 22.545 55.58 24.4775C55.105 27.8425 53.825 30.8525 51.64 33.49C49.1011 36.6069 45.5771 38.767 41.6475 39.615C39.5456 40.0751 37.3789 40.1598 35.2475 39.865C32.51 39.515 30 38.6125 27.74 36.98C27.1404 36.551 26.5784 36.0718 26.06 35.5475C22.995 32.535 19.96 29.4975 16.895 26.485C16.1425 25.735 16.0925 24.905 16.445 24.15C16.6293 23.747 16.939 23.4143 17.3278 23.2017C17.7166 22.989 18.1637 22.9078 18.6025 22.97C19.1275 23.02 19.5325 23.3225 19.9075 23.7C22.67 26.485 25.4075 29.2225 28.1675 32.01C30.2397 34.1233 32.964 35.4761 35.9 35.85C40.77 36.5025 44.9125 34.9975 48.2 31.355C49.9825 29.3725 51.0625 26.9875 51.515 24.3275C52.165 20.36 51.24 16.795 48.7775 13.6575C46.595 10.87 43.7325 9.1375 40.2675 8.51C36.7275 7.885 33.39 8.56 30.3525 10.495C30.2775 10.545 30.1025 10.57 30.025 10.52C28.9207 9.70298 27.7441 8.98836 26.51 8.385C26.51 8.385 26.485 8.36 26.46 8.31C27.4242 7.50716 28.4769 6.81686 29.5975 6.2525C31.6373 5.14518 33.8864 4.47751 36.2 4.2925C36.7573 4.25035 37.3161 4.23033 37.875 4.2325H37.8775ZM18.865 10.89C22.5025 10.83 25.8425 12.2025 28.82 14.965C30.955 16.97 32.9125 19.055 34.97 21.14C35.5475 21.715 35.6725 22.445 35.3975 23.2225C35.1225 24 34.4925 24.3775 33.69 24.5025C33.3997 24.5421 33.1042 24.5104 32.829 24.4102C32.5537 24.31 32.3069 24.1444 32.11 23.9275C30.15 21.9675 28.1925 20.035 26.26 18.0525C24.6775 16.42 22.795 15.49 20.585 15.0875C15.69 14.21 10.745 17.0475 8.9875 21.69C6.7275 27.59 10.2925 34.2675 16.4425 35.675C17.6475 35.95 18.93 35.95 20.185 35.925C20.535 35.9 20.735 36.025 20.985 36.25C22.1925 37.4325 23.4725 38.6125 24.7275 39.79C24.8025 39.865 24.9025 39.94 24.9775 40.015C24.8275 40.015 24.7275 40.04 24.6275 40.04H18.8775C15.56 40.0393 12.3418 38.9075 9.75427 36.8313C7.16673 34.755 5.36447 31.8586 4.645 28.62C3.0125 21.265 7.23 13.8075 14.46 11.625C15.8862 11.173 17.3693 10.9255 18.865 10.89Z" fill="#F0F0F0"/>
</svg>
