<svg width="127" height="127" viewBox="0 0 127 127" fill="none" xmlns="http://www.w3.org/2000/svg">
<g filter="url(#filter0_d_1603_4844)">
<path d="M70.0233 116.19L60.8044 94.5284C69.684 91.2481 77.9979 86.8366 85.6898 81.6898L70.0233 116.19ZM27.6616 61.3856L6 52.1667L40.5002 36.5002C35.3534 44.192 30.9419 52.506 27.6616 61.3856ZM104.467 13.3115C106.051 13.3115 107.465 13.3115 108.652 13.5943C109.614 21.4559 108.539 37.6314 89.9882 56.1823C80.3734 65.8536 68.8922 73.2627 55.997 78.1832L43.8371 66.3061C49.0404 53.2413 56.4495 41.7601 66.0077 32.2018C81.6176 16.5919 95.5308 13.3115 104.467 13.3115ZM104.467 2C93.2685 2 76.3012 5.90248 57.9765 24.2272C45.5904 36.6133 38.1813 50.2437 33.3739 62.1774C31.7903 66.4192 32.8649 71.057 35.9756 74.2242L48.0224 86.2144C50.1716 88.3636 53.056 89.6644 56.0536 89.6644C57.3544 89.6644 58.7118 89.3251 60.0126 88.8161C74.2569 83.3849 87.1904 75.0003 97.9628 64.2135C129.974 32.2018 117.984 4.20575 117.984 4.20575C117.984 4.20575 112.837 2 104.467 2ZM77.9979 44.192C73.5864 39.7805 73.5864 32.5977 77.9979 28.1862C82.4094 23.7747 89.5923 23.7747 94.0038 28.1862C98.3587 32.5977 98.4153 39.7805 94.0038 44.192C89.5923 48.6035 82.4094 48.6035 77.9979 44.192ZM45.9863 84.1783L38.0117 76.2037L45.9863 84.1783ZM31.0551 115.115L51.6421 94.5284C49.7191 94.0194 47.8527 93.171 46.156 91.9833L23.0804 115.115H31.0551ZM7.0746 115.115H15.0492L42.0273 88.1939L33.9961 80.2193L7.0746 107.141V115.115ZM7.0746 99.1096L30.2067 76.034C29.019 74.3373 28.1706 72.5275 27.6616 70.5479L7.0746 91.1349V99.1096Z" fill="white"/>
</g>
<defs>
<filter id="filter0_d_1603_4844" x="0" y="0" width="126.184" height="126.191" filterUnits="userSpaceOnUse" color-interpolation-filters="sRGB">
<feFlood flood-opacity="0" result="BackgroundImageFix"/>
<feColorMatrix in="SourceAlpha" type="matrix" values="0 0 0 0 0 0 0 0 0 0 0 0 0 0 0 0 0 0 127 0" result="hardAlpha"/>
<feOffset dy="4"/>
<feGaussianBlur stdDeviation="3"/>
<feComposite in2="hardAlpha" operator="out"/>
<feColorMatrix type="matrix" values="0 0 0 0 0.219608 0 0 0 0 0.847059 0 0 0 0 0.8 0 0 0 0.66 0"/>
<feBlend mode="normal" in2="BackgroundImageFix" result="effect1_dropShadow_1603_4844"/>
<feBlend mode="normal" in="SourceGraphic" in2="effect1_dropShadow_1603_4844" result="shape"/>
</filter>
</defs>
</svg>
