<svg width="60" height="34" viewBox="0 0 60 34" fill="none" xmlns="http://www.w3.org/2000/svg">
<path d="M43.8075 25.2557C42.4298 25.2557 41.3092 24.1342 41.3092 22.7565C41.3092 21.3787 42.43 20.2582 43.8075 20.2582C45.1853 20.2582 46.3058 21.379 46.3058 22.7565C46.306 24.1342 45.1853 25.2557 43.8075 25.2557ZM16.1925 25.2557C14.8148 25.2557 13.6943 24.1342 13.6943 22.7565C13.6943 21.3787 14.8148 20.2582 16.1925 20.2582C17.5703 20.2582 18.6908 21.379 18.6908 22.7565C18.6908 24.1342 17.57 25.2557 16.1925 25.2557ZM44.7038 10.2057L49.697 1.55774C49.8344 1.31907 49.8716 1.03563 49.8003 0.769614C49.729 0.503595 49.5551 0.276712 49.3167 0.138737C49.0781 0.00131743 48.7946 -0.0358232 48.5286 0.035462C48.2626 0.106747 48.0357 0.280638 47.8978 0.518987L42.842 9.27649C38.9755 7.51199 34.6333 6.52924 30 6.52924C25.3668 6.52924 21.0245 7.51199 17.1582 9.27649L12.1025 0.518987C11.9645 0.28062 11.7375 0.106725 11.4715 0.0354417C11.2054 -0.0358418 10.922 0.00130561 10.6833 0.138737C10.4447 0.276571 10.2707 0.503456 10.1994 0.769534C10.1281 1.03561 10.1654 1.31911 10.303 1.55774L15.2963 10.2057C6.72225 14.869 0.858 23.5495 0 33.8047H60C59.1413 23.5495 53.277 14.869 44.7038 10.2057Z" fill="#F0F0F0"/>
</svg>
