<svg width="41" height="41" viewBox="0 0 41 41" fill="none" xmlns="http://www.w3.org/2000/svg">
<rect x="0.5" y="0.5" width="40" height="39.9995" rx="7.5" stroke="#38D8CC"/>
<path d="M14.7006 30.9995H10.3469V16.9792H14.7006V30.9995ZM12.5214 15.0667C11.1292 15.0667 10 13.9136 10 12.5214C10 11.8527 10.2656 11.2114 10.7385 10.7385C11.2114 10.2656 11.8527 10 12.5214 10C13.1901 10 13.8315 10.2656 14.3043 10.7385C14.7772 11.2114 15.0428 11.8527 15.0428 12.5214C15.0428 13.9136 13.9131 15.0667 12.5214 15.0667ZM30.9953 30.9995H26.6509V24.1745C26.6509 22.548 26.6181 20.462 24.3873 20.462C22.1237 20.462 21.7769 22.2292 21.7769 24.0573V30.9995H17.4278V16.9792H21.6034V18.8917H21.6644C22.2456 17.7902 23.6655 16.6277 25.7838 16.6277C30.19 16.6277 31 19.5292 31 23.298V30.9995H30.9953Z" fill="#38D8CC"/>
</svg>
