<svg width="44" height="42" viewBox="0 0 44 42" fill="none" xmlns="http://www.w3.org/2000/svg">
<path d="M39.8204 0H3.17488C1.41946 0 0 1.32589 0 2.96518V38.1696C0 39.8089 1.41946 41.1429 3.17488 41.1429H39.8204C41.5759 41.1429 43.0037 39.8089 43.0037 38.1777V2.96518C43.0037 1.32589 41.5759 0 39.8204 0ZM12.7583 35.0598H6.37497V15.4205H12.7583V35.0598ZM9.56665 12.7446C7.51725 12.7446 5.86262 11.1616 5.86262 9.20893C5.86262 7.25625 7.51725 5.67321 9.56665 5.67321C11.6076 5.67321 13.2623 7.25625 13.2623 9.20893C13.2623 11.1536 11.6076 12.7446 9.56665 12.7446ZM36.6455 35.0598H30.2706V25.5134C30.2706 23.2393 30.2286 20.3062 26.9529 20.3062C23.6352 20.3062 23.1313 22.7893 23.1313 25.3527V35.0598H16.7647V15.4205H22.8793V18.1045H22.9633C23.8116 16.5616 25.8946 14.9304 28.9939 14.9304C35.4529 14.9304 36.6455 18.9964 36.6455 24.2839V35.0598Z" fill="white" fill-opacity="0.5"/>
</svg>
