<svg width="60" height="33" viewBox="0 0 60 33" fill="none" xmlns="http://www.w3.org/2000/svg">
<path d="M39.0024 0.00309621C34.2274 0.0905966 29.0499 2.27811 24.9273 6.40313C17.6023 13.7282 19.7198 27.7282 22.2073 30.2157C24.2198 32.2257 38.6949 34.8233 46.0224 27.4957C46.5328 26.9819 47.0199 26.4455 47.4824 25.8882C47.5899 25.1582 47.9949 24.2382 48.7049 23.1232C48.2826 23.3378 47.8299 23.4862 47.3624 23.5632C47.0024 24.2257 46.4374 24.9382 45.6724 25.7007C44.7874 26.5382 44.1549 27.0857 43.7724 27.3407C43.454 27.5729 43.0737 27.7052 42.6799 27.7207C41.8049 27.7207 41.3949 26.9507 41.4449 25.4107C40.8949 26.2007 40.3824 26.7832 39.9149 27.1607C39.5132 27.51 39.0021 27.7081 38.4699 27.7207C37.9849 27.7207 37.5699 27.4957 37.2299 27.0382C36.9587 26.6664 36.7921 26.2287 36.7474 25.7707C36.2009 26.3253 35.5918 26.8144 34.9324 27.2282C34.3724 27.5582 33.7574 27.7207 33.0824 27.7207C32.3324 27.7207 31.7249 27.4807 31.2649 27.0007C30.9224 26.6396 30.6982 26.1826 30.6224 25.6907V25.7007C29.8724 26.3907 29.2124 26.9007 28.6473 27.2282C28.1599 27.5336 27.5998 27.7036 27.0248 27.7207C26.7494 27.7279 26.4762 27.6693 26.2279 27.5497C25.9796 27.4302 25.7635 27.2531 25.5973 27.0332C25.2348 26.5757 25.0523 25.9582 25.0523 25.1857C25.0523 24.0257 25.3048 22.6357 25.8073 21.0107C26.3098 19.3857 26.9198 17.8857 27.6398 16.5182L29.7449 15.7382C29.793 15.72 29.8435 15.7091 29.8949 15.7057C30.0524 15.7057 30.1849 15.8232 30.2874 16.0557C30.3874 16.2932 30.4399 16.6082 30.4399 17.0057C30.4399 18.1332 30.1799 19.2257 29.6599 20.2807C29.1424 21.3357 28.3298 22.4632 27.2248 23.6607C27.1798 24.2357 27.1573 24.6307 27.1573 24.8457C27.1573 25.3282 27.2473 25.7082 27.4223 25.9907C27.5998 26.2732 27.8348 26.4132 28.1273 26.4132C28.4704 26.3995 28.8021 26.2866 29.0824 26.0882C29.4124 25.8782 29.9149 25.4382 30.5874 24.7807C30.6574 23.7357 31.0549 22.7857 31.7924 21.9257C32.6024 20.9757 33.5049 20.5032 34.4924 20.5032C35.0074 20.5032 35.4174 20.6382 35.7274 20.9032C35.8785 21.0306 35.9989 21.1906 36.0794 21.3711C36.1599 21.5517 36.1986 21.7481 36.1924 21.9457C36.1924 23.0907 34.9774 24.0182 32.5449 24.7307C32.7649 25.8057 33.3449 26.3457 34.2774 26.3457C34.645 26.345 35.0055 26.2439 35.3199 26.0532C35.6424 25.8632 36.1224 25.4457 36.7574 24.8107C36.8374 24.1807 37.0524 23.5732 37.4049 22.9907C37.8599 22.2407 38.4449 21.6307 39.1574 21.1657C39.8699 20.7032 40.4999 20.4707 41.0474 20.4707C41.7374 20.4707 42.2224 20.7882 42.4974 21.4232L44.1899 20.4882H44.6549L43.9249 22.9157C43.5499 24.1357 43.3599 24.9732 43.3599 25.4257C43.3599 25.9007 43.5274 26.1382 43.8649 26.1382C44.0799 26.1382 44.3174 26.0257 44.5774 25.7957C44.8374 25.5657 45.2024 25.2157 45.6699 24.7457V24.7482C46.0274 24.3607 46.3549 23.9482 46.6499 23.5132C46.1749 23.3032 45.9374 22.9882 45.9374 22.5757C45.9374 22.1507 46.0824 21.6957 46.3724 21.2132C46.6624 20.7282 47.0599 20.4882 47.5699 20.4882C47.9999 20.4882 48.2149 20.7082 48.2149 21.1507C48.2149 21.4982 48.0899 21.9957 47.8424 22.6407C48.7599 22.5407 49.5599 21.8407 50.245 20.5357L50.815 20.5107C53.4625 14.4157 52.885 7.82313 48.7399 3.68061C46.1924 1.1306 42.7199 -0.0694041 39.0024 0.00309621ZM50.815 20.5107C49.9648 22.4522 48.8427 24.2628 47.4824 25.8882C47.4642 26.0099 47.4541 26.1327 47.4524 26.2557C47.4524 26.6757 47.5699 27.0282 47.8024 27.3132C48.0324 27.5957 48.3174 27.7382 48.6524 27.7382C49.3925 27.7382 50.4375 27.0782 51.7875 25.7707C51.785 25.8707 51.78 25.9707 51.78 26.0732C51.78 26.4382 51.81 26.9932 51.87 27.7382L53.7025 27.3082C53.7025 26.8082 53.71 26.4157 53.7275 26.1232C53.7525 25.7307 53.81 25.2982 53.8925 24.8307C53.9425 24.5557 54.0675 24.2907 54.2725 24.0432L54.7375 23.5032C55.0351 23.1562 55.3505 22.8249 55.6825 22.5107C55.8375 22.3732 55.9725 22.2632 56.0875 22.1857C56.1785 22.1217 56.2843 22.0821 56.395 22.0707C56.5325 22.0707 56.6025 22.1582 56.6025 22.3357C56.6025 22.5107 56.4725 22.9257 56.2125 23.5782C55.7275 24.7932 55.4825 25.6982 55.4825 26.2882C55.4825 26.7257 55.5975 27.0732 55.8225 27.3332C55.933 27.4608 56.0709 27.5619 56.2258 27.629C56.3807 27.6961 56.5488 27.7274 56.7175 27.7207C57.63 27.7207 58.725 27.0482 60 25.7007V24.7482C59.0975 25.8132 58.4425 26.3482 58.04 26.3482C57.7675 26.3482 57.6325 26.1807 57.6325 25.8482C57.6325 25.5982 57.795 25.0582 58.12 24.2232C58.595 23.0082 58.8325 22.1332 58.8325 21.6032C58.8428 21.3116 58.7428 21.0269 58.5525 20.8057C58.466 20.7037 58.3578 20.6223 58.2358 20.5674C58.1139 20.5125 57.9812 20.4854 57.8475 20.4882C57.435 20.4882 56.9625 20.6807 56.43 21.0707C55.8975 21.4607 55.18 22.1607 54.2725 23.1707C54.405 22.5157 54.685 21.6157 55.11 20.4707L53.0875 20.8607C52.6771 21.7248 52.3433 22.6232 52.09 23.5457C51.99 23.9357 51.915 24.3357 51.86 24.7457C51.4686 25.1388 51.0598 25.5142 50.635 25.8707C50.4711 25.9981 50.27 26.0684 50.0625 26.0707C49.9788 26.0741 49.8956 26.0572 49.8198 26.0215C49.7441 25.9858 49.6781 25.9324 49.6274 25.8657C49.5132 25.704 49.4568 25.5085 49.4675 25.3107C49.4675 25.0607 49.5149 24.7757 49.6075 24.4532C49.7025 24.1282 49.9074 23.5207 50.2299 22.6257L51 20.5032L50.815 20.5107ZM7.78975 13.1932C5.63223 13.1532 3.61472 13.8507 2.13722 15.3282C-1.2428 18.7082 -0.537796 24.8957 3.71473 29.1457C7.96475 33.3983 16.0898 32.1708 17.5323 30.7257C18.6998 29.5607 20.2073 21.1582 15.9548 16.9082C13.5623 14.5157 10.5598 13.2457 7.78725 13.1932H7.78975ZM38.5024 14.0882H38.9174V14.6132H38.4999L38.5024 14.0882ZM39.5699 14.0882H39.9849V16.2507L41.1349 15.1132H41.6224L40.7124 16.0182L41.7824 17.7282H41.2874L40.3949 16.2907L39.9849 16.7057V17.7307H39.5699V14.0882ZM42.1099 14.0882H42.5249V14.6132H42.1099V14.0882ZM43.3124 14.3932H43.7274V15.1132H44.1574V15.4507H43.7274V17.2432C43.7274 17.3357 43.7424 17.3982 43.7774 17.4307C43.8074 17.4632 43.8699 17.4807 43.9624 17.4807C44.0284 17.4836 44.0943 17.4751 44.1574 17.4557V17.8082C44.0453 17.8295 43.9315 17.8412 43.8174 17.8432C43.6837 17.8521 43.5511 17.8141 43.4424 17.7357C43.3985 17.6979 43.3639 17.6505 43.3413 17.5972C43.3188 17.5438 43.3089 17.486 43.3124 17.4282V15.4532H42.9599V15.1132H43.3124V14.3932ZM34.4074 15.0382C34.6099 15.0382 34.7824 15.0682 34.9249 15.1332C35.0674 15.1932 35.1749 15.2857 35.2499 15.4082C35.3249 15.5307 35.3624 15.6732 35.3624 15.8407H34.9224C34.9074 15.5632 34.7349 15.4232 34.4024 15.4232C34.2585 15.4151 34.1155 15.4508 33.9924 15.5257C33.9443 15.5574 33.9053 15.601 33.879 15.6523C33.8528 15.7035 33.8401 15.7606 33.8424 15.8182C33.8424 15.9057 33.8799 15.9807 33.9549 16.0382C34.0299 16.0982 34.1549 16.1482 34.3299 16.1882L34.7299 16.2857C34.9366 16.3216 35.13 16.4122 35.2899 16.5482C35.4074 16.6632 35.4649 16.8182 35.4649 17.0132C35.4681 17.169 35.4226 17.3219 35.3349 17.4507C35.2399 17.583 35.1076 17.684 34.9549 17.7407C34.7752 17.8118 34.5831 17.8467 34.3899 17.8432C34.0499 17.8432 33.7899 17.7682 33.6174 17.6232C33.4449 17.4757 33.3549 17.2507 33.3449 16.9507H33.7849C33.7949 17.0432 33.8099 17.1132 33.8274 17.1607C33.8467 17.2108 33.8756 17.2566 33.9124 17.2957C34.0224 17.4032 34.1924 17.4582 34.4224 17.4582C34.5778 17.466 34.732 17.4268 34.8649 17.3457C34.916 17.3147 34.9583 17.271 34.9877 17.2189C35.017 17.1668 35.0324 17.108 35.0324 17.0482C35.0339 17.006 35.0261 16.964 35.0097 16.9252C34.9933 16.8863 34.9686 16.8515 34.9374 16.8232C34.8465 16.7532 34.7402 16.7061 34.6274 16.6857L34.2374 16.5907C34.1022 16.5579 33.9694 16.5162 33.8399 16.4657C33.7505 16.4284 33.6678 16.3769 33.5949 16.3132C33.5311 16.2562 33.4814 16.1852 33.4499 16.1057C33.4212 16.0186 33.4076 15.9273 33.4099 15.8357C33.4099 15.5957 33.4999 15.4007 33.6824 15.2557C33.8917 15.1016 34.1478 15.0248 34.4074 15.0382ZM36.9949 15.0382C37.1692 15.0353 37.3419 15.072 37.4999 15.1457C37.6103 15.1968 37.7089 15.2703 37.7894 15.3615C37.8698 15.4528 37.9305 15.5597 37.9674 15.6757C37.9982 15.7782 38.0175 15.8839 38.0249 15.9907H37.6049C37.5946 15.8312 37.525 15.6814 37.4099 15.5707C37.2928 15.4678 37.1406 15.4141 36.9849 15.4207C36.8453 15.4175 36.7088 15.4616 36.5974 15.5457C36.4807 15.6387 36.3938 15.7639 36.3474 15.9057C36.2871 16.0861 36.2583 16.2755 36.2624 16.4657C36.2577 16.6479 36.2873 16.8294 36.3499 17.0007C36.3999 17.1351 36.4876 17.2522 36.6024 17.3382C36.7169 17.4194 36.8546 17.4614 36.9949 17.4582C37.3499 17.4582 37.5624 17.2482 37.6349 16.8282H38.0524C38.0399 17.0213 37.9844 17.2093 37.8899 17.3782C37.8046 17.5264 37.6777 17.6463 37.5249 17.7232C37.3572 17.8061 37.1719 17.8473 36.9849 17.8432C36.7682 17.8488 36.5546 17.7915 36.3699 17.6782C36.1921 17.5605 36.0523 17.3937 35.9674 17.1982C35.868 16.967 35.8194 16.7172 35.8249 16.4657C35.8249 16.2532 35.8499 16.0582 35.9049 15.8832C35.9532 15.7173 36.0339 15.5626 36.1424 15.4282C36.2423 15.3021 36.3708 15.2018 36.5174 15.1357C36.6674 15.068 36.8303 15.0339 36.9949 15.0357V15.0382ZM38.5024 15.1132H38.9174V17.7282H38.4999L38.5024 15.1132ZM42.1099 15.1132H42.5249V17.7282H42.1099V15.1132ZM29.4849 16.6582C29.2849 16.6582 28.9848 17.1682 28.5948 18.1857C28.2073 19.2032 27.8248 20.6282 27.4473 22.4607C28.1498 21.6807 28.7198 20.8057 29.1549 19.8357C29.5924 18.8682 29.8099 18.0357 29.8099 17.3382C29.8168 17.1694 29.7861 17.0011 29.7199 16.8457C29.6574 16.7207 29.5799 16.6582 29.4874 16.6582H29.4849ZM41.1399 21.1507C40.5874 21.1507 40.0624 21.6207 39.5674 22.5582C39.0749 23.4982 38.8274 24.3632 38.8274 25.1532C38.8274 25.4532 38.8999 25.6932 39.0474 25.8782C39.1117 25.9654 39.1957 26.036 39.2927 26.0843C39.3896 26.1325 39.4966 26.157 39.6049 26.1557C40.1574 26.1557 40.6799 25.6857 41.1674 24.7432C41.6574 23.8007 41.9024 22.9307 41.9024 22.1357C41.9173 21.8775 41.8441 21.6219 41.6949 21.4107C41.6296 21.3265 41.5452 21.259 41.4487 21.2138C41.3523 21.1686 41.2464 21.147 41.1399 21.1507ZM34.0199 21.1682C33.6549 21.1682 33.3074 21.4432 32.9774 22.0007C32.6449 22.5557 32.4774 23.2757 32.4774 24.1657C33.8924 23.7682 34.5999 23.0357 34.5999 21.9632C34.5999 21.4332 34.4074 21.1682 34.0199 21.1682Z" fill="#F0F0F0"/>
</svg>
