<svg width="115" height="96" viewBox="0 0 115 96" fill="none" xmlns="http://www.w3.org/2000/svg">
<g filter="url(#filter0_d_1761_6348)">
<path d="M70.7071 36.3392C70.7071 43.7439 64.8119 49.6813 57.4595 49.6813C50.1072 49.6813 44.2117 43.7439 44.2117 36.3392C44.2117 28.9317 50.1072 23 57.4595 23C64.8119 23 70.7071 28.9317 70.7071 36.3392Z" stroke="#38D8CC" stroke-width="3.46901"/>
<path d="M57.4595 73.4217C46.6606 73.4217 37.4399 71.7075 37.4399 64.8506C37.4399 57.9908 46.6015 56.2141 57.4595 56.2141C68.2584 56.2141 77.4791 57.9284 77.4791 64.7881C77.4791 71.6451 68.3175 73.4217 57.4595 73.4217Z" stroke="#38D8CC" stroke-width="3.46901"/>
<path d="M76.3684 36.5799C76.3684 40.3546 75.2438 43.8711 73.2712 46.7944C73.0683 47.0952 73.2487 47.501 73.6066 47.5635C74.0997 47.6486 74.61 47.6969 75.1285 47.7111C80.2997 47.8473 84.941 44.4955 86.2232 39.4493C88.1226 31.9538 82.5455 25.2245 75.444 25.2245C74.6718 25.2245 73.9335 25.3068 73.2149 25.4544C73.1162 25.4771 73.0121 25.5225 72.9557 25.6105C72.8881 25.7184 72.9387 25.8631 73.0063 25.9568C75.1396 28.968 76.3684 32.6406 76.3684 36.5799Z" stroke="#38D8CC" stroke-width="3.46901"/>
<path d="M84.9325 52.9775C88.4072 53.6615 90.6927 55.0579 91.6395 57.0871C92.4399 58.7531 92.4399 60.6859 91.6395 62.349C90.191 65.4965 85.5214 66.5069 83.7066 66.768C83.3318 66.8248 83.0302 66.4984 83.0697 66.1209C83.9968 57.3993 76.6222 53.2642 74.7144 52.3134C74.6326 52.2708 74.6155 52.2055 74.6239 52.1658C74.6296 52.1374 74.6634 52.092 74.7254 52.0835C78.8538 52.0069 83.2924 52.5745 84.9325 52.9775Z" stroke="#38D8CC" stroke-width="3.46901"/>
<path d="M40.1119 47.7108C40.6304 47.6966 41.1379 47.6512 41.6338 47.5632C41.9917 47.5007 42.1719 47.0949 41.969 46.7941C39.9964 43.8708 38.872 40.3544 38.872 36.5796C38.872 32.6403 40.1006 28.9677 42.2339 25.9565C42.3015 25.8628 42.3493 25.7181 42.2845 25.6102C42.2281 25.5251 42.1211 25.4768 42.0253 25.4541C41.3039 25.3065 40.5656 25.2242 39.7935 25.2242C32.6919 25.2242 27.115 31.9535 29.0172 39.449C30.2994 44.4952 34.9408 47.847 40.1119 47.7108Z" stroke="#38D8CC" stroke-width="3.46901"/>
<path d="M40.6148 52.1641C40.6232 52.2067 40.6065 52.2691 40.5275 52.3145C38.6169 53.2653 31.2419 57.4005 32.169 66.1192C32.2085 66.4995 31.9099 66.8231 31.5351 66.7691C29.7203 66.508 25.0509 65.4977 23.6024 62.3502C22.7992 60.6842 22.7992 58.7543 23.6024 57.0883C24.5492 55.059 26.8317 53.6626 30.3064 52.9758C31.9494 52.5756 36.385 52.008 40.5163 52.0846C40.5783 52.0931 40.6091 52.1386 40.6148 52.1641Z" stroke="#38D8CC" stroke-width="3.46901"/>
</g>
<defs>
<filter id="filter0_d_1761_6348" x="0.451569" y="0.451569" width="114.337" height="95.5187" filterUnits="userSpaceOnUse" color-interpolation-filters="sRGB">
<feFlood flood-opacity="0" result="BackgroundImageFix"/>
<feColorMatrix in="SourceAlpha" type="matrix" values="0 0 0 0 0 0 0 0 0 0 0 0 0 0 0 0 0 0 127 0" result="hardAlpha"/>
<feOffset/>
<feGaussianBlur stdDeviation="10.407"/>
<feColorMatrix type="matrix" values="0 0 0 0 0.219608 0 0 0 0 0.847059 0 0 0 0 0.8 0 0 0 1 0"/>
<feBlend mode="normal" in2="BackgroundImageFix" result="effect1_dropShadow_1761_6348"/>
<feBlend mode="normal" in="SourceGraphic" in2="effect1_dropShadow_1761_6348" result="shape"/>
</filter>
</defs>
</svg>
