<svg width="33" height="33" viewBox="0 0 33 33" fill="none" xmlns="http://www.w3.org/2000/svg">
<path d="M28.9155 15.6189H32.3173C32.3173 6.89328 25.7297 0.3125 16.9922 0.3125V3.7143C23.9012 3.7143 28.9155 8.72005 28.9155 15.6189Z" fill="#38D8CC"/>
<path d="M17.0095 10.5135C20.5865 10.5135 22.1122 12.0392 22.1122 15.6162H25.514C25.514 10.1308 22.4949 7.11173 17.0095 7.11173V10.5135ZM22.83 19.7715C22.5031 19.4745 22.0736 19.316 21.6322 19.3297C21.1907 19.3433 20.7719 19.528 20.464 19.8447L16.3938 24.0306C15.414 23.8435 13.4444 23.2295 11.4169 21.2071C9.38945 19.1779 8.77542 17.2032 8.59343 16.2303L12.7759 12.1583C13.093 11.8507 13.2779 11.4317 13.2916 10.9901C13.3052 10.5486 13.1465 10.119 12.8491 9.79235L6.56425 2.88159C6.26667 2.55392 5.85307 2.35517 5.4113 2.32754C4.96953 2.29991 4.5344 2.44558 4.1983 2.73361L0.507348 5.89899C0.213281 6.19412 0.0377626 6.58692 0.0140868 7.00287C-0.0114267 7.4281 -0.497884 17.5008 7.31265 25.3148C14.1265 32.1269 22.6616 32.6252 25.0122 32.6252C25.3558 32.6252 25.5667 32.615 25.6228 32.6116C26.0387 32.5883 26.4313 32.412 26.725 32.1167L29.8887 28.424C30.1769 28.0881 30.3229 27.6531 30.2956 27.2114C30.2683 26.7696 30.0698 26.3559 29.7424 26.0581L22.83 19.7715Z" fill="#38D8CC"/>
</svg>
