<svg width="60" height="60" viewBox="0 0 60 60" fill="none" xmlns="http://www.w3.org/2000/svg">
<path d="M30 2.23589e-05C13.4525 -0.0199776 0.02 13.38 0 29.9275V30C0 46.6 13.3975 60 30 60C46.6 60 60 46.6 60 30C60 13.3975 46.6 2.23589e-05 30 2.23589e-05ZM30 52.0025C17.885 52.04 8.035 42.2425 7.9975 30.1275V30C7.9625 17.885 17.7575 8.03502 29.8725 7.99752H30C42.1175 7.96252 51.965 17.7575 52.0025 29.8725V30C52.04 42.1175 42.2425 51.965 30.1275 52.0025H30ZM43.6 22.6025C43.6 26 40.8 28.8 37.3975 28.8C33.9825 28.7825 31.2175 26.0175 31.2 22.6025C31.2 19.2 34 16.4 37.3975 16.4C40.8 16.4 43.6 19.2 43.6 22.6025ZM43.6 37.4C43.6 40.8 40.8 43.6 37.3975 43.6C33.98 43.58 31.215 40.815 31.2 37.4C31.2 34.0025 34 31.2025 37.3975 31.2025C40.8 31.2 43.6 34.0025 43.6 37.4ZM28.8025 37.4C28.8025 40.8 26.0025 43.6 22.605 43.6C19.185 43.5825 16.4175 40.8175 16.4025 37.4C16.4025 34.0025 19.2025 31.2025 22.605 31.2025C26 31.2 28.8025 34.0025 28.8025 37.4ZM28.8025 22.6025C28.8025 26 26.0025 28.8 22.605 28.8C19.1875 28.7825 16.4175 26.02 16.4025 22.6025C16.4025 19.2 19.2025 16.4 22.605 16.4C26 16.4 28.8025 19.2 28.8025 22.6025Z" fill="#F0F0F0"/>
</svg>
