<svg width="44" height="35" viewBox="0 0 44 35" fill="none" xmlns="http://www.w3.org/2000/svg">
<path d="M14.1233 34.1437C30.3471 34.1437 39.2233 21.2809 39.2233 10.1297C39.2233 9.76813 39.2149 9.39849 39.1981 9.03688C40.9248 7.8422 42.4149 6.36242 43.5984 4.66706C41.9903 5.35158 40.2829 5.79863 38.5346 5.99296C40.3755 4.93725 41.7538 3.27879 42.4142 1.32501C40.6823 2.30694 38.7884 2.9996 36.8136 3.37331C35.483 2.02066 33.7237 1.12504 31.8077 0.824924C29.8917 0.524813 27.9257 0.836923 26.2137 1.713C24.5017 2.58908 23.1391 3.98033 22.3364 5.67166C21.5338 7.36298 21.3358 9.26018 21.7732 11.0699C18.2666 10.9016 14.836 10.03 11.704 8.51186C8.57196 6.99368 5.80838 4.86273 3.59239 2.25715C2.4661 4.11497 2.12146 6.31337 2.6285 8.40556C3.13554 10.4978 4.45621 12.3267 6.32212 13.5208C4.92131 13.4783 3.55119 13.1174 2.32495 12.4681V12.5726C2.3237 14.5222 3.0282 16.4121 4.31869 17.921C5.60918 19.4299 7.40602 20.4647 9.40377 20.8494C8.10614 21.1891 6.74423 21.2385 5.42341 20.994C5.98713 22.6707 7.08394 24.1372 8.56075 25.1888C10.0376 26.2404 11.8207 26.8247 13.6613 26.8601C10.5365 29.2085 6.67648 30.4822 2.70292 30.4762C1.99824 30.4751 1.29425 30.4338 0.594727 30.3524C4.63144 32.8301 9.32722 34.1461 14.1233 34.1437Z" fill="white"/>
</svg>
