<svg width="60" height="60" viewBox="0 0 60 60" fill="none" xmlns="http://www.w3.org/2000/svg">
<path d="M0.65941 5.38445e-05C0.558708 0.00164641 0.45966 0.0259211 0.369634 0.0710726C0.279607 0.116224 0.200918 0.181091 0.139418 0.260848C0.0779188 0.340605 0.0351912 0.433201 0.0144133 0.531749C-0.00636462 0.630297 -0.00465821 0.732262 0.0194056 0.830059L7.25445 30.1202C7.2602 30.1542 7.26856 30.1876 7.27945 30.2202L14.5045 59.4904C14.5327 59.6049 14.5907 59.71 14.6725 59.7949C14.7544 59.8798 14.8572 59.9416 14.9706 59.9741C15.0839 60.0066 15.2039 60.0085 15.3183 59.9798C15.4327 59.9511 15.5374 59.8926 15.622 59.8104L59.2148 17.8752C59.2991 17.7935 59.3605 17.6911 59.3929 17.5782C59.4252 17.4653 59.4273 17.3459 59.3989 17.232C59.3705 17.1181 59.3127 17.0136 59.2313 16.929C59.1498 16.8444 59.0476 16.7828 58.9348 16.7502L44.4747 12.5826C44.3807 12.5291 44.2752 12.4991 44.1672 12.4951L15.6595 4.28758C15.5514 4.22079 15.4266 4.1861 15.2995 4.18758L0.849411 0.025054C0.787602 0.00765932 0.723614 -0.000760173 0.65941 5.38445e-05ZM1.59442 1.63506L13.9845 5.20009L4.68443 14.1601L1.59442 1.63506ZM16.2345 5.85009L28.3946 9.35011L19.2695 18.1377L16.2345 5.85009ZM14.9295 6.15009L17.972 18.4652L5.77944 14.9651L14.9295 6.15009ZM30.6296 9.99512L42.8247 13.5051L33.6696 22.3302L30.6296 9.99512ZM29.3296 10.3201L32.3496 22.5702L20.217 19.0902L29.3296 10.3201ZM45.0797 14.1551L57.4473 17.7152L48.1597 26.6502L45.0797 14.1551ZM43.7697 14.4551L46.8072 26.7702L34.6171 23.2752L43.7697 14.4551ZM5.18944 16.1952L17.5995 19.7552L8.28446 28.7202L5.18944 16.1952ZM19.827 20.3752L32.0196 23.8752L22.8695 32.6928L19.827 20.3752ZM18.532 20.7177L21.622 33.2603L9.21446 29.6802L18.532 20.7177ZM34.2171 24.5552L46.6297 28.1177L37.3046 37.0828L34.2171 24.5552ZM32.9171 24.8727L36.0046 37.4028L23.6096 33.8278L32.9171 24.8727ZM8.84196 30.9678L21.0245 34.4828L11.8845 43.2903L8.84196 30.9678ZM23.4771 35.1853L35.6346 38.6928L26.5146 47.4679L23.4771 35.1853ZM22.127 35.2853L25.1621 47.6029L12.9745 44.1028L22.127 35.2853ZM12.387 45.3353L24.9796 48.9404L15.5245 58.0354L12.387 45.3353Z" fill="#F0F0F0"/>
</svg>
