<svg width="30" height="30" viewBox="0 0 30 30" fill="none" xmlns="http://www.w3.org/2000/svg">
<path d="M29.7208 0.27734C29.853 0.409792 29.9434 0.57818 29.9808 0.761585C30.0181 0.94499 30.0008 1.13533 29.9309 1.30896L18.8156 29.0996C18.7177 29.3444 18.5541 29.5574 18.3429 29.7151C18.1318 29.8729 17.8811 29.9693 17.6187 29.9938C17.3562 30.0183 17.0921 29.9699 16.8554 29.8539C16.6187 29.738 16.4186 29.5589 16.277 29.3365L10.2065 19.7941L0.665223 13.7228C0.442341 13.5814 0.26285 13.3811 0.146555 13.1442C0.0302611 12.9072 -0.0183152 12.6427 0.00618685 12.3799C0.0306888 12.117 0.127317 11.8661 0.285407 11.6547C0.443498 11.4433 0.656907 11.2797 0.902084 11.1819L28.6893 0.0691055C28.8629 -0.000791931 29.0532 -0.0181379 29.2366 0.0192224C29.42 0.0565826 29.5883 0.147003 29.7208 0.27925V0.27734ZM12.1129 19.2362L17.3868 27.5236L26.4277 4.91963L12.1129 19.2362ZM25.0772 3.56897L2.47606 12.6109L10.7643 17.8837L25.0791 3.56897H25.0772Z" fill="black"/>
</svg>
