<svg width="176" height="133" viewBox="0 0 176 133" fill="none" xmlns="http://www.w3.org/2000/svg">
<path opacity="0.15" d="M175.548 25.9566C161.695 28.9974 151.221 33.8966 144.125 40.6541C137.368 47.4116 134.327 54.6759 135.003 62.447C156.964 65.8258 167.945 77.6514 167.945 97.9238C167.945 108.736 164.567 117.183 157.809 123.264C151.052 129.346 141.591 132.387 129.428 132.387C104.087 132.387 91.4168 118.196 91.4168 89.8149C91.4168 68.1909 97.1607 48.932 108.648 32.0383C120.136 15.1446 140.071 4.67048 168.452 0.616003L175.548 25.9566ZM0.190728 89.8149C0.190728 68.1909 5.93459 48.932 17.4223 32.0383C28.9101 15.1446 48.8447 4.67048 77.2261 0.616003L84.8283 25.9566C70.6376 28.6596 60.1635 33.5588 53.406 40.6541C46.6485 47.4116 43.6076 54.6759 44.2833 62.447C65.9073 65.8258 76.7193 77.6514 76.7193 97.9238C76.7193 108.736 73.3406 117.183 66.5831 123.264C59.8256 129.346 50.3651 132.387 38.2016 132.387C12.861 132.387 0.190728 118.196 0.190728 89.8149Z" fill="#38D8CC"/>
</svg>
