<svg width="76" height="60" viewBox="0 0 76 60" fill="none" xmlns="http://www.w3.org/2000/svg">
<path d="M36.9236 27.6189H31.2329V18.0885H37.9839C41.6543 18.0885 43.7373 19.726 43.7373 22.6874C43.7373 25.8496 41.3123 27.6189 36.9173 27.6189H36.9236ZM37.94 31.4023H31.236V41.9053H38.2349C42.8119 41.9053 45.2369 40.0701 45.2369 36.6193C45.2369 33.1685 42.7429 31.4023 37.94 31.4023ZM75.2902 28.0895V31.9105C71.7515 32.2493 69.5901 34.8719 68.307 39.0254C67.0302 43.1632 66.8545 48.239 66.9894 52.1573C67.1306 56.2355 63.9527 60 59.6581 60H15.6384C11.3406 60 8.16271 56.2355 8.30702 52.1573C8.44191 48.239 8.26623 43.1632 6.98944 39.0254C5.70323 34.8719 3.53864 32.2493 0 31.9105V28.0895C3.53864 27.7507 5.70637 25.1281 6.9863 20.9746C8.26623 16.8368 8.44191 11.761 8.30388 7.84273C8.16271 3.76451 11.3406 0 15.6384 0H59.6581C63.9559 0 67.1306 3.76451 66.9894 7.84273C66.8545 11.761 67.0302 16.8368 68.307 20.9746C69.5901 25.1281 71.7515 27.7507 75.2902 28.0895ZM50.4225 36.9267C50.4225 32.6791 47.4328 29.6079 42.9938 29.1216V28.9428C46.2564 28.4126 48.8163 25.3822 48.8163 22.0004C48.8163 17.1787 45.011 14.0385 39.2105 14.0385H26.1602V45.949H39.2764C46.2344 45.949 50.4225 42.5421 50.4225 36.9267Z" fill="#F0F0F0"/>
</svg>
