<svg width="60" height="49" viewBox="0 0 60 49" fill="none" xmlns="http://www.w3.org/2000/svg">
<path d="M30.4749 0.00627533C25.2545 -0.114715 20.1441 1.51685 15.9597 4.64048C11.7752 7.7641 8.75794 12.1997 7.38964 17.239C7.52214 17.189 7.25214 17.2715 7.38964 17.239C-2.29797 23.6165 -2.41547 37.5142 6.77213 44.5918L6.78713 44.5743L6.76963 44.6493C9.70438 46.8647 13.2852 48.0557 16.9622 48.0393H29.8949L29.9699 48.1143H42.95C59.6677 48.2468 66.3903 26.6016 52.5376 17.239C51.3446 12.84 48.8935 8.88486 45.4851 5.85884L45.3775 5.96634L45.3925 5.84134C41.2631 2.19897 35.9797 0.132374 30.4749 0.00627533ZM29.5799 10.3714C32.6899 10.2714 35.875 11.2914 38.295 13.2464C39.7841 14.4893 40.9754 16.0505 41.781 17.815C42.5867 19.5794 42.9862 21.5022 42.95 23.4415V24.7365C51.7751 24.5615 51.7751 37.8917 42.95 37.7192H29.9674L29.9474 37.7417V37.6417H16.9622C16.0423 37.6417 15.1329 37.4457 14.2947 37.0667H14.2972C13.3408 36.6336 12.5037 35.9751 11.8576 35.1475C11.2116 34.32 10.7758 33.3481 10.5878 32.3152C10.3997 31.2823 10.4649 30.2193 10.7778 29.2171C11.0907 28.2149 11.642 27.3036 12.3844 26.5612C13.1267 25.8189 14.0381 25.2676 15.0402 24.9547C16.0424 24.6418 17.1055 24.5766 18.1384 24.7646C19.1713 24.9527 20.1431 25.3884 20.9707 26.0345C21.7982 26.6806 22.4568 27.5177 22.8898 28.4741L30.4224 20.944C27.9194 17.6813 24.3107 15.4453 20.2748 14.6564C20.3198 14.6314 20.3748 14.5914 20.4098 14.5989C21.5786 13.3166 22.9929 12.2819 24.5689 11.5561C26.145 10.8304 27.8506 10.4284 29.5849 10.3739L29.5799 10.3714Z" fill="#F0F0F0"/>
</svg>
