<svg width="25" height="20" viewBox="0 0 25 20" fill="none" xmlns="http://www.w3.org/2000/svg">
<path d="M21.0488 2.09128C19.4335 1.33814 17.7248 0.802993 15.9676 0.5C15.7487 0.894345 15.493 1.42474 15.3166 1.8467C13.4221 1.5628 11.5449 1.5628 9.68519 1.8467C9.50893 1.42484 9.24744 0.894345 9.02654 0.5C7.26763 0.803132 5.55738 1.33964 3.94139 2.09521C0.725686 6.9379 -0.146068 11.6602 0.289761 16.3156C2.42263 17.9029 4.48959 18.8671 6.52173 19.4981C7.02676 18.806 7.47321 18.0732 7.85644 17.3074C7.12682 17.0306 6.42343 16.6894 5.75465 16.288C5.93065 16.158 6.1025 16.0225 6.26995 15.8818C10.3225 17.7707 14.7258 17.7707 18.73 15.8818C18.8982 16.0216 19.07 16.157 19.2452 16.288C18.5754 16.6905 17.8707 17.0323 17.1396 17.3094C17.525 18.0783 17.9707 18.8118 18.4743 19.5C20.5084 18.8691 22.5773 17.9049 24.7101 16.3156C25.2216 10.9188 23.8365 6.23991 21.0488 2.09128ZM8.40859 13.4526C7.19202 13.4526 6.19433 12.3208 6.19433 10.9425C6.19433 9.56428 7.17076 8.43053 8.40859 8.43053C9.64651 8.43053 10.6441 9.56227 10.6228 10.9425C10.6248 12.3208 9.64651 13.4526 8.40859 13.4526ZM16.5913 13.4526C15.3747 13.4526 14.3771 12.3208 14.3771 10.9425C14.3771 9.56428 15.3535 8.43053 16.5913 8.43053C17.8292 8.43053 18.8268 9.56227 18.8056 10.9425C18.8056 12.3208 17.8292 13.4526 16.5913 13.4526Z" fill="#5865F2"/>
</svg>
