<svg width="44" height="32" viewBox="0 0 44 32" fill="none" xmlns="http://www.w3.org/2000/svg">
<path d="M37.4006 3.12386C34.6596 1.92063 31.7204 1.03415 28.6473 0.526422C28.5913 0.516623 28.5354 0.541111 28.5066 0.590088C28.1286 1.23331 27.7099 2.07245 27.4167 2.73202C24.1113 2.25858 20.8229 2.25858 17.5854 2.73202C17.2921 2.05779 16.8582 1.23331 16.4785 0.590088C16.4496 0.542745 16.3937 0.518257 16.3378 0.526422C13.2663 1.03253 10.3271 1.91901 7.58451 3.12386C7.56076 3.13365 7.54041 3.14999 7.5269 3.1712C1.95184 11.1398 0.424592 18.9126 1.17381 26.589C1.1772 26.6265 1.19923 26.6624 1.22974 26.6853C4.90801 29.2696 8.47105 30.8386 11.9679 31.8785C12.0239 31.8948 12.0832 31.8752 12.1188 31.8311C12.946 30.7504 13.6833 29.6109 14.3156 28.4125C14.3529 28.3423 14.3173 28.2591 14.241 28.2313C13.0714 27.8069 11.9577 27.2893 10.8865 26.7016C10.8017 26.6543 10.7949 26.5383 10.8729 26.4828C11.0983 26.3212 11.3238 26.153 11.5391 25.9832C11.578 25.9522 11.6323 25.9457 11.6781 25.9653C18.7159 29.0395 26.3352 29.0395 33.29 25.9653C33.3358 25.9441 33.3901 25.9506 33.4307 25.9816C33.646 26.1514 33.8715 26.3212 34.0986 26.4828C34.1765 26.5383 34.1715 26.6543 34.0867 26.7016C33.0154 27.3007 31.9018 27.8069 30.7305 28.2297C30.6542 28.2575 30.6203 28.3423 30.6576 28.4125C31.3034 29.6092 32.0408 30.7487 32.8527 31.8295C32.8866 31.8752 32.9476 31.8948 33.0036 31.8785C36.5174 30.8386 40.0804 29.2696 43.7587 26.6853C43.7909 26.6624 43.8113 26.6281 43.8146 26.5906C44.7113 17.7158 42.3128 10.0068 37.4565 3.17282C37.4446 3.14999 37.4243 3.13365 37.4006 3.12386ZM15.3665 21.9148C13.2477 21.9148 11.5018 20.0537 11.5018 17.7681C11.5018 15.4825 13.2138 13.6214 15.3665 13.6214C17.5362 13.6214 19.2652 15.4988 19.2312 17.7681C19.2312 20.0537 17.5192 21.9148 15.3665 21.9148ZM29.6558 21.9148C27.537 21.9148 25.7911 20.0537 25.7911 17.7681C25.7911 15.4825 27.5031 13.6214 29.6558 13.6214C31.8255 13.6214 33.5545 15.4988 33.5206 17.7681C33.5206 20.0537 31.8255 21.9148 29.6558 21.9148Z" fill="white" fill-opacity="0.5"/>
</svg>
