<svg width="44" height="32" viewBox="0 0 44 32" fill="none" xmlns="http://www.w3.org/2000/svg">
<path d="M37.4006 3.12398C34.6596 1.92075 31.7204 1.03427 28.6473 0.526544C28.5913 0.516745 28.5354 0.541233 28.5066 0.59021C28.1286 1.23344 27.7099 2.07258 27.4167 2.73214C24.1113 2.2587 20.8229 2.2587 17.5854 2.73214C17.2921 2.05792 16.8582 1.23344 16.4785 0.59021C16.4496 0.542867 16.3937 0.518379 16.3378 0.526544C13.2663 1.03265 10.3271 1.91913 7.58451 3.12398C7.56076 3.13377 7.54041 3.15011 7.5269 3.17132C1.95184 11.1399 0.424592 18.9127 1.17381 26.5891C1.1772 26.6266 1.19923 26.6626 1.22974 26.6854C4.90801 29.2697 8.47105 30.8387 11.9679 31.8786C12.0239 31.895 12.0832 31.8754 12.1188 31.8313C12.946 30.7505 13.6833 29.611 14.3156 28.4126C14.3529 28.3425 14.3173 28.2592 14.241 28.2314C13.0714 27.807 11.9577 27.2894 10.8865 26.7017C10.8017 26.6544 10.7949 26.5384 10.8729 26.4829C11.0983 26.3213 11.3238 26.1531 11.5391 25.9834C11.578 25.9524 11.6323 25.9458 11.6781 25.9654C18.7159 29.0396 26.3352 29.0396 33.29 25.9654C33.3358 25.9442 33.3901 25.9507 33.4307 25.9817C33.646 26.1515 33.8715 26.3213 34.0986 26.4829C34.1765 26.5384 34.1715 26.6544 34.0867 26.7017C33.0154 27.3009 31.9018 27.807 30.7305 28.2298C30.6542 28.2576 30.6203 28.3425 30.6576 28.4126C31.3034 29.6093 32.0408 30.7489 32.8527 31.8296C32.8866 31.8754 32.9476 31.895 33.0036 31.8786C36.5174 30.8387 40.0804 29.2697 43.7587 26.6854C43.7909 26.6626 43.8113 26.6283 43.8146 26.5907C44.7113 17.716 42.3128 10.0069 37.4565 3.17295C37.4446 3.15011 37.4243 3.13377 37.4006 3.12398ZM15.3665 21.915C13.2477 21.915 11.5018 20.0539 11.5018 17.7682C11.5018 15.4826 13.2138 13.6215 15.3665 13.6215C17.5362 13.6215 19.2652 15.4989 19.2312 17.7682C19.2312 20.0539 17.5192 21.915 15.3665 21.915ZM29.6558 21.915C27.537 21.915 25.7911 20.0539 25.7911 17.7682C25.7911 15.4826 27.5031 13.6215 29.6558 13.6215C31.8255 13.6215 33.5545 15.4989 33.5206 17.7682C33.5206 20.0539 31.8255 21.915 29.6558 21.915Z" fill="white"/>
</svg>
