<svg width="47" height="61" viewBox="0 0 47 61" fill="none" xmlns="http://www.w3.org/2000/svg">
<path d="M21.15 0.70166H30.96V46.1167C25.9275 47.0717 22.2325 47.4542 18.22 47.4542C6.2425 47.4542 0 42.0392 0 31.6542C0 21.6492 6.625 15.1542 16.8825 15.1542C18.475 15.1542 19.685 15.2792 21.15 15.6617V0.70166ZM21.15 23.5592C20.0836 23.1989 18.9628 23.0264 17.8375 23.0492C12.8675 23.0492 10.0025 26.1067 10.0025 31.4617C10.0025 36.6867 12.7425 39.5517 17.775 39.5517C18.8575 39.5517 19.75 39.4892 21.15 39.2967V23.5567V23.5592ZM46.57 15.8517V38.5967C46.57 46.4317 45.9975 50.1917 44.2775 53.4392C42.685 56.5617 40.5825 58.5367 36.25 60.7017L27.14 56.3692C31.4725 54.3317 33.575 52.5442 34.9125 49.8067C36.315 47.0042 36.76 43.7542 36.76 35.2192V15.8492H46.57V15.8517ZM36.76 0.75416H46.57V10.8192H36.76V0.75416Z" fill="#F0F0F0"/>
</svg>
