<svg width="60" height="44" viewBox="0 0 60 44" fill="none" xmlns="http://www.w3.org/2000/svg">
<path d="M34.9575 19.2225H40.255C40.3779 19.2225 40.4958 19.1738 40.5829 19.0872C40.6701 19.0005 40.7194 18.8829 40.72 18.76V14.0425C40.72 13.9192 40.671 13.8009 40.5838 13.7137C40.4966 13.6265 40.3783 13.5775 40.255 13.5775H34.9575C34.8349 13.5775 34.7172 13.6262 34.6305 13.713C34.5437 13.7997 34.495 13.9173 34.495 14.04V18.76C34.495 19.015 34.7025 19.2225 34.9575 19.2225ZM27.5725 5.6475H32.8675C32.9908 5.6475 33.1091 5.59851 33.1963 5.5113C33.2835 5.4241 33.3325 5.30582 33.3325 5.1825V0.4625C33.3319 0.339608 33.2826 0.221975 33.1954 0.13531C33.1083 0.0486458 32.9904 -1.77609e-06 32.8675 0H27.5725C27.4499 0 27.3322 0.0487279 27.2455 0.135463C27.1588 0.222199 27.11 0.339837 27.11 0.4625V5.1825C27.11 5.4375 27.315 5.645 27.5725 5.645M27.5725 12.435H32.8675C32.9906 12.4343 33.1085 12.3851 33.1956 12.2981C33.2827 12.211 33.3319 12.0931 33.3325 11.97V7.2525C33.3319 7.1296 33.2826 7.01197 33.1954 6.92531C33.1083 6.83864 32.9904 6.78999 32.8675 6.79H27.5725C27.4499 6.79 27.3322 6.83872 27.2455 6.92546C27.1588 7.01219 27.11 7.12983 27.11 7.2525V11.97C27.11 12.225 27.315 12.4325 27.5725 12.435ZM20.2475 12.435H25.5475C25.67 12.4337 25.787 12.3841 25.8731 12.297C25.9592 12.21 26.0075 12.0925 26.0075 11.97V7.2525C26.0075 7.12983 25.9588 7.01219 25.8721 6.92546C25.7853 6.83872 25.6677 6.79 25.545 6.79H20.25C20.1274 6.79 20.0097 6.83872 19.923 6.92546C19.8363 7.01219 19.7875 7.12983 19.7875 7.2525V11.97C19.7875 12.225 19.995 12.4325 20.25 12.435M12.84 12.435H18.1375C18.2604 12.4343 18.3781 12.385 18.4647 12.2979C18.5514 12.2108 18.6 12.0929 18.6 11.97V7.2525C18.6 7.12983 18.5513 7.01219 18.4646 6.92546C18.3778 6.83872 18.2602 6.79 18.1375 6.79H12.84C12.7171 6.78999 12.5992 6.83864 12.5121 6.92531C12.425 7.01197 12.3757 7.1296 12.375 7.2525V11.97C12.375 12.225 12.585 12.4325 12.84 12.435ZM27.5725 19.2225H32.8675C32.9904 19.2225 33.1083 19.1738 33.1954 19.0872C33.2826 19.0005 33.3319 18.8829 33.3325 18.76V14.0425C33.3325 13.9192 33.2835 13.8009 33.1963 13.7137C33.1091 13.6265 32.9908 13.5775 32.8675 13.5775H27.5725C27.4499 13.5775 27.3322 13.6262 27.2455 13.713C27.1588 13.7997 27.11 13.9173 27.11 14.04V18.76C27.11 19.015 27.315 19.2225 27.5725 19.2225ZM20.2475 19.2225H25.5475C25.6698 19.2218 25.7868 19.1728 25.8729 19.0861C25.9591 18.9995 26.0075 18.8822 26.0075 18.76V14.0425C26.0079 13.9818 25.9962 13.9215 25.9733 13.8653C25.9503 13.8091 25.9165 13.7579 25.8738 13.7147C25.8311 13.6715 25.7803 13.6372 25.7243 13.6137C25.6683 13.5901 25.6083 13.5778 25.5475 13.5775H20.2475C20.1253 13.5782 20.0083 13.6272 19.9221 13.7138C19.8359 13.8005 19.7875 13.9178 19.7875 14.04V18.76C19.7875 19.015 19.995 19.2225 20.25 19.2225M12.84 19.2225H18.1375C18.2602 19.2225 18.3778 19.1738 18.4646 19.087C18.5513 19.0003 18.6 18.8826 18.6 18.76V14.0425C18.6004 13.9818 18.5887 13.9215 18.5658 13.8653C18.5428 13.8091 18.5091 13.7579 18.4663 13.7147C18.4236 13.6715 18.3728 13.6372 18.3168 13.6137C18.2608 13.5901 18.2008 13.5778 18.14 13.5775H12.84C12.7167 13.5775 12.5984 13.6265 12.5112 13.7137C12.424 13.8009 12.375 13.9192 12.375 14.0425V18.76C12.375 19.015 12.585 19.2225 12.84 19.2225ZM5.54004 19.2225H10.84C10.9623 19.2218 11.0793 19.1728 11.1655 19.0861C11.2517 18.9995 11.3 18.8822 11.3 18.76V14.0425C11.3004 13.9818 11.2887 13.9215 11.2658 13.8653C11.2428 13.8091 11.2091 13.7579 11.1663 13.7147C11.1236 13.6715 11.0728 13.6372 11.0168 13.6137C10.9608 13.5901 10.9008 13.5778 10.84 13.5775H5.54004C5.41781 13.5782 5.30081 13.6272 5.21462 13.7138C5.12842 13.8005 5.08004 13.9178 5.08004 14.04V18.76C5.08004 19.015 5.28504 19.2225 5.54254 19.2225M59.4075 16.2525C59.245 16.125 57.7275 14.9775 54.5225 14.9775C53.6775 14.98 52.8325 15.0525 51.9975 15.195C51.3775 10.945 47.865 8.86999 47.7075 8.77999L46.8475 8.28249L46.2825 9.09999C45.5725 10.195 45.0575 11.405 44.7525 12.675C44.1775 15.1 44.5275 17.38 45.76 19.3275C44.2725 20.1575 41.885 20.36 41.4 20.3775H1.87754C1.38133 20.3781 0.905552 20.5752 0.554208 20.9256C0.202863 21.276 0.00452434 21.7513 0.00254256 22.2475C-0.0437532 25.7096 0.542529 29.151 1.73254 32.4025C3.09504 35.9725 5.12004 38.6025 7.75754 40.2125C10.7075 42.02 15.5075 43.055 20.945 43.055C23.4025 43.0625 25.8525 42.84 28.27 42.39C31.6271 41.7733 34.8575 40.5996 37.8275 38.9175C40.2775 37.5 42.4775 35.6975 44.3525 33.5775C47.4825 30.0325 49.3475 26.085 50.735 22.5775H51.2875C54.7175 22.5775 56.825 21.205 57.9875 20.055C58.76 19.3225 59.3625 18.43 59.755 17.44L60 16.72L59.4075 16.2525Z" fill="#F0F0F0"/>
</svg>
