<svg width="30" height="17" viewBox="0 0 30 17" fill="none" xmlns="http://www.w3.org/2000/svg">
<path d="M16.9591 0.57571C17.3061 0.245354 17.7679 0.06272 18.247 0.0663451C18.726 0.0699701 19.185 0.259571 19.527 0.59514C19.8689 0.930708 20.0671 1.386 20.0798 1.86494C20.0925 2.34388 19.9186 2.80901 19.5948 3.16217L9.76627 15.454C9.59726 15.6361 9.39328 15.7822 9.16653 15.8836C8.93978 15.985 8.69491 16.0396 8.44656 16.0442C8.19821 16.0488 7.95148 16.0033 7.72113 15.9103C7.49078 15.8174 7.28153 15.679 7.1059 15.5033L0.58801 8.98542C0.406497 8.81628 0.260911 8.61232 0.159935 8.3857C0.0589598 8.15907 0.00466427 7.91444 0.000287519 7.66637C-0.00408923 7.41831 0.0415425 7.17191 0.134461 6.94187C0.227379 6.71182 0.36568 6.50285 0.541113 6.32742C0.716546 6.15199 0.925517 6.01369 1.15556 5.92077C1.3856 5.82785 1.632 5.78222 1.88007 5.78659C2.12813 5.79097 2.37277 5.84527 2.59939 5.94624C2.82601 6.04722 3.02997 6.1928 3.19911 6.37432L8.35726 11.53L16.9098 0.629903C16.9252 0.610885 16.9416 0.592788 16.9591 0.57571ZM14.6929 13.2371L16.9591 15.5033C17.1347 15.6786 17.3438 15.8167 17.5739 15.9094C17.804 16.0021 18.0505 16.0475 18.2985 16.0429C18.5466 16.0383 18.7911 15.9838 19.0177 15.8826C19.2442 15.7815 19.448 15.6357 19.617 15.454L29.4505 3.16217C29.6271 2.98778 29.7668 2.77957 29.8612 2.54998C29.9556 2.3204 30.0028 2.07415 29.9999 1.82593C29.997 1.57772 29.9441 1.33264 29.8444 1.10531C29.7447 0.877994 29.6001 0.6731 29.4195 0.502868C29.2388 0.332637 29.0257 0.200558 28.7929 0.114521C28.56 0.0284838 28.3122 -0.0097482 28.0643 0.00210892C27.8163 0.013966 27.5733 0.0756696 27.3497 0.183533C27.1262 0.291396 26.9266 0.443208 26.763 0.629903L18.208 11.53L17.0133 10.3328L14.6904 13.2371H14.6929Z" fill="#0A0A0A"/>
</svg>
