<svg width="56" height="60" viewBox="0 0 56 60" fill="none" xmlns="http://www.w3.org/2000/svg">
<path d="M27.703 0C25.578 0 23.855 1.72275 23.855 3.848C23.855 5.97325 25.5777 7.69625 27.703 7.69625C29.1905 7.69625 30.478 6.85125 31.1185 5.61625C36.6705 8.785 40.736 19.2983 40.736 31.522C40.736 36.7007 40.0132 41.662 38.6735 45.9433C38.6419 46.044 38.6305 46.15 38.6399 46.2551C38.6492 46.3603 38.6792 46.4626 38.7282 46.5561C38.7771 46.6497 38.8439 46.7327 38.9249 46.8004C39.0059 46.8681 39.0995 46.9192 39.2003 46.9508C39.4039 47.0144 39.6246 46.9945 39.8136 46.8956C40.0027 46.7966 40.1447 46.6266 40.2085 46.423C41.598 41.9823 42.344 36.8602 42.344 31.522C42.344 18.5403 37.9147 7.307 31.5425 4.01525C31.545 3.9595 31.5512 3.9045 31.5512 3.848C31.5512 1.723 29.8285 0 27.703 0V0ZM27.703 1.608C28.2971 1.608 28.8668 1.844 29.2869 2.26408C29.707 2.68416 29.943 3.25391 29.943 3.848C29.943 4.44208 29.707 5.01184 29.2869 5.43192C28.8668 5.852 28.2971 6.088 27.703 6.088C27.1089 6.088 26.5392 5.852 26.1191 5.43192C25.699 5.01184 25.463 4.44208 25.463 3.848C25.463 3.25391 25.699 2.68416 26.1191 2.26408C26.5392 1.844 27.1089 1.608 27.703 1.608ZM13.988 12.371C8.8205 12.3895 4.86975 14.0325 3.01675 17.2423C1.173 20.4358 1.7 24.6698 4.295 29.1955C4.40357 29.3755 4.57832 29.5059 4.78184 29.5587C4.98535 29.6115 5.20143 29.5824 5.38381 29.4778C5.56619 29.3733 5.70037 29.2014 5.7576 28.9991C5.81483 28.7968 5.79056 28.5801 5.69 28.3955C3.35275 24.3185 2.89775 20.665 4.40975 18.0462C6.46225 14.4913 11.9923 13.1582 19.24 14.4785C19.3439 14.4974 19.4505 14.4957 19.5537 14.4734C19.6569 14.4512 19.7548 14.4088 19.8416 14.3487C19.9285 14.2886 20.0026 14.212 20.0599 14.1233C20.1171 14.0345 20.1563 13.9354 20.1752 13.8315C20.1942 13.7276 20.1925 13.621 20.1702 13.5178C20.1479 13.4146 20.1055 13.3167 20.0454 13.2299C19.9854 13.143 19.9088 13.0689 19.82 13.0116C19.7313 12.9544 19.6321 12.9152 19.5283 12.8963C17.5683 12.5393 15.7105 12.365 13.9882 12.3713L13.988 12.371ZM41.6185 12.415C41.4053 12.4122 41.1997 12.4943 41.0469 12.6431C40.8942 12.7919 40.8068 12.9953 40.804 13.2085C40.8012 13.4217 40.8833 13.6273 41.0321 13.7801C41.1809 13.9328 41.3843 14.0202 41.5975 14.023C46.1818 14.0828 49.4865 15.512 50.973 18.087C53.021 21.6345 51.4225 27.0737 46.6775 32.6795C46.5398 32.8424 46.4724 33.0533 46.4901 33.2659C46.5077 33.4785 46.609 33.6753 46.7718 33.8133C46.8523 33.8815 46.9456 33.9332 47.0461 33.9653C47.1467 33.9975 47.2526 34.0096 47.3578 34.0008C47.463 33.9921 47.5654 33.9627 47.6593 33.9143C47.7532 33.866 47.8366 33.7996 47.9048 33.719C53.0385 27.654 54.8318 21.5537 52.366 17.283C50.5518 14.1405 46.716 12.4812 41.6185 12.415ZM34.8725 13.146C34.8181 13.1465 34.7639 13.1526 34.7108 13.164C30.0688 14.1588 25.1275 16.1028 20.3822 18.8425C8.9575 25.4385 1.40125 35.0795 1.982 42.2718C0.8005 42.9288 0 44.1878 0 45.6355C0 47.7605 1.723 49.4835 3.84825 49.4835C5.97325 49.4835 7.69625 47.7607 7.69625 45.6355C7.69625 43.5103 5.9735 41.7872 3.84825 41.7872C3.75325 41.7872 3.65975 41.7948 3.56625 41.8015C3.31575 35.4023 10.4247 26.4485 21.1862 20.2353C25.7895 17.5777 30.574 15.6945 35.0475 14.736C35.2416 14.6936 35.4132 14.5809 35.5291 14.4196C35.6451 14.2583 35.6972 14.0597 35.6754 13.8623C35.6537 13.6648 35.5597 13.4823 35.4114 13.3501C35.2631 13.2178 35.0712 13.1451 34.8725 13.146ZM27.6758 28.737C27.4872 28.7393 27.2993 28.7607 27.115 28.8008C25.612 29.126 24.6575 30.607 24.9817 32.1102C25.3072 33.6133 26.7882 34.5682 28.2912 34.2435C29.7942 33.918 30.7493 32.437 30.4245 30.934C30.1397 29.619 28.9705 28.723 27.6758 28.737ZM9.00525 33.3525C8.89967 33.3474 8.79412 33.3632 8.69467 33.3991C8.59523 33.4349 8.50384 33.49 8.42575 33.5613C8.34764 33.6323 8.2843 33.718 8.23933 33.8135C8.19437 33.909 8.16867 34.0125 8.1637 34.1179C8.15873 34.2234 8.17459 34.3288 8.21038 34.4281C8.24616 34.5274 8.30117 34.6187 8.37225 34.6968C11.5428 38.1808 15.6615 41.4492 20.3587 44.161C31.3952 50.5332 43.1227 52.3732 49.2607 48.759C49.9131 49.2304 50.6974 49.484 51.5023 49.4838C53.6275 49.4838 55.3503 47.761 55.3503 45.6357C55.3503 43.5105 53.6278 41.7875 51.5023 41.7875C49.3773 41.7875 47.6543 43.5105 47.6543 45.6357C47.6543 46.3257 47.8385 46.9717 48.1568 47.5317C42.5448 50.5667 31.5793 48.7822 21.1628 42.7682C16.6058 40.1372 12.6178 36.973 9.56175 33.6147C9.49083 33.5365 9.40516 33.4731 9.30966 33.4281C9.21416 33.3831 9.11071 33.3574 9.00525 33.3525ZM3.84825 43.3955C4.14241 43.3955 4.43369 43.4534 4.70546 43.566C4.97723 43.6786 5.22417 43.8436 5.43217 44.0516C5.64017 44.2596 5.80517 44.5065 5.91774 44.7783C6.03031 45.0501 6.08825 45.3413 6.08825 45.6355C6.08825 45.9297 6.03031 46.2209 5.91774 46.4927C5.80517 46.7645 5.64017 47.0114 5.43217 47.2194C5.22417 47.4274 4.97723 47.5924 4.70546 47.705C4.43369 47.8176 4.14241 47.8755 3.84825 47.8755C3.55409 47.8755 3.26281 47.8176 2.99104 47.705C2.71927 47.5924 2.47233 47.4274 2.26433 47.2194C2.05633 47.0114 1.89133 46.7645 1.77876 46.4927C1.66619 46.2209 1.60825 45.9297 1.60825 45.6355C1.60825 45.3413 1.66619 45.0501 1.77876 44.7783C1.89133 44.5065 2.05633 44.2596 2.26433 44.0516C2.47233 43.8436 2.71927 43.6786 2.99104 43.566C3.26281 43.4534 3.55409 43.3955 3.84825 43.3955ZM51.5023 43.3955C51.7964 43.3955 52.0877 43.4534 52.3595 43.566C52.6312 43.6786 52.8782 43.8436 53.0862 44.0516C53.2942 44.2596 53.4592 44.5065 53.5717 44.7783C53.6843 45.0501 53.7423 45.3413 53.7423 45.6355C53.7423 45.9297 53.6843 46.2209 53.5717 46.4927C53.4592 46.7645 53.2942 47.0114 53.0862 47.2194C52.8782 47.4274 52.6312 47.5924 52.3595 47.705C52.0877 47.8176 51.7964 47.8755 51.5023 47.8755C50.9633 47.876 50.4425 47.6812 50.0363 47.327C50.03 47.317 50.0265 47.3063 50.0198 47.2963C49.9568 47.2042 49.8753 47.1264 49.7805 47.0678C49.5084 46.7406 49.3352 46.3427 49.281 45.9207C49.2268 45.4986 49.294 45.0699 49.4746 44.6846C49.6553 44.2993 49.9419 43.9735 50.301 43.7452C50.6601 43.5169 51.0767 43.3956 51.5023 43.3955ZM16.491 46.8155C16.3585 46.808 16.2262 46.8335 16.1059 46.8896C15.9856 46.9458 15.8811 47.0308 15.8017 47.1372C15.7223 47.2435 15.6704 47.3679 15.6508 47.4992C15.6312 47.6305 15.6444 47.7646 15.6892 47.8895C18.3735 55.385 22.7652 60 27.703 60C31.3045 60 34.6367 57.5445 37.235 53.2225C37.2894 53.132 37.3255 53.0317 37.3411 52.9273C37.3567 52.8228 37.3516 52.7164 37.3261 52.6139C37.3005 52.5114 37.2551 52.415 37.1923 52.3302C37.1294 52.2453 37.0505 52.1736 36.96 52.1193C36.7771 52.0095 36.5582 51.9768 36.3512 52.0283C36.1443 52.0799 35.9662 52.2115 35.8563 52.3943C33.5212 56.2785 30.6532 58.3918 27.703 58.3918C23.6012 58.3918 19.6842 54.2755 17.203 47.347C17.1497 47.1982 17.0537 47.0685 16.9271 46.974C16.8005 46.8794 16.6488 46.8243 16.491 46.8155Z" fill="#F0F0F0"/>
</svg>
