<svg width="20" height="20" viewBox="0 0 20 20" fill="none" xmlns="http://www.w3.org/2000/svg">
<path d="M10.0007 14.5834C10.2604 14.5834 10.4782 14.4954 10.6542 14.3194C10.8296 14.144 10.9173 13.9264 10.9173 13.6667C10.9173 13.407 10.8296 13.1891 10.6542 13.0131C10.4782 12.8377 10.2604 12.75 10.0007 12.75C9.74093 12.75 9.52337 12.8377 9.34798 13.0131C9.17198 13.1891 9.08398 13.407 9.08398 13.6667C9.08398 13.9264 9.17198 14.144 9.34798 14.3194C9.52337 14.4954 9.74093 14.5834 10.0007 14.5834ZM10.0007 19.1667C8.73259 19.1667 7.54093 18.9259 6.42565 18.4444C5.31037 17.9634 4.34023 17.3105 3.51523 16.4855C2.69023 15.6605 2.03726 14.6903 1.55632 13.575C1.07476 12.4598 0.833984 11.2681 0.833984 10C0.833984 8.73198 1.07476 7.54032 1.55632 6.42504C2.03726 5.30976 2.69023 4.33962 3.51523 3.51462C4.34023 2.68962 5.31037 2.03635 6.42565 1.55479C7.54093 1.07385 8.73259 0.833374 10.0007 0.833374C11.2687 0.833374 12.4604 1.07385 13.5757 1.55479C14.6909 2.03635 15.6611 2.68962 16.4861 3.51462C17.3111 4.33962 17.964 5.30976 18.445 6.42504C18.9265 7.54032 19.1673 8.73198 19.1673 10C19.1673 11.2681 18.9265 12.4598 18.445 13.575C17.964 14.6903 17.3111 15.6605 16.4861 16.4855C15.6611 17.3105 14.6909 17.9634 13.5757 18.4444C12.4604 18.9259 11.2687 19.1667 10.0007 19.1667ZM10.0007 10.9167C10.2604 10.9167 10.4782 10.8287 10.6542 10.6527C10.8296 10.4773 10.9173 10.2598 10.9173 10V6.33337C10.9173 6.07365 10.8296 5.85579 10.6542 5.67979C10.4782 5.5044 10.2604 5.41671 10.0007 5.41671C9.74093 5.41671 9.52337 5.5044 9.34798 5.67979C9.17198 5.85579 9.08398 6.07365 9.08398 6.33337V10C9.08398 10.2598 9.17198 10.4773 9.34798 10.6527C9.52337 10.8287 9.74093 10.9167 10.0007 10.9167Z" fill="#BB000E"/>
</svg>
