<svg width="24" height="25" viewBox="0 0 24 25" fill="none" xmlns="http://www.w3.org/2000/svg">
<path d="M11.5111 23C11.8218 23 12.1148 23.1444 12.3041 23.3907C12.8094 24.0484 12.3406 25 11.5111 25H2.00391C0.899337 25 0.00390625 24.1046 0.00390625 23V14.5V5.125C0.00390625 4.02043 0.899337 3.125 2.00391 3.125H6.01218C6.69797 3.125 7.22461 2.54542 7.49805 1.9165C7.66081 1.54216 7.8846 1.2085 8.16943 0.915527C8.45426 0.622559 8.78385 0.398763 9.1582 0.244141C9.53255 0.0895182 9.93945 0.00813802 10.3789 0C10.8102 0 11.2131 0.0813802 11.5874 0.244141C11.9618 0.406901 12.2954 0.630697 12.5884 0.915527C12.8813 1.20036 13.1051 1.52995 13.2598 1.9043C13.5252 2.54693 14.0608 3.125 14.7561 3.125H19.0039C20.1085 3.125 21.0039 4.02043 21.0039 5.125V14.7126C21.0039 15.2018 20.7497 15.6558 20.3326 15.9115C19.3956 16.4859 18.1914 15.8117 18.1914 14.7126V5.46875C18.1914 5.03728 17.8416 4.6875 17.4102 4.6875C16.9787 4.6875 16.6289 5.03728 16.6289 5.46875V6.59375C16.6289 7.64654 15.7754 8.5 14.7227 8.5H6.03516C4.98236 8.5 4.12891 7.64654 4.12891 6.59375V5.46875C4.12891 5.03728 3.77913 4.6875 3.34766 4.6875C2.91618 4.6875 2.56641 5.03728 2.56641 5.46875V21C2.56641 22.1046 3.46184 23 4.56641 23H7.25391H11.5111ZM6.47266 4.6875C6.04118 4.6875 5.69141 5.03728 5.69141 5.46875C5.69141 5.90022 6.04118 6.25 6.47266 6.25H14.2852C14.7166 6.25 15.0664 5.90022 15.0664 5.46875C15.0664 5.03728 14.7166 4.6875 14.2852 4.6875H13.5039C12.641 4.6875 11.9414 3.98794 11.9414 3.125C11.9414 2.90527 11.9007 2.70182 11.8193 2.51465C11.738 2.32747 11.6281 2.16471 11.4897 2.02637C11.3514 1.88802 11.1846 1.77409 10.9893 1.68457C10.7939 1.59505 10.5905 1.55436 10.3789 1.5625C10.1592 1.5625 9.95573 1.60319 9.76855 1.68457C9.58138 1.76595 9.41862 1.87581 9.28027 2.01416C9.14193 2.15251 9.028 2.31934 8.93848 2.51465C8.84896 2.70996 8.80827 2.91341 8.81641 3.125C8.81641 3.98794 8.11685 4.6875 7.25391 4.6875H6.47266ZM22.7582 17.2543C23.17 17.6661 23.17 18.3339 22.7582 18.7457L20.0039 21.5L17.9864 23.5922C17.2318 24.3748 15.9903 24.4113 15.1911 23.6744L13.3435 21.9711C12.906 21.5678 12.8593 20.893 13.2371 20.4332C13.6512 19.9292 14.4062 19.8831 14.8785 20.333L15.3729 20.8038C16.0692 21.4669 17.1691 21.4472 17.8412 20.7595L21.2583 17.2629C21.6687 16.843 22.343 16.8391 22.7582 17.2543Z" fill="#38D8CC"/>
</svg>
