<svg width="60" height="35" viewBox="0 0 60 35" fill="none" xmlns="http://www.w3.org/2000/svg">
<path d="M60 33.8785C59.1268 34.2088 58.1628 34.208 57.2901 33.8764C56.4173 33.5448 55.6961 32.9053 55.2625 32.0785L46.6375 20.151L45.3875 18.4835L35.38 32.0935C34.9725 32.8856 34.2904 33.5022 33.4613 33.828C32.6322 34.1537 31.7128 34.1664 30.875 33.8635L43.77 16.5635L31.775 0.936004C32.6375 0.625191 33.5807 0.621071 34.4459 0.924336C35.3111 1.2276 36.0453 1.81973 36.525 2.601L45.465 14.676L54.455 2.651C54.8657 1.87297 55.548 1.27297 56.3721 0.965076C57.1962 0.657177 58.1048 0.662845 58.925 0.981004L54.27 7.1585L47.965 15.366C47.7899 15.5222 47.6498 15.7136 47.5539 15.9277C47.4579 16.1419 47.4083 16.3739 47.4083 16.6085C47.4083 16.8431 47.4579 17.0751 47.5539 17.2892C47.6498 17.5034 47.7899 17.6948 47.965 17.851L59.975 33.881L60 33.8785ZM0.00502999 16.3485L1.05503 11.161C3.94003 0.903505 15.7 -3.36399 23.79 2.986C28.5275 6.7085 29.71 11.9785 29.4775 17.9185H2.79003C2.35753 28.526 10.0125 34.931 19.8 31.6585C21.3867 31.0874 22.8069 30.1316 23.9334 28.8768C25.0599 27.622 25.8576 26.1073 26.255 24.4685C26.7725 22.8035 27.625 22.5185 29.19 22.9985C28.9292 25.0294 28.2113 26.9748 27.0902 28.6883C25.9691 30.4017 24.4741 31.8387 22.7175 32.891C19.8161 34.4781 16.4871 35.1071 13.2066 34.6882C9.92608 34.2692 6.86202 32.8238 4.45253 30.5585C2.0701 27.877 0.63022 24.4897 0.35253 20.9135C0.35253 20.326 0.15253 19.776 0.01753 19.2485C0.00536006 18.2827 -0.000473393 17.3169 2.99907e-05 16.351L0.00502999 16.3485ZM2.82253 15.6335H26.9575C26.8075 7.9435 21.955 2.4885 15.4825 2.4385C8.27752 2.3385 3.12253 7.6735 2.80503 15.5985L2.82253 15.6335Z" fill="#F0F0F0"/>
</svg>
