<svg width="42" height="60" viewBox="0 0 42 60" fill="none" xmlns="http://www.w3.org/2000/svg">
<path d="M30.4875 22.4525H19.0175V0H30.4875C36.6775 0 41.7125 5.035 41.7125 11.225C41.7125 17.415 36.6775 22.4525 30.4875 22.4525ZM22.695 18.775H30.4875C34.65 18.775 38.035 15.3875 38.035 11.2275C38.035 7.0675 34.6475 3.68 30.4875 3.68H22.695V18.775ZM22.695 22.4525H11.2275C5.0375 22.4525 0.00249982 17.4175 0.00249982 11.2275C0.00249982 5.0375 5.0375 0 11.2275 0H22.6975V22.4525H22.695ZM11.2275 3.6775C7.065 3.6775 3.68 7.065 3.68 11.225C3.68 15.385 7.065 18.775 11.2275 18.775H19.02V3.6775H11.2275ZM22.695 41.225H11.2275C5.0375 41.225 0.00249982 36.19 0.00249982 30C0.00249982 23.81 5.0375 18.775 11.2275 18.775H22.6975V41.225H22.695ZM11.2275 22.4525C7.065 22.4525 3.68 25.84 3.68 30C3.68 34.16 7.0675 37.5475 11.2275 37.5475H19.02V22.4525H11.2275ZM11.2875 60C5.065 60 0 54.965 0 48.775C0 42.585 5.035 37.55 11.225 37.55H22.695V48.6525C22.695 54.91 17.5775 60 11.2875 60ZM11.2275 41.225C9.22659 41.2276 7.30839 42.0237 5.89353 43.4385C4.47868 44.8534 3.68265 46.7716 3.68 48.7725C3.68 52.935 7.0925 56.32 11.29 56.32C15.5525 56.32 19.0225 52.88 19.0225 48.65V41.225H11.2275ZM30.4875 41.225H30.2425C24.0525 41.225 19.0175 36.19 19.0175 30C19.0175 23.81 24.0525 18.775 30.2425 18.775H30.4875C36.6775 18.775 41.7125 23.81 41.7125 30C41.7125 36.19 36.6775 41.225 30.4875 41.225ZM30.245 22.4525C26.0825 22.4525 22.6975 25.84 22.6975 30C22.6975 34.16 26.085 37.5475 30.245 37.5475H30.49C34.6525 37.5475 38.0375 34.16 38.0375 30C38.0375 25.84 34.65 22.4525 30.49 22.4525H30.245Z" fill="#F0F0F0"/>
</svg>
