<svg width="44" height="60" viewBox="0 0 44 60" fill="none" xmlns="http://www.w3.org/2000/svg">
<path d="M1.43499 39.1807L7.34744 1.15355C7.38985 0.871473 7.52019 0.609973 7.7199 0.406305C7.91962 0.202638 8.17851 0.0671918 8.45971 0.0192645C8.7409 -0.0286629 9.03004 0.013373 9.28595 0.139383C9.54185 0.265394 9.75146 0.468951 9.88492 0.721054L16.2424 12.6485L1.43499 39.1807ZM43.4196 48.4107L37.7947 13.4109C37.7561 13.1636 37.6495 12.9319 37.4869 12.7416C37.3242 12.5513 37.1118 12.4101 36.8734 12.3335C36.6351 12.257 36.3801 12.2483 36.1371 12.3083C35.8941 12.3684 35.6725 12.4948 35.4972 12.6735L0 48.4132L19.6398 59.4806C20.246 59.8211 20.9296 60 21.6248 60C22.3201 60 23.0037 59.8211 23.6098 59.4806L43.4196 48.4107ZM27.4598 17.8684L22.9098 9.16348C22.795 8.94457 22.6225 8.76124 22.411 8.63333C22.1995 8.50541 21.957 8.4378 21.7098 8.4378C21.4626 8.4378 21.2202 8.50541 21.0086 8.63333C20.7971 8.76124 20.6246 8.94457 20.5098 9.16348L0.534996 44.9607L27.4598 17.8684Z" fill="#F0F0F0"/>
</svg>
