<svg width="68" height="60" viewBox="0 0 68 60" fill="none" xmlns="http://www.w3.org/2000/svg">
<path d="M20.0992 53.4301C17.5377 51.4123 14.8024 49.4785 12.9359 46.7601C9.00673 41.9621 5.97998 36.4075 3.9117 30.5698C2.66177 26.7723 2.23018 22.7002 0.621514 19.0513C-1.06562 16.4057 0.910176 13.5079 3.81081 12.6615C5.09998 12.4177 7.37565 11.1986 4.63196 12.0702C2.17132 13.875 1.93311 10.4307 4.4554 10.2149C6.17896 9.98506 6.80953 8.57538 6.221 7.30863C4.37132 6.10354 10.7051 4.77793 7.51858 2.9815C4.20317 -0.602955 12.1624 -1.28958 10.2006 2.77411C9.73259 5.89895 15.7609 2.19959 14.3624 5.80927C15.7833 7.54404 19.6872 6.20162 19.5891 8.63704C21.663 8.77716 22.3721 10.5203 24.317 10.6549C26.3349 11.5657 29.9838 12.2803 30.6676 14.5504C28.6694 16.1366 24.0424 11.2854 23.821 15.6658C24.4235 22.1397 24.2694 28.807 26.6347 34.9697C27.7558 38.7027 30.4742 41.6398 32.9236 44.5489C35.2694 47.3962 38.4475 49.3973 41.6872 51.0872C44.529 52.4268 47.5922 53.3152 50.6918 53.8729C51.9473 52.9116 54.1669 49.3412 56.1231 50.8462C56.2156 52.5389 52.2332 54.3858 55.9353 54.198C58.1101 53.5422 59.6179 55.8795 61.4087 53.772C63.0566 55.7254 68.2637 52.5221 67.0895 56.5185C65.5032 57.5386 63.1883 56.9221 61.5993 58.329C58.9789 57.0202 56.891 59.5004 53.9904 59.1865C50.7659 59.744 47.4986 60.0159 44.2263 59.9993C38.8678 59.5789 33.3945 59.3995 28.2966 57.533C25.4268 56.7007 22.6271 55.064 20.102 53.4301H20.0992ZM24.6253 55.3919C27.4279 56.6026 30.1687 57.8806 33.2403 58.2673C38.1168 58.9399 43.1529 59.9881 48.0462 59.0352C45.8322 58.0347 43.5397 59.4276 41.3341 58.3206C38.6885 58.8895 35.8495 58.1748 33.1591 57.8245C30.0987 56.4625 26.7973 55.5264 23.9359 53.7552C20.357 52.4492 25.7856 55.4311 26.7524 55.675C28.9889 56.9445 24.2946 55.022 23.6304 54.4951C21.7583 53.4441 21.5173 53.6627 23.4454 54.7305C23.835 54.9547 24.2189 55.1957 24.6225 55.3891L24.6253 55.3919ZM19.2893 51.6197C22.0077 52.6258 19.2781 49.7083 18.0281 49.8765C17.4788 48.9208 15.9234 48.3155 17.0192 47.8026C15.0462 48.4864 14.9537 45.1962 14.0205 45.6643C11.9354 45.0057 13.2077 42.6655 10.7247 41.2362C10.4977 39.7229 8.25284 38.4113 7.53539 36.13C7.21871 34.9641 4.99909 31.6095 6.36393 34.7287C7.52418 37.7331 9.56724 40.3058 11.2684 42.8757C12.5856 45.3224 14.1466 47.8811 16.5512 49.4057C17.3639 50.1848 18.143 51.3759 19.2893 51.6197ZM11.4618 43.0243C11.5542 42.6151 11.9578 43.9127 11.4618 43.0243V43.0243ZM22.543 52.8248C23.1456 52.5557 21.6742 52.4885 22.543 52.8248V52.8248ZM24.0172 53.3629C23.8658 52.6202 23.3445 53.7776 24.0172 53.3629V53.3629ZM25.8668 54.1336C26.7412 53.2928 24.5104 53.6067 25.8668 54.1336V54.1336ZM29.0253 55.8992C29.5606 55.1088 27.3158 55.5993 29.0253 55.8992V55.8992ZM22.9522 51.6589C24.317 50.7761 21.1866 51.6477 22.9522 51.6589V51.6589ZM24.3366 52.3483C24.2974 51.8831 23.8434 52.5585 24.3366 52.3483V52.3483ZM31.2589 56.6699C32.3715 57.3705 37.7608 58.2113 34.3838 56.9585C33.8233 57.0762 28.1341 55.3499 31.2561 56.6699H31.2589ZM20.2702 48.1109C20.1581 47.6429 18.5438 47.5924 20.2702 48.1109V48.1109ZM23.4931 49.9886C24.3338 49.4001 21.7527 49.5402 23.4931 49.9886V49.9886ZM26.2003 51.6505C27.4054 51.1965 24.2498 51.1937 26.2003 51.6505V51.6505ZM18.9586 46.6816C20.2646 47.6849 24.2274 46.8105 20.9596 46.0846C19.4742 45.2915 16.1196 44.7506 18.4037 46.5611L18.9586 46.6816ZM28.0388 52.225C28.5797 51.3002 25.7547 51.6925 28.0388 52.225V52.225ZM25.2811 50.0306C28.476 50.9358 22.5963 48.0128 24.4936 49.6999L24.914 49.8905L25.2783 50.0306H25.2811ZM30.8105 53.2255C33.8373 53.2536 28.078 52.8136 30.8105 53.2255V53.2255ZM17.7955 44.93C17.6778 44.3695 17.05 44.9804 17.7955 44.93V44.93ZM35.928 56.0981C36.0064 55.0808 34.9387 56.8548 35.928 56.0981V56.0981ZM22.9522 48.0941C22.7728 47.5588 22.0105 48.0716 22.9522 48.0941V48.0941ZM18.0814 44.5797C19.8189 44.476 15.7048 43.8146 18.0814 44.5797V44.5797ZM12.3081 40.8467C12.0923 40.0143 10.4192 39.3501 12.3081 40.8467V40.8467ZM27.4615 50.4734C27.142 50.1091 27.3101 50.5519 27.4615 50.4734V50.4734ZM36.8949 56.2607C36.8668 55.7086 36.382 56.4709 36.8949 56.2607V56.2607ZM26.6263 49.6102C26.7945 48.8956 25.1466 49.3945 26.6263 49.6102V49.6102ZM19.6032 45.1486C20.8923 45.0085 17.5293 44.277 19.6032 45.1486V45.1486ZM31.4887 52.5389C33.501 51.7402 29.527 52.1465 31.4887 52.5389V52.5389ZM25.3063 48.3435C27.624 48.6406 22.5458 46.7657 24.7991 48.1753L25.3063 48.3435ZM33.3665 53.2984C35.5328 52.0036 34.8182 56.3308 37.0406 53.6627C39.2322 52.0653 35.1489 55.6441 37.8533 53.9514C39.8039 52.6426 42.6905 54.5679 44.5122 55.1985C45.8238 55.1341 47.0989 56.3335 48.4441 55.6049C51.0309 54.9043 43.3827 54.5679 45.3894 53.3348C43.0212 54.0215 41.2696 52.5109 40.1066 50.9947C37.4498 50.3781 34.3782 49.0245 33.0526 46.6732C32.5145 45.7904 33.8373 46.7965 32.5873 45.356C30.9899 43.9323 30.1884 42.3152 29.1122 40.5861C27.8314 39.9022 27.6829 37.8872 27.5512 40.5188C27.5624 38.8569 26.0014 37.7387 25.623 38.2039C25.6174 36.6036 27.2905 37.4052 26.1163 36.2225C25.864 34.5634 25.0345 32.8314 24.7851 30.9621C24.3983 30.0597 24.729 28.1287 23.4595 30.1718C22.997 32.3298 23.3053 27.5178 24.0256 29.1068C24.97 27.4813 23.6893 27.6775 23.6332 27.9017C24.2498 26.5341 24.0256 24.5947 23.4735 25.3346C23.8014 23.8857 23.9919 20.0042 22.983 20.6936C23.594 19.1802 24.1433 13.7629 21.4865 15.8284C20.4103 15.8424 18.5494 16.2207 17.6666 16.6579C20.4299 18.1797 17.3863 17.2072 16.2653 16.9662C16.1196 18.3731 15.0042 17.7649 13.6141 17.7789C15.8365 18.0536 12.5323 20.049 11.2572 19.2755C9.60367 20.0658 12.6865 22.0416 11.2908 22.6526C11.459 23.5718 8.7545 22.3163 8.96469 24.4462C7.35883 23.7708 8.74609 26.9685 9.55042 25.8867C12.2829 26.6266 11.473 28.3137 11.5402 29.914C11.0974 30.8472 9.34303 27.7196 11.1479 27.8653C9.72698 25.5476 9.57565 27.0245 8.39017 28.1035C8.10991 28.182 11.4141 29.6365 9.34303 30.354C11.1647 30.6342 11.2151 32.2317 11.5851 33.2406C12.6781 34.3812 12.4539 31.9794 13.7683 33.3527C12.9387 32.1308 9.37667 29.9112 12.2437 30.623C12.2297 29.3899 11.7252 28.4006 12.6052 28.4258C13.474 26.8508 11.6944 32.3129 13.6562 30.3091C14.197 30.0709 14.3288 28.7313 15.3097 30.4352C16.7249 31.8309 15.8197 32.8398 13.8215 31.5647C14.1774 32.7782 16.4951 33.2098 16.0607 35.1099C16.5232 36.7774 17.1677 36.1636 17.7311 36.0683C18.1739 37.6882 18.4233 36.4971 18.4457 35.7236C20.4635 36.158 19.9927 37.3491 20.6261 38.1899C22.0189 38.8176 18.6307 33.9244 21.024 36.7157C23.5407 38.9858 21.9685 39.9387 19.7068 39.5743C21.1361 39.4594 21.5986 41.5081 23.3866 41.4352C25.0177 42.2115 26.1191 45.1906 23.3109 43.9491C22.3356 43.0719 18.8829 41.9873 21.7051 43.6576C24.3086 44.8627 26.3713 45.5858 28.8824 47.0964C30.676 48.3799 31.4551 49.8485 32.1333 50.1399C30.6256 50.8602 27.5848 49.5626 29.8437 49.1646C28.434 48.9096 26.8505 48.1978 28.1986 49.9494C29.3476 50.9106 32.2622 50.8069 32.7863 50.9162C32.3407 51.8915 31.5812 51.97 32.8031 52.0457C31.4411 52.7743 33.2403 52.8864 33.3665 53.3012V53.2984ZM30.5807 45.4288C29.7512 44.5601 29.5354 42.9346 30.4322 44.3499C30.8918 44.5348 31.9035 47.0039 30.5807 45.4288ZM39.6554 51.1937C40.1738 51.1629 39.6722 51.586 39.6554 51.1937V51.1937ZM29.2691 43.3017C29.2411 41.9901 29.569 44.3106 29.2691 43.3017V43.3017ZM28.3667 42.0882C27.3242 40.0704 29.6839 42.6599 28.3667 42.0882V42.0882ZM17.4368 34.5438C18.0505 34.3756 17.7395 35.5919 17.4368 34.5438V34.5438ZM26.1359 39.2576C26.5114 37.8452 26.5787 40.4459 26.1359 39.2576V39.2576ZM19.9927 34.9838C19.5583 34.2047 20.8979 35.7124 19.9927 34.9838V34.9838ZM25.2671 36.6765C24.2806 34.4625 25.9677 35.4658 25.4857 37.0408L25.2671 36.6765ZM16.17 30.609C15.7272 29.8803 14.9986 27.7504 15.234 27.1002C15.447 28.1596 17.4872 31.6599 16.2345 28.5519C14.85 25.9456 17.888 29.3983 18.2019 30.0485C18.342 30.6931 17.3471 29.8719 18.0225 31.3881C16.7894 29.6589 17.2939 32.341 16.17 30.609ZM13.3591 28.6724C13.4712 26.9825 14.0037 29.8299 13.3591 28.6724V28.6724ZM14.6202 29.1068C15.2256 27.8317 15.646 30.8836 14.6202 29.1068V29.1068ZM11.5823 26.7527C10.5341 25.7157 9.77743 24.7545 11.6299 26.1081C12.3446 26.1361 10.0437 23.9277 11.7981 25.4075C13.6477 25.7438 12.7145 28.4398 11.5823 26.7527ZM13.1797 26.7107C13.7879 26.1081 13.502 27.3048 13.1797 26.7107V26.7107ZM14.1606 27.0273C13.2414 25.2982 15.2816 27.7504 14.1606 27.0273V27.0273ZM12.2072 25.158C9.16367 22.4508 16.0327 26.5761 12.7033 25.6625L12.2072 25.158ZM20.9232 30.225C19.606 29.4347 20.5784 24.6648 21.0268 27.927C22.3076 27.5122 20.9568 29.6085 21.9096 29.5917C21.7611 30.9173 21.3323 31.3937 20.9288 30.225H20.9232ZM24.1461 32.1308C24.2806 30.6931 24.4235 33.1117 24.1461 32.1308V32.1308ZM23.5856 31.5759C23.7369 30.9593 23.6052 32.2989 23.5856 31.5759V31.5759ZM12.807 24.2696C10.8536 21.5708 18.4877 26.9965 14.0597 24.9535C13.5973 24.8329 13.0396 24.7853 12.807 24.2696ZM19.0174 27.5626C18.8325 25.2926 19.4294 27.9382 19.0174 27.5626V27.5626ZM23.7313 30.5866C24.0956 29.2918 23.7593 31.4413 23.7313 30.5866V30.5866ZM13.1041 23.2383C14.2671 22.9917 17.9188 25.2814 14.5614 23.8941C14.1914 23.4793 13.3955 23.6699 13.1041 23.2383ZM23.0811 28.2128C23.2044 25.8867 23.7761 26.8256 23.0867 28.5435L23.0811 28.2128ZM13.97 22.4312C14.4437 21.7361 12.7089 19.2923 14.2195 21.554C14.8697 22.0724 16.1028 22.4228 15.0126 22.6386C16.7221 24.1491 14.5922 23.0477 13.97 22.4312ZM22.5879 27.487C22.9158 24.8414 22.8765 29.0368 22.5879 27.487V27.487ZM12.9807 19.9873C13.3423 19.8332 13.1713 20.4694 12.9807 19.9873V19.9873ZM15.2284 21.327C15.8057 20.1107 16.2933 22.6806 15.2284 21.327V21.327ZM21.5705 24.8554C21.5649 24.3873 21.691 25.5336 21.5705 24.8554V24.8554ZM21.2034 24.0426C20.3234 21.8679 22.0217 25.1917 21.2034 24.0426V24.0426ZM20.6625 22.6133C20.514 21.7165 21.167 23.7456 20.6625 22.6133V22.6133ZM21.5425 21.184C20.9372 20.1191 22.3048 16.4954 22.4561 18.7458C21.82 20.4974 22.274 21.4783 22.7168 19.127C23.5379 17.2773 22.5402 22.7787 21.5397 21.1868L21.5425 21.184ZM22.4449 15.7947C22.7084 15.4724 22.501 16.1843 22.4449 15.7947V15.7947ZM20.9344 45.5382C20.5756 45.2271 20.9792 45.7343 20.9344 45.5382V45.5382ZM24.0452 47.1076C25.7687 47.556 25.7603 46.8413 24.1993 46.6311C23.3586 45.8464 20.7074 45.0197 23.0783 46.5331C23.2381 46.931 23.7369 46.9226 24.0424 47.1104L24.0452 47.1076ZM17.9048 43.0327C18.8577 43.7417 21.4921 45.0477 19.2612 43.3017C20.0151 42.4273 17.8207 41.9621 18.5494 41.3792C16.6997 40.2469 17.0921 40.3478 18.3868 40.3815C16.1616 39.3894 18.7063 39.4622 18.583 38.9522C17.7282 38.784 14.3232 37.4388 16.3298 39.0643C14.2951 38.0273 15.8449 39.451 15.2312 39.2997C13.1489 38.7336 17.0809 40.8831 14.9005 40.3506C16.0916 41.2951 18.1122 42.772 15.4049 41.3511C15.0462 41.864 17.3387 42.6403 17.9048 43.0327ZM21.1558 44.902C25.1073 46.1743 19.2192 43.3438 21.1558 44.902V44.902ZM37.8029 54.9855C37.8589 54.2008 37.262 55.6581 37.8029 54.9855V54.9855ZM39.5152 55.7058C40.4261 54.823 39.5517 57.1155 41.0286 55.49C41.0426 54.3269 40.981 53.6403 39.3303 55.0528C38.8763 55.305 38.6745 56.3784 39.5152 55.7058ZM12.353 38.6467C12.0727 37.5453 10.3912 37.5537 12.353 38.6467V38.6467ZM14.1802 39.8462C13.502 38.7196 11.7588 38.826 14.1802 39.8462V39.8462ZM24.5777 46.1155C25.5922 47.0123 29.2355 46.7769 25.8108 46.2276C25.3007 45.4709 22.5851 45.6559 24.5777 46.1155ZM38.8622 54.9407C40.4261 53.6291 37.3489 55.5236 38.8622 54.9407V54.9407ZM42.1132 57.1715C42.1216 56.7511 41.4406 57.3565 42.1132 57.1715V57.1715ZM42.116 56.583C43.8452 54.7501 40.4401 56.6923 42.116 56.583V56.583ZM7.86049 34.8857C6.38635 32.7838 6.94406 31.8365 5.52036 30.1213C5.25132 28.8042 3.08215 25.825 4.39934 28.9835C5.60444 30.8304 5.96317 33.689 7.86049 34.8857ZM41.5751 56C44.756 53.943 40.2691 55.1032 41.5751 56V56ZM44.0021 56.9529C45.5996 55.5853 42.9932 56.6671 44.0021 56.9529V56.9529ZM11.8121 36.3206C12.2689 35.6424 10.635 36.2337 11.8121 36.3206V36.3206ZM43.4949 56.2999C45.0391 55.305 43.1417 55.4592 43.2146 56.3896L43.4949 56.2999ZM22.5598 43.0999C22.5038 42.4273 21.7443 43.156 22.5598 43.0999V43.0999ZM23.849 43.8482C23.4426 43.0159 23.2212 43.9799 23.849 43.8482V43.8482ZM45.9723 56.9753C47.9481 55.546 44.7728 56.7007 45.5575 57.2444L45.9723 56.9753ZM45.2156 56.611C46.8243 55.2602 43.5145 57.2079 45.2156 56.611V56.611ZM49.0831 59.1837C50.1649 58.4607 47.7687 58.9511 49.0831 59.1837V59.1837ZM12.807 35.8301C14.2559 36.1552 18.597 39.4006 16.0355 36.0543C14.7239 35.6676 15.5114 32.4587 14.1718 33.0276C15.0686 34.5269 14.9117 35.1659 13.0228 34.2215C10.6546 33.064 11.6944 34.7932 12.154 35.2696C11.5262 35.4154 12.9919 35.8189 12.807 35.8301ZM6.20418 30.6174C6.46202 29.544 3.81361 24.7124 4.95425 28.196C5.36342 28.9247 5.31858 30.3091 6.20418 30.6174ZM18.3224 38.089C17.5769 37.464 18.286 37.9993 18.3224 38.089V38.089ZM20.1609 38.515C20.1609 37.3799 18.129 38.0554 20.1609 38.515V38.515ZM36.0821 48.5565C35.7794 47.7774 34.8826 48.5397 36.0821 48.5565V48.5565ZM36.8472 49.1142C36.7351 48.6798 36.4072 49.1983 36.8472 49.1142V49.1142ZM43.1585 53.0938C43.7639 52.6454 42.4019 53.0378 43.1585 53.0938V53.0938ZM9.49998 31.4582C11.2376 30.7856 7.63909 30.9817 9.49998 31.4582V31.4582ZM34.678 47.3262C34.6584 46.2024 33.571 47.6064 34.678 47.3262V47.3262ZM8.81055 29.8635C9.92877 29.4852 7.78202 29.6113 8.81055 29.8635V29.8635ZM12.0503 31.4329C12.0307 31.0602 11.7084 31.5731 12.0503 31.4329V31.4329ZM51.5382 55.6469C52.9731 55.3555 56.2408 56.3756 56.7677 55.2658C55.0301 55.2237 50.7422 54.0383 50.5404 55.546L50.9216 55.6105L51.5382 55.6469ZM13.0788 31.6908C13.104 30.5501 12.1904 31.6487 13.0788 31.6908V31.6908ZM4.5675 25.783C4.18075 23.611 3.09616 25.4523 4.5675 25.783V25.783ZM6.59654 26.2931C6.62176 25.5924 4.73845 25.6653 6.59654 26.2931V26.2931ZM7.75679 26.862C7.42049 26.5901 7.49335 27.2039 7.75679 26.862V26.862ZM15.0574 31.5422C15.3993 31.2284 14.2447 31.3096 15.0574 31.5422V31.5422ZM6.98609 25.5784C6.78992 23.9389 4.63196 25.3318 6.98609 25.5784V25.5784ZM2.82151 22.8768C2.76546 22.1201 2.41795 23.1626 2.82151 22.8768V22.8768ZM3.43807 22.4087C3.33998 21.5119 2.90559 22.5208 3.43807 22.4087V22.4087ZM6.85718 24.4518C8.3089 23.8829 4.22278 23.2747 6.56571 24.3397L6.85718 24.4518ZM52.6339 52.7267C53.5588 51.8775 51.4569 52.4632 52.6339 52.7267V52.7267ZM58.1662 55.5937C58.5361 54.4951 57.2301 55.7338 58.1662 55.5937V55.5937ZM7.2103 22.6582C7.36444 21.5932 6.06125 22.8684 7.2103 22.6582V22.6582ZM2.34508 19.4016C2.08444 17.9023 2.12088 15.2707 4.62075 16.1619C1.28291 16.8233 6.93004 20.3096 6.2182 17.5575C7.61947 17.6248 8.96469 16.728 8.22482 18.09C10.9909 17.7817 12.9051 15.3884 15.5787 15.7219C17.6582 15.4472 19.9339 15.2398 22.1759 14.4019C24.02 14.2673 25.7912 12.2831 24.7823 11.1089C22.2712 10.8959 19.6396 11.2098 16.8595 11.7619C13.7823 12.4009 10.9853 13.6172 7.8773 14.1412C4.85055 14.5476 8.48546 15.2623 7.61947 15.4192C6.03883 15.9685 9.50278 16.3384 7.41488 16.9158C6.12571 16.6691 4.78049 16.2263 5.33259 14.8699C2.43196 15.2426 -0.118358 16.4477 2.17412 19.3988H2.34228L2.34508 19.4016ZM9.33463 15.8424C10.0156 13.3369 12.9779 17.9023 10.45 16.1731C10.1474 15.9489 9.65131 15.7639 9.33463 15.8368V15.8424ZM9.46635 14.6261C10.4472 13.8974 9.98762 15.0352 9.46635 14.6261V14.6261ZM10.7135 14.6485C10.8032 13.4966 13.5665 15.2594 11.1703 15.0633L10.7135 14.6485ZM12.4174 13.9619C13.0396 13.2332 12.5968 14.6065 12.4174 13.9619V13.9619ZM12.8546 13.6704C13.8916 12.4261 18.726 12.8773 15.1863 13.5499C14.2391 12.8352 13.5104 13.9703 12.8546 13.6704ZM19.1603 12.6979C19.0062 9.29564 22.2964 13.9086 19.1603 12.6979V12.6979ZM20.954 12.6867C21.607 10.9716 23.4931 12.0001 21.2567 12.342C21.3043 12.5242 21.1894 13.2276 20.954 12.6867ZM6.50686 21.781C8.46023 20.5843 4.43017 20.744 6.50686 21.781V21.781ZM7.95017 22.1845C8.63679 21.4559 6.46202 21.8875 7.95017 22.1845V22.1845ZM3.6903 19.1578C4.80852 18.303 2.3703 18.8327 3.6903 19.1578V19.1578ZM61.4283 55.2826C61.462 54.2877 60.5764 55.731 61.4283 55.2826V55.2826ZM55.5626 51.275C55.7308 50.1315 54.8059 51.3787 55.5626 51.275V51.275ZM63.0454 55.6693C64.6064 55.6693 67.7761 55.1845 64.3766 55.1845C63.8441 55.2686 61.2686 55.2518 63.0426 55.6693H63.0454ZM9.21972 21.4783C10.4809 21.3942 11.1983 20.0854 8.9759 20.1611C5.52877 19.8052 12.0139 21.3382 8.5331 20.901C8.06507 21.2093 9.1945 21.5652 9.21972 21.4811V21.4783ZM10.3351 22.0444C10.2006 21.2317 9.94278 22.476 10.3351 22.0444V22.0444ZM11.6523 18.5216C12.2044 17.8406 10.8956 18.3394 11.6523 18.5216V18.5216ZM7.44851 11.4928C9.70737 10.7249 12.793 9.86455 13.8579 11.8712C12.7733 10.5652 13.4207 9.28162 14.4465 11.1902C15.8926 13.1211 16.6184 10.313 15.674 9.66277C16.7474 10.9968 17.9693 11.6245 16.3942 9.74684C18.1038 7.68977 12.9667 10.0187 11.7981 9.99347C11.2376 10.2457 5.99399 11.3303 7.45132 11.4928H7.44851ZM8.77132 8.96213C10.0605 7.98965 13.2218 9.53946 11.1927 7.99525C10.9965 7.8215 6.74788 9.16672 8.77132 8.96213ZM13.4628 9.15551C14.9705 9.19194 12.8154 7.13207 14.609 8.06251C14.3147 7.10124 12.5183 6.92188 11.6383 6.53793C11.1451 7.41793 12.6472 9.16672 13.46 9.15551H13.4628ZM9.59526 4.89564C10.1165 4.1894 8.68163 5.25436 9.59526 4.89564V4.89564ZM11.5122 5.35526C13.9392 5.03296 10.8956 4.30991 11.0246 5.32723L11.5122 5.35526ZM7.93335 2.55271C6.2238 0.321885 11.1451 2.92825 9.4103 0.590929C7.94737 -0.572127 6.54329 1.90252 7.93335 2.55271ZM29.8605 14.3654C30.6452 12.9754 26.6235 12.4933 29.3336 13.875C29.5858 13.9591 29.5298 14.4635 29.8605 14.3654Z" fill="#F0F0F0"/>
</svg>
