<svg width="44" height="41" viewBox="0 0 44 41" fill="none" xmlns="http://www.w3.org/2000/svg">
<path fill-rule="evenodd" clip-rule="evenodd" d="M21.9039 0.857422C16.7994 0.859956 11.8623 2.58964 7.97537 5.73718C4.08844 8.88472 1.50516 13.2449 0.68745 18.038C-0.130263 22.8311 0.870901 27.7447 3.51195 31.9C6.15299 36.0554 10.2617 39.1816 15.1033 40.7197C16.1715 40.9093 16.5738 40.276 16.5738 39.7374C16.5738 39.1989 16.5525 37.6374 16.5453 35.9304C10.5637 37.1666 9.29974 33.5154 9.29974 33.5154C8.32416 31.1445 6.9142 30.5212 6.9142 30.5212C4.96304 29.2545 7.06019 29.2782 7.06019 29.2782C9.22141 29.4238 10.3572 31.3883 10.3572 31.3883C12.2728 34.5146 15.3882 33.6102 16.613 33.0819C16.8053 31.7575 17.3643 30.8566 17.9802 30.3451C13.202 29.8303 8.18173 28.0758 8.18173 20.2381C8.15212 18.2055 8.94502 16.2398 10.3964 14.7477C10.1756 14.2329 9.43859 12.1532 10.6064 9.32845C10.6064 9.32845 12.4116 8.77975 16.5204 11.425C20.0447 10.5082 23.7631 10.5082 27.2874 11.425C31.3926 8.77975 33.1942 9.32845 33.1942 9.32845C34.3656 12.1465 33.6286 14.2261 33.4079 14.7477C34.8638 16.24 35.6584 18.2092 35.6261 20.2449C35.6261 28.0995 30.5951 29.8303 25.8098 30.335C26.5788 30.9717 27.266 32.2148 27.266 34.1251C27.266 36.8618 27.2411 39.0634 27.2411 39.7374C27.2411 40.2827 27.6292 40.9195 28.7187 40.7197C33.5609 39.1814 37.67 36.0546 40.311 31.8986C42.952 27.7425 43.9527 22.8282 43.134 18.0347C42.3154 13.2411 39.7308 8.88089 35.8426 5.73389C31.9544 2.58689 27.0161 0.85835 21.911 0.857422H21.9039Z" fill="white" fill-opacity="0.5"/>
</svg>
