<svg width="60" height="23" viewBox="0 0 60 23" fill="none" xmlns="http://www.w3.org/2000/svg">
<path d="M4.52757 6.78599C4.41007 6.78599 4.38257 6.72849 4.44007 6.63849L5.05506 5.851C5.11256 5.7635 5.25756 5.706 5.37506 5.706H15.805C15.92 5.706 15.95 5.7935 15.8925 5.881L15.395 6.63849C15.3375 6.72849 15.19 6.81349 15.1025 6.81349L4.52757 6.78599ZM0.117593 9.47348C9.32435e-05 9.47348 -0.0299066 9.41598 0.0300931 9.32848L0.64259 8.53848C0.700089 8.45098 0.847588 8.39348 0.965088 8.39348H14.285C14.4025 8.39348 14.46 8.48098 14.43 8.56848L14.1975 9.26848C14.1675 9.38598 14.0525 9.44348 13.935 9.44348L0.117593 9.47348ZM7.18755 12.161C7.07005 12.161 7.04005 12.0735 7.10005 11.986L7.50755 11.256C7.56505 11.1685 7.68255 11.081 7.80005 11.081H13.6425C13.76 11.081 13.8175 11.1685 13.8175 11.286L13.76 11.986C13.76 12.1035 13.6425 12.191 13.555 12.191L7.18755 12.161ZM37.5099 6.261C35.6699 6.72849 34.4124 7.07849 32.6024 7.54599C32.1624 7.66099 32.1349 7.69099 31.7524 7.25349C31.3174 6.75599 30.9949 6.43599 30.3824 6.1435C28.5399 5.2385 26.7574 5.501 25.0949 6.58099C23.1075 7.86599 22.085 9.76598 22.115 12.131C22.1425 14.4685 23.75 16.3959 26.0574 16.7184C28.0449 16.9809 29.7074 16.2809 31.0249 14.7934C31.2874 14.4684 31.5199 14.1185 31.8124 13.7085H26.1749C25.5624 13.7085 25.4149 13.3285 25.6199 12.8335C25.9999 11.9285 26.6999 10.4085 27.1099 9.64848C27.1725 9.50768 27.2751 9.38834 27.4048 9.30524C27.5346 9.22215 27.6859 9.17894 27.8399 9.18098H38.4724C38.4149 9.97097 38.4149 10.7585 38.2974 11.5485C37.9948 13.6283 37.1709 15.5977 35.9024 17.2734C33.7999 20.0484 31.0524 21.7734 27.5774 22.2384C24.715 22.6184 22.055 22.0634 19.72 20.3134C17.5575 18.6759 16.33 16.5134 16.01 13.826C15.63 10.641 16.565 7.77849 18.4925 5.266C20.5675 2.55102 23.3125 0.826027 26.6724 0.216031C29.4174 -0.283966 32.0474 0.0410309 34.4124 1.64352C35.9624 2.66852 37.0699 4.06851 37.8024 5.7635C37.9774 6.026 37.8599 6.1735 37.5099 6.2635M47.1798 22.4159C44.5198 22.3559 42.0949 21.5959 40.0499 19.8434C38.3486 18.4096 37.2272 16.4058 36.8949 14.206C36.3699 10.906 37.2749 7.98349 39.2624 5.3835C41.3949 2.57852 43.9648 1.11852 47.4423 0.508528C50.4223 -0.0164689 53.2273 0.271029 55.7673 1.99602C58.0748 3.57101 59.5073 5.706 59.8873 8.50848C60.3822 12.4535 59.2448 15.6659 56.5273 18.4134C54.5998 20.3709 52.2323 21.5959 49.5148 22.1509C48.7273 22.3009 47.9398 22.3259 47.1798 22.4159ZM54.1298 10.616C54.1023 10.2335 54.1023 9.94098 54.0448 9.64848C53.5198 6.75599 50.8598 5.1235 48.0848 5.7635C45.3673 6.37599 43.6148 8.10098 42.9723 10.846C42.4473 13.126 43.5573 15.4334 45.6598 16.3709C47.2673 17.0709 48.8723 16.9809 50.4223 16.1959C52.7298 14.9959 53.9848 13.126 54.1323 10.6135L54.1298 10.616Z" fill="#F0F0F0"/>
</svg>
