<svg width="56" height="60" viewBox="0 0 56 60" fill="none" xmlns="http://www.w3.org/2000/svg">
<path d="M55.1675 26.475C54.9242 23.8352 54.1935 21.2634 53.0125 18.89C51.8815 16.6121 50.3688 14.5448 48.54 12.7775C49.3825 9.4225 47.5075 6.515 47.5075 6.515C44.2775 6.315 42.225 7.515 41.4675 8.065C41.3375 8.015 41.2125 7.955 41.0825 7.905C40.5325 7.6825 39.9675 7.475 39.39 7.2875C38.8125 7.105 38.215 6.9375 37.6125 6.795C36.8898 6.62801 36.1598 6.49371 35.425 6.3925C34.01 1.8825 29.9675 0 29.9675 0C25.4575 2.8625 24.6 6.86 24.6 6.86L24.555 7.0925C24.31 7.165 24.055 7.235 23.81 7.3125C23.465 7.4175 23.1225 7.5475 22.7775 7.67C22.4325 7.8075 22.09 7.9375 21.7525 8.085C20.3852 8.67736 19.0811 9.40605 17.86 10.26L17.7025 10.1875C11.46 7.8 5.9125 10.675 5.9125 10.675C5.405 17.32 8.4025 21.5 9 22.265C8.23927 24.3942 7.72998 26.605 7.4825 28.8525C1.7075 31.6925 0 37.535 0 37.535C4.815 43.07 10.4275 43.4125 10.4275 43.4125C10.435 43.4075 10.4425 43.4075 10.4425 43.4C11.155 44.6725 11.98 45.885 12.9075 47.015C13.2975 47.49 13.7075 47.9425 14.1275 48.385C12.3675 53.4075 14.375 57.585 14.375 57.585C19.735 57.785 23.2575 55.2425 23.9975 54.6525C26.5474 55.5017 29.2199 55.9249 31.9075 55.905H32.1075L32.245 55.8975L32.5125 55.8925L32.77 55.88L32.7775 55.885C35.3025 59.485 39.7475 60 39.7475 60C42.9075 56.67 43.09 53.3675 43.09 52.65V52.505C43.09 52.455 43.0825 52.4075 43.0825 52.355C43.745 51.8875 44.3825 51.3875 44.9775 50.855C46.3507 49.6118 47.5416 48.181 48.515 46.605C52.09 46.8125 54.6075 44.3925 54.6075 44.3925C54.0175 40.6675 51.895 38.8525 51.4475 38.5075L51.4025 38.475L51.3625 38.4425C51.3353 38.4281 51.3094 38.4113 51.285 38.3925C51.305 38.1625 51.325 37.9425 51.335 37.7175C51.3625 37.3125 51.375 36.91 51.375 36.5175V35.885L51.3625 35.64L51.3425 35.3025C51.3379 35.1939 51.3296 35.0855 51.3175 34.9775C51.31 34.8725 51.2975 34.77 51.285 34.665L51.245 34.355L51.2 34.05C50.6544 30.4415 48.8559 27.1403 46.12 24.725C43.8615 22.7285 41.0552 21.4568 38.065 21.075C37.3602 20.9871 36.6502 20.947 35.94 20.955L35.6725 20.96H35.515L35.405 20.9675L35.145 20.9875C33.5417 21.0965 31.9768 21.528 30.5442 22.2561C29.1116 22.9843 27.8406 23.994 26.8075 25.225C25.9775 26.225 25.3275 27.325 24.8875 28.4675C24.3232 29.9134 24.0579 31.4587 24.1075 33.01L24.115 33.2375C24.1275 33.375 24.1325 33.5125 24.1475 33.6475C24.3016 35.2953 24.9052 36.8692 25.8925 38.1975C27.0283 39.7317 28.6309 40.8563 30.46 41.4025C31.285 41.6475 32.11 41.7525 32.8875 41.745C32.985 41.745 33.0825 41.745 33.1725 41.74L33.33 41.7325C33.38 41.7325 33.4325 41.725 33.485 41.725C33.57 41.72 33.6475 41.7075 33.7325 41.7C33.75 41.7 33.7775 41.6925 33.8025 41.6925L33.88 41.68L34.03 41.66C34.1241 41.6478 34.2175 41.6312 34.31 41.61C34.4 41.59 34.49 41.5775 34.5825 41.55C35.4036 41.3538 36.1794 41.0016 36.8675 40.5125C36.9375 40.4625 37.0075 40.41 37.08 40.35C37.1441 40.2992 37.1976 40.2361 37.2372 40.1645C37.2769 40.0929 37.302 40.0142 37.311 39.9328C37.3201 39.8515 37.313 39.7691 37.29 39.6906C37.2671 39.612 37.2289 39.5387 37.1775 39.475C37.0872 39.3628 36.9601 39.2862 36.8187 39.2588C36.6773 39.2313 36.5308 39.2548 36.405 39.325L36.21 39.43C35.985 39.54 35.75 39.6375 35.5025 39.72C35.1155 39.8386 34.7177 39.919 34.315 39.96C34.245 39.9675 34.18 39.975 34.1075 39.975L33.9 39.98C33.835 39.98 33.765 39.98 33.7 39.975L33.445 39.96H33.415L33.355 39.975C33.315 39.9675 33.2775 39.9675 33.245 39.96C33.1675 39.955 33.095 39.9425 33.0175 39.935C32.3914 39.8468 31.7816 39.6674 31.2075 39.4025C30.5978 39.127 30.0351 38.7575 29.54 38.3075C28.467 37.3448 27.7567 36.0432 27.5275 34.62C27.4676 34.2532 27.4433 33.8815 27.455 33.51L27.47 33.205V33.1475L27.475 33.07C27.4825 33.0175 27.4825 32.97 27.4875 32.92C27.6015 31.7776 27.9629 30.6737 28.5466 29.685C29.1303 28.6964 29.9223 27.8467 30.8675 27.195C31.5833 26.7092 32.375 26.346 33.21 26.12C33.8426 25.9499 34.495 25.865 35.15 25.8675H35.3L35.475 25.8725L35.5875 25.88H35.6525L35.8275 25.8925C37.2617 26.0051 38.6553 26.4228 39.915 27.1175C41.6349 28.0716 43.0298 29.5187 43.92 31.2725C44.4794 32.3744 44.8166 33.5755 44.9125 34.8075L44.925 34.9975L44.9325 35.185C44.9375 35.25 44.9375 35.31 44.9375 35.3725C44.9375 35.4325 44.945 35.5025 44.9375 35.5475V35.71L44.9325 35.8925L44.9125 36.3275C44.8736 36.8631 44.8068 37.3963 44.7125 37.925C44.5637 38.7169 44.3402 39.4928 44.045 40.2425C43.6418 41.2441 43.118 42.1928 42.485 43.0675C40.5486 45.7383 37.644 47.5454 34.3925 48.1025C33.856 48.1941 33.3139 48.2492 32.77 48.2675L32.6725 48.275H31.955C30.5021 48.2439 29.0596 48.0211 27.665 47.6125C24.3137 46.6383 21.3451 44.6529 19.165 41.9275C18.4474 41.0349 17.8225 40.0716 17.3 39.0525C16.2664 37.0344 15.6589 34.8253 15.515 32.5625L15.5025 32.355L15.4975 32.305V32.165L15.49 31.9825V31.7425L15.4825 31.4825V31.3075L15.49 30.9C15.51 30.35 15.555 29.775 15.625 29.205C15.7681 28.0591 16.0022 26.9263 16.325 25.8175C16.645 24.7075 17.04 23.6375 17.5075 22.625C18.3904 20.6676 19.6241 18.8883 21.1475 17.375C21.8739 16.6588 22.6723 16.0196 23.53 15.4675C23.9525 15.19 24.3875 14.935 24.84 14.7025C25.0625 14.5775 25.295 14.475 25.5225 14.365C25.64 14.315 25.755 14.26 25.8675 14.21C26.4503 13.956 27.0461 13.7332 27.6525 13.5425L28.015 13.43C28.1375 13.3925 28.26 13.365 28.385 13.3275C28.63 13.255 28.8775 13.1975 29.125 13.1375C29.2475 13.105 29.375 13.0875 29.5 13.055L29.875 12.975L30.2525 12.905L30.4425 12.8725L30.63 12.8475L31.0125 12.7875C31.155 12.7625 31.2975 12.755 31.44 12.73L31.8625 12.6775C31.9525 12.67 32.045 12.6575 32.1275 12.6525L32.31 12.6325L32.4 12.625L32.505 12.62C32.6475 12.6125 32.79 12.6 32.9325 12.595L33.1475 12.58H33.205L33.2975 12.5725L33.66 12.555C35.0904 12.5061 36.5219 12.6108 37.93 12.8675C39.7063 13.1978 41.4289 13.7698 43.05 14.5675C44.5484 15.3034 45.952 16.2184 47.23 17.2925L47.455 17.485L47.6775 17.68C47.8275 17.81 47.9625 17.9475 48.105 18.0775C48.2475 18.2075 48.385 18.3425 48.52 18.4775C48.65 18.615 48.7875 18.745 48.9175 18.8875C50.3187 20.3623 51.5054 22.0269 52.4425 23.8325C52.4725 23.8975 52.5125 23.9625 52.5425 24.0275L52.6425 24.2225L52.83 24.6125C52.8875 24.74 52.955 24.8625 53.005 24.995L53.1675 25.37C53.6312 26.4549 54.0074 27.5751 54.2925 28.72C54.3205 28.8292 54.3865 28.9248 54.4785 28.9899C54.5706 29.0549 54.6827 29.0851 54.795 29.075C54.9113 29.0662 55.0201 29.0141 55.0997 28.9289C55.1794 28.8437 55.2241 28.7316 55.225 28.615C55.25 28 55.23 27.285 55.165 26.475H55.1675Z" fill="#F0F0F0"/>
</svg>
