<svg width="16" height="9" viewBox="0 0 16 9" fill="none" xmlns="http://www.w3.org/2000/svg">
<path d="M8 9C7.80867 9 7.62356 8.96565 7.44466 8.89694C7.26481 8.82824 7.1151 8.73664 6.99552 8.62214L0.394618 2.30153C0.131539 2.04962 0 1.72901 0 1.33969C0 0.950381 0.131539 0.62977 0.394618 0.377862C0.657697 0.125954 0.992526 0 1.3991 0C1.80568 0 2.14051 0.125954 2.40359 0.377862L8 5.73664L13.5964 0.377862C13.8595 0.125954 14.1943 0 14.6009 0C15.0075 0 15.3423 0.125954 15.6054 0.377862C15.8685 0.62977 16 0.950381 16 1.33969C16 1.72901 15.8685 2.04962 15.6054 2.30153L9.00448 8.62214C8.86099 8.75954 8.70553 8.85664 8.53812 8.91343C8.3707 8.97114 8.19133 9 8 9Z" fill="#00A99D"/>
</svg>
