<svg width="66" height="66" viewBox="0 0 66 66" fill="none" xmlns="http://www.w3.org/2000/svg">
<path d="M32.8311 63.6623C49.8587 63.6623 63.6623 49.8587 63.6623 32.8311C63.6623 15.8036 49.8587 2 32.8311 2C15.8036 2 2 15.8036 2 32.8311C2 49.8587 15.8036 63.6623 32.8311 63.6623Z" stroke="white" stroke-width="3.85389" stroke-linecap="round" stroke-linejoin="round"/>
<path d="M32.8308 40.5386C37.0877 40.5386 40.5386 37.0877 40.5386 32.8308C40.5386 28.5739 37.0877 25.123 32.8308 25.123C28.5739 25.123 25.123 28.5739 25.123 32.8308C25.123 37.0877 28.5739 40.5386 32.8308 40.5386Z" stroke="white" stroke-width="3.85389" stroke-linecap="round" stroke-linejoin="round"/>
<path d="M32.831 52.1005C43.4732 52.1005 52.1005 43.4732 52.1005 32.831C52.1005 22.1888 43.4732 13.5615 32.831 13.5615C22.1888 13.5615 13.5615 22.1888 13.5615 32.831C13.5615 43.4732 22.1888 52.1005 32.831 52.1005Z" stroke="white" stroke-width="3.85389" stroke-linecap="round" stroke-linejoin="round"/>
</svg>
