<svg width="65" height="66" viewBox="0 0 65 66" fill="none" xmlns="http://www.w3.org/2000/svg">
<path d="M27.5214 29.9611C24.5586 29.9611 21.6622 29.0825 19.1987 27.4364C16.7352 25.7903 14.8151 23.4507 13.6812 20.7133C12.5474 17.976 12.2507 14.9639 12.8288 12.058C13.4068 9.15204 14.8335 6.48277 16.9286 4.3877C19.0237 2.29264 21.6929 0.86588 24.5989 0.287853C27.5048 -0.290174 30.5169 0.00649081 33.2542 1.14033C35.9916 2.27417 38.3312 4.19426 39.9773 6.6578C41.6234 9.12133 42.502 12.0177 42.502 14.9805C42.502 18.9536 40.9237 22.764 38.1143 25.5734C35.3049 28.3828 31.4945 29.9611 27.5214 29.9611ZM27.5214 4.45136C25.4051 4.45136 23.3363 5.07893 21.5766 6.2547C19.817 7.43047 18.4455 9.10164 17.6356 11.0569C16.8257 13.0121 16.6138 15.1636 17.0267 17.2393C17.4395 19.3149 18.4587 21.2216 19.9551 22.718C21.4516 24.2145 23.3582 25.2336 25.4339 25.6465C27.5096 26.0594 29.6611 25.8475 31.6163 25.0376C33.5715 24.2277 35.2427 22.8562 36.4185 21.0965C37.5942 19.3369 38.2218 17.2681 38.2218 15.1517C38.2218 13.7465 37.945 12.3551 37.4073 11.0569C36.8695 9.75865 36.0814 8.57905 35.0877 7.58543C34.0941 6.59181 32.9145 5.80362 31.6163 5.26588C30.3181 4.72814 28.9266 4.45136 27.5214 4.45136ZM39.4417 32.5505C27.8605 29.9445 15.7447 31.1997 4.94365 36.1245C3.45821 36.834 2.20491 37.951 1.3297 39.3453C0.454489 40.7395 -0.00661928 42.3538 7.1798e-05 43.9999V56.7334C7.17921e-05 57.0144 0.0554268 57.2927 0.162976 57.5524C0.270524 57.812 0.428161 58.0479 0.626885 58.2467C0.82561 58.4454 1.06153 58.603 1.32118 58.7106C1.58082 58.8181 1.85911 58.8735 2.14015 58.8735C2.42119 58.8735 2.69947 58.8181 2.95912 58.7106C3.21876 58.603 3.45468 58.4454 3.65341 58.2467C3.85213 58.0479 4.00977 57.812 4.11732 57.5524C4.22487 57.2927 4.28022 57.0144 4.28022 56.7334V43.9999C4.26159 43.1668 4.48657 42.3464 4.92755 41.6393C5.36853 40.9322 6.00634 40.3692 6.76271 40.0194C13.2691 37.0152 20.355 35.4738 27.5214 35.5039C31.5369 35.4987 35.5386 35.9729 39.4417 36.9163V32.5505ZM39.7413 52.9027H52.8813V55.8988H39.7413V52.9027Z" fill="white"/>
<path d="M62.4258 39.5272H51.3616V43.8073H60.2857V61.7198H29.9608V43.8073H43.4433V44.7062C43.4433 45.2738 43.6688 45.8181 44.0701 46.2194C44.4714 46.6208 45.0158 46.8463 45.5834 46.8463C46.1509 46.8463 46.6953 46.6208 47.0966 46.2194C47.498 45.8181 47.7234 45.2738 47.7234 44.7062V36.3813C47.7234 35.8137 47.498 35.2694 47.0966 34.868C46.6953 34.4667 46.1509 34.2412 45.5834 34.2412C45.0158 34.2412 44.4714 34.4667 44.0701 34.868C43.6688 35.2694 43.4433 35.8137 43.4433 36.3813V39.5272H27.8207C27.2532 39.5272 26.7088 39.7527 26.3075 40.154C25.9061 40.5554 25.6807 41.0997 25.6807 41.6673V63.8599C25.6807 64.4274 25.9061 64.9718 26.3075 65.3731C26.7088 65.7745 27.2532 65.9999 27.8207 65.9999H62.4258C62.9933 65.9999 63.5377 65.7745 63.939 65.3731C64.3404 64.9718 64.5658 64.4274 64.5658 63.8599V41.6673C64.5658 41.0997 64.3404 40.5554 63.939 40.154C63.5377 39.7527 62.9933 39.5272 62.4258 39.5272Z" fill="white"/>
</svg>
