<svg width="59" height="60" viewBox="0 0 59 60" fill="none" xmlns="http://www.w3.org/2000/svg">
<path d="M0 0H58.0293V60H0V0ZM53.2757 45.69C52.8526 42.9525 51.1286 40.6525 46.0148 38.5075C44.2352 37.645 42.2574 37.045 41.6699 35.6575C41.4498 34.8325 41.416 34.3825 41.5586 33.895C41.9213 32.28 43.771 31.795 45.2217 32.245C46.1647 32.545 47.0351 33.295 47.5816 34.495C50.0817 32.805 50.0817 32.805 51.825 31.6825C51.1721 30.6325 50.8482 30.18 50.4081 29.7325C48.8848 27.97 46.8562 27.07 43.5558 27.1475L41.8512 27.37C40.2167 27.7825 38.6596 28.6825 37.7166 29.8825C34.9602 33.11 35.7557 38.735 39.0924 41.06C42.3928 43.61 47.2189 44.17 47.8355 46.5725C48.4158 49.4975 45.7319 50.435 43.0819 50.0975C41.121 49.6475 40.0354 48.6325 38.8385 46.7575L34.4138 49.385C34.9215 50.585 35.5018 51.1075 36.3723 52.1575C40.5794 56.5475 51.0972 56.3225 52.9856 49.6475C53.0557 49.4225 53.5659 47.885 53.1645 45.5225L53.2757 45.69ZM31.5558 27.5775H26.1204C26.1204 32.4225 26.0987 37.2375 26.0987 42.09C26.0987 45.17 26.251 47.9975 25.765 48.8675C24.9671 50.59 22.9119 50.37 21.9786 50.0675C21.0211 49.5775 20.5351 48.9025 19.9717 47.93C19.8194 47.6675 19.7058 47.44 19.6647 47.44L15.252 50.2525C15.9895 51.8275 17.0654 53.1825 18.4533 54.045C20.5206 55.32 23.2988 55.7325 26.2075 55.0575C28.1007 54.4925 29.7327 53.33 30.5863 51.53C31.8194 49.205 31.5583 46.355 31.5462 43.165C31.5752 38.03 31.5462 32.8925 31.5462 27.7175L31.5558 27.5775Z" fill="#F5F5F5"/>
</svg>
