<svg width="100%" height="100%" viewBox="0 0 388 397" fill="none" xmlns="http://www.w3.org/2000/svg">
<path fill-rule="evenodd" clip-rule="evenodd" d="M0 188.662V377.324L7.10727 386.781L14.2145 396.238H38.5191H62.8238L64.4674 393.728C67.5869 388.968 67.4053 383.306 63.9734 378.272C57.881 369.339 62.9006 358.736 74.1653 356.742L77.9773 356.066L98.1475 376.152L118.317 396.238H145.535H172.754L174.771 391.679C178.837 382.483 178.572 382.028 152.682 353.819C67.6537 261.175 60.6732 253.268 61.274 250.262C62.5014 244.123 70.443 237.543 76.6242 237.543C78.7368 237.543 83.0528 242.266 193.599 365.553L221.042 396.159L248.749 396.198L276.456 396.238L278.434 392.994C280.417 389.741 280.883 385.289 279.583 382.005C279.201 381.039 230.06 331.377 170.38 271.646C104.029 205.239 61.8717 162.323 61.8717 161.185C61.8717 154.649 70.6475 145.72 77.0712 145.72C79.133 145.72 97.2574 163.64 171.71 239.29C222.359 290.754 277.938 347.12 295.219 364.549L326.639 396.238H351.395C379.203 396.238 377.179 396.816 379.085 388.331C380.437 382.313 378.893 378.049 372.982 371.476C366.102 363.824 215.777 204.623 212.588 201.612C208.639 197.881 206.419 200.449 295.443 105.796C386.012 9.50171 389.027 6.11224 387.36 2.45428L386.242 0H354.534H322.826L243.493 79.4152L164.16 158.831L159.805 158.373C152.158 157.57 146.622 151.44 146.514 143.655L146.457 139.491L212.44 73.4706C280.476 5.39661 280.924 4.89658 277.225 1.1977C276.347 0.319386 268.308 0.011977 247.038 0.0459117L218.048 0.0918233L198.089 19.1681C187.112 29.6609 168.937 47.0445 157.699 57.7988C105.064 108.17 111.217 102.802 106.108 102.802C100.021 102.802 93.8055 97.1002 93.8055 91.5149C93.8055 88.1574 95.7006 86.1802 130.978 52.7285C181.594 4.73389 178.63 7.71017 178.63 4.86264C178.63 0.0439157 178.315 0 143.911 0H111.588L104.308 6.73704C100.304 10.4429 88.2071 21.9637 77.4255 32.3388C56.2424 52.7256 55.8163 52.9821 48.9994 49.4568C45.838 47.822 42.911 43.3765 42.911 40.2106C42.911 39.2066 49.7948 31.5283 58.379 22.9558C73.6344 7.72214 74.8997 5.90164 73.2412 1.57896C72.7043 0.178656 68.514 0 36.3177 0H0V188.662Z" fill="#00A99D"/>
</svg>
