<svg width="33" height="26" viewBox="0 0 33 26" fill="none" xmlns="http://www.w3.org/2000/svg">
<path d="M3.23171 25.8537C2.34299 25.8537 1.58246 25.5375 0.950122 24.9052C0.316707 24.2717 0 23.5107 0 22.622V3.23171C0 2.34299 0.316707 1.58246 0.950122 0.950122C1.58246 0.316707 2.34299 0 3.23171 0H29.0854C29.9741 0 30.7352 0.316707 31.3686 0.950122C32.0009 1.58246 32.3171 2.34299 32.3171 3.23171V22.622C32.3171 23.5107 32.0009 24.2717 31.3686 24.9052C30.7352 25.5375 29.9741 25.8537 29.0854 25.8537H3.23171ZM16.1585 14.2599C16.2932 14.2599 16.4343 14.2394 16.5819 14.1985C16.7305 14.1586 16.8722 14.0983 17.0069 14.0175L28.439 6.86738C28.6545 6.73272 28.8161 6.56468 28.9238 6.36323C29.0315 6.16071 29.0854 5.93826 29.0854 5.69588C29.0854 5.15727 28.8565 4.7533 28.3986 4.48399C27.9408 4.21468 27.4695 4.22815 26.9848 4.52439L16.1585 11.311L5.33232 4.52439C4.84756 4.22815 4.37627 4.22115 3.91845 4.50338C3.46062 4.7867 3.23171 5.1842 3.23171 5.69588C3.23171 5.96519 3.28557 6.20057 3.39329 6.40201C3.50102 6.60453 3.6626 6.75965 3.87805 6.86738L15.3102 14.0175C15.4449 14.0983 15.5865 14.1586 15.7352 14.1985C15.8828 14.2394 16.0239 14.2599 16.1585 14.2599Z" fill="white"/>
</svg>
