<svg width="33" height="27" viewBox="0 0 33 27" fill="none" xmlns="http://www.w3.org/2000/svg">
<path d="M3.23171 26.0216C2.34299 26.0216 1.58246 25.7055 0.950122 25.0731C0.316707 24.4397 0 23.6786 0 22.7899V3.39968C0 2.51096 0.316707 1.75043 0.950122 1.11809C1.58246 0.484676 2.34299 0.167969 3.23171 0.167969H29.0854C29.9741 0.167969 30.7352 0.484676 31.3686 1.11809C32.0009 1.75043 32.3171 2.51096 32.3171 3.39968V22.7899C32.3171 23.6786 32.0009 24.4397 31.3686 25.0731C30.7352 25.7055 29.9741 26.0216 29.0854 26.0216H3.23171ZM16.1585 14.4279C16.2932 14.4279 16.4343 14.4074 16.5819 14.3665C16.7305 14.3266 16.8722 14.2663 17.0069 14.1855L28.439 7.03535C28.6545 6.90069 28.8161 6.73264 28.9238 6.5312C29.0315 6.32868 29.0854 6.10623 29.0854 5.86385C29.0854 5.32524 28.8565 4.92127 28.3986 4.65196C27.9408 4.38265 27.4695 4.39612 26.9848 4.69236L16.1585 11.4789L5.33232 4.69236C4.84756 4.39612 4.37627 4.38912 3.91845 4.67135C3.46062 4.95467 3.23171 5.35217 3.23171 5.86385C3.23171 6.13316 3.28557 6.36854 3.39329 6.56998C3.50102 6.7725 3.6626 6.92762 3.87805 7.03535L15.3102 14.1855C15.4449 14.2663 15.5865 14.3266 15.7352 14.3665C15.8828 14.4074 16.0239 14.4279 16.1585 14.4279Z" fill="#38D8CC"/>
</svg>
