<svg width="157" height="85" viewBox="0 0 157 85" fill="none" xmlns="http://www.w3.org/2000/svg">
<path d="M19.509 6.62V17H18.144V9.26L14.694 17H13.734L10.269 9.245V17H8.90402V6.62H10.374L14.214 15.2L18.054 6.62H19.509ZM25.4089 17.135C24.6389 17.135 23.9389 16.96 23.3089 16.61C22.6889 16.26 22.1989 15.765 21.8389 15.125C21.4889 14.475 21.3139 13.725 21.3139 12.875C21.3139 12.035 21.4939 11.295 21.8539 10.655C22.2239 10.005 22.7239 9.51 23.3539 9.17C23.9839 8.82 24.6889 8.645 25.4689 8.645C26.2489 8.645 26.9539 8.82 27.5839 9.17C28.2139 9.51 28.7089 10 29.0689 10.64C29.4389 11.28 29.6239 12.025 29.6239 12.875C29.6239 13.725 29.4339 14.475 29.0539 15.125C28.6839 15.765 28.1789 16.26 27.5389 16.61C26.8989 16.96 26.1889 17.135 25.4089 17.135ZM25.4089 15.935C25.8989 15.935 26.3589 15.82 26.7889 15.59C27.2189 15.36 27.5639 15.015 27.8239 14.555C28.0939 14.095 28.2289 13.535 28.2289 12.875C28.2289 12.215 28.0989 11.655 27.8389 11.195C27.5789 10.735 27.2389 10.395 26.8189 10.175C26.3989 9.945 25.9439 9.83 25.4539 9.83C24.9539 9.83 24.4939 9.945 24.0739 10.175C23.6639 10.395 23.3339 10.735 23.0839 11.195C22.8339 11.655 22.7089 12.215 22.7089 12.875C22.7089 13.545 22.8289 14.11 23.0689 14.57C23.3189 15.03 23.6489 15.375 24.0589 15.605C24.4689 15.825 24.9189 15.935 25.4089 15.935ZM34.3287 17.135C33.6987 17.135 33.1337 17.03 32.6337 16.82C32.1337 16.6 31.7387 16.3 31.4487 15.92C31.1587 15.53 30.9987 15.085 30.9687 14.585H32.3787C32.4187 14.995 32.6087 15.33 32.9487 15.59C33.2987 15.85 33.7537 15.98 34.3137 15.98C34.8337 15.98 35.2437 15.865 35.5437 15.635C35.8437 15.405 35.9937 15.115 35.9937 14.765C35.9937 14.405 35.8337 14.14 35.5137 13.97C35.1937 13.79 34.6987 13.615 34.0287 13.445C33.4187 13.285 32.9187 13.125 32.5287 12.965C32.1487 12.795 31.8187 12.55 31.5387 12.23C31.2687 11.9 31.1337 11.47 31.1337 10.94C31.1337 10.52 31.2587 10.135 31.5087 9.785C31.7587 9.435 32.1137 9.16 32.5737 8.96C33.0337 8.75 33.5587 8.645 34.1487 8.645C35.0587 8.645 35.7937 8.875 36.3537 9.335C36.9137 9.795 37.2137 10.425 37.2537 11.225H35.8887C35.8587 10.795 35.6837 10.45 35.3637 10.19C35.0537 9.93 34.6337 9.8 34.1037 9.8C33.6137 9.8 33.2237 9.905 32.9337 10.115C32.6437 10.325 32.4987 10.6 32.4987 10.94C32.4987 11.21 32.5837 11.435 32.7537 11.615C32.9337 11.785 33.1537 11.925 33.4137 12.035C33.6837 12.135 34.0537 12.25 34.5237 12.38C35.1137 12.54 35.5937 12.7 35.9637 12.86C36.3337 13.01 36.6487 13.24 36.9087 13.55C37.1787 13.86 37.3187 14.265 37.3287 14.765C37.3287 15.215 37.2037 15.62 36.9537 15.98C36.7037 16.34 36.3487 16.625 35.8887 16.835C35.4387 17.035 34.9187 17.135 34.3287 17.135ZM40.9206 9.905V14.75C40.9206 15.15 41.0056 15.435 41.1756 15.605C41.3456 15.765 41.6406 15.845 42.0606 15.845H43.0656V17H41.8356C41.0756 17 40.5056 16.825 40.1256 16.475C39.7456 16.125 39.5556 15.55 39.5556 14.75V9.905H38.4906V8.78H39.5556V6.71H40.9206V8.78H43.0656V9.905H40.9206ZM55.7085 9.605C55.7085 10.475 55.4085 11.2 54.8085 11.78C54.2185 12.35 53.3135 12.635 52.0935 12.635H50.0835V17H48.7185V6.545H52.0935C53.2735 6.545 54.1685 6.83 54.7785 7.4C55.3985 7.97 55.7085 8.705 55.7085 9.605ZM52.0935 11.51C52.8535 11.51 53.4135 11.345 53.7735 11.015C54.1335 10.685 54.3135 10.215 54.3135 9.605C54.3135 8.315 53.5735 7.67 52.0935 7.67H50.0835V11.51H52.0935ZM60.99 17.135C60.22 17.135 59.52 16.96 58.89 16.61C58.27 16.26 57.78 15.765 57.42 15.125C57.07 14.475 56.895 13.725 56.895 12.875C56.895 12.035 57.075 11.295 57.435 10.655C57.805 10.005 58.305 9.51 58.935 9.17C59.565 8.82 60.27 8.645 61.05 8.645C61.83 8.645 62.535 8.82 63.165 9.17C63.795 9.51 64.29 10 64.65 10.64C65.02 11.28 65.205 12.025 65.205 12.875C65.205 13.725 65.015 14.475 64.635 15.125C64.265 15.765 63.76 16.26 63.12 16.61C62.48 16.96 61.77 17.135 60.99 17.135ZM60.99 15.935C61.48 15.935 61.94 15.82 62.37 15.59C62.8 15.36 63.145 15.015 63.405 14.555C63.675 14.095 63.81 13.535 63.81 12.875C63.81 12.215 63.68 11.655 63.42 11.195C63.16 10.735 62.82 10.395 62.4 10.175C61.98 9.945 61.525 9.83 61.035 9.83C60.535 9.83 60.075 9.945 59.655 10.175C59.245 10.395 58.915 10.735 58.665 11.195C58.415 11.655 58.29 12.215 58.29 12.875C58.29 13.545 58.41 14.11 58.65 14.57C58.9 15.03 59.23 15.375 59.64 15.605C60.05 15.825 60.5 15.935 60.99 15.935ZM68.3647 10.295C68.6347 9.825 69.0347 9.435 69.5647 9.125C70.1047 8.805 70.7297 8.645 71.4397 8.645C72.1697 8.645 72.8297 8.82 73.4197 9.17C74.0197 9.52 74.4897 10.015 74.8297 10.655C75.1697 11.285 75.3397 12.02 75.3397 12.86C75.3397 13.69 75.1697 14.43 74.8297 15.08C74.4897 15.73 74.0197 16.235 73.4197 16.595C72.8297 16.955 72.1697 17.135 71.4397 17.135C70.7397 17.135 70.1197 16.98 69.5797 16.67C69.0497 16.35 68.6447 15.955 68.3647 15.485V20.9H66.9997V8.78H68.3647V10.295ZM73.9447 12.86C73.9447 12.24 73.8197 11.7 73.5697 11.24C73.3197 10.78 72.9797 10.43 72.5497 10.19C72.1297 9.95 71.6647 9.83 71.1547 9.83C70.6547 9.83 70.1897 9.955 69.7597 10.205C69.3397 10.445 68.9997 10.8 68.7397 11.27C68.4897 11.73 68.3647 12.265 68.3647 12.875C68.3647 13.495 68.4897 14.04 68.7397 14.51C68.9997 14.97 69.3397 15.325 69.7597 15.575C70.1897 15.815 70.6547 15.935 71.1547 15.935C71.6647 15.935 72.1297 15.815 72.5497 15.575C72.9797 15.325 73.3197 14.97 73.5697 14.51C73.8197 14.04 73.9447 13.49 73.9447 12.86ZM84.4264 8.78V17H83.0614V15.785C82.8014 16.205 82.4364 16.535 81.9664 16.775C81.5064 17.005 80.9964 17.12 80.4364 17.12C79.7964 17.12 79.2214 16.99 78.7114 16.73C78.2014 16.46 77.7964 16.06 77.4964 15.53C77.2064 15 77.0614 14.355 77.0614 13.595V8.78H78.4114V13.415C78.4114 14.225 78.6164 14.85 79.0264 15.29C79.4364 15.72 79.9964 15.935 80.7064 15.935C81.4364 15.935 82.0114 15.71 82.4314 15.26C82.8514 14.81 83.0614 14.155 83.0614 13.295V8.78H84.4264ZM88.0962 5.9V17H86.7312V5.9H88.0962ZM89.9126 12.86C89.9126 12.02 90.0826 11.285 90.4226 10.655C90.7626 10.015 91.2276 9.52 91.8176 9.17C92.4176 8.82 93.0826 8.645 93.8126 8.645C94.5326 8.645 95.1576 8.8 95.6876 9.11C96.2176 9.42 96.6126 9.81 96.8726 10.28V8.78H98.2526V17H96.8726V15.47C96.6026 15.95 96.1976 16.35 95.6576 16.67C95.1276 16.98 94.5076 17.135 93.7976 17.135C93.0676 17.135 92.4076 16.955 91.8176 16.595C91.2276 16.235 90.7626 15.73 90.4226 15.08C90.0826 14.43 89.9126 13.69 89.9126 12.86ZM96.8726 12.875C96.8726 12.255 96.7476 11.715 96.4976 11.255C96.2476 10.795 95.9076 10.445 95.4776 10.205C95.0576 9.955 94.5926 9.83 94.0826 9.83C93.5726 9.83 93.1076 9.95 92.6876 10.19C92.2676 10.43 91.9326 10.78 91.6826 11.24C91.4326 11.7 91.3076 12.24 91.3076 12.86C91.3076 13.49 91.4326 14.04 91.6826 14.51C91.9326 14.97 92.2676 15.325 92.6876 15.575C93.1076 15.815 93.5726 15.935 94.0826 15.935C94.5926 15.935 95.0576 15.815 95.4776 15.575C95.9076 15.325 96.2476 14.97 96.4976 14.51C96.7476 14.04 96.8726 13.495 96.8726 12.875ZM101.924 10.115C102.164 9.645 102.504 9.28 102.944 9.02C103.394 8.76 103.939 8.63 104.579 8.63V10.04H104.219C102.689 10.04 101.924 10.87 101.924 12.53V17H100.559V8.78H101.924V10.115Z" fill="#00A99D"/>
<path d="M150 76.755C150 77.2569 149.57 77.7301 148.869 77.919C147.966 78.163 146.957 77.8385 146.614 77.1961C145.76 75.5934 144.908 74.2214 144.003 73C143.555 72.3913 143.879 71.6387 144.735 71.3176C145.59 70.9972 146.647 71.2297 147.098 71.8384C148.071 73.1511 148.982 74.615 149.886 76.3138C149.963 76.4592 150 76.6071 150 76.755H150ZM143.603 68.4899C143.603 68.8357 143.401 69.1799 143.008 69.4264C142.282 69.8807 141.177 69.8289 140.54 69.3122C139.144 68.1786 137.615 67.3135 135.869 66.6637C135.013 66.3449 134.683 65.5916 135.127 64.9837C135.575 64.3742 136.631 64.1368 137.487 64.4555C139.624 65.2491 141.483 66.3014 143.17 67.6683C143.458 67.9057 143.603 68.1981 143.603 68.4898L143.603 68.4899ZM132.117 64.0942C132.117 64.1681 132.109 64.2429 132.09 64.3184C131.916 64.9945 131.007 65.4439 130.056 65.3215C128.276 65.0914 126.241 64.9444 123.654 64.8565C122.688 64.8237 121.939 64.2379 121.99 63.5536C122.036 62.8677 122.854 62.3362 123.82 62.3691C126.563 62.4619 128.745 62.6212 130.681 62.871C131.525 62.9794 132.117 63.5035 132.117 64.0942H132.117ZM118.813 63.5027V63.515C118.804 64.2026 118.014 64.7546 117.048 64.7481L115.195 64.7358C113.655 64.7267 112.047 64.7177 110.362 64.6996C109.395 64.6898 108.608 64.1139 108.64 63.4362C108.654 62.7486 109.45 62.199 110.415 62.2105C112.093 62.2286 113.694 62.2376 115.224 62.2475L117.081 62.2581C118.04 62.2647 118.813 62.8201 118.813 63.5027L118.813 63.5027ZM105.464 63.3285C105.464 63.3458 105.464 63.3622 105.462 63.3795C105.424 64.0654 104.611 64.6019 103.645 64.5739C101.322 64.5082 99.1236 64.4203 96.9208 64.3069C95.9584 64.2568 95.236 63.6613 95.3041 62.9753C95.3744 62.2902 96.2111 61.7743 97.1746 61.8244C99.3359 61.9361 101.499 62.0216 103.783 62.0865C104.726 62.1119 105.463 62.664 105.463 63.3285H105.464ZM92.1505 62.6344C92.1505 62.6796 92.1482 62.7264 92.1413 62.7716C92.0351 63.455 91.172 63.948 90.2119 63.8732C87.8382 63.6867 85.5465 63.3852 83.3979 62.9761C82.4644 62.7979 81.9163 62.1136 82.1609 61.4514C82.4113 60.7868 83.3691 60.3925 84.3026 60.5708C86.2794 60.9479 88.3947 61.2264 90.594 61.398C91.4883 61.4687 92.1507 62.0076 92.1507 62.6344L92.1505 62.6344ZM79.3462 60.1436C79.3462 60.3235 79.2908 60.5059 79.1743 60.68C78.7577 61.3002 77.7134 61.5623 76.8422 61.2657C74.7085 60.5395 72.6937 59.6622 70.8533 58.659C70.0871 58.2417 69.9417 57.4589 70.5279 56.9142C71.1152 56.3687 72.2138 56.2652 72.9789 56.6825C74.6279 57.5812 76.4361 58.3674 78.3506 59.0196C78.9795 59.2324 79.3465 59.6776 79.3465 60.1434L79.3462 60.1436ZM68.8325 54.4063C68.8325 54.7579 68.626 55.1062 68.221 55.3527C67.4882 55.7996 66.3839 55.7388 65.7561 55.2171C64.2744 53.9865 62.9232 52.6147 61.737 51.1409C61.2582 50.5453 61.5466 49.7838 62.3867 49.442C63.2245 49.1003 64.293 49.3073 64.7731 49.9045C65.8485 51.2427 67.0729 52.4855 68.4113 53.5987C68.6941 53.832 68.8325 54.1203 68.8325 54.4062V54.4063ZM62.1684 46.221C62.1684 46.7229 61.738 47.1961 61.0375 47.385C60.134 47.629 59.1254 47.3045 58.7827 46.6621C57.9968 45.1851 57.3195 43.6028 56.7714 41.96C56.5498 41.2921 57.1291 40.6193 58.0684 40.4608C59.0089 40.3022 59.9516 40.7154 60.1743 41.3841C60.6879 42.9228 61.3202 44.4015 62.053 45.7798C62.1326 45.9244 62.1684 46.0731 62.1684 46.221L62.1684 46.221ZM59.0344 36.9914C59.0344 37.6092 58.3904 38.1448 57.5077 38.2245C56.5499 38.3124 55.6741 37.8302 55.5517 37.1475C55.269 35.5735 55.0832 33.9396 55.0001 32.29C54.9886 31.5671 55.7202 31.0249 56.6849 31.0011C57.6507 30.9764 58.462 31.5137 58.4954 32.2004C58.5751 33.7752 58.7516 35.3329 59.0205 36.8304C59.0309 36.8847 59.0343 36.9389 59.0343 36.9915L59.0344 36.9914Z" fill="#00A99D"/>
<path d="M138.183 78.706C138.206 78.877 138.202 79.0549 138.171 79.2352C138.004 80.1835 137.1 80.8164 136.153 80.6491L134.094 80.2873C133.147 80.12 132.515 79.2157 132.68 78.2688C132.847 77.3205 133.751 76.6876 134.698 76.8549L136.757 77.2167C137.525 77.3507 138.087 77.9706 138.183 78.706L138.183 78.706Z" fill="#00A99D"/>
<path d="M147.658 80.3776C147.68 80.5486 147.677 80.7264 147.646 80.9067C147.479 81.855 146.576 82.4878 145.627 82.3206L140.89 81.4853C139.942 81.3193 139.306 80.4145 139.476 79.4669C139.644 78.5186 140.547 77.8858 141.495 78.053L146.232 78.8883C147.001 79.0243 147.562 79.6445 147.658 80.3775L147.658 80.3776Z" fill="#00A99D"/>
<path d="M154.624 79.4885C154.64 79.6082 154.643 79.7318 154.633 79.8572L154.312 83.8499L150.368 83.1557C149.421 82.9883 148.787 82.0844 148.954 81.1372C149.121 80.1889 150.025 79.5559 150.972 79.7233L151.147 79.7538L151.162 79.5779C151.24 78.6192 152.08 77.9042 153.038 77.9819C153.871 78.0459 154.52 78.6905 154.624 79.4885L154.624 79.4885Z" fill="#00A99D"/>
<path d="M155.299 71.1363C155.315 71.256 155.318 71.3797 155.308 71.5051L154.971 75.6806C154.892 76.6394 154.052 77.3544 153.093 77.2767C152.132 77.1982 151.422 76.354 151.497 75.3992L151.834 71.2237C151.913 70.2649 152.753 69.5499 153.712 69.6276C154.545 69.695 155.195 70.3394 155.299 71.1363Z" fill="#00A99D"/>
<path d="M155.802 64.8783C155.818 64.998 155.821 65.1216 155.811 65.2471L155.644 67.3317C155.566 68.2904 154.726 69.0054 153.768 68.9277C152.807 68.8503 152.093 68.0054 152.172 67.0513L152.339 64.9667C152.416 64.008 153.256 63.293 154.215 63.3707C155.048 63.4358 155.698 64.0803 155.802 64.8783Z" fill="#00A99D"/>
</svg>
