<svg width="60" height="52" viewBox="0 0 60 52" fill="none" xmlns="http://www.w3.org/2000/svg">
<path d="M50.5725 35.415C50.8256 35.2695 51.0359 35.06 51.1825 34.8075C51.3293 34.5546 51.4069 34.2674 51.4075 33.975L51.4375 24.33C51.4381 24.0376 51.5157 23.7504 51.6625 23.4975C51.8098 23.2447 52.021 23.0352 52.275 22.89L57.5 19.8825C57.7535 19.7376 58.0405 19.6617 58.3325 19.6625C58.6249 19.6632 58.912 19.7408 59.165 19.8875C59.418 20.0331 59.6283 20.2426 59.775 20.495C59.9209 20.7482 59.9977 21.0353 59.9975 21.3275V38.8625C59.9973 39.1557 59.9197 39.4437 59.7727 39.6974C59.6257 39.9511 59.4143 40.1615 59.16 40.3075L39.4275 51.6425C39.1756 51.7868 38.8903 51.8627 38.6 51.8627C38.3097 51.8627 38.0244 51.7868 37.7725 51.6425L22.2875 42.7875C22.0323 42.6419 21.8202 42.4315 21.6725 42.1775C21.525 41.9231 21.4473 41.6341 21.4475 41.34V32.4975C21.4475 32.4875 21.4575 32.4825 21.4675 32.4875C21.4775 32.4925 21.4875 32.4875 21.4875 32.475V32.465C21.4875 32.4575 21.4925 32.4525 21.4975 32.4475L34.2525 25.1225C34.2625 25.115 34.2575 25.0975 34.245 25.0975C34.2431 25.0975 34.2411 25.097 34.2394 25.0962C34.2377 25.0953 34.2362 25.0941 34.235 25.0925C34.2339 25.0911 34.2331 25.0895 34.2327 25.0878C34.2322 25.086 34.2322 25.0843 34.2325 25.0825L34.2575 16.415C34.2587 16.1214 34.1823 15.8327 34.0361 15.5781C33.8899 15.3235 33.6791 15.112 33.425 14.965C33.1715 14.8187 32.884 14.7416 32.5913 14.7416C32.2985 14.7416 32.011 14.8187 31.7575 14.965L22.28 20.43C22.0271 20.5754 21.7405 20.652 21.4488 20.652C21.157 20.652 20.8704 20.5754 20.6175 20.43L11.1075 14.955C10.8542 14.8097 10.5672 14.7334 10.2752 14.7338C9.98317 14.7342 9.69638 14.8113 9.4435 14.9573C9.19063 15.1034 8.98054 15.3133 8.83427 15.566C8.68799 15.8188 8.61066 16.1055 8.61 16.3975V32.065C8.6101 32.3571 8.53349 32.644 8.38783 32.8972C8.24216 33.1504 8.03256 33.3608 7.78 33.5075C7.52781 33.6539 7.2416 33.7315 6.95 33.7325C6.65803 33.7333 6.37096 33.6575 6.1175 33.5125L0.840004 30.495C0.584848 30.3494 0.37269 30.139 0.225004 29.885C0.0770277 29.6298 -0.000612508 29.34 3.63888e-06 29.045L0.0475036 1.66251C0.0484102 1.37085 0.125798 1.08453 0.271943 0.832134C0.418088 0.579734 0.627878 0.37008 0.880373 0.224098C1.13287 0.0781169 1.41924 0.000914529 1.71089 0.000196856C2.00255 -0.000520816 2.28929 0.0752715 2.5425 0.220009L20.6175 10.6025C20.8704 10.7479 21.157 10.8245 21.4488 10.8245C21.7405 10.8245 22.0271 10.7479 22.28 10.6025L40.35 0.220009C40.6034 0.074946 40.8905 -0.000924695 41.1825 8.5058e-06C41.4749 0.000595799 41.7621 0.0781989 42.015 0.225009C42.2683 0.371315 42.4787 0.581688 42.625 0.835008C42.77 1.08846 42.8458 1.37553 42.845 1.66751V29.0575C42.845 29.35 42.77 29.6375 42.6225 29.8925C42.4755 30.1461 42.2642 30.3565 42.01 30.5025L32.5475 35.9525C32.2929 36.0991 32.0816 36.3104 31.935 36.565C31.7886 36.8189 31.7119 37.1069 31.7125 37.4C31.7128 37.6933 31.7904 37.9813 31.9375 38.235C32.0858 38.4894 32.2989 38.6998 32.555 38.845L37.775 41.8175C38.0266 41.96 38.3108 42.0349 38.6 42.035C38.8914 42.0346 39.1775 41.9579 39.43 41.8125L50.5725 35.4125V35.415ZM51.6675 10.845C51.6672 11.1391 51.7448 11.4281 51.8925 11.6825C52.0415 11.9372 52.2554 12.1477 52.5125 12.2925C52.7686 12.4372 53.0585 12.5116 53.3527 12.5081C53.6469 12.5046 53.9349 12.4233 54.1875 12.2725L59.19 9.27251C59.4367 9.12458 59.6408 8.91528 59.7825 8.66501C59.9249 8.41426 59.9998 8.13087 60 7.84251V1.73251C59.9994 1.43816 59.9209 1.1492 59.7725 0.895008C59.6237 0.640794 59.4102 0.430534 59.1538 0.285621C58.8973 0.140708 58.607 0.0663142 58.3125 0.0700085C58.0183 0.0733075 57.7302 0.154384 57.4775 0.305008L52.4775 3.30501C52.2299 3.45259 52.0249 3.66192 51.8825 3.91251C51.7411 4.16354 51.667 4.44688 51.6675 4.73501V10.8475V10.845Z" fill="#F0F0F0"/>
</svg>
