<svg width="60" height="60" viewBox="0 0 60 60" fill="none" xmlns="http://www.w3.org/2000/svg">
<path d="M28.931 0C28.4902 0 28.1565 0.00325 28.035 0.01675C27.906 0.03 27.4952 0.06925 27.126 0.09875C18.6039 0.867 10.6216 5.4645 5.5658 12.5308C2.75052 16.46 0.950008 20.9165 0.270002 25.6375C0.0295002 27.285 0 27.7718 0 30.006C0 32.2402 0.0300002 32.727 0.270002 34.375C1.90002 45.64 9.91783 55.1048 20.7919 58.6113C22.7392 59.239 24.792 59.667 27.1262 59.925C28.0352 60.025 31.9648 60.025 32.8738 59.925C36.9031 59.4792 40.3168 58.4825 43.6831 56.7643C44.1994 56.5002 44.2991 56.43 44.2289 56.371C44.1819 56.3363 41.9821 53.3865 39.3431 49.821L34.5455 43.341L28.5337 34.4453C25.226 29.5543 22.5044 25.5553 22.4809 25.5553C22.4574 25.5487 22.4342 29.502 22.4222 34.3278C22.4054 42.7783 22.3989 43.1183 22.2932 43.3178C22.1407 43.6053 22.0232 43.7223 21.7772 43.8512C21.5897 43.9448 21.4252 43.9625 20.5397 43.9625H19.5247L19.2552 43.7925C19.088 43.6878 18.9523 43.5399 18.8622 43.3645L18.7389 43.1005L18.7522 31.343L18.7689 19.5795L18.9504 19.3507C19.0444 19.2275 19.2439 19.0695 19.3844 18.9932C19.6249 18.8757 19.7189 18.864 20.7334 18.864C21.9302 18.864 22.1294 18.9108 22.4402 19.2508C22.5284 19.345 25.7835 24.2475 29.6777 30.1528C33.6207 36.1298 37.5661 42.1053 41.5138 48.0793L46.2644 55.2747L46.5044 55.1165C48.6339 53.7325 50.8857 51.762 52.6687 49.7097C56.4635 45.3525 58.9095 40.0397 59.7305 34.3747C59.9708 32.727 60 32.2397 60 30.006C60 27.7718 59.97 27.285 59.7305 25.637C58.1 14.372 50.0824 4.90725 39.2086 1.40075C37.2906 0.779 35.2495 0.35075 32.9623 0.09275C32.5398 0.04875 30.2535 0.00125 28.9315 0.00025L28.931 0ZM39.1023 18.0425C39.9706 18.0425 40.1228 18.0557 40.3166 18.16C40.5983 18.3005 40.8266 18.5705 40.9091 18.8517C40.9556 19.0042 40.9676 22.265 40.9556 29.6128L40.9388 40.1565L39.0798 37.3065L37.2146 34.4565V26.7915C37.2146 21.8365 37.2378 19.0508 37.2731 18.916C37.3668 18.5877 37.5721 18.3295 37.8538 18.1772C38.0941 18.0537 38.1821 18.0422 39.1031 18.0422L39.1023 18.0425Z" fill="#F0F0F0"/>
</svg>
