<svg width="54" height="60" viewBox="0 0 54 60" fill="none" xmlns="http://www.w3.org/2000/svg">
<path d="M26.5997 60C25.7972 60 24.9972 59.79 24.2947 59.3825L16.9548 55.0401C15.8598 54.4276 16.3948 54.2101 16.7548 54.0826C18.2173 53.5751 18.5123 53.4576 20.0748 52.5726C20.2373 52.4801 20.4523 52.5151 20.6198 52.6151L26.2597 55.9625C26.4647 56.075 26.7522 56.075 26.9397 55.9625L48.927 43.2727C49.132 43.1552 49.262 42.9202 49.262 42.6777V17.3029C49.262 17.0554 49.1295 16.823 48.9195 16.698L26.9422 4.01808C26.7397 3.90058 26.4697 3.90058 26.2647 4.01808L4.29246 16.7005C4.07996 16.8229 3.94496 17.0629 3.94496 17.3029V42.6777C3.94496 42.9202 4.07996 43.1502 4.29246 43.2652L10.3149 46.7451C13.5824 48.3801 15.5848 46.4551 15.5848 44.5202V19.4679C15.5848 19.1129 15.8698 18.8354 16.2248 18.8354H19.0123C19.3598 18.8354 19.6498 19.1154 19.6498 19.4679V44.5202C19.6498 48.8826 17.2748 51.3826 13.1399 51.3826C11.8699 51.3826 10.8674 51.3826 8.07492 50.0051L2.30498 46.6876C0.879991 45.8651 0 44.3252 0 42.6777V17.3029C0 15.6555 0.882491 14.1155 2.30498 13.2955L24.2922 0.590619C25.6847 -0.196873 27.5322 -0.196873 28.9122 0.590619L50.897 13.2955C52.322 14.118 53.207 15.6555 53.207 17.3029V42.6777C53.207 44.3252 52.322 45.8601 50.897 46.6876L28.9122 59.3825C28.2122 59.79 27.4147 60 26.5997 60ZM44.352 34.9828C44.352 30.2328 41.1421 28.9678 34.3846 28.0753C27.5572 27.1728 26.8622 26.7053 26.8622 25.1079C26.8622 23.7879 27.4497 22.0254 32.5072 22.0254C37.0246 22.0254 38.6896 22.9979 39.3746 26.0429C39.4346 26.3304 39.6971 26.5403 39.9921 26.5403H42.8446C43.0221 26.5403 43.1895 26.4628 43.3095 26.3379C43.4295 26.2029 43.4945 26.0304 43.4771 25.8479C43.0346 20.6029 39.5496 18.1579 32.5072 18.1579C26.2372 18.1579 22.4973 20.8029 22.4973 25.2404C22.4973 30.0528 26.2172 31.3828 32.2347 31.9778C39.4346 32.6828 39.9921 33.7353 39.9921 35.1503C39.9921 37.6077 38.0196 38.6552 33.3872 38.6552C27.5697 38.6552 26.2897 37.1952 25.8597 34.3003C25.8097 33.9903 25.5447 33.7628 25.2272 33.7628H22.3848C22.0323 33.7628 21.7498 34.0428 21.7498 34.3953C21.7498 38.1002 23.7648 42.5152 33.3872 42.5152C40.3571 42.5177 44.352 39.7752 44.352 34.9828Z" fill="#F0F0F0"/>
</svg>
