<svg width="49" height="66" viewBox="0 0 49 66" fill="none" xmlns="http://www.w3.org/2000/svg">
<path d="M48.0938 24.0561C48.0954 19.9927 47.0672 15.9953 45.1054 12.4369C43.1436 8.87852 40.3121 5.87529 36.8753 3.70761C33.4384 1.53994 29.5083 0.278501 25.4519 0.0410865C21.3955 -0.196328 17.3451 0.59802 13.6789 2.34997C10.0126 4.10191 6.85009 6.75432 4.48657 10.0595C2.12304 13.3648 0.635604 17.215 0.163126 21.2508C-0.309353 25.2865 0.248538 29.3762 1.78471 33.138C3.32089 36.8998 5.78524 40.2109 8.94769 42.7623V64.3207C8.9491 64.6048 9.02146 64.884 9.15818 65.133C9.29491 65.3821 9.49167 65.593 9.73061 65.7467C9.97691 65.8968 10.2568 65.9831 10.5448 65.9978C10.8329 66.0124 11.1201 65.9549 11.3803 65.8306L24.0469 59.4833L36.7135 65.8306C36.9505 65.9392 37.2078 65.9964 37.4684 65.9984C37.784 65.9975 38.0934 65.9105 38.3632 65.7467C38.6021 65.593 38.7989 65.3821 38.9356 65.133C39.0724 64.884 39.1447 64.6048 39.1461 64.3207V42.7623C41.9402 40.5107 44.1942 37.6617 45.7426 34.4245C47.291 31.1874 48.0944 27.6445 48.0938 24.0561ZM3.35539 24.0561C3.35539 19.9637 4.56892 15.9632 6.84254 12.5605C9.11615 9.15778 12.3477 6.5057 16.1286 4.93961C19.9095 3.37351 24.0699 2.96375 28.0836 3.76214C32.0974 4.56053 35.7843 6.5312 38.678 9.42496C41.5718 12.3187 43.5425 16.0056 44.3408 20.0194C45.1392 24.0331 44.7295 28.1935 43.1634 31.9744C41.5973 35.7553 38.9452 38.9868 35.5425 41.2605C32.1398 43.5341 28.1393 44.7476 24.0469 44.7476C18.5614 44.7402 13.3028 42.5578 9.42397 38.679C5.54515 34.8002 3.36279 29.5415 3.35539 24.0561ZM35.7907 61.6084L24.8019 56.1C24.5654 55.9899 24.3077 55.9329 24.0469 55.9329C23.7861 55.9329 23.5284 55.9899 23.2919 56.1L12.3031 61.6084V45.0272C15.8889 47.0432 19.9332 48.1022 24.0469 48.1022C28.1606 48.1022 32.205 47.0432 35.7907 45.0272V61.6084Z" fill="white"/>
</svg>
