<svg width="43" height="60" viewBox="0 0 43 60" fill="none" xmlns="http://www.w3.org/2000/svg">
<path d="M22.7175 0V2.5575L22.6925 2.52L7.4275 11.335H0V13.2125H13.3975V22.3075H18.2525V13.21H22.7175V39.25C22.785 39.25 24.0675 39.225 24.595 39.4775V13.2125H25.9225V39.7325C26.655 40.1 27.2975 40.5125 27.8 41.0825V13.215H42.915V11.34H39.7475L24.595 2.59V0H22.7175ZM22.7175 4.675V11.335H11.18L22.7175 4.675ZM24.595 4.7525L35.995 11.335H24.595V4.7525ZM14.3125 13.2125H17.3375V17.4275H14.3125V13.2125ZM2.4725 20.0375V24.915H7.3275V20.04L2.4725 20.0375ZM7.9475 20.0375V24.915H12.8V20.04L7.9475 20.0375ZM2.4725 25.465V30.3425H7.3275V25.4675L2.4725 25.465ZM7.9475 25.465V30.3425H12.8V25.4675L7.9475 25.465ZM13.3975 25.465V30.3425H18.2525V25.4675L13.3975 25.465ZM2.3575 31.075C1.54997 32.4837 1.12426 34.0788 1.1225 35.7025C1.1225 38.77 2.6325 41.4725 4.9225 43.1675C5.52 43.0075 6.115 42.9175 6.7325 42.8925C6.9825 42.8925 7.145 42.9175 7.3975 42.94C8.1075 39.9625 10.855 37.97 14.06 37.97C15.87 37.97 17.655 38.4725 18.87 39.64C19.4425 38.45 19.625 37.1225 19.625 35.7025C19.625 34.0775 19.2125 32.4725 18.39 31.0775L2.3575 31.075ZM14.4275 38.975C11.4025 38.975 8.8625 41.085 8.1975 43.9C7.97075 43.8582 7.739 43.8506 7.51 43.8775C6.66945 43.8759 5.83681 44.0399 5.05968 44.3602C4.28254 44.6805 3.57614 45.1508 2.98085 45.7442C2.38556 46.3376 1.91305 47.0426 1.59033 47.8187C1.2676 48.5948 1.10098 49.4269 1.1 50.2675C1.1035 51.2203 1.31928 52.1603 1.73163 53.0192C2.14399 53.8781 2.74257 54.6344 3.48384 55.233C4.22512 55.8315 5.09047 56.2574 6.01698 56.4796C6.94348 56.7018 7.90786 56.7147 8.84 56.5175C9.3815 57.5631 10.199 58.4405 11.2039 59.0544C12.2087 59.6684 13.3625 59.9954 14.54 60C16.695 60 18.595 58.925 19.765 57.2975C20.6997 58.07 21.8348 58.5608 23.0379 58.7124C24.241 58.8641 25.4624 58.6705 26.5595 58.1541C27.6567 57.6378 28.5844 56.82 29.2343 55.7963C29.8842 54.7726 30.2296 53.5851 30.23 52.3725C30.23 50.955 29.7475 49.625 28.97 48.5725C29.4081 47.3006 29.4338 45.9228 29.0434 44.6354C28.653 43.348 27.8664 42.2166 26.7956 41.4022C25.7247 40.5879 24.4243 40.1321 23.0794 40.0999C21.7345 40.0676 20.4137 40.4605 19.305 41.2225C18.7016 40.5192 17.9534 39.9544 17.1116 39.567C16.2698 39.1795 15.3542 38.9784 14.4275 38.9775V38.975Z" fill="#F0F0F0"/>
</svg>
