<svg width="53" height="60" viewBox="0 0 53 60" fill="none" xmlns="http://www.w3.org/2000/svg">
<path d="M26.0572 26.015C25.0003 26.015 23.9867 26.4348 23.2394 27.1822C22.4921 27.9295 22.0722 28.9431 22.0722 30C22.0722 31.0569 22.4921 32.0705 23.2394 32.8178C23.9867 33.5652 25.0003 33.985 26.0572 33.985C27.1141 33.985 28.1277 33.5652 28.875 32.8178C29.6224 32.0705 30.0422 31.0569 30.0422 30C30.0422 28.9431 29.6224 27.9295 28.875 27.1822C28.1277 26.4348 27.1141 26.015 26.0572 26.015ZM39.8047 15.19C40.3438 15.177 40.8828 15.2223 41.4122 15.325C41.8319 15.406 42.2366 15.551 42.6122 15.755C42.886 15.9075 43.1313 16.1063 43.3372 16.3425C43.537 16.5754 43.6936 16.8421 43.7997 17.13C43.9292 17.4931 44.0001 17.8746 44.0097 18.26C44.0272 18.7475 43.9722 19.255 43.8647 19.7675C43.7297 20.42 43.5147 21.07 43.2547 21.7125C42.9122 22.5475 42.4947 23.3625 42.0297 24.1575C41.4172 25.2 40.7297 26.2025 39.9872 27.175C39.6247 27.6525 39.2372 28.115 38.8497 28.5775C38.2997 27.9825 37.7422 27.3975 37.1672 26.8275C35.5468 25.2325 33.8356 23.7325 32.0422 22.335L31.4672 23.075L32.0422 22.335L31.9972 22.3L30.8447 23.78L30.8897 23.815C32.6254 25.1683 34.2815 26.6207 35.8497 28.165C36.4522 28.7575 37.0372 29.365 37.6072 29.99C37.3597 30.26 37.1222 30.54 36.8672 30.805C36.6197 31.065 36.3672 31.3225 36.1147 31.575L37.4397 32.9C37.7047 32.6375 37.9647 32.37 38.2222 32.1C38.4347 31.88 38.6322 31.645 38.8422 31.42C39.0047 31.615 39.1797 31.8 39.3372 31.9975C40.1555 33.004 40.9143 34.0575 41.6097 35.1525C42.1372 35.9925 42.6197 36.855 43.0197 37.7425C43.3186 38.393 43.5636 39.0669 43.7522 39.7575C43.8938 40.2777 43.9793 40.8116 44.0072 41.35C44.0272 41.795 43.9897 42.2275 43.8822 42.62C43.7972 42.9275 43.6647 43.2175 43.4897 43.465H43.4872C43.3172 43.71 43.0947 43.93 42.8372 44.105C42.5347 44.3125 42.1772 44.47 41.7922 44.5825C41.3222 44.7175 40.8172 44.785 40.2922 44.8075C39.6272 44.8325 38.9472 44.7825 38.2572 44.6825C37.3647 44.555 36.4747 44.3475 35.5897 44.0875C34.4297 43.745 33.2897 43.32 32.1672 42.8375H32.1647C30.7047 42.205 29.2822 41.48 27.8897 40.6875L27.8272 40.65C29.2722 39.7075 30.6872 38.725 32.0422 37.665L31.5172 36.99L32.0447 37.665L32.0897 37.6275L30.9322 36.1525L30.8897 36.1875C29.1522 37.5425 27.3447 38.805 25.4697 39.95C23.9943 40.8538 22.4694 41.6743 20.9022 42.4075C19.7197 42.955 18.5172 43.445 17.2922 43.8475C16.3584 44.1586 15.4046 44.4059 14.4372 44.5875C13.7222 44.7175 13.0097 44.8025 12.3047 44.8125C11.7497 44.82 11.2097 44.78 10.6972 44.675C10.2597 44.585 9.85221 44.445 9.49721 44.245C9.21971 44.0875 8.97221 43.89 8.77221 43.66C8.57471 43.4325 8.41721 43.1625 8.30971 42.8725C8.18221 42.53 8.11471 42.1425 8.09971 41.74C8.08773 41.2335 8.13641 40.7274 8.24471 40.2325C8.38221 39.58 8.59471 38.9325 8.85721 38.29C9.20709 37.447 9.61646 36.6299 10.0822 35.845C11.0064 34.28 12.0699 32.8015 13.2597 31.4275C13.8397 32.055 14.4322 32.67 15.0397 33.27C16.6382 34.8352 18.3242 36.3084 20.0897 37.6825L21.2422 36.205C19.5335 34.8744 17.9018 33.448 16.3547 31.9325C15.7197 31.3075 15.1022 30.6675 14.5022 30.01C14.7497 29.74 14.9897 29.4625 15.2397 29.1975C15.4972 28.93 15.7547 28.665 16.0147 28.405L14.6897 27.08C14.4197 27.35 14.1522 27.625 13.8872 27.9C13.6747 28.1225 13.4747 28.3575 13.2672 28.5825C13.1297 28.4175 12.9822 28.2625 12.8447 28.095C12.0222 27.08 11.2497 26.0275 10.5547 24.9375C10.0197 24.0925 9.53471 23.23 9.12721 22.3375C8.81221 21.65 8.54471 20.95 8.35721 20.2425C8.21471 19.705 8.12221 19.1725 8.10221 18.65C8.0788 18.2236 8.12096 17.7961 8.22721 17.3825C8.31221 17.0725 8.44471 16.785 8.61971 16.535H8.62221C8.79221 16.29 9.01721 16.07 9.27221 15.895C9.59379 15.6818 9.94743 15.5214 10.3197 15.42C10.7872 15.2825 11.2922 15.215 11.8172 15.195C12.4978 15.1739 13.1788 15.2141 13.8522 15.315C14.7545 15.4516 15.6459 15.6521 16.5197 15.915C17.6846 16.2625 18.8275 16.6799 19.9422 17.165C21.4288 17.8112 22.8778 18.5407 24.2822 19.35C22.8278 20.2901 21.4149 21.2927 20.0472 22.355L21.2022 23.83C22.9097 22.495 24.6847 21.2525 26.5272 20.12C28.0122 19.2125 29.5347 18.3775 31.1022 17.645C32.2872 17.09 33.4922 16.595 34.7222 16.1875C35.6591 15.871 36.6163 15.6179 37.5872 15.43C38.3322 15.29 39.0747 15.2 39.8047 15.19ZM39.7797 13.315H39.7772C38.9122 13.3275 38.0672 13.4325 37.2422 13.585C36.1874 13.7888 35.1475 14.0636 34.1297 14.4075C32.8268 14.8464 31.5505 15.3606 30.3072 15.9475C28.8497 16.6275 27.4422 17.4025 26.0672 18.2225C25.7647 18.04 25.4597 17.86 25.1497 17.685C23.7072 16.8625 22.2222 16.105 20.6872 15.4425C19.5072 14.935 18.2997 14.48 17.0497 14.115C16.0997 13.835 15.1197 13.605 14.1197 13.46C13.3472 13.35 12.5547 13.29 11.7447 13.3225C11.1097 13.3475 10.4547 13.43 9.80471 13.615C9.25971 13.775 8.71471 14.005 8.21471 14.35C7.33129 14.9514 6.69476 15.8516 6.42221 16.885C6.25221 17.5025 6.20471 18.1275 6.22971 18.7275C6.26295 19.402 6.3694 20.071 6.54721 20.7225C6.77123 21.5451 7.06478 22.3471 7.42471 23.12C7.87735 24.0938 8.3952 25.0359 8.97471 25.94C9.71525 27.0984 10.5224 28.2127 11.3922 29.2775C11.5922 29.5225 11.8072 29.7525 12.0122 29.9925C11.5397 30.5475 11.0747 31.1075 10.6322 31.69C9.85471 32.71 9.12221 33.775 8.46471 34.895C7.95307 35.7577 7.50359 36.6558 7.11971 37.5825C6.81607 38.3163 6.57927 39.0761 6.41221 39.8525C6.27971 40.475 6.20471 41.1325 6.22971 41.8075C6.24475 42.3946 6.35449 42.9754 6.55471 43.5275V43.53C6.92501 44.5314 7.64397 45.3658 8.57971 45.88C9.12432 46.1797 9.71215 46.3931 10.3222 46.5125C10.9846 46.6441 11.6595 46.7028 12.3347 46.6875C13.1545 46.6697 13.9714 46.5844 14.7772 46.4325L14.7797 46.43C15.83 46.234 16.8657 45.9667 17.8797 45.63C19.1872 45.1975 20.4572 44.68 21.6947 44.105C23.1922 43.41 24.6397 42.6225 26.0497 41.78C26.3522 41.96 26.6572 42.14 26.9647 42.315C28.4095 43.1454 29.8993 43.8949 31.4272 44.56C32.6119 45.0745 33.8266 45.517 35.0647 45.885C36.0147 46.165 36.9947 46.395 37.9947 46.54C38.7805 46.658 39.5754 46.7049 40.3697 46.68C41.0047 46.655 41.6597 46.57 42.3097 46.385C42.8547 46.2275 43.3997 45.995 43.8997 45.65C44.783 45.0484 45.4194 44.1483 45.6922 43.115C45.8622 42.495 45.9097 41.8725 45.8847 41.275C45.8572 40.5825 45.7347 39.915 45.5672 39.2775C45.3547 38.4725 45.0622 37.705 44.7297 36.97C44.2847 35.9875 43.7622 35.0525 43.1997 34.1525C42.4647 32.9875 41.6547 31.8825 40.8022 30.82C40.5772 30.5425 40.3322 30.28 40.1022 30.01C40.5747 29.455 41.0372 28.8925 41.4822 28.3125C42.2597 27.29 42.9922 26.225 43.6497 25.105C44.1613 24.2423 44.6108 23.3442 44.9947 22.4175C45.2982 21.6845 45.535 20.9256 45.7022 20.15C45.8347 19.525 45.9097 18.8675 45.8847 18.1925C45.8672 17.6275 45.7722 17.0425 45.5597 16.4725V16.47C45.1894 15.4686 44.4704 14.6342 43.5347 14.12C42.9747 13.805 42.3797 13.61 41.7922 13.49C41.1298 13.3584 40.4549 13.2997 39.7797 13.315ZM26.0572 0L52.0372 15V45L26.0572 60L0.074707 45V15L26.0572 0Z" fill="#F0F0F0"/>
</svg>
