<svg width="61" height="60" viewBox="0 0 61 60" fill="none" xmlns="http://www.w3.org/2000/svg">
<path d="M35.8497 0.45L38.0997 0.95L39.9247 1.6L41.3997 2.35L42.5247 3.15L43.3747 4L43.9997 4.85L44.3997 5.675L44.6497 6.425L44.7497 7.075L44.7997 7.575L44.7747 7.9V21.25L44.6497 22.825L44.3247 24.2L43.7997 25.35L43.1497 26.3L42.3997 27.075L41.5747 27.7L40.6997 28.175L39.8247 28.525L38.9997 28.775L38.2497 28.95L37.5997 29.05L37.0747 29.1H22.1497L20.4247 29.225L18.9497 29.575L17.6997 30.125L16.6747 30.8L15.8497 31.6L15.1747 32.475L14.6747 33.375L14.2997 34.3L14.0497 35.175L13.8747 35.975L13.7747 36.65L13.7247 37.175V44.825H8.14971L7.62471 44.75L6.92471 44.575L6.12471 44.275L5.24971 43.825L4.34971 43.175L3.44971 42.275L2.57471 41.125L1.77471 39.65L1.07471 37.825L0.549707 35.625L0.199707 33L0.074707 29.925L0.224707 26.875L0.624707 24.275L1.22471 22.1L2.02471 20.325L2.92471 18.9L3.92471 17.8L4.97471 16.975L6.02471 16.375L7.02471 15.975L7.92471 15.725L8.72471 15.6L9.32471 15.575H9.72471L9.87471 15.6H30.2747V13.525H15.6747L15.6497 6.65L15.5997 5.725L15.7247 4.875L15.9997 4.1L16.4247 3.4L17.0497 2.75L17.8247 2.175L18.7747 1.675L19.8747 1.225L21.1497 0.85L22.5997 0.55L24.1997 0.3L25.9747 0.15L27.8997 0.05L29.9997 0L33.1747 0.125L35.8497 0.45ZM20.0997 5.4L19.5247 6.225L19.3247 7.25L19.5247 8.275L20.0997 9.125L20.9247 9.675L21.9497 9.9L22.9747 9.675L23.7997 9.125L24.3747 8.275L24.5747 7.25L24.3747 6.225L23.7997 5.4L22.9747 4.85L21.9497 4.625L20.9247 4.85L20.0997 5.4ZM52.8247 15.275L53.5247 15.425L54.3247 15.725L55.1997 16.175L56.0997 16.85L56.9997 17.725L57.8747 18.9L58.6747 20.375L59.3747 22.2L59.8997 24.4L60.2497 27L60.3747 30.075L60.2247 33.15L59.8247 35.75L59.2247 37.9L58.4247 39.675L57.5247 41.1L56.5247 42.225L55.4747 43.05L54.4247 43.65L53.4247 44.05L52.5247 44.275L51.7247 44.4L51.1247 44.45L50.7247 44.425H30.1747V46.475H44.7747L44.7997 53.375L44.8497 54.275L44.7247 55.125L44.4497 55.9L44.0247 56.625L43.3997 57.25L42.6247 57.85L41.6747 58.35L40.5747 58.775L39.2997 59.15L37.8497 59.475L36.2497 59.7L34.4747 59.875L32.5497 59.975L30.4497 60L27.2747 59.9L24.5997 59.55L22.3497 59.05L20.5247 58.425L19.0497 57.675L17.9247 56.85L17.0747 56L16.4497 55.15L16.0497 54.325L15.7997 53.575L15.6997 52.95L15.6497 52.45L15.6747 52.125V38.775L15.7997 37.175L16.1247 35.825L16.6497 34.675L17.2997 33.725L18.0497 32.925L18.8747 32.325L19.7497 31.825L20.6247 31.475L21.4497 31.225L22.1997 31.075L22.8497 30.975L23.3747 30.925L23.6997 30.9H38.2997L40.0247 30.775L41.4997 30.425L42.7497 29.9L43.7747 29.2L44.5997 28.4L45.2747 27.525L45.7747 26.625L46.1497 25.725L46.3997 24.85L46.5747 24.05L46.6747 23.35L46.7247 22.825V15.175H51.9497L52.2997 15.2L52.8247 15.275ZM36.6497 50.9L36.0747 51.725L35.8747 52.75L36.0747 53.775L36.6497 54.6L37.4747 55.175L38.4997 55.375L39.5247 55.175L40.3497 54.6L40.9247 53.775L41.1247 52.75L40.9247 51.725L40.3497 50.9L39.5247 50.325L38.4997 50.125L37.4747 50.325L36.6497 50.9Z" fill="#F0F0F0"/>
</svg>
