<svg width="50" height="60" viewBox="0 0 50 60" fill="none" xmlns="http://www.w3.org/2000/svg">
<path d="M24.9454 0L7.31255 17.6328C4.99576 19.9262 3.1566 22.6561 1.90143 25.6646C0.646269 28.6732 0 31.9008 0 35.1607C0 38.4206 0.646269 41.6481 1.90143 44.6567C3.1566 47.6653 4.99576 50.3952 7.31255 52.6885C9.60606 55.005 12.336 56.8439 15.3446 58.0989C18.3531 59.3538 21.5806 60 24.8404 60C28.1002 60 31.3277 59.3538 34.3362 58.0989C37.3448 56.8439 40.0747 55.005 42.3682 52.6885C52.3284 42.9383 52.3334 27.1755 42.5807 17.6303L38.2206 21.9879C45.4808 29.2506 45.4808 41.0733 38.2206 48.3334C30.9605 55.5936 19.1353 55.5936 11.8751 48.3334C4.615 41.0733 4.615 29.2481 11.8751 21.9879L23.4929 10.3727L24.9479 8.71017L24.9454 0ZM33.8656 9.74769C32.9857 9.74769 32.1418 10.0972 31.5197 10.7194C30.8975 11.3415 30.548 12.1854 30.548 13.0652C30.5477 13.5011 30.6332 13.9328 30.7998 14.3356C30.9664 14.7384 31.2107 15.1044 31.5188 15.4127C31.8269 15.7211 32.1927 15.9657 32.5954 16.1325C32.9981 16.2994 33.4297 16.3853 33.8656 16.3853C34.3014 16.3853 34.733 16.2994 35.1357 16.1325C35.5384 15.9657 35.9042 15.7211 36.2123 15.4127C36.5204 15.1044 36.7647 14.7384 36.9313 14.3356C37.0979 13.9328 37.1834 13.5011 37.1831 13.0652C37.1825 12.1858 36.8326 11.3426 36.2105 10.721C35.5884 10.0994 34.745 9.75019 33.8656 9.75019V9.74769Z" fill="#F0F0F0"/>
</svg>
