<svg width="60" height="22" viewBox="0 0 60 22" fill="none" xmlns="http://www.w3.org/2000/svg">
<path d="M18.8075 0.70166C18.34 0.70166 17.8525 0.72916 17.3525 0.78916L17.6425 1.68416C18.08 1.63916 18.52 1.62416 18.96 1.62416H19.11L18.81 0.70166H18.8075ZM24.595 1.59666L24.535 2.59666C25.035 2.76416 25.52 2.94166 26.005 3.13916L26.07 2.12916C25.9325 2.05416 25.55 1.86916 24.595 1.59666ZM12.125 2.17166C11.7248 2.3772 11.3305 2.59395 10.9425 2.82166L11.6425 3.88666C12.035 3.64416 12.4125 3.41166 12.8075 3.21666L12.125 2.17416V2.17166ZM19.35 2.22666C18.8041 2.21727 18.2582 2.23981 17.715 2.29416C16.6075 2.39416 15.4425 2.71666 14.265 3.23166C10.72 4.77666 7.07 8.02666 4.6825 12.0067C2.295 15.9842 1.455 19.5067 1.1825 21.0142C1.09 21.5192 1.0575 21.7967 1.0575 21.7967H13.0325C13.0325 21.7967 12.89 21.1467 12.7925 20.1017C12.7377 19.4932 12.7102 18.8826 12.71 18.2717C12.71 16.8967 12.8475 15.2642 13.32 13.6267C13.4375 13.2192 13.5775 12.8067 13.74 12.4017C13.9025 11.9967 14.09 11.5992 14.3025 11.2042C14.7275 10.4192 15.255 9.65916 15.9175 8.96916C16.58 8.27916 17.3775 7.65666 18.325 7.12916C18.945 6.82916 20.07 6.21666 21.69 5.90666C22.23 5.80416 22.8225 5.73166 23.4725 5.71666C24.1225 5.70416 24.8275 5.74666 25.585 5.86666C27.1 6.10916 28.83 6.66666 30.7725 7.71666C31.7425 8.24416 32.7675 8.89166 33.8425 9.68666C34.1175 9.46166 34.37 9.28166 34.37 9.28166C34.37 9.28166 33.88 8.78916 33.0025 8.06666C32.1275 7.34166 30.87 6.38666 29.335 5.45916C28.57 4.99416 27.73 4.53416 26.84 4.11416C25.9254 3.68345 24.9824 3.31593 24.0175 3.01416C23.0166 2.70367 21.9913 2.47788 20.9525 2.33916C20.4215 2.27338 19.8874 2.23582 19.3525 2.22666H19.35ZM24.565 6.35166L24.5075 7.30916C25.0075 7.32416 25.5075 7.38416 26.0075 7.48916L26.07 6.55166C25.5736 6.44977 25.0707 6.38294 24.565 6.35166ZM21.02 6.71666C20.505 6.86916 20.0675 7.03416 19.6875 7.20166L20.035 8.24666C20.4725 8.03416 20.9125 7.85416 21.3525 7.71916L21.02 6.71916V6.71666ZM6 6.77666C5.6075 7.15416 5.225 7.53416 4.8775 7.91416L6.045 8.91416C6.3625 8.50666 6.7125 8.09666 7.075 7.71916L6 6.77666ZM16.85 9.02166C16.5 9.34166 16.185 9.68916 15.9125 10.0392L16.64 11.1267C16.8975 10.7492 17.2 10.4017 17.535 10.0517L16.85 9.02166ZM19.3225 10.9892V21.7967H22.2325V19.1892L24.75 21.7967H29.0525L25.675 18.3867C25.675 18.3867 28.325 18.1617 28.325 14.7367C28.325 11.3117 25.1125 10.9892 25.1125 10.9892H19.3225ZM32.5525 11.0692C30.4475 11.0692 29.7375 12.9767 29.7375 13.8867V21.7967H32.69V19.9017H35.465V21.7967H38.33V13.8867C38.33 11.5817 36.235 11.0692 35.5075 11.0692H32.5525ZM39.6775 11.0692V21.7942H42.7525V11.0692H39.6775ZM44.01 11.0692V21.7967H51.21V19.0217H47.07V11.0692H44.01ZM54.9075 11.0692C53.695 11.0692 52.075 12.0667 52.075 13.9292V14.8867C52.075 16.7517 53.68 17.7042 54.9075 17.7042C58.3175 17.7192 54.09 17.7042 57.24 17.7042V19.0367L52.2275 19.0517V21.7967H57.1825C58.1975 21.7967 59.94 21.0542 60 18.9792V17.9192C60 16.1442 58.5475 15.0967 57.1825 15.0967H54.7125V13.8267H59.605V11.0692H54.905H54.9075ZM14.17 13.2492C13.9851 13.7945 13.8332 14.3505 13.715 14.9142L14.94 15.8842C15.0025 15.2942 15.1125 14.7042 15.265 14.1117L14.17 13.2492ZM33.5975 13.6242H34.615C35.4325 13.6242 35.45 14.2142 35.45 14.2142V16.8392H32.675V14.2142C32.675 14.2142 32.675 13.6242 33.6 13.6242H33.5975ZM22.2325 13.7017H24.565C24.565 13.7017 25.22 13.9442 25.22 14.9267C25.22 15.9142 24.55 16.1742 24.55 16.1742H22.2325V13.7017ZM0.7575 13.8542C0.47 14.5042 0.1525 15.2617 0 15.6717L1.7425 16.3092C1.9425 15.7942 2.2575 15.0492 2.5 14.4892L0.7575 13.8542ZM13.4875 18.7617C13.5175 19.5642 13.595 20.2217 13.6725 20.6742L15.4875 21.3242C15.3348 20.6747 15.2146 20.0181 15.1275 19.3567L13.4875 18.7617Z" fill="#F0F0F0"/>
</svg>
