<svg width="60" height="41" viewBox="0 0 60 41" fill="none" xmlns="http://www.w3.org/2000/svg">
<path d="M2.73015 28.0396C4.70262 28.6471 12.975 30.5521 12.975 30.5521C13.47 30.7046 13.3225 31.0771 13.3225 31.0771C12.7525 35.572 12.8775 39.0019 12.8775 40.1869C12.8775 40.7119 12.495 40.6369 12.495 40.6369H0.420187C-0.102306 40.6369 0.0101927 40.1619 0.0101927 40.1619C0.110191 38.6644 0.540185 34.4045 2.20516 28.2971C2.20516 28.2971 2.28766 27.9046 2.73015 28.0396ZM57.2694 28.0396C55.2969 28.6471 47.0245 30.5521 47.0245 30.5521C46.5295 30.7046 46.677 31.0771 46.677 31.0771C47.247 35.572 47.122 39.0019 47.122 40.1869C47.122 40.7119 47.5045 40.6369 47.5045 40.6369H59.5793C60.1043 40.6369 59.9893 40.1619 59.9893 40.1619C59.8893 38.6644 59.4593 34.4045 57.7944 28.2971C57.7944 28.2971 57.7094 27.9046 57.2694 28.0396ZM52.4469 14.6548L43.8271 18.8222C43.4171 18.9797 43.6221 19.3522 43.6221 19.3522C44.812 22.1872 45.537 24.5796 46.097 27.4796C46.192 27.9646 46.5195 27.8096 46.5195 27.8096L56.2169 23.5997C56.2169 23.5997 56.5069 23.4897 56.3869 23.1172C55.9569 21.7897 53.7619 16.4948 52.8819 14.7648C52.8819 14.7648 52.7269 14.5023 52.4469 14.6548ZM7.55258 14.6548L16.1725 18.8222C16.5825 18.9797 16.3775 19.3522 16.3775 19.3522C15.1875 22.1872 14.4625 24.5796 13.9 27.4796C13.8075 27.9646 13.4775 27.8096 13.4775 27.8096L3.78264 23.5997C3.78264 23.5997 3.49264 23.4897 3.61264 23.1172C4.04263 21.7897 6.2376 16.4948 7.11759 14.7648C7.11759 14.7648 7.27259 14.5023 7.55258 14.6548ZM17.7649 3.73495L23.5199 10.4374C23.7673 10.7573 23.4399 10.9923 23.4399 10.9923C21.1324 12.2373 19.4649 14.1173 18.0374 16.2698C17.7524 16.6948 17.4474 16.3848 17.4474 16.3848L10.155 10.9248C10.155 10.9248 9.84005 10.7398 10.115 10.3749C12.25 7.53989 14.19 5.53992 17.2924 3.65245C17.2924 3.65245 17.5274 3.42995 17.7649 3.73495ZM42.2346 3.73495L36.4797 10.4374C36.2322 10.7573 36.5597 10.9923 36.5597 10.9923C38.8671 12.2373 40.5346 14.1173 41.9621 16.2698C42.2471 16.6948 42.5521 16.3848 42.5521 16.3848L49.8445 10.9248C49.8445 10.9248 50.1595 10.7398 49.8845 10.3749C47.7495 7.53989 45.8095 5.53992 42.7071 3.65245C42.7071 3.65245 42.4721 3.42995 42.2346 3.73495ZM29.9998 9.47236C30.9697 9.47236 32.7622 9.56486 33.6097 9.70486C34.0522 9.77986 34.1622 9.48486 34.1622 9.48486L37.7846 1.91497C37.7846 1.91497 38.0271 1.62998 37.5196 1.44498C34.8147 0.454993 33.3772 0 29.9998 0C26.6623 0 25.1848 0.454993 22.4799 1.44498C21.9724 1.62998 22.2149 1.91497 22.2149 1.91497L25.8373 9.48486C25.8373 9.48486 25.9473 9.77986 26.3898 9.70486C27.2373 9.56486 29.0298 9.47236 29.9998 9.47236Z" fill="#F0F0F0"/>
</svg>
