<svg width="5" height="8" viewBox="0 0 5 8" fill="none" xmlns="http://www.w3.org/2000/svg">
<path d="M0.202238 1.26722C0.0691351 1.12438 -0.00332693 0.935445 0.000117396 0.740231C0.00356172 0.545017 0.0826436 0.358761 0.220702 0.220702C0.358761 0.0826436 0.545017 0.00356172 0.740231 0.000117396C0.935445 -0.00332693 1.12438 0.0691351 1.26722 0.202238L4.53249 3.46751C4.6736 3.60879 4.75286 3.80031 4.75286 4C4.75286 4.19968 4.6736 4.3912 4.53249 4.53249L1.26722 7.79776C1.12438 7.93086 0.935445 8.00333 0.740231 7.99988C0.545017 7.99644 0.358761 7.91735 0.220702 7.7793C0.0826436 7.64124 0.00356172 7.45498 0.000117396 7.25977C-0.00332693 7.06455 0.0691351 6.87562 0.202238 6.73278L2.93502 4L0.202238 1.26722Z" fill="#20222A"/>
</svg>
