<svg width="67" height="66" viewBox="0 0 67 66" fill="none" xmlns="http://www.w3.org/2000/svg">
<path d="M33.0747 0C51.299 0 66.0747 14.7758 66.0747 33C66.0747 51.2243 51.299 66 33.0747 66C14.8505 66 0.074707 51.2243 0.074707 33C0.074707 14.7758 14.8505 0 33.0747 0ZM26.516 43.9945C26.9972 45.7682 26.945 47.4265 26.45 48.9225L26.2712 49.4175C26.2052 49.5852 26.1282 49.7475 26.0567 49.9015C25.6717 50.699 25.1602 51.4415 24.5305 52.129C22.611 54.2162 19.9325 55.0082 18.783 54.3428C17.5455 53.6222 18.1615 50.6715 20.389 48.3202C22.7842 45.7957 26.219 44.1705 26.219 44.1705V44.1623L26.516 43.9945ZM53.7712 14.1267C52.2807 8.261 42.5595 6.33325 33.3607 9.603C27.891 11.5473 21.9647 14.6025 17.705 18.5872C12.6367 23.32 11.831 27.445 12.1637 29.1693C13.338 35.2495 21.6705 39.226 25.097 42.1768V42.1933C24.0877 42.6883 16.693 46.398 14.9605 50.237C13.1042 54.2795 15.2492 57.1698 16.6517 57.5382C20.983 58.7373 25.438 56.5483 27.8305 53.0035C30.1405 49.5358 29.937 45.0807 28.9415 42.8945C30.3055 42.5233 31.9115 42.3582 33.974 42.6085C39.7517 43.2685 40.9067 46.8985 40.6565 48.3835C40.409 49.8657 39.2182 50.732 38.803 50.9795C38.3905 51.2298 38.2667 51.3095 38.3052 51.4772C38.3465 51.7248 38.5555 51.7248 38.8827 51.6835C39.3365 51.601 41.8967 50.446 42.0205 47.6382C42.1442 44.0908 38.759 40.1335 32.7392 40.2132C30.2642 40.2573 28.694 40.4635 27.583 40.9172C27.5005 40.7935 27.4152 40.711 27.2942 40.6285C23.5817 36.6273 16.693 33.8223 16.9817 28.501C17.0642 26.5623 17.7655 21.45 30.1817 15.2625C40.3705 10.186 48.4995 11.5913 49.902 14.685C51.9177 19.096 45.568 27.3075 34.9667 28.501C30.9242 28.9548 28.8205 27.39 28.2815 26.8097C27.7067 26.191 27.6242 26.1498 27.418 26.2763C27.088 26.4413 27.2942 26.9775 27.418 27.3075C27.748 28.1325 29.0267 29.5762 31.257 30.3187C33.193 30.9375 37.9395 31.306 43.632 29.0812C50.023 26.609 55.0142 19.7175 53.5705 13.9425L53.7712 14.1267Z" fill="#F0F0F0"/>
</svg>
