<svg width="58" height="60" viewBox="0 0 58 60" fill="none" xmlns="http://www.w3.org/2000/svg">
<path d="M56.58 8.67L38.04 29.475C37.9868 29.5308 37.9228 29.5753 37.8519 29.6056C37.781 29.636 37.7046 29.6516 37.6275 29.6516C37.5504 29.6516 37.474 29.636 37.4031 29.6056C37.3322 29.5753 37.2682 29.5308 37.215 29.475L27.75 19.725C27.6709 19.6245 27.6279 19.5004 27.6279 19.3725C27.6279 19.2446 27.6709 19.1205 27.75 19.02L30.825 15C30.878 14.9286 30.947 14.8707 31.0265 14.8307C31.1059 14.7908 31.1936 14.77 31.2825 14.77C31.3714 14.77 31.4591 14.7908 31.5385 14.8307C31.618 14.8707 31.687 14.9286 31.74 15L37.005 20.865C37.0585 20.9257 37.1243 20.9742 37.198 21.0075C37.2717 21.0408 37.3516 21.058 37.4325 21.058C37.5134 21.058 37.5933 21.0408 37.667 21.0075C37.7407 20.9742 37.8065 20.9257 37.86 20.865L52.71 0.63C52.7499 0.570546 52.7733 0.501588 52.7778 0.430148C52.7824 0.358709 52.7679 0.287341 52.7359 0.223314C52.7039 0.159288 52.6554 0.10489 52.5956 0.065662C52.5357 0.026434 52.4665 0.00377742 52.395 0L0.435 0C0.319631 0 0.208987 0.0458302 0.127409 0.127409C0.0458302 0.208987 0 0.319631 0 0.435V59.565C0 59.6804 0.0458302 59.791 0.127409 59.8726C0.208987 59.9542 0.319631 60 0.435 60H56.85C56.9654 60 57.076 59.9542 57.1576 59.8726C57.2392 59.791 57.285 59.6804 57.285 59.565V9C57.2988 8.91321 57.284 8.82429 57.2428 8.74665C57.2016 8.66902 57.1363 8.60689 57.0567 8.56963C56.9771 8.53238 56.8876 8.52202 56.8016 8.54012C56.7156 8.55823 56.6378 8.60382 56.58 8.67ZM15.975 53.415C12.2598 53.5807 8.62671 52.2889 5.85 49.815C5.76441 49.7146 5.7174 49.5869 5.7174 49.455C5.7174 49.3231 5.76441 49.1954 5.85 49.095L8.055 46.005C8.10041 45.9411 8.15884 45.8875 8.22646 45.8478C8.29407 45.8081 8.36933 45.7832 8.44728 45.7747C8.52523 45.7662 8.60409 45.7743 8.67868 45.7985C8.75326 45.8227 8.82188 45.8624 8.88 45.915C10.8941 47.7838 13.5425 48.8185 16.29 48.81C19.185 48.81 20.595 47.475 20.595 46.065C20.595 41.685 6.345 44.685 6.345 35.37C6.345 31.245 9.915 27.87 15.735 27.87C19.0988 27.7502 22.392 28.8533 25.005 30.975C25.0988 31.0774 25.1509 31.2112 25.1509 31.35C25.1509 31.4888 25.0988 31.6226 25.005 31.725L22.74 34.725C22.6946 34.7843 22.6377 34.8339 22.5727 34.8707C22.5077 34.9075 22.4359 34.9308 22.3617 34.9392C22.2874 34.9476 22.2123 34.941 22.1407 34.9196C22.0691 34.8983 22.0025 34.8627 21.945 34.815C20.0245 33.2833 17.6364 32.4572 15.18 32.475C12.915 32.475 11.655 33.48 11.655 34.965C11.655 38.895 25.875 36.27 25.875 45.465C25.89 49.995 22.665 53.415 15.975 53.415ZM47.07 44.835C47.07 44.9623 47.0194 45.0844 46.9294 45.1744C46.8394 45.2644 46.7173 45.315 46.59 45.315H33.585C33.564 45.3149 33.5432 45.3192 33.5239 45.3277C33.5047 45.3361 33.4874 45.3485 33.4733 45.3641C33.4591 45.3797 33.4484 45.398 33.4418 45.418C33.4352 45.438 33.4329 45.4591 33.435 45.48C33.6475 46.6944 34.3043 47.7863 35.2775 48.5433C36.2506 49.3002 37.4706 49.6679 38.7 49.575C40.3154 49.5316 41.8816 49.0096 43.2 48.075C43.2515 48.0348 43.3107 48.0055 43.3739 47.989C43.4371 47.9724 43.503 47.969 43.5676 47.9788C43.6322 47.9886 43.6941 48.0115 43.7496 48.0461C43.805 48.0807 43.8528 48.1263 43.89 48.18L45.48 50.505C45.5481 50.6082 45.5751 50.7332 45.5557 50.8554C45.5363 50.9775 45.4718 51.088 45.375 51.165C43.2785 52.6906 40.737 53.4815 38.145 53.415C36.8486 53.4871 35.5515 53.2875 34.3368 52.8288C33.1221 52.3701 32.0168 51.6626 31.0916 50.7516C30.1665 49.8405 29.442 48.7462 28.9647 47.5387C28.4874 46.3313 28.2678 45.0373 28.32 43.74C28.2833 42.4743 28.5037 41.2143 28.9681 40.0362C29.4324 38.8582 30.1309 37.7866 31.0214 36.8863C31.9118 35.9861 32.9757 35.2758 34.1486 34.7986C35.3214 34.3214 36.579 34.0871 37.845 34.11C43.335 34.11 47.055 38.22 47.055 44.235L47.07 44.835ZM37.86 37.965C36.7573 37.9317 35.6825 38.3143 34.8488 39.0367C34.0152 39.7592 33.4837 40.7688 33.36 41.865C33.3579 41.8859 33.3602 41.9071 33.3668 41.927C33.3734 41.947 33.3841 41.9653 33.3983 41.9809C33.4124 41.9965 33.4297 42.0089 33.4489 42.0173C33.4682 42.0258 33.489 42.0301 33.51 42.03H42.24C42.261 42.0301 42.2818 42.0258 42.3011 42.0173C42.3203 42.0089 42.3376 41.9965 42.3517 41.9809C42.3659 41.9653 42.3766 41.947 42.3832 41.927C42.3898 41.9071 42.3921 41.8859 42.39 41.865C42.3018 40.7489 41.7762 39.7129 40.9278 38.9825C40.0794 38.2521 38.9768 37.8864 37.86 37.965Z" fill="#F0F0F0"/>
</svg>
