<svg width="11" height="16" viewBox="0 0 11 16" fill="none" xmlns="http://www.w3.org/2000/svg">
<path fill-rule="evenodd" clip-rule="evenodd" d="M4.21667 4.78339C4.21667 4.13339 4.75 3.88339 5.63333 3.88339C6.9 3.88339 8.5 4.26672 9.76667 4.95006V1.03339C8.38333 0.48339 7.01667 0.266724 5.63333 0.266724C2.25 0.266724 0 2.03339 0 4.98339C0 9.58339 6.33333 8.85006 6.33333 10.8334C6.33333 11.6001 5.66667 11.8501 4.73333 11.8501C3.35 11.8501 1.58333 11.2834 0.183333 10.5167V14.4834C1.73333 15.1501 3.3 15.4334 4.73333 15.4334C8.2 15.4334 10.5833 13.7167 10.5833 10.7334C10.5667 5.76672 4.21667 6.65006 4.21667 4.78339Z" fill="#F0F0F0"/>
</svg>
