<svg width="10" height="9" viewBox="0 0 10 9" fill="none" xmlns="http://www.w3.org/2000/svg">
<path d="M9.93401 4.25194L7.93397 0.751882C7.89026 0.675354 7.8271 0.61174 7.75088 0.567485C7.67466 0.52323 7.5881 0.499906 7.49997 0.499878H0.499847C0.412287 0.499906 0.326269 0.522927 0.250399 0.566639C0.174529 0.61035 0.111469 0.673218 0.0675257 0.748954C0.0235828 0.824689 0.000298708 0.910637 2.85498e-06 0.998197C-0.000292998 1.08576 0.0224097 1.17186 0.0658398 1.24789L1.92437 4.49995L0.0658398 7.752C0.0224097 7.82803 -0.000292998 7.91414 2.85498e-06 8.0017C0.000298708 8.08926 0.0235828 8.1752 0.0675257 8.25094C0.111469 8.32667 0.174529 8.38954 0.250399 8.43325C0.326269 8.47696 0.412287 8.49999 0.499847 8.50001H7.49997C7.5881 8.49999 7.67466 8.47666 7.75088 8.43241C7.8271 8.38815 7.89026 8.32454 7.93397 8.24801L9.93401 4.74795C9.97725 4.67245 10 4.58695 10 4.49995C10 4.41294 9.97725 4.32744 9.93401 4.25194Z" fill="black"/>
</svg>
