<svg width="60" height="36" viewBox="0 0 60 36" fill="none" xmlns="http://www.w3.org/2000/svg">
<path d="M30 0C22 0 17 4 15 12C18 8 21.5 6.5 25.5 7.5C27.7825 8.07 29.4125 9.725 31.22 11.56C34.1625 14.545 37.565 18 45 18C53 18 58 14 60 6C57 10 53.5 11.5 49.5 10.5C47.2175 9.93 45.5875 8.275 43.78 6.44C40.84 3.455 37.4375 0 30 0ZM15 18C7 18 2 22 0 30C3 26 6.5 24.5 10.5 25.5C12.7825 26.07 14.4125 27.725 16.22 29.56C19.1625 32.545 22.565 36 30 36C38 36 43 32 45 24C42 28 38.5 29.5 34.5 28.5C32.2175 27.93 30.5875 26.275 28.78 24.44C25.84 21.455 22.4375 18 15 18Z" fill="#F0F0F0"/>
</svg>
