<svg width="33" height="33" viewBox="0 0 33 33" fill="none" xmlns="http://www.w3.org/2000/svg">
<path d="M28.9155 15.3064H32.3173C32.3173 6.58078 25.7297 0 16.9922 0V3.4018C23.9012 3.4018 28.9155 8.40755 28.9155 15.3064Z" fill="#38D8CC"/>
<path d="M17.0095 10.201C20.5865 10.201 22.1122 11.7267 22.1122 15.3037H25.514C25.514 9.81833 22.4949 6.79923 17.0095 6.79923V10.201ZM22.83 19.459C22.5031 19.162 22.0736 19.0035 21.6322 19.0172C21.1907 19.0308 20.7719 19.2155 20.464 19.5322L16.3938 23.7181C15.414 23.531 13.4444 22.917 11.4169 20.8946C9.38945 18.8654 8.77542 16.8907 8.59343 15.9178L12.7759 11.8458C13.093 11.5382 13.2779 11.1192 13.2916 10.6776C13.3052 10.2361 13.1465 9.80649 12.8491 9.47985L6.56425 2.56909C6.26667 2.24142 5.85307 2.04267 5.4113 2.01504C4.96953 1.98741 4.5344 2.13308 4.1983 2.42111L0.507348 5.58649C0.213281 5.88162 0.0377626 6.27442 0.0140868 6.69037C-0.0114267 7.1156 -0.497884 17.1883 7.31265 25.0023C14.1265 31.8144 22.6616 32.3127 25.0122 32.3127C25.3558 32.3127 25.5667 32.3025 25.6228 32.2991C26.0387 32.2758 26.4313 32.0995 26.725 31.8042L29.8887 28.1115C30.1769 27.7756 30.3229 27.3406 30.2956 26.8989C30.2683 26.4571 30.0698 26.0434 29.7424 25.7456L22.83 19.459Z" fill="#38D8CC"/>
</svg>
