<svg width="77" height="94" viewBox="0 0 77 94" fill="none" xmlns="http://www.w3.org/2000/svg">
<g filter="url(#filter0_d_1789_6453)">
<path d="M59.8571 38.8692C59.8585 35.1752 58.9423 31.5412 57.1941 28.3063C55.4459 25.0714 52.9227 22.3412 49.8601 20.3706C46.7975 18.3999 43.2953 17.2532 39.6806 17.0374C36.0659 16.8215 32.4565 17.5437 29.1895 19.1363C25.9224 20.729 23.1042 23.1403 20.9981 26.145C18.8919 29.1498 17.5664 32.65 17.1454 36.3189C16.7243 39.9878 17.2215 43.7057 18.5904 47.1255C19.9593 50.5452 22.1553 53.5554 24.9734 55.8748V75.4733C24.9747 75.7316 25.0392 75.9855 25.161 76.2119C25.2828 76.4382 25.4582 76.63 25.6711 76.7697C25.8906 76.9062 26.14 76.9846 26.3967 76.998C26.6534 77.0113 26.9093 76.959 27.1412 76.846L38.4286 71.0757L49.7159 76.846C49.9271 76.9447 50.1564 76.9967 50.3887 76.9985C50.6699 76.9977 50.9456 76.9186 51.186 76.7697C51.399 76.63 51.5743 76.4382 51.6961 76.2119C51.818 75.9855 51.8825 75.7316 51.8837 75.4733V55.8748C54.3735 53.8279 56.3822 51.2379 57.762 48.295C59.1418 45.3522 59.8577 42.1313 59.8571 38.8692ZM19.99 38.8692C19.99 35.1488 21.0714 31.512 23.0975 28.4186C25.1235 25.3253 28.0032 22.9143 31.3724 21.4906C34.7417 20.0668 38.449 19.6943 42.0258 20.4201C45.6025 21.1459 48.8879 22.9375 51.4666 25.5681C54.0453 28.1988 55.8014 31.5505 56.5128 35.1994C57.2243 38.8483 56.8591 42.6305 55.4636 46.0676C54.068 49.5048 51.7047 52.4426 48.6725 54.5095C45.6403 56.5764 42.0754 57.6796 38.4286 57.6796C33.5404 57.6729 28.8543 55.6889 25.3978 52.1627C21.9414 48.6366 19.9966 43.8559 19.99 38.8692ZM48.8937 73.0076L39.1013 68C38.8906 67.9 38.661 67.8481 38.4286 67.8481C38.1961 67.8481 37.9665 67.9 37.7558 68L27.9635 73.0076V57.9338C31.1588 59.7666 34.7628 60.7293 38.4286 60.7293C42.0943 60.7293 45.6983 59.7666 48.8937 57.9338V73.0076Z" fill="#38D8CC"/>
</g>
<defs>
<filter id="filter0_d_1789_6453" x="0.116884" y="0.116884" width="76.6237" height="93.7662" filterUnits="userSpaceOnUse" color-interpolation-filters="sRGB">
<feFlood flood-opacity="0" result="BackgroundImageFix"/>
<feColorMatrix in="SourceAlpha" type="matrix" values="0 0 0 0 0 0 0 0 0 0 0 0 0 0 0 0 0 0 127 0" result="hardAlpha"/>
<feOffset/>
<feGaussianBlur stdDeviation="8.44156"/>
<feComposite in2="hardAlpha" operator="out"/>
<feColorMatrix type="matrix" values="0 0 0 0 0.219608 0 0 0 0 0.847059 0 0 0 0 0.8 0 0 0 1 0"/>
<feBlend mode="normal" in2="BackgroundImageFix" result="effect1_dropShadow_1789_6453"/>
<feBlend mode="normal" in="SourceGraphic" in2="effect1_dropShadow_1789_6453" result="shape"/>
</filter>
</defs>
</svg>
