<svg width="100" height="94" viewBox="0 0 100 94" fill="none" xmlns="http://www.w3.org/2000/svg">
<g filter="url(#filter0_d_1761_6347)">
<path fill-rule="evenodd" clip-rule="evenodd" d="M72.243 47.0029C72.243 49.353 74.1703 51.2651 76.539 51.2651C77.7334 51.2651 78.7028 52.2269 78.7028 53.412V61.1436C78.7028 67.6815 73.3421 73 66.7524 73H32.9532C26.3635 73 21 67.6815 21 61.1436V53.412C21 52.2269 21.9694 51.2651 23.1639 51.2651C25.5355 51.2651 27.4627 49.353 27.4627 47.0029C27.4627 44.7129 25.6134 42.9896 23.1639 42.9896C22.5897 42.9896 22.0415 42.7635 21.6347 42.3599C21.2279 41.9563 21 41.4096 21 40.8428L21.0058 32.8593C21.0058 26.3214 26.3664 21 32.9561 21H66.7468C73.3365 21 78.7001 26.3214 78.7001 32.8593L78.7028 40.5937C78.7028 41.1605 78.4749 41.7101 78.071 42.1109C77.6642 42.5145 77.116 42.7406 76.539 42.7406C74.1703 42.7406 72.243 44.6528 72.243 47.0029ZM56.3488 48.8721L59.7504 45.5859C60.3418 45.0191 60.5466 44.1833 60.2898 43.4104C60.0359 42.6376 59.3723 42.088 58.5703 41.9763L53.8704 41.2951L51.7672 37.07C51.4065 36.3429 50.6738 35.8907 49.8573 35.8878H49.8514C49.0378 35.8878 48.305 36.3401 47.9386 37.0672L45.8352 41.2951L41.1441 41.9735C40.3333 42.088 39.6699 42.6376 39.4131 43.4104C39.1592 44.1833 39.3639 45.0191 39.9525 45.5859L43.354 48.8721L42.552 53.5179C42.4136 54.3194 42.7396 55.1151 43.4032 55.5932C43.7782 55.8594 44.2138 55.9968 44.6553 55.9968C44.9928 55.9968 45.3334 55.9138 45.645 55.7506L49.8514 53.558L54.0494 55.7449C54.7764 56.1313 55.639 56.0712 56.2997 55.5903C56.9662 55.1152 57.2922 54.3194 57.1538 53.5179L56.3488 48.8721Z" stroke="#38D8CC" stroke-width="3.18008"/>
</g>
<defs>
<filter id="filter0_d_1761_6347" x="0.329651" y="0.329651" width="99.0438" height="93.3407" filterUnits="userSpaceOnUse" color-interpolation-filters="sRGB">
<feFlood flood-opacity="0" result="BackgroundImageFix"/>
<feColorMatrix in="SourceAlpha" type="matrix" values="0 0 0 0 0 0 0 0 0 0 0 0 0 0 0 0 0 0 127 0" result="hardAlpha"/>
<feOffset/>
<feGaussianBlur stdDeviation="9.54025"/>
<feColorMatrix type="matrix" values="0 0 0 0 0.219608 0 0 0 0 0.847059 0 0 0 0 0.8 0 0 0 1 0"/>
<feBlend mode="normal" in2="BackgroundImageFix" result="effect1_dropShadow_1761_6347"/>
<feBlend mode="normal" in="SourceGraphic" in2="effect1_dropShadow_1761_6347" result="shape"/>
</filter>
</defs>
</svg>
