<svg width="60" height="60" viewBox="0 0 60 60" fill="none" xmlns="http://www.w3.org/2000/svg">
<path d="M0 0V60H60V0H0ZM6.66 7.41H25.36V11.99H18.49V29.98H13.53V11.99H6.66V7.41ZM29.98 52.41H7.48V48.66H29.98V52.41ZM43.8898 29.3643C42.2858 30.0572 40.5455 30.3771 38.8 30.3C37.2765 30.3242 35.7635 30.0425 34.3508 29.4715C32.9381 28.9005 31.6544 28.0519 30.5755 26.9758C29.4967 25.8998 28.6447 24.6182 28.07 23.207C27.4954 21.7958 27.2097 20.2836 27.23 18.76V18.7C27.201 17.151 27.4864 15.6123 28.069 14.1767C28.6515 12.7411 29.5191 11.4386 30.6192 10.3478C31.7193 9.25701 33.0292 8.40061 34.4697 7.83035C35.9102 7.26009 37.4513 6.98782 39 7.03C40.6445 6.9459 42.2882 7.21171 43.8224 7.80987C45.3566 8.40804 46.7464 9.32494 47.9 10.5L44.74 14.14C43.2223 12.5649 41.1465 11.6491 38.96 11.59C38.0669 11.6074 37.1864 11.8038 36.3706 12.1675C35.5548 12.5313 34.8203 13.055 34.2105 13.7077C33.6007 14.3604 33.128 15.1288 32.8205 15.9674C32.5129 16.806 32.3767 17.6978 32.42 18.59V18.66C32.3676 19.5587 32.4968 20.4588 32.7999 21.3066C33.103 22.1543 33.5738 22.9322 34.1842 23.594C34.7946 24.2557 35.5321 24.7877 36.3527 25.1581C37.1732 25.5285 38.0599 25.7298 38.96 25.75C40.0791 25.7461 41.1851 25.5094 42.2077 25.0549C43.2304 24.6004 44.1472 23.9381 44.9 23.11L48.06 26.3C46.9196 27.6238 45.4938 28.6715 43.8898 29.3643V29.3643Z" fill="#F0F0F0"/>
</svg>
