<svg width="60" height="60" viewBox="0 0 60 60" fill="none" xmlns="http://www.w3.org/2000/svg">
<path d="M2.8125 0C1.255 0 0 1.255 0 2.8125V57.1875C0 58.745 1.255 60 2.8125 60H57.1875C58.745 60 60 58.745 60 57.1875V2.8125C60 1.255 58.745 0 57.1875 0H2.8125ZM46.22 24.375C47.75 24.375 49.105 24.4675 50.2875 24.6525C51.4028 24.8196 52.4973 25.1045 53.5525 25.5025V31.6475C53.046 31.2972 52.5078 30.9951 51.945 30.745C51.3646 30.4838 50.7654 30.2666 50.1525 30.095C48.9915 29.7715 47.7927 29.6033 46.5875 29.595C45.8375 29.595 45.155 29.665 44.54 29.81C43.9919 29.9272 43.466 30.1315 42.9825 30.415C42.5575 30.675 42.2325 30.9875 42 31.35C41.7662 31.7154 41.6445 32.1412 41.65 32.575C41.65 33.065 41.7825 33.5075 42.04 33.8975C42.3 34.2875 42.67 34.6575 43.1475 35.0075C43.625 35.3575 44.205 35.6975 44.8875 36.0325C45.57 36.37 46.3425 36.7175 47.2025 37.0725C48.3775 37.565 49.4325 38.09 50.3675 38.6425C51.3025 39.1975 52.105 39.825 52.775 40.525C53.445 41.2225 53.955 42.02 54.31 42.9175C54.665 43.815 54.845 44.8575 54.845 46.05C54.845 47.6925 54.5325 49.075 53.9125 50.19C53.3067 51.2897 52.4374 52.2217 51.3825 52.9025C50.2455 53.6235 48.9852 54.1286 47.665 54.3925C46.25 54.6925 44.7575 54.8425 43.19 54.8425C41.6472 54.8493 40.1072 54.712 38.59 54.4325C37.2773 54.2055 36.0042 53.7904 34.81 53.2V46.625C37.0695 48.5478 39.9357 49.6104 42.9025 49.625C43.735 49.625 44.4625 49.55 45.0825 49.4C45.705 49.25 46.2225 49.04 46.64 48.775C47.055 48.505 47.365 48.19 47.5725 47.825C47.8018 47.4 47.9062 46.9188 47.8734 46.437C47.8407 45.9552 47.6722 45.4925 47.3875 45.1025C47.0161 44.611 46.5617 44.188 46.045 43.8525C45.4041 43.4277 44.7294 43.0564 44.0275 42.7425C43.1956 42.3626 42.3563 41.9992 41.51 41.6525C39.215 40.695 37.505 39.5225 36.3775 38.14C35.2525 36.7575 34.6875 35.085 34.6875 33.1275C34.6875 31.5925 34.995 30.275 35.61 29.1725C36.225 28.07 37.06 27.1625 38.12 26.45C39.2412 25.7104 40.4859 25.1778 41.795 24.8775C43.2449 24.5356 44.7303 24.367 46.22 24.375ZM8.4375 24.845H32.345V30.26H23.765V54.375H16.9725V30.26H8.4375V24.845Z" fill="#F0F0F0"/>
</svg>
