<svg width="44" height="35" viewBox="0 0 44 35" fill="none" xmlns="http://www.w3.org/2000/svg">
<path d="M14.1233 34.1446C30.3471 34.1446 39.2233 21.2819 39.2233 10.1307C39.2233 9.76911 39.2149 9.39947 39.1981 9.03786C40.9248 7.84318 42.4149 6.36339 43.5984 4.66804C41.9903 5.35256 40.2829 5.79961 38.5346 5.99393C40.3755 4.93823 41.7538 3.27977 42.4142 1.32599C40.6823 2.30791 38.7884 3.00058 36.8136 3.37429C35.483 2.02163 33.7237 1.12601 31.8077 0.825901C29.8917 0.525789 27.9257 0.8379 26.2137 1.71398C24.5017 2.59006 23.1391 3.98131 22.3364 5.67263C21.5338 7.36396 21.3358 9.26115 21.7732 11.0709C18.2666 10.9025 14.836 10.031 11.704 8.51284C8.57196 6.99466 5.80838 4.86371 3.59239 2.25813C2.4661 4.11595 2.12146 6.31435 2.6285 8.40654C3.13554 10.4987 4.45621 12.3277 6.32212 13.5218C4.92131 13.4792 3.55119 13.1184 2.32495 12.4691V12.5736C2.3237 14.5232 3.0282 16.4131 4.31869 17.922C5.60918 19.4309 7.40602 20.4656 9.40377 20.8504C8.10614 21.19 6.74423 21.2395 5.42341 20.995C5.98713 22.6717 7.08394 24.1382 8.56075 25.1898C10.0376 26.2414 11.8207 26.8257 13.6613 26.8611C10.5365 29.2094 6.67648 30.4832 2.70292 30.4771C1.99824 30.4761 1.29425 30.4348 0.594727 30.3534C4.63144 32.8311 9.32722 34.147 14.1233 34.1446Z" fill="#38D8CC"/>
</svg>
