<svg width="66" height="66" viewBox="0 0 66 66" fill="none" xmlns="http://www.w3.org/2000/svg">
<path d="M32.9574 4.11968C31.3185 4.11968 29.7467 4.77073 28.5879 5.92962C27.429 7.0885 26.7779 8.66029 26.7779 10.2992C26.7779 11.9381 27.429 13.5099 28.5879 14.6688C29.7467 15.8277 31.3185 16.4787 32.9574 16.4787C34.5963 16.4787 36.1681 15.8277 37.327 14.6688C38.4859 13.5099 39.137 11.9381 39.137 10.2992C39.137 8.66029 38.4859 7.0885 37.327 5.92962C36.1681 4.77073 34.5963 4.11968 32.9574 4.11968ZM22.6582 10.2992C22.6582 7.56768 23.7433 4.94804 25.6748 3.01657C27.6063 1.08509 30.2259 0 32.9574 0C35.6889 0 38.3086 1.08509 40.2401 3.01657C42.1715 4.94804 43.2566 7.56768 43.2566 10.2992C43.2566 13.0307 42.1715 15.6504 40.2401 17.5818C38.3086 19.5133 35.6889 20.5984 32.9574 20.5984C30.2259 20.5984 27.6063 19.5133 25.6748 17.5818C23.7433 15.6504 22.6582 13.0307 22.6582 10.2992ZM55.6157 8.23936C54.5231 8.23936 53.4752 8.6734 52.7026 9.44598C51.93 10.2186 51.496 11.2664 51.496 12.359C51.496 13.4516 51.93 14.4995 52.7026 15.2721C53.4752 16.0447 54.5231 16.4787 55.6157 16.4787C56.7083 16.4787 57.7561 16.0447 58.5287 15.2721C59.3013 14.4995 59.7353 13.4516 59.7353 12.359C59.7353 11.2664 59.3013 10.2186 58.5287 9.44598C57.7561 8.6734 56.7083 8.23936 55.6157 8.23936ZM47.3763 12.359C47.3763 10.1738 48.2444 8.07811 49.7896 6.53293C51.3347 4.98775 53.4305 4.11968 55.6157 4.11968C57.8009 4.11968 59.8966 4.98775 61.4418 6.53293C62.9869 8.07811 63.855 10.1738 63.855 12.359C63.855 14.5443 62.9869 16.64 61.4418 18.1851C59.8966 19.7303 57.8009 20.5984 55.6157 20.5984C53.4305 20.5984 51.3347 19.7303 49.7896 18.1851C48.2444 16.64 47.3763 14.5443 47.3763 12.359ZM6.17952 12.359C6.17952 11.2664 6.61355 10.2186 7.38614 9.44598C8.15873 8.6734 9.20659 8.23936 10.2992 8.23936C11.3918 8.23936 12.4397 8.6734 13.2122 9.44598C13.9848 10.2186 14.4189 11.2664 14.4189 12.359C14.4189 13.4516 13.9848 14.4995 13.2122 15.2721C12.4397 16.0447 11.3918 16.4787 10.2992 16.4787C9.20659 16.4787 8.15873 16.0447 7.38614 15.2721C6.61355 14.4995 6.17952 13.4516 6.17952 12.359ZM10.2992 4.11968C8.11398 4.11968 6.01827 4.98775 4.47309 6.53293C2.92791 8.07811 2.05984 10.1738 2.05984 12.359C2.05984 14.5443 2.92791 16.64 4.47309 18.1851C6.01827 19.7303 8.11398 20.5984 10.2992 20.5984C12.4844 20.5984 14.5801 19.7303 16.1253 18.1851C17.6705 16.64 18.5386 14.5443 18.5386 12.359C18.5386 10.1738 17.6705 8.07811 16.1253 6.53293C14.5801 4.98775 12.4844 4.11968 10.2992 4.11968ZM12.771 53.5476C11.6555 53.6034 10.5403 53.4319 9.49321 53.0434C8.44608 52.655 7.48886 52.0577 6.6797 51.2878C5.87055 50.518 5.22636 49.5916 4.78628 48.5651C4.34619 47.5386 4.1194 46.4333 4.11968 45.3165V29.8677C4.11968 29.5945 4.22819 29.3326 4.42134 29.1394C4.61448 28.9463 4.87645 28.8378 5.1496 28.8378H12.4167C12.5815 27.3258 13.1171 25.921 13.9204 24.7181H5.1496C2.30702 24.7181 7.34871e-08 27.0251 7.34871e-08 29.8677V45.3165C-0.000192248 47.0802 0.37711 48.8235 1.10655 50.4293C1.836 52.0351 2.90068 53.4662 4.22908 54.6264C5.55747 55.7866 7.1188 56.649 8.80815 57.1558C10.4975 57.6625 12.2757 57.8018 14.0234 57.5643C13.4689 56.272 13.0492 54.926 12.771 53.5476ZM51.8915 57.5643C53.6391 57.8018 55.4174 57.6625 57.1067 57.1558C58.7961 56.649 60.3574 55.7866 61.6858 54.6264C63.0142 53.4662 64.0789 52.0351 64.8083 50.4293C65.5378 48.8235 65.9151 47.0802 65.9149 45.3165V29.8677C65.9149 27.0251 63.6078 24.7181 60.7653 24.7181H51.9945C52.8019 25.921 53.3334 27.3258 53.4981 28.8378H60.7653C61.0384 28.8378 61.3004 28.9463 61.4935 29.1394C61.6867 29.3326 61.7952 29.5945 61.7952 29.8677V45.3165C61.7955 46.4333 61.5687 47.5386 61.1286 48.5651C60.6885 49.5916 60.0443 50.518 59.2352 51.2878C58.426 52.0577 57.4688 52.655 56.4216 53.0434C55.3745 53.4319 54.2593 53.6034 53.1439 53.5476C52.8655 54.926 52.4459 56.272 51.8915 57.5643ZM21.6283 24.7181C18.7857 24.7181 16.4787 27.0251 16.4787 29.8677V49.4361C16.4787 53.8066 18.2149 57.998 21.3052 61.0884C24.3956 64.1787 28.587 65.9149 32.9574 65.9149C37.3279 65.9149 41.5193 64.1787 44.6096 61.0884C47.7 57.998 49.4361 53.8066 49.4361 49.4361V29.8677C49.4361 27.0251 47.1291 24.7181 44.2865 24.7181H21.6283ZM20.5984 29.8677C20.5984 29.5945 20.7069 29.3326 20.9001 29.1394C21.0932 28.9463 21.3552 28.8378 21.6283 28.8378H44.2865C44.5597 28.8378 44.8217 28.9463 45.0148 29.1394C45.208 29.3326 45.3165 29.5945 45.3165 29.8677V49.4361C45.3165 52.714 44.0144 55.8575 41.6966 58.1753C39.3788 60.4931 36.2353 61.7952 32.9574 61.7952C29.6796 61.7952 26.536 60.4931 24.2183 58.1753C21.9005 55.8575 20.5984 52.714 20.5984 49.4361V29.8677Z" fill="white"/>
</svg>
