<svg width="72" height="66" viewBox="0 0 72 66" fill="none" xmlns="http://www.w3.org/2000/svg">
<path d="M34.113 36.9558V59.6978H5.6855V36.9558H34.113ZM34.113 31.2703H5.6855C4.17761 31.2703 2.73148 31.8693 1.66525 32.9355C0.599006 34.0018 0 35.4479 0 36.9558V59.6978C0 61.2057 0.599006 62.6518 1.66525 63.718C2.73148 64.7843 4.17761 65.3833 5.6855 65.3833H34.113C35.6209 65.3833 37.067 64.7843 38.1333 63.718C39.1995 62.6518 39.7985 61.2057 39.7985 59.6978V36.9558C39.7985 35.4479 39.1995 34.0018 38.1333 32.9355C37.067 31.8693 35.6209 31.2703 34.113 31.2703V31.2703ZM65.3833 5.6855V19.8993H36.9558V5.6855H65.3833ZM65.3833 0H36.9558C35.4479 0 34.0018 0.599006 32.9355 1.66525C31.8693 2.73148 31.2703 4.17761 31.2703 5.6855V19.8993C31.2703 21.4072 31.8693 22.8533 32.9355 23.9195C34.0018 24.9858 35.4479 25.5848 36.9558 25.5848H65.3833C66.8912 25.5848 68.3373 24.9858 69.4035 23.9195C70.4698 22.8533 71.0688 21.4072 71.0688 19.8993V5.6855C71.0688 4.17761 70.4698 2.73148 69.4035 1.66525C68.3373 0.599006 66.8912 0 65.3833 0V0ZM65.3833 36.9558V51.1695H51.1695V36.9558H65.3833ZM65.3833 31.2703H51.1695C49.6616 31.2703 48.2155 31.8693 47.1493 32.9355C46.083 34.0018 45.484 35.4479 45.484 36.9558V51.1695C45.484 52.6774 46.083 54.1236 47.1493 55.1898C48.2155 56.256 49.6616 56.855 51.1695 56.855H65.3833C66.8912 56.855 68.3373 56.256 69.4035 55.1898C70.4698 54.1236 71.0688 52.6774 71.0688 51.1695V36.9558C71.0688 35.4479 70.4698 34.0018 69.4035 32.9355C68.3373 31.8693 66.8912 31.2703 65.3833 31.2703ZM19.8993 5.6855V19.8993H5.6855V5.6855H19.8993ZM19.8993 0H5.6855C4.17761 0 2.73148 0.599006 1.66525 1.66525C0.599006 2.73148 0 4.17761 0 5.6855V19.8993C0 21.4072 0.599006 22.8533 1.66525 23.9195C2.73148 24.9858 4.17761 25.5848 5.6855 25.5848H19.8993C21.4072 25.5848 22.8533 24.9858 23.9195 23.9195C24.9858 22.8533 25.5848 21.4072 25.5848 19.8993V5.6855C25.5848 4.17761 24.9858 2.73148 23.9195 1.66525C22.8533 0.599006 21.4072 0 19.8993 0V0Z" fill="white"/>
</svg>
