<svg width="26" height="21" viewBox="0 0 26 21" fill="none" xmlns="http://www.w3.org/2000/svg">
<path d="M10.3333 8.50437L10.6147 8.6038C11.3553 8.86435 12.172 9 13 9C13.828 9 14.6447 8.86435 15.3853 8.6038L15.6667 8.50437M9 2.87609C9 2.37852 9.28095 1.90133 9.78105 1.54949C10.2811 1.19766 10.9594 1 11.6667 1H14.3333C15.0406 1 15.7189 1.19766 16.219 1.54949C16.719 1.90133 17 2.37852 17 2.87609V2.87609C17 3.39416 16.58 3.81414 16.062 3.81414H9.93805C9.41998 3.81414 9 3.39416 9 2.87609V2.87609Z" stroke="#00A99D" stroke-width="2" stroke-linecap="round" stroke-linejoin="round"/>
<path d="M22.3333 4H3.66667C2.19391 4 1 5.19391 1 6.66667V17.3333C1 18.8061 2.19391 20 3.66667 20H22.3333C23.8061 20 25 18.8061 25 17.3333V6.66667C25 5.19391 23.8061 4 22.3333 4Z" stroke="#00A99D" stroke-width="2" stroke-linecap="round" stroke-linejoin="round"/>
</svg>
