<svg width="17" height="20" viewBox="0 0 17 20" fill="none" xmlns="http://www.w3.org/2000/svg">
<path d="M13.9133 19.9999C13.5642 20.0006 13.2193 19.9535 12.9038 19.8621C12.5884 19.7706 12.3105 19.6371 12.0906 19.4714L0.803579 10.9008C0.45987 10.6452 0.271973 10.3246 0.271973 9.9937C0.271973 9.66284 0.45987 9.34224 0.803579 9.08665L12.4879 0.516026C12.8845 0.224316 13.4545 0.0408693 14.0724 0.00604443C14.6903 -0.0287805 15.3056 0.0878684 15.7828 0.330329C16.26 0.57279 16.5602 0.921202 16.6171 1.29892C16.6741 1.67663 16.4833 2.05271 16.0866 2.34442L5.64087 10.0008L15.7361 17.6573C16.0218 17.8669 16.2034 18.1223 16.2592 18.393C16.315 18.6638 16.2427 18.9386 16.051 19.1851C15.8592 19.4315 15.556 19.6392 15.1772 19.7836C14.7983 19.928 14.3598 20.0031 13.9133 19.9999Z" fill="white"/>
</svg>
