<svg width="60" height="60" viewBox="0 0 60 60" fill="none" xmlns="http://www.w3.org/2000/svg">
<path d="M10.2619 10.2652C10.2619 10.2652 22.8937 3.95309 29.2084 0.793267C30.3577 0.226703 31.6303 -0.0439662 32.9107 0.00581067C34.8256 0.123304 37.103 1.9757 37.103 1.9757L59.9967 24.8719V49.3431H49.3398V60H24.4711L1.97239 37.5012C0.757458 36.2513 0 34.4889 0 32.764C0 31.9665 0.449975 30.7191 0.789957 30.0017L10.2619 10.2652ZM11.9593 11.9627V41.4285C11.9643 42.7859 12.0118 43.9884 13.2043 45.1983L25.5086 57.5001H46.8399V46.8432L11.9593 11.9627ZM42.0952 10.2677C39.8478 8.02787 37.5729 5.81799 35.2456 3.66061C34.4906 2.99315 33.8281 2.49067 32.5707 2.50567C31.6458 2.54067 30.3958 2.99315 30.3958 2.99315L15.8516 10.2652L42.0952 10.2677Z" fill="#F0F0F0"/>
</svg>
