<svg width="44" height="32" viewBox="0 0 44 32" fill="none" xmlns="http://www.w3.org/2000/svg">
<path d="M37.4006 3.123C34.6596 1.91978 31.7204 1.03329 28.6473 0.525567C28.5913 0.515768 28.5354 0.540257 28.5066 0.589234C28.1286 1.23246 27.7099 2.0716 27.4167 2.73116C24.1113 2.25773 20.8229 2.25773 17.5854 2.73116C17.2921 2.05694 16.8582 1.23246 16.4785 0.589234C16.4496 0.541891 16.3937 0.517403 16.3378 0.525567C13.2663 1.03167 10.3271 1.91815 7.58451 3.123C7.56076 3.1328 7.54041 3.14914 7.5269 3.17035C1.95184 11.139 0.424592 18.9117 1.17381 26.5881C1.1772 26.6257 1.19923 26.6616 1.22974 26.6844C4.90801 29.2688 8.47105 30.8377 11.9679 31.8776C12.0239 31.894 12.0832 31.8744 12.1188 31.8303C12.946 30.7496 13.6833 29.61 14.3156 28.4117C14.3529 28.3415 14.3173 28.2582 14.241 28.2305C13.0714 27.806 11.9577 27.2885 10.8865 26.7008C10.8017 26.6534 10.7949 26.5375 10.8729 26.4819C11.0983 26.3203 11.3238 26.1522 11.5391 25.9824C11.578 25.9514 11.6323 25.9448 11.6781 25.9644C18.7159 29.0386 26.3352 29.0386 33.29 25.9644C33.3358 25.9432 33.3901 25.9498 33.4307 25.9808C33.646 26.1505 33.8715 26.3203 34.0986 26.4819C34.1765 26.5375 34.1715 26.6534 34.0867 26.7008C33.0154 27.2999 31.9018 27.806 30.7305 28.2288C30.6542 28.2566 30.6203 28.3415 30.6576 28.4117C31.3034 29.6083 32.0408 30.7479 32.8527 31.8287C32.8866 31.8744 32.9476 31.894 33.0036 31.8776C36.5174 30.8377 40.0804 29.2688 43.7587 26.6844C43.7909 26.6616 43.8113 26.6273 43.8146 26.5897C44.7113 17.715 42.3128 10.006 37.4565 3.17197C37.4446 3.14914 37.4243 3.1328 37.4006 3.123ZM15.3665 21.914C13.2477 21.914 11.5018 20.0529 11.5018 17.7673C11.5018 15.4816 13.2138 13.6205 15.3665 13.6205C17.5362 13.6205 19.2652 15.498 19.2312 17.7673C19.2312 20.0529 17.5192 21.914 15.3665 21.914ZM29.6558 21.914C27.537 21.914 25.7911 20.0529 25.7911 17.7673C25.7911 15.4816 27.5031 13.6205 29.6558 13.6205C31.8255 13.6205 33.5545 15.498 33.5206 17.7673C33.5206 20.0529 31.8255 21.914 29.6558 21.914Z" fill="#38D8CC"/>
</svg>
