<svg width="25" height="20" viewBox="0 0 25 20" fill="none" xmlns="http://www.w3.org/2000/svg">
<path d="M21.0489 2.09128C19.4337 1.33814 17.7249 0.802993 15.9677 0.5C15.7488 0.894345 15.4931 1.42474 15.3167 1.8467C13.4222 1.5628 11.545 1.5628 9.68531 1.8467C9.50905 1.42484 9.24755 0.894345 9.02666 0.5C7.26775 0.803132 5.5575 1.33964 3.94151 2.09521C0.725801 6.9379 -0.145953 11.6602 0.289876 16.3156C2.42274 17.9029 4.48971 18.8671 6.52184 19.4981C7.02688 18.806 7.47332 18.0732 7.85656 17.3074C7.12693 17.0306 6.42354 16.6894 5.75477 16.288C5.93076 16.158 6.10261 16.0225 6.27006 15.8818C10.3226 17.7707 14.7259 17.7707 18.7301 15.8818C18.8983 16.0216 19.0701 16.157 19.2453 16.288C18.5755 16.6905 17.8708 17.0323 17.1397 17.3094C17.5251 18.0783 17.9708 18.8118 18.4744 19.5C20.5085 18.8691 22.5774 17.9049 24.7102 16.3156C25.2217 10.9188 23.8367 6.23991 21.0489 2.09128ZM8.4087 13.4526C7.19213 13.4526 6.19444 12.3208 6.19444 10.9425C6.19444 9.56428 7.17087 8.43053 8.4087 8.43053C9.64663 8.43053 10.6442 9.56227 10.623 10.9425C10.6249 12.3208 9.64663 13.4526 8.4087 13.4526ZM16.5914 13.4526C15.3748 13.4526 14.3772 12.3208 14.3772 10.9425C14.3772 9.56428 15.3536 8.43053 16.5914 8.43053C17.8293 8.43053 18.8269 9.56227 18.8057 10.9425C18.8057 12.3208 17.8293 13.4526 16.5914 13.4526Z" fill="#DBDBDB"/>
</svg>
