<svg width="44" height="41" viewBox="0 0 44 41" fill="none" xmlns="http://www.w3.org/2000/svg">
<path fill-rule="evenodd" clip-rule="evenodd" d="M21.9044 0.859375C16.7999 0.861909 11.8628 2.59159 7.97586 5.73913C4.08893 8.88667 1.50565 13.2468 0.687939 18.0399C-0.129775 22.8331 0.871389 27.7466 3.51243 31.902C6.15348 36.0573 10.2622 39.1835 15.1038 40.7216C16.172 40.9113 16.5743 40.2779 16.5743 39.7394C16.5743 39.2008 16.553 37.6394 16.5458 35.9323C10.5642 37.1686 9.30022 33.5174 9.30022 33.5174C8.32465 31.1464 6.91468 30.5232 6.91468 30.5232C4.96353 29.2564 7.06068 29.2801 7.06068 29.2801C9.2219 29.4258 10.3577 31.3903 10.3577 31.3903C12.2733 34.5165 15.3887 33.6122 16.6135 33.0838C16.8057 31.7595 17.3648 30.8585 17.9807 30.3471C13.2025 29.8322 8.18222 28.0777 8.18222 20.2401C8.15261 18.2074 8.94551 16.2418 10.3969 14.7497C10.1761 14.2349 9.43908 12.1552 10.6069 9.3304C10.6069 9.3304 12.4121 8.7817 16.5209 11.427C20.0452 10.5102 23.7636 10.5102 27.2879 11.427C31.3931 8.7817 33.1947 9.3304 33.1947 9.3304C34.3661 12.1484 33.6291 14.2281 33.4084 14.7497C34.8643 16.242 35.6589 18.2111 35.6266 20.2469C35.6266 28.1015 30.5956 29.8322 25.8103 30.3369C26.5793 30.9737 27.2665 32.2167 27.2665 34.127C27.2665 36.8638 27.2416 39.0653 27.2416 39.7394C27.2416 40.2847 27.6297 40.9214 28.7192 40.7216C33.5614 39.1834 37.6705 36.0566 40.3115 31.9005C42.9525 27.7445 43.9532 22.8302 43.1345 18.0366C42.3159 13.243 39.7313 8.88284 35.8431 5.73584C31.9549 2.58884 27.0166 0.860303 21.9115 0.859375H21.9044Z" fill="#38D8CC"/>
</svg>
