<svg width="59" height="60" viewBox="0 0 59 60" fill="none" xmlns="http://www.w3.org/2000/svg">
<path d="M4.3174 0.00343135C4.01215 -0.0215687 3.69715 0.0896814 3.4789 0.348932C0.133399 4.31194 -0.902103 15.0524 0.8224 20.4302C1.3924 22.2152 1.5549 24.1037 1.21415 25.9482C0.88115 27.7705 0.541149 29.9777 0.541149 31.5035C0.541149 47.2365 13.2934 60 29.0137 60C44.741 60 57.486 47.244 57.486 31.5035C57.486 29.9702 57.1525 27.7705 56.812 25.9482C56.4715 24.1037 56.6345 22.2155 57.2045 20.4302C58.9292 15.0527 57.8927 4.31194 54.5475 0.348932C54.111 -0.169569 53.2892 -0.0953188 52.9267 0.474932L48.804 6.94869C48.313 7.57318 47.6055 7.99057 46.8215 8.11822C46.0375 8.24586 45.2341 8.07446 44.5704 7.63794C40.1004 4.71244 34.7567 3.00844 29.0134 3.00844C23.2702 3.00844 17.9259 4.71219 13.4559 7.63794C12.0792 8.54169 10.2437 8.23769 9.22241 6.94869L5.09965 0.474932C5.01471 0.341111 4.89982 0.228859 4.76407 0.147034C4.62832 0.0652091 4.47541 0.0160487 4.3174 0.00343135ZM29.0134 9.51144C32.3809 9.51144 35.5784 10.2747 38.4424 11.6377C45.5625 15.0152 50.588 22.1037 51.032 30.3852C51.0545 30.7777 51.0612 31.171 51.0612 31.571C51.054 43.7335 41.1662 53.6295 29.0137 53.6295C16.8607 53.6295 6.97241 43.7335 6.97241 31.571C6.97241 31.171 6.98741 30.7777 7.00241 30.3852C7.44641 22.0965 12.4719 15.0079 19.5919 11.6302C22.4484 10.2674 25.6459 9.51169 29.0134 9.51169V9.51144ZM22.9294 21.83C22.8182 21.8304 22.709 21.86 22.6128 21.9159C22.5166 21.9718 22.4368 22.052 22.3814 22.1485C22.2704 22.3485 22.2704 22.5922 22.3889 22.785L27.0074 30.563L20.8047 40.0295C20.7421 40.1256 20.7063 40.2368 20.7012 40.3514C20.696 40.466 20.7217 40.5799 20.7754 40.6812C20.8291 40.7818 20.9091 40.8659 21.0068 40.9246C21.1046 40.9833 21.2164 41.0143 21.3304 41.0145H25.9784C26.0842 41.0138 26.1882 40.9871 26.2813 40.9366C26.3743 40.8862 26.4534 40.8136 26.5117 40.7252L29.8639 35.4812L32.8689 40.696C32.9238 40.7929 33.0034 40.8734 33.0997 40.9294C33.1959 40.9854 33.3053 41.0147 33.4167 41.0145H37.9979C38.1094 41.0157 38.219 40.9867 38.3153 40.9306C38.4116 40.8745 38.491 40.7935 38.5449 40.696C38.6784 40.496 38.6789 40.2585 38.5604 40.0587L32.9282 30.2885L28.0952 22.141C28.0393 22.0454 27.9592 21.9664 27.863 21.9118C27.7668 21.8571 27.6578 21.8289 27.5472 21.83H22.9294Z" fill="#F0F0F0"/>
</svg>
