<svg width="541" height="571" viewBox="0 0 541 571" fill="none" xmlns="http://www.w3.org/2000/svg">
<g opacity="0.54">
<path opacity="0.54" d="M463.837 10.6717C479.531 26.1835 475.745 55.2065 461.111 72.2619C446.477 89.3173 424.449 96.9681 403.175 102.114C381.902 107.271 359.771 110.862 340.846 122.382C301.681 146.234 286.596 196.649 276.059 242.569C265.522 288.488 253.696 338.89 217.225 367.077C188.628 389.181 151.119 392.435 117.994 405.743C60.1673 428.969 15.71 486.173 5.96391 549.933" stroke="url(#paint0_linear_891_1438)" stroke-width="0.8669" stroke-miterlimit="10"/>
<path opacity="0.54" d="M460.638 5.51619C476.328 20.9978 472.71 49.9282 458.278 67.1074C456.992 68.6461 455.632 70.1025 454.234 71.5021C439.929 85.6839 420.081 92.6549 400.817 97.5553C397.097 98.5028 393.351 99.4021 389.604 100.301C372.009 104.518 354.302 108.797 338.771 118.367C333.737 121.475 329.095 125.011 324.815 128.928C295.93 155.333 283.447 198.696 274.585 238.707C273.944 241.616 273.295 244.538 272.638 247.472C262.906 290.901 250.749 336.287 217.971 363.639C208.596 371.461 198.292 377.527 187.02 382.174C173.716 387.667 159.368 391.117 145.321 394.661C135.73 397.083 126.232 399.573 117.014 402.841C112.68 404.377 108.406 406.104 104.203 408.031C77.4395 420.287 53.7449 440.647 36.0298 465.44C18.273 490.294 6.39399 519.515 1.9971 550.031" stroke="url(#paint1_linear_891_1438)" stroke-width="0.8669" stroke-miterlimit="10"/>
<path opacity="0.54" d="M457.448 0.359372C473.145 15.8193 469.696 44.6467 455.464 61.9497C454.19 63.4971 452.853 64.9706 451.466 66.3789C437.331 80.6794 417.628 87.8689 398.458 92.9967C394.755 93.9838 391.034 94.9209 387.303 95.8599C369.798 100.262 352.155 104.7 336.694 114.343C331.684 117.468 327.054 121.023 322.787 124.958C293.991 151.487 281.654 194.815 273.099 234.837C272.478 237.743 271.85 240.671 271.223 243.6C261.866 287.017 250.108 331.95 218.685 360.186C209.507 368.439 199.492 375.272 188.033 380.304C174.491 386.254 159.572 389.563 145.128 392.711C135.272 394.862 125.523 396.983 116.032 399.928C111.564 401.319 107.166 402.899 102.814 404.715C75.1153 416.258 50.3472 437.142 32.2265 462.763C14.0625 488.436 2.30953 518.698 -1.94844 550.136" stroke="url(#paint2_linear_891_1438)" stroke-width="0.8669" stroke-miterlimit="10"/>
<path opacity="0.54" d="M454.247 -4.80614C469.94 10.6236 466.669 39.3564 452.628 56.7747C451.375 58.3289 450.061 59.8196 448.686 61.2365C434.713 75.6678 415.163 83.0741 396.087 88.4189C392.41 89.4438 388.696 90.4328 384.992 91.4096C367.574 95.9981 350.005 100.593 334.606 110.31C329.618 113.451 325.012 117.024 320.756 120.968C292.057 147.609 279.857 190.903 271.61 230.946C271.01 233.859 270.413 236.782 269.805 239.707C260.824 283.122 249.461 327.636 219.408 356.72C210.419 365.418 200.699 372.994 189.044 378.412C175.266 384.83 159.773 387.987 144.93 390.73C134.799 392.612 124.809 394.351 115.046 396.985C110.452 398.218 105.911 399.664 101.419 401.367C72.7866 412.198 46.9433 433.595 28.417 460.045C9.84741 486.546 -1.78106 517.839 -5.91001 550.201" stroke="url(#paint3_linear_891_1438)" stroke-width="0.8669" stroke-miterlimit="10"/>
<path opacity="0.54" d="M451.047 -9.96131C466.738 5.44857 463.635 34.0783 449.805 51.6186C448.565 53.1917 447.271 54.6789 445.918 56.113C432.117 70.6733 412.71 78.2878 393.727 83.8497C390.067 84.9246 386.379 85.941 382.69 86.9574C365.361 91.732 347.858 96.4956 332.519 106.276C327.555 109.446 322.959 113.027 318.727 116.989C290.115 143.742 278.073 187.01 270.113 227.067C269.533 229.976 268.957 232.906 268.38 235.836C259.774 279.239 248.826 323.404 220.123 353.266C211.334 362.416 201.89 370.74 190.046 376.533C176.023 383.42 159.966 386.424 144.726 388.771C134.328 390.372 124.09 391.752 114.043 394.065C109.325 395.15 104.642 396.463 99.9985 398.045C70.4299 408.152 43.5146 430.084 24.5811 457.353C5.60423 484.672 -5.89814 517.007 -9.89807 550.292" stroke="url(#paint4_linear_891_1438)" stroke-width="0.8669" stroke-miterlimit="10"/>
<path opacity="0.54" d="M447.848 -15.1166C463.544 0.261242 460.612 28.8084 446.982 46.4622C445.763 48.0421 444.482 49.5484 443.141 50.9911C429.511 65.6804 410.247 73.5031 391.359 79.2924C387.715 80.407 384.043 81.463 380.37 82.5191C363.13 87.4797 345.69 92.4018 330.423 102.255C325.482 105.442 320.911 109.051 316.68 113.023C288.156 139.899 276.26 183.122 268.608 223.2C268.05 226.116 267.501 229.03 266.946 231.967C258.714 275.358 248.2 319.224 220.83 349.823C212.223 359.441 203.082 368.486 191.052 374.674C176.792 382.018 160.162 384.882 144.516 386.835C133.842 388.166 123.354 389.177 113.044 391.166C108.192 392.105 103.384 393.271 98.5912 394.741C68.088 404.136 40.0974 426.581 20.7582 454.679C1.38559 482.826 -10.0022 516.193 -13.8731 550.402" stroke="url(#paint5_linear_891_1438)" stroke-width="0.8669" stroke-miterlimit="10"/>
<path opacity="0.54" d="M444.658 -20.2736C460.352 -4.91567 457.597 23.5265 444.158 41.3059C442.961 42.8927 441.693 44.4178 440.373 45.8674C426.904 60.6772 407.796 68.7271 389.009 74.7213C385.381 75.8755 381.736 76.9797 378.079 78.0754C360.926 83.2117 343.562 88.301 328.356 98.2284C323.44 101.443 318.88 105.06 314.672 109.05C286.235 136.039 274.488 179.238 267.142 219.325C266.604 222.238 266.077 225.159 265.552 228.091C257.694 271.469 247.621 315.088 221.575 346.364C213.162 356.457 204.313 366.225 192.085 372.789C177.589 380.601 160.385 383.313 144.341 384.86C133.401 385.921 122.663 386.562 112.08 388.228C107.102 389.01 102.151 390.042 97.2089 391.401C65.7712 400.083 36.7067 423.052 16.9603 451.969C-2.81961 480.934 -14.0813 515.342 -17.8232 550.476" stroke="url(#paint6_linear_891_1438)" stroke-width="0.8669" stroke-miterlimit="10"/>
<path opacity="0.54" d="M441.456 -25.4389C457.156 -10.113 454.56 18.2381 441.332 36.1291C440.146 37.7245 438.899 39.2565 437.592 40.7251C424.295 55.6639 405.33 63.922 386.638 70.1437C383.036 71.3357 379.397 72.4814 375.766 73.6149C358.692 78.939 341.403 84.1955 326.267 94.1851C321.374 97.4167 316.827 101.053 312.641 105.06C284.292 132.163 272.691 175.326 265.654 215.434C265.147 218.352 264.64 221.27 264.134 224.198C256.652 267.564 247.056 310.982 222.299 342.897C214.083 353.487 205.521 363.947 193.098 370.908C178.366 379.188 160.589 381.749 144.148 382.899C132.932 383.691 121.954 383.962 111.088 385.307C105.975 385.943 100.9 386.827 95.8085 388.075C63.4346 396.034 33.2962 419.527 13.144 449.273C-7.04158 479.067 -18.1787 514.506 -21.7816 550.562" stroke="url(#paint7_linear_891_1438)" stroke-width="0.8669" stroke-miterlimit="10"/>
<path opacity="0.54" d="M438.257 -30.5941C453.952 -15.2985 451.535 12.9579 438.498 30.9745C437.335 32.5871 436.1 34.1277 434.815 35.6031C421.679 50.6727 402.878 59.1459 384.27 65.5865C380.686 66.8285 377.072 68.0121 373.458 69.1852C356.472 74.6953 339.247 80.1104 324.183 90.1725C319.302 93.4232 314.788 97.0754 310.604 101.093C282.353 128.317 270.889 171.447 264.159 211.565C263.672 214.479 263.186 217.404 262.712 220.338C255.614 263.689 246.502 306.937 223.016 339.453C214.999 350.549 206.715 361.704 194.113 369.037C179.144 377.774 160.794 380.194 143.956 380.949C132.475 381.47 121.246 381.361 110.106 382.383C104.869 382.872 99.6493 383.612 94.4183 384.747C61.1097 391.992 29.9073 416.008 9.33786 446.574C-11.2551 477.187 -22.2644 513.678 -25.7398 550.648" stroke="url(#paint8_linear_891_1438)" stroke-width="0.8669" stroke-miterlimit="10"/>
<path opacity="0.54" d="M435.057 -35.7492C450.76 -20.4754 448.5 7.67942 435.675 25.818C434.524 27.4393 433.311 28.997 432.047 30.4792C419.082 45.6676 400.425 54.3593 381.91 61.0171C378.342 62.2988 374.745 63.5219 371.146 64.7348C354.249 70.4309 337.099 76.0028 322.096 86.1392C317.239 89.4175 312.736 93.0783 308.575 97.1132C280.412 124.45 269.095 167.544 262.663 207.685C262.195 210.596 261.741 213.526 261.287 216.456C254.563 259.795 245.972 302.919 223.731 335.987C215.924 347.599 207.916 359.437 195.117 367.157C179.913 376.362 160.99 378.641 143.744 378.991C131.986 379.232 120.518 378.763 109.095 379.464C103.732 379.795 98.3694 380.401 92.9889 381.426C58.7439 387.947 26.4675 412.488 5.4923 443.883C-15.508 475.314 -26.4011 512.849 -29.7374 550.741" stroke="url(#paint9_linear_891_1438)" stroke-width="0.8669" stroke-miterlimit="10"/>
<path opacity="0.54" d="M431.867 -40.906C447.565 -25.6625 445.485 2.39752 432.86 20.6495C431.73 22.2776 430.539 23.8423 429.278 25.3452C416.474 40.6643 397.972 49.573 379.55 56.4479C376.008 57.7674 372.427 59.0302 368.844 60.2827C352.034 66.1546 334.951 71.9058 320.018 82.1043C315.185 85.3999 310.704 89.078 306.556 93.1319C278.48 120.581 267.31 163.641 261.186 203.802C260.74 206.72 260.306 209.647 259.881 212.572C253.532 255.898 245.489 298.935 224.468 332.529C216.872 344.666 209.137 357.168 196.141 365.274C180.701 374.947 161.204 377.074 143.56 377.018C131.526 376.99 119.818 376.149 108.121 376.528C102.624 376.713 97.1373 377.172 91.6073 378.085C56.4275 383.894 23.077 408.958 1.69602 441.182C-19.71 473.443 -30.4786 512.009 -33.6858 550.825" stroke="url(#paint10_linear_891_1438)" stroke-width="0.8669" stroke-miterlimit="10"/>
<path opacity="0.54" d="M428.665 -46.0714C444.371 -30.8497 442.46 -2.88269 430.025 15.4846C428.918 17.1298 427.739 18.7031 426.499 20.2129C413.867 35.661 395.508 44.778 377.189 51.8683C373.663 53.2275 370.1 54.5403 366.543 55.8306C349.822 61.8886 332.803 67.7984 317.931 78.0712C313.122 81.3944 308.653 85.0812 304.518 89.1542C276.53 116.727 265.517 159.749 259.69 199.923C259.264 202.837 258.861 205.769 258.458 208.701C252.484 252.014 245.02 294.981 225.185 329.074C217.812 341.745 210.341 354.912 197.158 363.403C181.48 373.534 161.411 375.52 143.369 375.067C131.07 374.769 119.112 373.558 107.142 373.615C101.518 373.641 95.8891 373.967 90.2094 374.769C54.0948 379.864 19.6701 405.453 -2.11828 438.496C-23.9317 471.575 -34.5742 511.183 -37.6523 550.924" stroke="url(#paint11_linear_891_1438)" stroke-width="0.8669" stroke-miterlimit="10"/>
<path opacity="0.54" d="M425.465 -51.2264C441.167 -36.0351 439.426 -8.16116 427.202 10.3281C426.106 11.982 424.95 13.5724 423.723 15.1012C411.263 30.6784 393.048 40.0139 374.823 47.3214C371.314 48.7306 367.775 50.0709 364.235 51.4009C347.602 57.645 330.657 63.7117 315.847 74.0588C311.061 77.3992 306.606 81.1155 302.492 85.1954C274.592 112.881 263.725 155.868 258.207 196.062C257.802 198.983 257.419 201.912 257.046 204.838C251.448 248.15 244.599 291.071 225.915 325.638C218.767 338.853 211.546 352.666 198.176 361.542C182.262 372.141 161.619 373.976 143.17 373.129C130.596 372.561 118.386 370.971 106.144 370.715C100.386 370.596 94.6225 370.775 88.8033 371.464C51.7521 375.836 16.2532 401.949 -5.94107 435.821C-28.1604 469.729 -38.6782 510.369 -41.6173 551.032" stroke="url(#paint12_linear_891_1438)" stroke-width="0.8669" stroke-miterlimit="10"/>
<path opacity="0.54" d="M422.265 -56.3819C437.975 -41.2123 436.4 -13.4419 424.369 5.17292C423.294 6.83367 422.149 8.43272 420.945 9.97867C408.646 25.6763 390.586 35.2288 372.453 42.7535C368.961 44.2023 365.449 45.5908 361.923 46.9501C345.379 53.3803 328.5 59.616 313.76 70.0252C308.996 73.3829 304.565 77.1164 300.464 81.2155C272.66 109.012 261.932 151.976 256.721 192.18C256.346 195.096 255.984 198.031 255.631 200.954C250.408 244.253 244.196 287.146 226.631 322.172C219.729 335.938 212.748 350.399 199.181 359.662C183.032 370.729 161.814 372.412 142.967 371.159C130.125 370.31 117.667 368.36 105.152 367.781C99.2694 367.515 93.3713 367.548 87.4025 368.126C49.4163 371.784 12.8432 398.421 -9.7585 433.113C-32.3852 467.84 -42.7768 509.521 -45.5868 551.109" stroke="url(#paint13_linear_891_1438)" stroke-width="0.8669" stroke-miterlimit="10"/>
<path opacity="0.54" d="M419.075 -61.5384C434.78 -46.3993 433.385 -18.7237 421.554 0.00448347C420.5 1.67206 419.369 3.29008 418.186 4.84285C406.059 20.6695 388.143 30.4406 370.104 38.1826C366.637 39.6693 363.132 41.0993 359.623 42.5085C343.156 49.1163 326.353 55.5192 311.684 66.0008C306.945 69.3861 302.525 73.1284 298.435 77.2362C270.719 105.146 260.138 148.074 255.226 188.3C254.872 191.223 254.53 194.155 254.206 197.073C249.358 240.359 243.809 283.251 227.349 318.716C220.694 333.045 213.951 348.133 200.197 357.78C183.81 369.306 162.03 370.846 142.776 369.198C129.658 368.079 116.96 365.759 104.161 364.859C98.1429 364.436 92.1136 364.344 85.9937 364.801C47.0724 367.745 9.42333 394.897 -13.5842 430.417C-36.6169 465.974 -46.8838 508.686 -49.5647 551.199" stroke="url(#paint14_linear_891_1438)" stroke-width="0.8669" stroke-miterlimit="10"/>
<path opacity="0.54" d="M415.875 -66.6937C431.588 -51.5764 430.35 -24.0025 418.73 -5.15231C417.69 -3.46576 416.58 -1.8409 415.408 -0.279508C403.443 15.6779 385.68 25.6556 367.746 33.6234C364.296 35.1497 360.816 36.6176 357.324 38.0665C340.945 44.8604 324.216 51.4202 309.609 61.9761C304.893 65.3787 300.495 69.1382 296.418 73.2651C268.791 101.298 258.357 144.191 253.751 184.427C253.418 187.347 253.105 190.273 252.805 193.208C248.332 236.482 243.487 279.386 228.088 315.267C221.702 330.154 215.177 345.884 201.226 355.918C184.603 367.911 162.249 369.3 142.598 367.256C129.214 365.866 116.267 363.176 103.194 361.953C97.0511 361.383 90.8874 361.145 84.6179 361.49C44.76 363.711 6.03797 391.397 -17.3771 427.736C-40.8172 464.112 -50.9579 507.867 -53.5096 551.304" stroke="url(#paint15_linear_891_1438)" stroke-width="0.8669" stroke-miterlimit="10"/>
<path opacity="0.54" d="M412.673 -71.8592C428.382 -56.7723 427.325 -29.2831 415.895 -10.3177C414.877 -8.62434 413.787 -6.99263 412.629 -5.41227C400.836 10.6742 383.216 20.8602 365.375 29.0452C361.942 30.6216 358.479 32.1291 355.012 33.6159C338.723 40.596 322.059 47.3247 307.522 57.9428C302.83 61.373 298.444 65.1412 294.39 69.2854C266.85 97.4308 256.563 140.289 252.266 180.545C251.953 183.472 251.661 186.395 251.39 189.324C247.292 232.585 243.162 275.501 228.816 311.81C222.709 327.263 216.38 343.617 202.242 354.036C185.384 366.498 162.455 367.735 142.397 365.296C128.738 363.637 115.548 360.565 102.204 359.03C95.9348 358.301 89.6283 357.93 83.2191 358.163C42.4261 359.669 2.62803 387.869 -21.1929 425.038C-45.039 462.244 -55.055 507.03 -57.4776 551.391" stroke="url(#paint16_linear_891_1438)" stroke-width="0.8669" stroke-miterlimit="10"/>
<path opacity="0.54" d="M409.483 -77.016C425.189 -61.9492 424.31 -34.5653 413.08 -15.4866C412.073 -13.7846 411.006 -12.1357 409.86 -10.5467C398.237 5.65842 380.763 16.0736 363.015 24.4758C359.599 26.0918 356.161 27.6372 352.711 29.1637C336.51 36.3299 319.91 43.2173 305.435 53.9097C300.766 57.3571 296.393 61.1444 292.351 65.3076C264.899 93.5658 254.759 136.388 250.77 176.665C250.478 179.588 250.207 182.518 249.966 185.442C246.242 228.69 242.871 271.63 229.533 308.343C223.716 324.372 217.584 341.351 203.257 352.144C186.161 365.063 162.66 366.159 142.203 363.314C128.278 361.384 114.839 357.942 101.211 356.086C94.8073 355.212 88.3663 354.695 81.8076 354.816C40.0777 355.598 -0.793221 384.333 -25.0217 422.321C-49.2753 460.346 -59.1651 506.174 -61.4486 551.458" stroke="url(#paint17_linear_891_1438)" stroke-width="0.8669" stroke-miterlimit="10"/>
<path opacity="0.54" d="M406.282 -82.1709C421.994 -67.1363 421.274 -39.8439 410.247 -20.6414C409.262 -18.9222 408.208 -17.2647 407.082 -15.6689C395.621 0.667054 378.3 11.2888 360.646 19.9083C357.255 21.5622 353.826 23.1594 350.4 24.7134C334.288 32.0658 317.762 39.1101 303.348 49.8767C298.702 53.3414 294.353 57.1563 290.323 61.3282C262.97 89.7078 252.967 132.496 249.285 172.783C249.014 175.713 248.773 178.638 248.551 181.559C245.203 224.794 242.599 267.757 230.262 304.886C224.746 321.488 218.798 339.082 204.275 350.273C186.944 363.661 162.87 364.615 142.014 361.363C127.812 359.154 114.124 355.352 100.232 353.172C93.7045 352.15 87.1291 351.487 80.4208 351.496C37.7458 351.567 -4.19149 380.814 -28.8244 419.642C-53.4855 458.486 -63.249 505.356 -65.4034 551.565" stroke="url(#paint18_linear_891_1438)" stroke-width="0.8669" stroke-miterlimit="10"/>
<path opacity="0.54" d="M403.082 -87.3258C418.791 -72.3113 418.249 -45.1243 407.423 -25.798C406.46 -24.072 405.417 -22.4059 404.315 -20.7929C393.026 -4.32794 375.849 6.51258 358.288 15.3493C354.914 17.0429 351.51 18.6779 348.092 20.2837C332.067 27.812 315.608 35.0357 301.267 45.8748C296.644 49.3671 292.307 53.1907 288.298 57.3696C261.032 85.8619 251.186 128.613 247.793 168.924C247.552 171.849 247.322 174.782 247.122 177.71C244.149 220.932 242.343 263.912 230.975 301.452C225.769 318.626 219.997 336.849 205.276 348.416C187.709 362.271 163.06 363.074 141.808 359.426C127.33 356.947 113.401 352.775 99.2345 350.261C92.5707 349.082 85.8625 348.284 79.0046 348.182C35.3942 347.539 -7.61774 377.311 -32.6582 416.958C-57.7253 456.631 -67.3741 504.535 -69.3894 551.667" stroke="url(#paint19_linear_891_1438)" stroke-width="0.8669" stroke-miterlimit="10"/>
<path opacity="0.54" d="M399.88 -92.4913C415.595 -77.5091 415.222 -50.4154 404.598 -30.9654C403.647 -29.2307 402.626 -27.5474 401.535 -25.9258C390.407 -9.34042 373.385 1.71704 355.929 10.7796C352.572 12.5232 349.183 14.1876 345.79 15.8313C329.854 23.5457 313.46 30.9281 299.19 41.8397C294.59 45.3492 290.276 49.1901 286.28 53.388C259.101 81.9931 249.404 124.719 246.318 165.04C246.098 167.971 245.898 170.899 245.718 173.824C243.13 217.032 242.131 260.027 231.713 297.982C226.837 315.724 221.21 334.57 206.313 346.53C188.508 360.844 163.287 361.506 141.626 357.453C126.882 354.703 112.704 350.16 98.2534 347.325C91.4651 345.999 84.6124 345.056 77.6148 344.842C33.0675 343.474 -11.0192 373.771 -36.4657 414.247C-61.9404 454.739 -71.4613 503.696 -73.3489 551.742" stroke="url(#paint20_linear_891_1438)" stroke-width="0.8669" stroke-miterlimit="10"/>
<path opacity="0.54" d="M396.69 -97.6481C412.402 -82.686 412.199 -55.6856 401.773 -36.1325C400.843 -34.3911 399.836 -32.6888 398.766 -31.0604C387.809 -14.346 370.932 -3.06978 353.568 6.19975C350.227 7.98302 346.866 9.69564 343.489 11.379C327.632 19.2814 311.322 26.819 297.113 37.8048C292.538 41.3419 288.235 45.1915 284.252 49.4085C257.162 78.1367 247.61 120.817 244.833 161.158C244.633 164.086 244.454 167.021 244.304 169.94C242.092 213.145 241.931 256.15 232.442 294.523C227.908 312.843 222.426 332.312 207.331 344.648C189.29 359.431 163.494 359.941 141.436 355.491C126.417 352.472 111.997 347.547 97.274 344.4C90.3612 342.926 83.3741 341.837 76.2269 341.511C30.7442 339.43 -14.4074 370.249 -40.2714 411.547C-66.1522 452.869 -75.5483 502.857 -77.3068 551.828" stroke="url(#paint21_linear_891_1438)" stroke-width="0.8669" stroke-miterlimit="10"/>
<path opacity="0.54" d="M393.489 -102.803C409.207 -87.8733 409.173 -60.9663 398.949 -41.2895C398.032 -39.529 397.045 -37.8303 395.988 -36.1829C385.204 -19.3395 368.469 -7.85482 351.2 1.64236C347.885 3.46352 344.53 5.2176 341.18 6.93884C325.411 15.0274 309.165 22.7237 295.028 33.782C290.476 37.3364 286.186 41.2051 282.226 45.4393C255.223 74.2803 245.82 116.935 243.35 157.286C243.171 160.221 243.022 163.15 242.892 166.066C241.055 209.258 241.761 252.268 233.172 291.065C228.989 309.949 223.641 330.043 208.35 342.777C190.064 358.029 163.703 358.386 141.248 353.54C125.961 350.239 111.293 344.955 96.2866 341.486C89.2378 339.856 82.1178 338.632 74.821 338.195C28.4028 335.4 -17.8252 366.733 -44.0953 408.86C-70.3837 451.001 -79.6536 502.032 -81.2729 551.926" stroke="url(#paint22_linear_891_1438)" stroke-width="0.8669" stroke-miterlimit="10"/>
<path opacity="0.54" d="M390.289 -107.958C406.004 -93.0484 406.148 -66.2468 396.116 -46.4445C395.22 -44.6772 394.256 -42.9613 393.211 -41.3052C382.588 -24.3311 366.008 -12.6294 348.831 -2.92526C345.532 -1.06442 342.205 0.73788 338.869 2.48844C323.187 10.7529 307.009 18.6286 292.942 29.749C288.414 33.331 284.145 37.2066 280.198 41.4599C253.292 70.4118 244.026 113.033 241.865 153.404C241.706 156.335 241.579 159.272 241.48 162.193C240.018 205.372 241.59 248.376 233.904 287.617C230.092 307.073 224.85 327.797 209.38 340.904C190.856 356.614 163.923 356.83 141.06 351.589C125.498 348.019 110.589 342.363 95.3093 338.571C88.136 336.793 80.8831 335.434 73.435 334.875C26.0797 331.355 -21.2216 363.223 -47.8994 406.17C-74.5839 449.139 -83.739 501.204 -85.2291 552.023" stroke="url(#paint23_linear_891_1438)" stroke-width="0.8669" stroke-miterlimit="10"/>
<path opacity="0.54" d="M387.087 -113.123C402.808 -98.2461 403.111 -71.5361 393.289 -51.6222C392.415 -49.8481 391.463 -48.1131 390.44 -46.4503C379.988 -29.3575 363.553 -17.437 346.48 -7.50699C343.198 -5.60647 339.886 -3.76449 336.568 -1.9639C320.975 6.48677 304.87 14.5195 290.855 25.7159C286.35 29.3151 282.094 33.2097 278.16 37.4822C251.344 66.5571 242.223 109.132 240.37 149.523C240.233 152.462 240.135 155.393 240.056 158.31C238.97 201.476 241.437 244.469 234.613 284.152C231.171 304.169 226.046 325.532 210.379 339.026C191.619 355.204 164.111 355.268 140.85 349.621C125.022 345.779 109.863 339.754 94.3092 335.639C86.9998 333.705 79.614 332.209 72.0163 331.539C23.7254 327.305 -24.6524 359.688 -51.7363 403.464C-78.8285 447.253 -87.8572 500.36 -89.2181 552.103" stroke="url(#paint24_linear_891_1438)" stroke-width="0.8669" stroke-miterlimit="10"/>
<path opacity="0.54" d="M383.896 -118.28C399.615 -103.423 400.095 -76.8185 390.466 -56.779C389.604 -54.9859 388.673 -53.2545 387.664 -51.5624C377.374 -34.3387 361.093 -22.2013 344.114 -12.0539C340.859 -10.1052 337.562 -8.23387 334.26 -6.3936C318.756 2.24331 302.715 10.4348 288.772 21.7037C284.29 25.3201 280.058 29.2423 276.134 33.5131C249.405 62.7008 240.433 105.251 238.878 145.653C238.76 148.588 238.682 151.516 238.634 154.438C237.923 197.591 241.295 240.561 235.335 280.705C232.285 301.29 227.254 323.275 211.389 337.156C192.394 353.803 164.311 353.715 140.653 347.671C124.549 343.56 109.138 337.155 93.3124 332.727C85.8785 330.645 78.3482 329.006 70.6108 328.223C21.3828 323.264 -28.0685 356.182 -55.5684 400.789C-83.0683 445.397 -91.9707 499.547 -93.2023 552.215" stroke="url(#paint25_linear_891_1438)" stroke-width="0.8669" stroke-miterlimit="10"/>
<path opacity="0.54" d="M380.695 -123.435C396.42 -108.61 397.061 -82.087 387.642 -61.936C386.802 -60.136 385.883 -58.3857 384.896 -56.6867C374.778 -39.334 358.641 -26.9881 341.755 -16.6234C338.516 -14.635 335.236 -12.7136 331.959 -10.8458C316.544 -2.02265 300.569 6.33787 286.696 17.6689C282.238 21.313 278.018 25.2439 274.116 29.5319C247.474 58.8323 238.649 101.346 237.403 141.769C237.317 144.709 237.259 147.633 237.232 150.563C236.896 193.703 241.181 236.636 236.076 277.245C233.416 298.388 228.481 321.015 212.43 335.281C193.197 352.386 164.541 352.157 140.485 345.717C124.115 341.334 108.455 334.559 92.3553 329.808C84.7968 327.579 77.1321 325.793 69.245 324.899C19.0813 319.226 -31.4452 352.668 -59.3528 398.095C-87.2588 443.533 -96.0364 498.715 -97.1388 552.308" stroke="url(#paint26_linear_891_1438)" stroke-width="0.8669" stroke-miterlimit="10"/>
<path opacity="0.54" d="M377.495 -128.59C393.217 -113.785 394.036 -87.3677 384.818 -67.093C383.99 -65.2844 383.094 -63.5169 382.128 -61.811C372.171 -44.3379 356.188 -31.775 339.397 -21.1826C336.175 -19.1545 332.921 -17.1952 329.661 -15.2774C314.335 -6.26797 298.434 2.24951 284.622 13.6548C280.188 17.3161 275.98 21.2661 272.092 25.5732C245.538 54.9863 236.871 97.4731 235.922 137.907C235.856 140.844 235.819 143.775 235.822 146.699C235.862 189.826 241.077 232.71 236.811 273.807C234.56 295.504 229.691 318.769 213.453 333.42C193.984 350.994 164.755 350.623 140.289 343.767C123.641 339.105 107.742 331.968 91.3689 326.895C83.6744 324.508 75.8767 322.587 67.8399 321.582C16.7405 315.195 -34.8627 349.151 -63.1765 395.408C-91.4903 441.665 -100.142 497.889 -101.115 552.408" stroke="url(#paint27_linear_891_1438)" stroke-width="0.8669" stroke-miterlimit="10"/>
<path opacity="0.54" d="M374.293 -133.755C390.02 -118.983 391.009 -92.659 381.982 -72.2691C381.175 -70.4538 380.29 -68.6776 379.337 -66.9528C369.552 -49.3507 353.714 -36.569 337.015 -25.7695C333.808 -23.7017 330.572 -21.6924 327.337 -19.747C312.088 -10.56 296.263 -1.87515 282.523 9.60257C278.113 13.2915 273.927 17.2484 270.051 21.5745C243.596 51.1089 235.065 93.5514 234.425 134.006C234.38 136.949 234.373 139.875 234.396 142.795C234.811 185.909 240.965 228.732 237.527 270.319C235.687 292.57 230.895 316.481 214.459 331.519C194.754 349.561 164.951 349.039 140.087 341.786C123.164 336.855 107.024 329.346 90.3678 323.951C82.5486 321.417 74.6066 319.352 66.43 318.233C14.3933 311.122 -38.2835 345.613 -67.005 392.69C-95.7249 439.777 -104.251 497.033 -105.085 552.475" stroke="url(#paint28_linear_891_1438)" stroke-width="0.8669" stroke-miterlimit="10"/>
<path opacity="0.54" d="M371.102 -138.912C386.827 -124.16 387.983 -97.9396 379.168 -77.4278C378.384 -75.5952 377.511 -73.8104 376.579 -72.0788C366.966 -54.3477 351.271 -41.3575 334.677 -30.3321C331.498 -28.216 328.277 -26.1774 325.049 -24.1802C309.889 -14.8069 294.13 -5.9529 280.46 5.58692C276.072 9.29309 271.899 13.269 268.047 17.6125C241.679 47.2595 233.296 89.6765 232.963 130.141C232.938 133.08 232.953 136.013 233.006 138.928C233.796 182.029 240.898 224.778 238.282 266.877C236.87 289.668 232.135 314.23 215.512 329.653C195.569 348.153 165.193 347.49 139.932 339.84C122.743 334.637 106.353 326.759 89.4211 321.031C81.4675 318.351 73.4009 316.138 65.0747 314.907C12.1021 307.082 -41.6516 342.087 -70.7793 389.994C-99.9071 437.9 -108.307 496.199 -109.012 552.566" stroke="url(#paint29_linear_891_1438)" stroke-width="0.8669" stroke-miterlimit="10"/>
<path opacity="0.54" d="M367.901 -144.067C383.622 -129.345 384.958 -103.22 376.334 -82.5829C375.562 -80.7418 374.722 -78.9416 373.791 -77.1996C364.341 -59.3377 348.8 -46.1304 332.298 -34.898C329.135 -32.7423 325.93 -30.664 322.728 -28.6288C307.657 -19.0692 291.972 -10.0583 278.364 1.55577C273.989 5.28097 269.849 9.27237 265.998 13.6263C239.717 43.386 231.482 85.7672 231.448 126.253C231.445 129.2 231.489 132.127 231.563 135.049C232.73 178.148 240.776 220.801 238.983 263.413C237.999 286.745 233.322 311.966 216.502 327.776C196.324 346.745 165.373 345.93 139.715 337.884C122.25 332.412 105.618 324.151 88.4038 318.112C80.324 315.273 72.1145 312.927 63.6386 311.585C9.73018 303.045 -45.0987 338.575 -74.6342 387.301C-104.168 436.037 -112.453 495.37 -113.019 552.661" stroke="url(#paint30_linear_891_1438)" stroke-width="0.8669" stroke-miterlimit="10"/>
<path opacity="0.54" d="M364.7 -149.222C381.83 -133.212 382.086 -103.764 371.023 -82.324C359.959 -60.8943 340.224 -45.9403 320.429 -33.0708C300.634 -20.2012 279.732 -8.31243 263.972 9.65724C235.885 41.7116 228.612 88.1005 230.162 131.173C231.704 174.258 240.715 216.814 239.725 259.952C239.179 283.822 234.54 309.697 217.533 325.892C197.118 345.33 165.592 344.363 139.525 335.912C113.459 327.461 89.2396 312.805 62.2506 308.243C7.40479 298.978 -48.4995 335.033 -78.4412 384.589C-108.383 434.145 -116.542 494.521 -116.978 552.737" stroke="url(#paint31_linear_891_1438)" stroke-width="0.8669" stroke-miterlimit="10"/>
</g>
<defs>
<linearGradient id="paint0_linear_891_1438" x1="21.9744" y1="563.747" x2="478.802" y2="22.7224" gradientUnits="userSpaceOnUse">
<stop stop-color="#7ED4EF"/>
<stop offset="0.2294" stop-color="#66BFE6"/>
<stop offset="0.711" stop-color="#298BD0"/>
<stop offset="1" stop-color="#0169C2"/>
</linearGradient>
<linearGradient id="paint1_linear_891_1438" x1="16.4913" y1="562.561" x2="476.233" y2="18.0947" gradientUnits="userSpaceOnUse">
<stop stop-color="#7ED4EF"/>
<stop offset="0.2294" stop-color="#66BFE6"/>
<stop offset="0.711" stop-color="#298BD0"/>
<stop offset="1" stop-color="#0169C2"/>
</linearGradient>
<linearGradient id="paint2_linear_891_1438" x1="11.0096" y1="561.377" x2="473.665" y2="13.4682" gradientUnits="userSpaceOnUse">
<stop stop-color="#7ED4EF"/>
<stop offset="0.2294" stop-color="#66BFE6"/>
<stop offset="0.711" stop-color="#298BD0"/>
<stop offset="1" stop-color="#0169C2"/>
</linearGradient>
<linearGradient id="paint3_linear_891_1438" x1="6.00529" y1="560.596" x2="471.574" y2="9.24426" gradientUnits="userSpaceOnUse">
<stop stop-color="#7ED4EF"/>
<stop offset="0.2294" stop-color="#66BFE6"/>
<stop offset="0.711" stop-color="#298BD0"/>
<stop offset="1" stop-color="#0169C2"/>
</linearGradient>
<linearGradient id="paint4_linear_891_1438" x1="1.81776" y1="560.503" x2="470.3" y2="5.70988" gradientUnits="userSpaceOnUse">
<stop stop-color="#7ED4EF"/>
<stop offset="0.2294" stop-color="#66BFE6"/>
<stop offset="0.711" stop-color="#298BD0"/>
<stop offset="1" stop-color="#0169C2"/>
</linearGradient>
<linearGradient id="paint5_linear_891_1438" x1="-2.32148" y1="560.452" x2="469.073" y2="2.21604" gradientUnits="userSpaceOnUse">
<stop stop-color="#7ED4EF"/>
<stop offset="0.2294" stop-color="#66BFE6"/>
<stop offset="0.711" stop-color="#298BD0"/>
<stop offset="1" stop-color="#0169C2"/>
</linearGradient>
<linearGradient id="paint6_linear_891_1438" x1="-6.40879" y1="560.444" x2="467.899" y2="-1.23383" gradientUnits="userSpaceOnUse">
<stop stop-color="#7ED4EF"/>
<stop offset="0.2294" stop-color="#66BFE6"/>
<stop offset="0.711" stop-color="#298BD0"/>
<stop offset="1" stop-color="#0169C2"/>
</linearGradient>
<linearGradient id="paint7_linear_891_1438" x1="-10.4404" y1="560.483" x2="466.779" y2="-4.63666" gradientUnits="userSpaceOnUse">
<stop stop-color="#7ED4EF"/>
<stop offset="0.2294" stop-color="#66BFE6"/>
<stop offset="0.711" stop-color="#298BD0"/>
<stop offset="1" stop-color="#0169C2"/>
</linearGradient>
<linearGradient id="paint8_linear_891_1438" x1="-14.3516" y1="560.623" x2="465.78" y2="-7.93822" gradientUnits="userSpaceOnUse">
<stop stop-color="#7ED4EF"/>
<stop offset="0.2294" stop-color="#66BFE6"/>
<stop offset="0.711" stop-color="#298BD0"/>
<stop offset="1" stop-color="#0169C2"/>
</linearGradient>
<linearGradient id="paint9_linear_891_1438" x1="-18.1646" y1="560.846" x2="464.879" y2="-11.1573" gradientUnits="userSpaceOnUse">
<stop stop-color="#7ED4EF"/>
<stop offset="0.2294" stop-color="#66BFE6"/>
<stop offset="0.711" stop-color="#298BD0"/>
<stop offset="1" stop-color="#0169C2"/>
</linearGradient>
<linearGradient id="paint10_linear_891_1438" x1="-21.9182" y1="561.119" x2="464.036" y2="-14.3259" gradientUnits="userSpaceOnUse">
<stop stop-color="#7ED4EF"/>
<stop offset="0.2294" stop-color="#66BFE6"/>
<stop offset="0.711" stop-color="#298BD0"/>
<stop offset="1" stop-color="#0169C2"/>
</linearGradient>
<linearGradient id="paint11_linear_891_1438" x1="-25.6303" y1="561.427" x2="463.236" y2="-17.4598" gradientUnits="userSpaceOnUse">
<stop stop-color="#7ED4EF"/>
<stop offset="0.2294" stop-color="#66BFE6"/>
<stop offset="0.711" stop-color="#298BD0"/>
<stop offset="1" stop-color="#0169C2"/>
</linearGradient>
<linearGradient id="paint12_linear_891_1438" x1="-29.3126" y1="561.76" x2="462.464" y2="-20.5686" gradientUnits="userSpaceOnUse">
<stop stop-color="#7ED4EF"/>
<stop offset="0.2294" stop-color="#66BFE6"/>
<stop offset="0.711" stop-color="#298BD0"/>
<stop offset="1" stop-color="#0169C2"/>
</linearGradient>
<linearGradient id="paint13_linear_891_1438" x1="-32.9722" y1="562.112" x2="461.715" y2="-23.6586" gradientUnits="userSpaceOnUse">
<stop stop-color="#7ED4EF"/>
<stop offset="0.2294" stop-color="#66BFE6"/>
<stop offset="0.711" stop-color="#298BD0"/>
<stop offset="1" stop-color="#0169C2"/>
</linearGradient>
<linearGradient id="paint14_linear_891_1438" x1="-36.6144" y1="562.478" x2="460.984" y2="-26.7337" gradientUnits="userSpaceOnUse">
<stop stop-color="#7ED4EF"/>
<stop offset="0.2294" stop-color="#66BFE6"/>
<stop offset="0.711" stop-color="#298BD0"/>
<stop offset="1" stop-color="#0169C2"/>
</linearGradient>
<linearGradient id="paint15_linear_891_1438" x1="-40.243" y1="562.856" x2="460.266" y2="-29.7977" gradientUnits="userSpaceOnUse">
<stop stop-color="#7ED4EF"/>
<stop offset="0.2294" stop-color="#66BFE6"/>
<stop offset="0.711" stop-color="#298BD0"/>
<stop offset="1" stop-color="#0169C2"/>
</linearGradient>
<linearGradient id="paint16_linear_891_1438" x1="-43.8607" y1="563.243" x2="459.558" y2="-32.8524" gradientUnits="userSpaceOnUse">
<stop stop-color="#7ED4EF"/>
<stop offset="0.2294" stop-color="#66BFE6"/>
<stop offset="0.711" stop-color="#298BD0"/>
<stop offset="1" stop-color="#0169C2"/>
</linearGradient>
<linearGradient id="paint17_linear_891_1438" x1="-47.4693" y1="563.637" x2="458.859" y2="-35.8996" gradientUnits="userSpaceOnUse">
<stop stop-color="#7ED4EF"/>
<stop offset="0.2294" stop-color="#66BFE6"/>
<stop offset="0.711" stop-color="#298BD0"/>
<stop offset="1" stop-color="#0169C2"/>
</linearGradient>
<linearGradient id="paint18_linear_891_1438" x1="-51.0707" y1="564.038" x2="458.168" y2="-38.9405" gradientUnits="userSpaceOnUse">
<stop stop-color="#7ED4EF"/>
<stop offset="0.2294" stop-color="#66BFE6"/>
<stop offset="0.711" stop-color="#298BD0"/>
<stop offset="1" stop-color="#0169C2"/>
</linearGradient>
<linearGradient id="paint19_linear_891_1438" x1="-54.6658" y1="564.444" x2="457.482" y2="-41.9765" gradientUnits="userSpaceOnUse">
<stop stop-color="#7ED4EF"/>
<stop offset="0.2294" stop-color="#66BFE6"/>
<stop offset="0.711" stop-color="#298BD0"/>
<stop offset="1" stop-color="#0169C2"/>
</linearGradient>
<linearGradient id="paint20_linear_891_1438" x1="-58.2559" y1="564.853" x2="456.801" y2="-45.0085" gradientUnits="userSpaceOnUse">
<stop stop-color="#7ED4EF"/>
<stop offset="0.2294" stop-color="#66BFE6"/>
<stop offset="0.711" stop-color="#298BD0"/>
<stop offset="1" stop-color="#0169C2"/>
</linearGradient>
<linearGradient id="paint21_linear_891_1438" x1="-61.8416" y1="565.267" x2="456.125" y2="-48.0367" gradientUnits="userSpaceOnUse">
<stop stop-color="#7ED4EF"/>
<stop offset="0.2294" stop-color="#66BFE6"/>
<stop offset="0.711" stop-color="#298BD0"/>
<stop offset="1" stop-color="#0169C2"/>
</linearGradient>
<linearGradient id="paint22_linear_891_1438" x1="-65.4233" y1="565.684" x2="455.452" y2="-51.0615" gradientUnits="userSpaceOnUse">
<stop stop-color="#7ED4EF"/>
<stop offset="0.2294" stop-color="#66BFE6"/>
<stop offset="0.711" stop-color="#298BD0"/>
<stop offset="1" stop-color="#0169C2"/>
</linearGradient>
<linearGradient id="paint23_linear_891_1438" x1="-69.0017" y1="566.103" x2="454.783" y2="-54.084" gradientUnits="userSpaceOnUse">
<stop stop-color="#7ED4EF"/>
<stop offset="0.2294" stop-color="#66BFE6"/>
<stop offset="0.711" stop-color="#298BD0"/>
<stop offset="1" stop-color="#0169C2"/>
</linearGradient>
<linearGradient id="paint24_linear_891_1438" x1="-72.5775" y1="566.524" x2="454.116" y2="-57.104" gradientUnits="userSpaceOnUse">
<stop stop-color="#7ED4EF"/>
<stop offset="0.2294" stop-color="#66BFE6"/>
<stop offset="0.711" stop-color="#298BD0"/>
<stop offset="1" stop-color="#0169C2"/>
</linearGradient>
<linearGradient id="paint25_linear_891_1438" x1="-76.1505" y1="566.948" x2="453.451" y2="-60.1219" gradientUnits="userSpaceOnUse">
<stop stop-color="#7ED4EF"/>
<stop offset="0.2294" stop-color="#66BFE6"/>
<stop offset="0.711" stop-color="#298BD0"/>
<stop offset="1" stop-color="#0169C2"/>
</linearGradient>
<linearGradient id="paint26_linear_891_1438" x1="-79.7215" y1="567.374" x2="452.788" y2="-63.138" gradientUnits="userSpaceOnUse">
<stop stop-color="#7ED4EF"/>
<stop offset="0.2294" stop-color="#66BFE6"/>
<stop offset="0.711" stop-color="#298BD0"/>
<stop offset="1" stop-color="#0169C2"/>
</linearGradient>
<linearGradient id="paint27_linear_891_1438" x1="-83.2904" y1="567.801" x2="452.128" y2="-66.1528" gradientUnits="userSpaceOnUse">
<stop stop-color="#7ED4EF"/>
<stop offset="0.2294" stop-color="#66BFE6"/>
<stop offset="0.711" stop-color="#298BD0"/>
<stop offset="1" stop-color="#0169C2"/>
</linearGradient>
<linearGradient id="paint28_linear_891_1438" x1="-86.8576" y1="568.229" x2="451.469" y2="-69.166" gradientUnits="userSpaceOnUse">
<stop stop-color="#7ED4EF"/>
<stop offset="0.2294" stop-color="#66BFE6"/>
<stop offset="0.711" stop-color="#298BD0"/>
<stop offset="1" stop-color="#0169C2"/>
</linearGradient>
<linearGradient id="paint29_linear_891_1438" x1="-90.4234" y1="568.659" x2="450.811" y2="-72.1776" gradientUnits="userSpaceOnUse">
<stop stop-color="#7ED4EF"/>
<stop offset="0.2294" stop-color="#66BFE6"/>
<stop offset="0.711" stop-color="#298BD0"/>
<stop offset="1" stop-color="#0169C2"/>
</linearGradient>
<linearGradient id="paint30_linear_891_1438" x1="-93.9873" y1="569.09" x2="450.155" y2="-75.1885" gradientUnits="userSpaceOnUse">
<stop stop-color="#7ED4EF"/>
<stop offset="0.2294" stop-color="#66BFE6"/>
<stop offset="0.711" stop-color="#298BD0"/>
<stop offset="1" stop-color="#0169C2"/>
</linearGradient>
<linearGradient id="paint31_linear_891_1438" x1="-97.55" y1="569.522" x2="449.5" y2="-78.1981" gradientUnits="userSpaceOnUse">
<stop stop-color="#7ED4EF" stop-opacity="0.63"/>
<stop offset="0.2294" stop-color="#66BFE6"/>
<stop offset="0.711" stop-color="#38D8CC" stop-opacity="0.31"/>
<stop offset="1" stop-color="#38D8CC"/>
</linearGradient>
</defs>
</svg>
