<svg width="516" height="722" viewBox="0 0 516 722" fill="none" xmlns="http://www.w3.org/2000/svg">
<g opacity="0.54">
<path opacity="0.54" d="M673.059 174.747C688.417 190.653 684.034 219.602 669.059 236.309C654.085 253.015 631.919 260.13 610.557 264.757C589.196 269.395 567.01 272.445 547.863 283.508C508.239 306.413 492.124 356.49 480.646 402.179C469.168 447.869 456.309 498.012 419.286 525.322C390.258 546.737 352.715 549.072 319.343 561.575C261.087 583.396 215.485 639.545 204.427 703.105" stroke="url(#paint0_linear_891_1405)" stroke-width="0.8669" stroke-miterlimit="10"/>
<path opacity="0.54" d="M669.967 169.516C685.323 185.392 681.11 214.252 666.334 231.087C665.017 232.596 663.629 234.019 662.203 235.386C647.617 249.225 627.642 255.713 608.294 260.144C604.558 261 600.796 261.808 597.034 262.616C579.368 266.403 561.588 270.251 545.872 279.445C540.779 282.431 536.067 285.855 531.71 289.67C502.304 315.382 488.935 358.466 479.252 398.284C478.552 401.18 477.843 404.087 477.126 407.006C466.503 450.224 453.418 495.34 420.103 521.904C410.574 529.501 400.154 535.318 388.796 539.691C375.389 544.861 360.983 547.961 346.875 551.162C337.243 553.35 327.701 555.608 318.423 558.652C314.062 560.083 309.756 561.706 305.517 563.531C278.523 575.138 254.428 594.928 236.216 619.302C217.96 643.735 205.487 672.683 200.462 703.11" stroke="url(#paint1_linear_891_1405)" stroke-width="0.8669" stroke-miterlimit="10"/>
<path opacity="0.54" d="M666.885 164.284C682.249 180.139 678.205 208.899 663.628 225.863C662.323 227.38 660.957 228.822 659.542 230.197C645.124 244.159 625.289 250.87 606.03 255.53C602.31 256.427 598.573 257.273 594.826 258.121C577.245 262.097 559.526 266.104 543.88 275.373C538.809 278.377 534.11 281.82 529.765 285.654C500.445 311.492 487.223 354.544 477.847 394.38C477.166 397.273 476.479 400.188 475.791 403.102C465.544 446.317 452.867 490.99 420.887 518.471C411.546 526.504 401.399 533.095 389.846 537.849C376.193 543.47 361.219 546.415 346.722 549.211C336.83 551.121 327.047 553.004 317.503 555.718C313.01 557 308.583 558.473 304.197 560.183C276.285 571.053 251.106 591.341 232.471 616.534C213.792 641.776 201.423 671.769 196.519 703.122" stroke="url(#paint2_linear_891_1405)" stroke-width="0.8669" stroke-miterlimit="10"/>
<path opacity="0.54" d="M663.792 159.042C679.152 174.867 675.289 203.537 660.9 220.621C659.616 222.146 658.273 223.605 656.869 224.989C642.61 239.086 622.924 246.017 603.755 250.897C600.059 251.832 596.329 252.73 592.607 253.617C575.111 257.781 557.462 261.947 541.876 271.291C536.827 274.313 532.151 277.774 527.818 281.617C498.593 307.569 485.508 350.591 476.439 390.455C475.78 393.355 475.122 396.265 474.454 399.177C464.583 442.399 452.308 486.661 421.681 515.025C412.519 523.507 402.652 530.85 390.894 535.985C376.996 542.068 361.451 544.848 346.565 547.228C336.404 548.862 326.387 550.357 316.578 552.752C311.963 553.873 307.396 555.209 302.873 556.803C274.042 566.937 247.779 587.713 228.722 613.725C209.62 639.786 197.354 670.813 192.559 703.093" stroke="url(#paint3_linear_891_1405)" stroke-width="0.8669" stroke-miterlimit="10"/>
<path opacity="0.54" d="M660.701 153.811C676.058 169.616 672.365 198.187 658.184 215.398C656.913 216.942 655.589 218.398 654.208 219.8C640.118 234.031 620.571 241.173 601.49 246.272C597.811 247.258 594.105 248.185 590.398 249.111C572.986 253.463 555.4 257.8 539.873 267.21C534.848 270.259 530.182 273.73 525.872 277.59C496.731 303.657 483.805 346.656 475.023 386.542C474.383 389.439 473.747 392.357 473.11 395.274C463.613 438.492 451.761 482.416 422.466 511.59C413.495 520.531 403.888 528.628 391.934 534.133C377.781 540.68 361.676 543.292 346.402 545.267C335.98 546.613 325.722 547.743 315.637 549.81C310.9 550.781 306.194 551.979 301.522 553.448C271.771 562.835 244.426 584.119 224.945 610.94C205.42 637.811 193.259 669.882 188.573 703.09" stroke="url(#paint4_linear_891_1405)" stroke-width="0.8669" stroke-miterlimit="10"/>
<path opacity="0.54" d="M657.609 148.581C672.973 164.353 669.452 192.846 655.469 210.176C654.219 211.727 652.908 213.202 651.538 214.613C637.616 228.977 618.208 236.331 599.217 241.66C595.554 242.686 591.862 243.652 588.171 244.619C570.844 249.159 553.318 253.656 537.86 263.14C532.858 266.208 528.216 269.707 523.907 273.578C494.853 299.77 482.073 342.727 473.598 382.641C472.98 385.545 472.372 388.448 471.757 391.373C462.634 434.588 451.221 478.222 423.242 508.168C414.444 517.581 405.124 526.406 392.977 532.302C378.578 539.301 361.904 541.758 346.232 543.328C335.54 544.399 325.04 545.153 314.698 546.889C309.831 547.71 305.003 548.758 300.184 550.112C269.514 558.764 241.084 580.535 221.181 608.175C201.243 635.863 189.175 668.971 184.6 703.106" stroke="url(#paint5_linear_891_1405)" stroke-width="0.8669" stroke-miterlimit="10"/>
<path opacity="0.54" d="M654.527 143.348C669.889 159.101 666.547 187.493 652.753 204.953C651.524 206.511 650.226 208.006 648.877 209.424C635.113 223.912 615.856 231.498 596.962 237.034C593.314 238.1 589.649 239.115 585.973 240.122C568.729 244.84 551.276 249.506 535.878 259.066C530.9 262.162 526.269 265.67 521.982 269.559C493.013 295.866 480.382 338.802 472.213 378.733C471.615 381.634 471.028 384.545 470.443 387.465C461.695 430.677 450.727 474.074 424.058 504.729C415.444 514.622 406.4 524.179 394.047 530.446C379.403 537.907 362.159 540.199 346.097 541.352C335.145 542.145 324.404 542.524 313.795 543.931C308.806 544.591 303.838 545.502 298.872 546.741C267.283 554.656 237.77 576.925 217.443 605.374C197.081 633.871 185.118 668.024 180.652 703.087" stroke="url(#paint6_linear_891_1405)" stroke-width="0.8669" stroke-miterlimit="10"/>
<path opacity="0.54" d="M651.434 138.107C666.802 153.828 663.622 182.132 650.035 199.709C648.817 201.276 647.54 202.778 646.204 204.216C632.609 218.837 613.49 226.634 594.687 232.401C591.064 233.505 587.404 234.562 583.753 235.607C566.584 240.515 549.203 245.35 533.874 254.974C528.918 258.088 524.299 261.615 520.035 265.522C491.15 291.944 478.667 334.848 470.806 374.808C470.239 377.715 469.672 380.622 469.106 383.54C460.733 426.748 450.248 469.956 424.852 501.283C416.425 511.677 407.654 521.933 395.098 528.593C380.208 536.516 362.394 538.642 345.944 539.39C334.723 539.907 323.749 539.908 312.865 540.987C307.743 541.498 302.655 542.258 297.542 543.382C265.033 550.55 234.436 573.318 213.686 602.586C192.902 631.903 181.042 667.09 176.696 703.079" stroke="url(#paint7_linear_891_1405)" stroke-width="0.8669" stroke-miterlimit="10"/>
<path opacity="0.54" d="M648.342 132.876C663.707 148.566 660.707 176.78 647.309 194.487C646.114 196.072 644.848 197.584 643.533 199.028C630.098 213.784 611.139 221.801 592.414 227.789C588.807 228.943 585.173 230.039 581.537 231.124C564.453 236.22 547.132 241.216 531.873 250.914C526.929 254.047 522.344 257.59 518.08 261.507C489.292 288.054 476.946 330.928 469.391 370.905C468.844 373.809 468.299 376.724 467.764 379.647C459.775 422.85 449.777 465.899 425.639 497.858C417.4 508.764 408.893 519.722 396.15 526.75C381.014 535.125 362.631 537.096 345.793 537.438C334.312 537.677 323.095 537.292 311.944 538.042C306.701 538.402 301.471 539.014 296.222 540.022C262.793 546.454 231.123 569.718 209.939 599.797C188.732 629.922 176.977 666.165 172.74 703.071" stroke="url(#paint8_linear_891_1405)" stroke-width="0.8669" stroke-miterlimit="10"/>
<path opacity="0.54" d="M645.25 127.646C660.623 143.314 657.783 171.43 644.594 189.264C643.41 190.858 642.166 192.387 640.872 193.839C627.605 208.718 608.785 216.957 590.149 223.164C586.558 224.359 582.939 225.494 579.318 226.62C562.319 231.904 545.069 237.058 529.87 246.832C524.95 249.993 520.375 253.546 516.135 257.481C487.431 284.142 475.233 326.984 467.976 366.991C467.449 369.892 466.934 372.813 466.42 375.733C458.805 418.933 449.33 461.871 426.425 494.413C418.384 505.839 410.139 517.488 397.192 524.898C381.811 533.736 362.858 535.551 345.621 535.478C333.868 535.431 322.421 534.679 310.993 535.101C305.628 535.3 300.259 535.775 294.862 536.668C260.513 542.352 227.759 566.115 206.153 597.013C184.521 627.948 172.861 665.237 168.744 703.07" stroke="url(#paint9_linear_891_1405)" stroke-width="0.8669" stroke-miterlimit="10"/>
<path opacity="0.54" d="M642.168 122.413C657.537 138.051 654.878 166.077 641.887 184.029C640.724 185.631 639.502 187.167 638.21 188.64C625.102 203.654 606.432 212.113 587.885 218.54C584.319 219.773 580.715 220.949 577.11 222.114C560.194 227.577 543.007 232.912 527.877 242.749C522.979 245.928 518.427 249.499 514.199 253.453C485.58 280.229 473.529 323.04 466.58 363.074C466.074 365.983 465.58 368.901 465.095 371.817C457.855 415.012 448.928 457.877 427.231 490.975C419.391 502.932 411.405 515.251 398.253 523.043C382.627 532.343 363.104 533.993 345.477 533.503C333.455 533.18 321.775 532.051 310.082 532.143C304.585 532.193 299.094 532.518 293.55 533.296C258.283 538.244 224.444 562.504 202.416 594.222C180.362 625.976 168.805 664.3 164.798 703.061" stroke="url(#paint10_linear_891_1405)" stroke-width="0.8669" stroke-miterlimit="10"/>
<path opacity="0.54" d="M639.075 117.172C654.451 132.788 651.963 160.725 639.16 178.797C638.019 180.416 636.809 181.962 635.539 183.442C622.599 198.589 604.068 207.26 585.619 213.905C582.068 215.178 578.481 216.404 574.901 217.608C558.07 223.259 540.944 228.754 525.874 238.668C521 241.875 516.459 245.454 512.243 249.428C483.711 276.33 471.817 319.107 465.165 359.16C464.679 362.066 464.215 364.99 463.752 367.913C456.887 411.106 448.541 453.914 428.018 487.54C420.39 500.037 412.653 513.028 399.307 521.2C383.434 530.952 363.342 532.447 345.326 531.551C333.045 530.95 321.123 529.445 309.163 529.208C303.544 529.097 297.913 529.284 292.222 529.947C256.035 534.158 221.113 558.917 198.661 591.444C176.183 624.007 164.731 663.376 160.833 703.065" stroke="url(#paint11_linear_891_1405)" stroke-width="0.8669" stroke-miterlimit="10"/>
<path opacity="0.54" d="M635.983 111.941C651.356 127.527 649.039 155.374 636.444 173.574C635.315 175.202 634.127 176.765 632.869 178.265C620.099 193.545 601.708 202.439 583.348 209.303C579.814 210.627 576.25 211.881 572.685 213.125C555.939 218.964 538.884 224.618 523.873 234.607C519.022 237.832 514.495 241.441 510.3 245.423C481.853 272.439 470.107 315.184 463.762 355.266C463.297 358.179 462.854 361.1 462.42 364.019C455.931 407.218 448.2 449.995 428.818 484.124C421.403 497.171 413.903 510.815 400.362 519.367C384.244 529.582 363.582 530.911 345.168 529.611C332.616 528.734 320.451 526.843 308.226 526.286C302.475 526.026 296.713 526.064 290.885 526.61C253.778 530.074 217.772 555.331 194.897 588.678C171.997 622.06 160.647 662.465 156.869 703.08" stroke="url(#paint12_linear_891_1405)" stroke-width="0.8669" stroke-miterlimit="10"/>
<path opacity="0.54" d="M632.891 106.711C648.272 122.275 646.124 150.022 633.718 168.352C632.611 169.988 631.434 171.56 630.199 173.077C617.586 188.482 599.345 197.596 581.074 204.68C577.555 206.044 574.018 207.347 570.467 208.62C553.805 214.648 536.812 220.473 521.871 230.526C517.042 233.769 512.537 237.396 508.355 241.396C480.002 268.526 468.395 311.252 462.357 351.35C461.922 354.259 461.5 357.187 461.086 360.103C454.972 403.299 447.878 446.064 429.604 480.678C422.424 494.283 415.151 508.581 401.404 517.516C385.041 528.193 363.808 529.356 345.005 527.639C332.192 526.474 319.786 524.218 307.294 523.331C301.423 522.92 295.53 522.809 289.555 523.241C251.528 525.968 214.438 551.722 191.139 585.878C167.815 620.07 156.57 661.52 152.902 703.063" stroke="url(#paint13_linear_891_1405)" stroke-width="0.8669" stroke-miterlimit="10"/>
<path opacity="0.54" d="M629.809 101.478C645.186 117.012 643.219 144.669 631.011 163.117C629.925 164.76 628.76 166.351 627.547 167.876C615.103 183.414 597.002 192.751 578.819 200.054C575.325 201.456 571.794 202.801 568.259 204.125C551.671 210.332 534.75 216.326 519.879 226.454C515.074 229.725 510.58 233.36 506.409 237.37C478.142 264.615 466.682 307.308 460.942 347.437C460.528 350.353 460.126 353.278 459.742 356.189C454.003 399.381 447.571 442.161 430.392 477.243C423.447 491.416 416.398 506.347 402.457 515.662C385.847 526.792 364.055 527.798 344.854 525.676C331.771 524.235 319.133 521.601 306.365 520.387C300.361 519.816 294.339 519.576 288.215 519.883C249.27 521.873 211.094 548.115 187.373 583.091C163.626 618.103 152.484 660.588 148.926 703.058" stroke="url(#paint14_linear_891_1405)" stroke-width="0.8669" stroke-miterlimit="10"/>
<path opacity="0.54" d="M626.717 96.2479C642.102 111.76 640.295 139.319 628.296 157.894C627.222 159.556 626.078 161.155 624.876 162.688C612.592 178.361 594.639 187.908 576.556 195.44C573.078 196.882 569.571 198.266 566.052 199.63C549.549 206.025 532.699 212.178 517.888 222.381C513.105 225.67 508.634 229.324 504.475 233.353C476.294 260.723 464.982 303.384 459.548 343.53C459.154 346.443 458.782 349.364 458.421 352.293C453.056 395.481 447.328 438.291 431.201 473.814C424.513 488.553 417.669 504.131 403.523 513.828C386.668 525.42 364.306 526.261 344.715 523.733C331.373 522.014 318.493 519.004 305.458 517.46C299.333 516.738 293.18 516.35 286.909 516.541C247.043 517.784 207.784 544.535 183.639 580.32C159.468 616.141 148.431 659.671 144.983 703.07" stroke="url(#paint15_linear_891_1405)" stroke-width="0.8669" stroke-miterlimit="10"/>
<path opacity="0.54" d="M623.623 91.0065C639.005 106.488 637.38 133.966 625.569 152.662C624.516 154.331 623.394 155.937 622.204 157.49C610.089 173.296 592.275 183.055 574.281 190.806C570.819 192.299 567.328 193.723 563.834 195.125C547.415 201.709 530.627 208.033 515.885 218.3C511.126 221.617 506.666 225.279 502.53 229.326C474.434 256.811 463.269 299.441 458.143 339.614C457.771 342.535 457.418 345.452 457.087 348.377C452.097 391.562 447.083 434.4 431.999 470.377C425.578 485.689 418.917 501.897 404.576 511.975C387.476 524.029 364.543 524.704 344.555 521.772C330.943 519.777 317.829 516.379 304.529 514.515C298.281 513.632 291.988 513.106 285.58 513.181C244.794 513.687 204.45 540.926 179.882 577.531C155.289 614.171 144.355 658.737 141.017 703.064" stroke="url(#paint16_linear_891_1405)" stroke-width="0.8669" stroke-miterlimit="10"/>
<path opacity="0.54" d="M620.541 85.7743C635.92 101.235 634.475 128.613 622.861 147.427C621.82 149.105 620.72 150.728 619.542 152.29C607.595 168.219 589.921 178.211 572.017 186.182C568.57 187.715 565.104 189.177 561.625 190.619C545.291 197.392 528.565 203.876 513.882 214.218C509.146 217.553 504.698 221.235 500.575 225.302C472.563 252.901 461.547 295.499 456.729 335.7C456.376 338.618 456.044 341.543 455.743 344.463C451.128 387.644 446.871 430.525 432.787 466.931C426.643 482.826 420.165 499.663 405.628 510.111C388.281 522.618 364.78 523.137 344.401 519.788C330.529 517.515 317.174 513.741 303.597 511.55C297.218 510.517 290.794 509.842 284.239 509.802C242.532 509.56 201.105 537.308 176.113 574.722C151.096 612.172 140.267 657.783 137.048 703.037" stroke="url(#paint17_linear_891_1405)" stroke-width="0.8669" stroke-miterlimit="10"/>
<path opacity="0.54" d="M617.448 80.5438C632.834 95.9725 631.55 123.262 620.136 142.205C619.117 143.901 618.029 145.533 616.871 147.102C605.083 163.166 587.559 173.368 569.743 181.559C566.321 183.131 562.862 184.645 559.407 186.115C543.158 193.076 526.502 199.719 511.879 210.137C507.166 213.49 502.742 217.2 498.63 221.275C470.715 248.999 459.836 291.566 455.324 331.785C454.992 334.71 454.691 337.63 454.409 340.547C450.17 383.724 446.679 426.647 433.585 463.494C427.731 479.97 421.424 497.428 406.684 508.268C389.092 521.237 365.02 521.601 344.252 517.836C330.109 515.276 316.513 511.137 302.679 508.614C296.179 507.431 289.623 506.606 282.921 506.451C240.285 505.474 197.782 533.708 172.369 571.952C146.928 610.212 136.204 656.869 133.095 703.05" stroke="url(#paint18_linear_891_1405)" stroke-width="0.8669" stroke-miterlimit="10"/>
<path opacity="0.54" d="M614.356 75.313C629.74 90.7215 628.636 117.91 617.42 136.981C616.422 138.685 615.345 140.326 614.211 141.913C602.592 158.11 585.207 168.535 567.48 176.945C564.074 178.557 560.64 180.109 557.191 181.632C541.026 188.771 524.433 195.594 509.881 206.087C505.191 209.468 500.779 213.187 496.687 217.27C468.857 245.108 458.136 287.642 453.912 327.891C453.611 330.812 453.32 333.741 453.06 336.665C449.195 379.839 446.501 422.798 434.367 460.08C428.811 477.135 422.667 495.226 407.721 506.438C389.883 519.87 365.242 520.068 344.085 515.897C329.672 513.061 315.844 508.544 301.742 505.681C295.109 504.338 288.424 503.374 281.574 503.104C238.019 501.39 194.432 530.122 168.595 569.176C142.73 608.255 132.099 655.949 129.111 703.057" stroke="url(#paint19_linear_891_1405)" stroke-width="0.8669" stroke-miterlimit="10"/>
<path opacity="0.54" d="M611.263 70.0719C626.652 85.4483 625.719 112.548 614.703 131.747C613.716 133.46 612.662 135.119 611.539 136.715C600.077 153.036 582.843 163.681 565.216 172.32C561.826 173.982 558.406 175.565 554.983 177.126C538.902 184.453 522.371 191.437 507.888 202.004C503.221 205.403 498.831 209.14 494.752 213.242C467.007 241.195 456.435 283.707 452.518 323.974C452.237 326.902 451.977 329.826 451.736 332.748C448.257 375.916 446.369 418.91 435.175 456.63C429.937 474.263 423.925 492.98 408.795 504.581C390.711 518.466 365.5 518.509 343.944 513.922C329.271 510.808 315.2 505.915 300.822 502.723C294.068 501.23 287.241 500.119 280.255 499.732C235.778 497.27 191.107 526.5 164.847 566.374C138.558 606.263 128.033 655.013 125.153 703.039" stroke="url(#paint20_linear_891_1405)" stroke-width="0.8669" stroke-miterlimit="10"/>
<path opacity="0.54" d="M608.18 64.8398C623.568 80.1959 622.806 107.206 611.985 126.514C611.02 128.233 609.979 129.912 608.877 131.515C597.585 147.969 580.49 158.837 562.951 167.686C559.576 169.388 556.182 171.019 552.775 172.62C536.769 180.137 520.318 187.279 505.896 197.922C501.252 201.348 496.873 205.094 492.807 209.216C465.148 237.295 454.722 279.764 451.113 320.058C450.853 322.983 450.614 325.915 450.403 328.832C447.299 372.007 446.248 415.031 435.974 453.192C431.066 471.41 425.186 490.755 409.85 502.728C391.52 517.075 365.739 516.952 343.794 511.959C328.851 508.569 314.547 503.288 299.904 499.777C293.028 498.132 286.07 496.872 278.936 496.37C233.54 493.171 187.794 522.898 161.1 563.583C134.389 604.292 123.968 654.077 121.198 703.032" stroke="url(#paint21_linear_891_1405)" stroke-width="0.8669" stroke-miterlimit="10"/>
<path opacity="0.54" d="M605.088 59.6092C620.482 74.9331 619.891 101.854 609.27 121.29C608.317 123.029 607.296 124.705 606.206 126.327C595.083 142.915 578.127 153.995 560.678 163.073C557.329 164.814 553.94 166.486 550.558 168.126C534.637 175.832 518.247 183.134 503.895 193.851C499.274 197.295 494.907 201.061 490.864 205.2C463.29 233.394 453.013 275.841 449.71 316.153C449.471 319.085 449.262 322.012 449.071 324.927C446.343 368.097 446.158 411.147 436.774 449.755C432.204 468.546 426.446 488.519 410.906 500.885C392.322 515.697 365.979 515.406 343.646 510.006C328.442 506.328 313.897 500.681 298.977 496.842C291.968 495.038 284.881 493.638 277.6 493.022C231.284 489.085 184.452 519.3 157.335 560.805C130.2 602.324 119.883 653.155 117.233 703.036" stroke="url(#paint22_linear_891_1405)" stroke-width="0.8669" stroke-miterlimit="10"/>
<path opacity="0.54" d="M601.996 54.3784C617.387 69.682 616.976 96.5016 606.544 116.068C605.613 117.815 604.614 119.508 603.535 121.139C592.572 137.861 575.766 149.162 558.404 158.45C555.07 160.231 551.708 161.952 548.34 163.622C532.502 171.506 516.176 178.989 501.892 189.77C497.295 193.242 492.95 197.015 488.919 201.174C461.44 229.481 451.301 271.897 448.306 312.237C448.087 315.166 447.899 318.101 447.739 321.021C445.386 364.187 446.066 407.253 437.575 446.327C433.365 465.7 427.699 486.306 411.973 499.04C393.142 514.304 366.23 513.859 343.498 508.054C328.024 504.099 313.247 498.074 298.06 493.906C290.93 491.951 283.713 490.412 276.283 489.67C229.046 484.986 181.131 515.71 153.59 558.024C126.042 600.361 115.819 652.229 113.279 703.039" stroke="url(#paint23_linear_891_1405)" stroke-width="0.8669" stroke-miterlimit="10"/>
<path opacity="0.54" d="M598.902 49.1374C614.3 64.4088 614.05 91.1405 603.825 110.824C602.915 112.577 601.929 114.29 600.872 115.929C590.076 132.774 573.41 144.297 556.149 153.813C552.83 155.634 549.483 157.396 546.131 159.116C530.379 167.188 514.123 174.83 499.89 185.688C495.315 189.179 490.982 192.971 486.964 197.149C459.572 225.581 449.579 267.955 446.892 308.322C446.694 311.259 446.536 314.189 446.396 317.106C444.418 360.269 445.993 403.345 438.354 442.882C434.502 462.825 428.939 484.073 413.008 497.19C393.932 512.916 366.449 512.305 343.327 506.083C327.594 501.851 312.574 495.45 297.121 490.951C289.859 488.836 282.511 487.159 274.934 486.302C226.778 480.88 177.777 512.092 149.813 555.227C121.841 598.373 111.722 651.287 109.292 703.025" stroke="url(#paint24_linear_891_1405)" stroke-width="0.8669" stroke-miterlimit="10"/>
<path opacity="0.54" d="M595.819 43.9053C611.215 59.1564 611.145 85.7867 601.11 105.6C600.212 107.373 599.245 109.083 598.202 110.751C587.566 127.731 571.05 139.475 553.878 149.211C550.586 151.081 547.253 152.872 543.916 154.633C528.248 162.893 512.054 170.695 497.891 181.628C493.338 185.136 489.029 188.957 485.021 193.133C457.713 221.68 447.869 264.032 445.48 304.418C445.302 307.352 445.163 310.279 445.055 313.202C443.452 356.361 445.931 399.436 439.146 439.455C435.673 459.977 430.191 481.85 414.055 495.348C394.734 511.538 366.68 510.76 343.17 504.132C327.166 499.623 311.903 492.836 296.185 488.018C288.801 485.752 281.312 483.927 273.598 482.953C224.521 476.783 174.436 508.504 146.04 552.46C117.643 596.417 107.629 650.376 105.309 703.043" stroke="url(#paint25_linear_891_1405)" stroke-width="0.8669" stroke-miterlimit="10"/>
<path opacity="0.54" d="M592.727 38.6746C608.129 53.8935 608.221 80.4464 598.394 100.377C597.518 102.157 596.564 103.886 595.542 105.561C585.075 122.675 568.698 134.631 551.614 144.587C548.337 146.497 545.021 148.338 541.708 150.127C526.125 158.576 509.993 166.549 495.898 177.545C491.37 181.082 487.072 184.911 483.086 189.106C455.864 217.767 446.168 260.087 444.086 300.501C443.939 303.44 443.821 306.364 443.733 309.295C442.505 352.449 445.897 395.511 439.957 436.016C436.862 457.104 431.464 479.623 415.133 493.502C395.564 510.144 366.941 509.211 343.042 502.177C326.779 497.39 311.274 490.226 295.288 485.078C287.783 482.661 280.163 480.687 272.302 479.598C222.304 472.691 171.135 504.91 142.315 549.676C113.495 594.452 103.585 649.448 101.374 703.043" stroke="url(#paint26_linear_891_1405)" stroke-width="0.8669" stroke-miterlimit="10"/>
<path opacity="0.54" d="M589.634 33.4441C605.034 48.6426 605.306 75.0942 595.678 95.1533C594.813 96.9424 593.882 98.6889 592.881 100.372C582.572 117.61 566.345 129.787 549.351 139.972C546.09 141.923 542.799 143.803 539.502 145.642C524.004 154.28 507.943 162.411 493.909 173.483C489.403 177.038 485.118 180.886 481.144 185.1C454.007 213.877 444.47 256.173 442.685 296.605C442.558 299.542 442.461 302.474 442.404 305.399C441.55 348.55 445.873 391.585 440.76 432.598C438.063 454.251 432.718 477.409 416.192 491.669C396.378 508.774 367.185 507.686 342.885 500.225C326.35 495.152 310.614 487.621 294.362 482.143C286.725 479.566 278.974 477.453 270.966 476.249C220.049 468.604 167.793 501.312 138.55 546.898C109.307 592.484 99.5003 648.525 97.3999 703.049" stroke="url(#paint27_linear_891_1405)" stroke-width="0.8669" stroke-miterlimit="10"/>
<path opacity="0.54" d="M586.54 28.2031C601.947 43.3694 602.39 69.7315 592.949 89.9104C592.106 91.7069 591.185 93.4623 590.197 95.1646C580.058 112.536 563.97 124.935 547.065 135.33C543.818 137.32 540.544 139.251 537.271 141.118C521.847 149.936 505.858 158.236 491.894 169.383C487.412 172.965 483.148 176.821 479.187 181.055C452.146 209.955 442.745 252.21 441.269 292.67C441.163 295.614 441.095 298.541 441.058 301.463C440.58 344.61 445.842 387.606 441.547 429.13C439.249 451.348 433.966 475.154 417.235 489.796C397.176 507.364 367.413 506.11 342.724 498.243C325.919 492.893 309.951 484.984 293.422 479.178C285.663 476.45 277.772 474.189 269.626 472.869C217.788 464.476 164.449 497.692 134.781 544.088C105.115 590.494 95.4119 647.571 93.4316 703.022" stroke="url(#paint28_linear_891_1405)" stroke-width="0.8669" stroke-miterlimit="10"/>
<path opacity="0.54" d="M583.458 22.9711C598.862 38.117 599.475 64.3793 590.243 84.6853C589.422 86.4996 588.513 88.2639 587.547 89.9735C577.576 107.478 561.628 120.089 544.822 130.713C541.602 132.752 538.342 134.713 535.076 136.632C519.737 145.638 503.81 154.109 489.915 165.319C485.455 168.92 481.203 172.795 477.265 177.046C450.309 206.061 441.057 248.295 439.887 288.772C439.802 291.712 439.756 294.647 439.748 297.565C439.645 340.708 445.856 383.653 442.371 425.71C440.489 448.478 435.25 472.936 418.325 487.959C398.019 505.979 367.686 504.57 342.608 496.296C325.544 490.668 309.333 482.383 292.536 476.236C284.646 473.36 276.633 470.947 268.34 469.512C215.582 460.382 161.156 494.086 131.066 541.302C100.975 588.518 91.3773 646.641 89.5069 703.02" stroke="url(#paint29_linear_891_1405)" stroke-width="0.8669" stroke-miterlimit="10"/>
<path opacity="0.54" d="M580.365 17.7404C595.766 32.8556 596.56 59.0268 587.518 79.4631C586.708 81.2863 585.831 83.0667 584.866 84.7868C575.055 102.426 559.257 115.258 542.539 126.091C539.334 128.171 536.089 130.171 532.848 132.129C517.594 141.323 501.738 149.954 487.903 161.24C483.455 164.859 479.236 168.751 475.299 173.013C448.429 202.143 439.325 244.344 438.453 284.85C438.388 287.798 438.372 290.728 438.386 293.653C438.66 336.802 445.816 379.676 443.142 422.265C441.676 445.585 436.482 470.705 419.352 486.11C398.801 504.593 367.897 503.018 342.431 494.338C325.096 488.433 308.652 479.76 291.579 473.295C283.566 470.257 275.413 467.707 266.974 466.157C213.295 456.289 157.785 490.491 127.27 538.517C96.7569 586.553 87.2521 645.714 85.5017 703.02" stroke="url(#paint30_linear_891_1405)" stroke-width="0.8669" stroke-miterlimit="10"/>
<path opacity="0.54" d="M577.272 12.5099C594.054 28.9488 593.701 58.4178 582.205 79.5972C570.708 100.766 550.683 115.243 530.641 127.633C510.6 140.024 489.472 151.405 473.356 168.997C444.633 200.378 436.407 246.612 437.065 289.746C437.714 332.891 445.835 375.689 443.953 418.825C442.915 442.694 437.744 468.469 420.419 484.255C399.622 503.201 368.147 501.459 342.281 492.364C316.415 483.269 292.523 468.011 265.655 462.784C211.055 452.167 154.46 486.868 123.523 535.714C92.5851 584.56 83.185 644.767 81.5446 703.002" stroke="url(#paint31_linear_891_1405)" stroke-width="0.8669" stroke-miterlimit="10"/>
</g>
<defs>
<linearGradient id="paint0_linear_891_1405" x1="220.138" y1="717.321" x2="688.848" y2="188.136" gradientUnits="userSpaceOnUse">
<stop stop-color="#7ED4EF"/>
<stop offset="0.2294" stop-color="#66BFE6"/>
<stop offset="0.711" stop-color="#298BD0"/>
<stop offset="1" stop-color="#0169C2"/>
</linearGradient>
<linearGradient id="paint1_linear_891_1405" x1="214.684" y1="716.004" x2="686.383" y2="183.454" gradientUnits="userSpaceOnUse">
<stop stop-color="#7ED4EF"/>
<stop offset="0.2294" stop-color="#66BFE6"/>
<stop offset="0.711" stop-color="#298BD0"/>
<stop offset="1" stop-color="#0169C2"/>
</linearGradient>
<linearGradient id="paint2_linear_891_1405" x1="209.232" y1="714.689" x2="683.918" y2="178.774" gradientUnits="userSpaceOnUse">
<stop stop-color="#7ED4EF"/>
<stop offset="0.2294" stop-color="#66BFE6"/>
<stop offset="0.711" stop-color="#298BD0"/>
<stop offset="1" stop-color="#0169C2"/>
</linearGradient>
<linearGradient id="paint3_linear_891_1405" x1="204.249" y1="713.787" x2="681.921" y2="174.508" gradientUnits="userSpaceOnUse">
<stop stop-color="#7ED4EF"/>
<stop offset="0.2294" stop-color="#66BFE6"/>
<stop offset="0.711" stop-color="#298BD0"/>
<stop offset="1" stop-color="#0169C2"/>
</linearGradient>
<linearGradient id="paint4_linear_891_1405" x1="200.067" y1="713.595" x2="680.726" y2="170.952" gradientUnits="userSpaceOnUse">
<stop stop-color="#7ED4EF"/>
<stop offset="0.2294" stop-color="#66BFE6"/>
<stop offset="0.711" stop-color="#298BD0"/>
<stop offset="1" stop-color="#0169C2"/>
</linearGradient>
<linearGradient id="paint5_linear_891_1405" x1="195.933" y1="713.446" x2="679.577" y2="167.438" gradientUnits="userSpaceOnUse">
<stop stop-color="#7ED4EF"/>
<stop offset="0.2294" stop-color="#66BFE6"/>
<stop offset="0.711" stop-color="#298BD0"/>
<stop offset="1" stop-color="#0169C2"/>
</linearGradient>
<linearGradient id="paint6_linear_891_1405" x1="191.85" y1="713.341" x2="678.48" y2="163.969" gradientUnits="userSpaceOnUse">
<stop stop-color="#7ED4EF"/>
<stop offset="0.2294" stop-color="#66BFE6"/>
<stop offset="0.711" stop-color="#298BD0"/>
<stop offset="1" stop-color="#0169C2"/>
</linearGradient>
<linearGradient id="paint7_linear_891_1405" x1="187.821" y1="713.284" x2="677.437" y2="160.548" gradientUnits="userSpaceOnUse">
<stop stop-color="#7ED4EF"/>
<stop offset="0.2294" stop-color="#66BFE6"/>
<stop offset="0.711" stop-color="#298BD0"/>
<stop offset="1" stop-color="#0169C2"/>
</linearGradient>
<linearGradient id="paint8_linear_891_1405" x1="183.911" y1="713.332" x2="676.512" y2="157.232" gradientUnits="userSpaceOnUse">
<stop stop-color="#7ED4EF"/>
<stop offset="0.2294" stop-color="#66BFE6"/>
<stop offset="0.711" stop-color="#298BD0"/>
<stop offset="1" stop-color="#0169C2"/>
</linearGradient>
<linearGradient id="paint9_linear_891_1405" x1="180.097" y1="713.465" x2="675.683" y2="154" gradientUnits="userSpaceOnUse">
<stop stop-color="#7ED4EF"/>
<stop offset="0.2294" stop-color="#66BFE6"/>
<stop offset="0.711" stop-color="#298BD0"/>
<stop offset="1" stop-color="#0169C2"/>
</linearGradient>
<linearGradient id="paint10_linear_891_1405" x1="176.341" y1="713.649" x2="674.912" y2="150.821" gradientUnits="userSpaceOnUse">
<stop stop-color="#7ED4EF"/>
<stop offset="0.2294" stop-color="#66BFE6"/>
<stop offset="0.711" stop-color="#298BD0"/>
<stop offset="1" stop-color="#0169C2"/>
</linearGradient>
<linearGradient id="paint11_linear_891_1405" x1="172.626" y1="713.87" x2="674.182" y2="147.677" gradientUnits="userSpaceOnUse">
<stop stop-color="#7ED4EF"/>
<stop offset="0.2294" stop-color="#66BFE6"/>
<stop offset="0.711" stop-color="#298BD0"/>
<stop offset="1" stop-color="#0169C2"/>
</linearGradient>
<linearGradient id="paint12_linear_891_1405" x1="168.941" y1="714.116" x2="673.48" y2="144.559" gradientUnits="userSpaceOnUse">
<stop stop-color="#7ED4EF"/>
<stop offset="0.2294" stop-color="#66BFE6"/>
<stop offset="0.711" stop-color="#298BD0"/>
<stop offset="1" stop-color="#0169C2"/>
</linearGradient>
<linearGradient id="paint13_linear_891_1405" x1="165.277" y1="714.382" x2="672.801" y2="141.461" gradientUnits="userSpaceOnUse">
<stop stop-color="#7ED4EF"/>
<stop offset="0.2294" stop-color="#66BFE6"/>
<stop offset="0.711" stop-color="#298BD0"/>
<stop offset="1" stop-color="#0169C2"/>
</linearGradient>
<linearGradient id="paint14_linear_891_1405" x1="161.631" y1="714.662" x2="672.138" y2="138.378" gradientUnits="userSpaceOnUse">
<stop stop-color="#7ED4EF"/>
<stop offset="0.2294" stop-color="#66BFE6"/>
<stop offset="0.711" stop-color="#298BD0"/>
<stop offset="1" stop-color="#0169C2"/>
</linearGradient>
<linearGradient id="paint15_linear_891_1405" x1="157.998" y1="714.955" x2="671.489" y2="135.307" gradientUnits="userSpaceOnUse">
<stop stop-color="#7ED4EF"/>
<stop offset="0.2294" stop-color="#66BFE6"/>
<stop offset="0.711" stop-color="#298BD0"/>
<stop offset="1" stop-color="#0169C2"/>
</linearGradient>
<linearGradient id="paint16_linear_891_1405" x1="154.376" y1="715.257" x2="670.851" y2="132.244" gradientUnits="userSpaceOnUse">
<stop stop-color="#7ED4EF"/>
<stop offset="0.2294" stop-color="#66BFE6"/>
<stop offset="0.711" stop-color="#298BD0"/>
<stop offset="1" stop-color="#0169C2"/>
</linearGradient>
<linearGradient id="paint17_linear_891_1405" x1="150.762" y1="715.566" x2="670.22" y2="129.19" gradientUnits="userSpaceOnUse">
<stop stop-color="#7ED4EF"/>
<stop offset="0.2294" stop-color="#66BFE6"/>
<stop offset="0.711" stop-color="#298BD0"/>
<stop offset="1" stop-color="#0169C2"/>
</linearGradient>
<linearGradient id="paint18_linear_891_1405" x1="147.156" y1="715.882" x2="669.597" y2="126.142" gradientUnits="userSpaceOnUse">
<stop stop-color="#7ED4EF"/>
<stop offset="0.2294" stop-color="#66BFE6"/>
<stop offset="0.711" stop-color="#298BD0"/>
<stop offset="1" stop-color="#0169C2"/>
</linearGradient>
<linearGradient id="paint19_linear_891_1405" x1="143.556" y1="716.203" x2="668.98" y2="123.099" gradientUnits="userSpaceOnUse">
<stop stop-color="#7ED4EF"/>
<stop offset="0.2294" stop-color="#66BFE6"/>
<stop offset="0.711" stop-color="#298BD0"/>
<stop offset="1" stop-color="#0169C2"/>
</linearGradient>
<linearGradient id="paint20_linear_891_1405" x1="139.961" y1="716.528" x2="668.368" y2="120.06" gradientUnits="userSpaceOnUse">
<stop stop-color="#7ED4EF"/>
<stop offset="0.2294" stop-color="#66BFE6"/>
<stop offset="0.711" stop-color="#298BD0"/>
<stop offset="1" stop-color="#0169C2"/>
</linearGradient>
<linearGradient id="paint21_linear_891_1405" x1="136.37" y1="716.858" x2="667.76" y2="117.026" gradientUnits="userSpaceOnUse">
<stop stop-color="#7ED4EF"/>
<stop offset="0.2294" stop-color="#66BFE6"/>
<stop offset="0.711" stop-color="#298BD0"/>
<stop offset="1" stop-color="#0169C2"/>
</linearGradient>
<linearGradient id="paint22_linear_891_1405" x1="132.783" y1="717.19" x2="667.155" y2="113.994" gradientUnits="userSpaceOnUse">
<stop stop-color="#7ED4EF"/>
<stop offset="0.2294" stop-color="#66BFE6"/>
<stop offset="0.711" stop-color="#298BD0"/>
<stop offset="1" stop-color="#0169C2"/>
</linearGradient>
<linearGradient id="paint23_linear_891_1405" x1="129.199" y1="717.525" x2="666.554" y2="110.965" gradientUnits="userSpaceOnUse">
<stop stop-color="#7ED4EF"/>
<stop offset="0.2294" stop-color="#66BFE6"/>
<stop offset="0.711" stop-color="#298BD0"/>
<stop offset="1" stop-color="#0169C2"/>
</linearGradient>
<linearGradient id="paint24_linear_891_1405" x1="125.618" y1="717.862" x2="665.955" y2="107.938" gradientUnits="userSpaceOnUse">
<stop stop-color="#7ED4EF"/>
<stop offset="0.2294" stop-color="#66BFE6"/>
<stop offset="0.711" stop-color="#298BD0"/>
<stop offset="1" stop-color="#0169C2"/>
</linearGradient>
<linearGradient id="paint25_linear_891_1405" x1="122.039" y1="718.202" x2="665.358" y2="104.914" gradientUnits="userSpaceOnUse">
<stop stop-color="#7ED4EF"/>
<stop offset="0.2294" stop-color="#66BFE6"/>
<stop offset="0.711" stop-color="#298BD0"/>
<stop offset="1" stop-color="#0169C2"/>
</linearGradient>
<linearGradient id="paint26_linear_891_1405" x1="118.463" y1="718.544" x2="664.764" y2="101.892" gradientUnits="userSpaceOnUse">
<stop stop-color="#7ED4EF"/>
<stop offset="0.2294" stop-color="#66BFE6"/>
<stop offset="0.711" stop-color="#298BD0"/>
<stop offset="1" stop-color="#0169C2"/>
</linearGradient>
<linearGradient id="paint27_linear_891_1405" x1="114.888" y1="718.887" x2="664.171" y2="98.8706" gradientUnits="userSpaceOnUse">
<stop stop-color="#7ED4EF"/>
<stop offset="0.2294" stop-color="#66BFE6"/>
<stop offset="0.711" stop-color="#298BD0"/>
<stop offset="1" stop-color="#0169C2"/>
</linearGradient>
<linearGradient id="paint28_linear_891_1405" x1="111.315" y1="719.231" x2="663.58" y2="95.8512" gradientUnits="userSpaceOnUse">
<stop stop-color="#7ED4EF"/>
<stop offset="0.2294" stop-color="#66BFE6"/>
<stop offset="0.711" stop-color="#298BD0"/>
<stop offset="1" stop-color="#0169C2"/>
</linearGradient>
<linearGradient id="paint29_linear_891_1405" x1="107.744" y1="719.578" x2="662.99" y2="92.8333" gradientUnits="userSpaceOnUse">
<stop stop-color="#7ED4EF"/>
<stop offset="0.2294" stop-color="#66BFE6"/>
<stop offset="0.711" stop-color="#298BD0"/>
<stop offset="1" stop-color="#0169C2"/>
</linearGradient>
<linearGradient id="paint30_linear_891_1405" x1="104.175" y1="719.924" x2="662.402" y2="89.8161" gradientUnits="userSpaceOnUse">
<stop stop-color="#7ED4EF"/>
<stop offset="0.2294" stop-color="#66BFE6"/>
<stop offset="0.711" stop-color="#298BD0"/>
<stop offset="1" stop-color="#0169C2"/>
</linearGradient>
<linearGradient id="paint31_linear_891_1405" x1="100.606" y1="720.273" x2="661.814" y2="86.8003" gradientUnits="userSpaceOnUse">
<stop stop-color="#7ED4EF" stop-opacity="0.63"/>
<stop offset="0.2294" stop-color="#66BFE6"/>
<stop offset="0.711" stop-color="#38D8CC" stop-opacity="0.31"/>
<stop offset="1" stop-color="#38D8CC"/>
</linearGradient>
</defs>
</svg>
