<svg width="60" height="30" viewBox="0 0 60 30" fill="none" xmlns="http://www.w3.org/2000/svg">
<path d="M2.75 0C1.215 0 3.97024e-08 1.2 3.97024e-08 2.7C-6.1491e-05 3.05882 0.0713978 3.41404 0.210201 3.74493C0.349005 4.07581 0.552369 4.3757 0.808407 4.62708C1.06444 4.87847 1.36802 5.0763 1.70139 5.209C2.03477 5.34171 2.39125 5.40664 2.75 5.4C4.3 5.4 5.525 4.2 5.525 2.7C5.525 1.2 4.3 0 2.75 0ZM21.775 0.05C13.375 0.05 8.125 5.775 8.125 14.875C8.125 24.05 13.375 29.75 21.775 29.75C30.125 29.75 35.4 24.05 35.4 14.875C35.4 5.775 30.125 0.05 21.775 0.05ZM48.875 0.05C42.625 0.05 38.175 3.5 38.175 8.625C38.175 12.7 40.7 15.25 46 16.475L49.725 17.375C53.35 18.2 54.825 19.4 54.825 21.475C54.825 23.875 52.4 25.575 48.95 25.575C45.425 25.575 42.775 23.85 42.5 21.2H37.5C37.7 26.5 42.05 29.75 48.65 29.75C55.625 29.75 60 26.325 60 20.875C60 16.6 57.5 14.175 51.7 12.85L48.375 12.1C44.85 11.25 43.4 10.125 43.4 8.225C43.4 5.825 45.6 4.225 48.85 4.225C52.125 4.225 54.375 5.85 54.625 8.525H59.525C59.4 3.475 55.225 0.05 48.875 0.05ZM21.775 4.425C26.875 4.425 30.15 8.5 30.15 14.875C30.15 21.3 26.875 25.375 21.775 25.375C16.625 25.375 13.375 21.3 13.375 14.875C13.375 8.5 16.625 4.425 21.775 4.425ZM0.2775 8.15V29.275H5.25V8.15H0.275H0.2775Z" fill="#F0F0F0"/>
</svg>
