<svg width="134" height="134" viewBox="0 0 134 134" fill="none" xmlns="http://www.w3.org/2000/svg">
<g filter="url(#filter0_d_1603_4841)">
<path d="M127.261 27.1516C127.549 27.8455 127.625 28.6093 127.479 29.3462C127.333 30.0832 126.972 30.7603 126.441 31.292L111.247 46.4859C110.894 46.8384 110.474 47.1178 110.013 47.3081C109.551 47.4985 109.057 47.596 108.558 47.5951H87.3398L77.0612 57.8738C78.2198 60.2995 78.4836 63.0567 77.806 65.658C77.1283 68.2594 75.5529 70.5375 73.358 72.0895C71.1632 73.6416 68.4903 74.3678 65.8119 74.1397C63.1334 73.9117 60.6218 72.744 58.721 70.8432C56.8202 68.9423 55.6525 66.4307 55.4245 63.7522C55.1964 61.0737 55.9226 58.4008 57.4746 56.2059C59.0267 54.0111 61.3047 52.4356 63.9061 51.7579C66.5074 51.0803 69.2646 51.3441 71.6902 52.5027L81.9688 42.224V21.0057C81.9679 20.5065 82.0654 20.0121 82.2557 19.5506C82.446 19.0891 82.7254 18.6697 83.0779 18.3163L98.2717 3.12237C98.8029 2.58977 99.4804 2.22691 100.218 2.07978C100.956 1.93265 101.721 2.00788 102.416 2.29594C103.11 2.584 103.704 3.07191 104.121 3.69782C104.539 4.32373 104.761 5.05945 104.759 5.8117V24.8041H123.752C124.503 24.8043 125.238 25.0274 125.863 25.4453C126.488 25.8631 126.974 26.457 127.261 27.1516ZM114.582 32.4011H100.961C99.9536 32.4011 98.9874 32.0009 98.2751 31.2886C97.5627 30.5762 97.1626 29.6101 97.1626 28.6026V14.9813L89.5657 22.5782V39.9981H106.985L114.582 32.4011ZM124.564 43.9105C126.502 49.8514 127.55 56.2024 127.55 62.789C127.547 75.6274 123.479 88.1352 115.929 98.5187C108.378 108.902 97.7339 116.628 85.5217 120.588C73.3095 124.548 60.1568 124.539 47.95 120.563C35.7432 116.586 25.1091 108.846 17.5729 98.452C10.0367 88.0583 5.98542 75.545 6.00004 62.7066C6.01466 49.8682 10.0944 37.3642 17.6543 26.9877C25.2142 16.6112 35.8658 8.89523 48.0816 4.94634C60.2975 0.99746 73.4501 1.01849 85.6533 5.00642L79.515 11.1448C68.2381 8.36424 56.361 9.35215 45.6985 13.9576C35.0359 18.563 26.1743 26.5326 20.4677 36.6487C14.761 46.7648 12.5231 58.4711 14.096 69.9789C15.6689 81.4866 20.966 92.163 29.178 100.377C37.39 108.59 48.0652 113.89 59.5725 115.465C71.0798 117.04 82.7864 114.804 92.9035 109.1C103.021 103.395 110.992 94.5347 115.599 83.8729C120.207 73.2111 121.197 61.3341 118.419 50.0565L124.564 43.9105ZM104 55.192C105.631 63.1922 104.642 71.5051 101.178 78.8986C97.7136 86.2921 91.9594 92.3726 84.7681 96.2389C77.5768 100.105 69.3312 101.551 61.2534 100.363C53.1757 99.1748 45.6958 95.4153 39.9224 89.6419C34.1491 83.8686 30.3897 76.3886 29.2015 68.3107C28.0132 60.2328 29.4594 51.9871 33.3256 44.7957C37.1918 37.6043 43.2723 31.8501 50.6657 28.386C58.0591 24.9219 66.3719 23.9323 74.3719 25.5638V33.3583C67.9181 31.6934 61.096 32.1965 54.9562 34.7902C48.8165 37.3838 43.6998 41.9242 40.3942 47.7118C37.0887 53.4995 35.7776 60.2135 36.663 66.8195C37.5483 73.4256 40.581 79.5574 45.2939 84.2704C50.0069 88.9833 56.1386 92.0161 62.7446 92.9015C69.3506 93.7869 76.0644 92.4758 81.852 89.1702C87.6396 85.8645 92.1799 80.7478 94.7735 74.6079C97.3672 68.4681 97.8703 61.6459 96.2053 55.192H104Z" fill="white"/>
</g>
<defs>
<filter id="filter0_d_1603_4841" x="0" y="0" width="133.551" height="133.551" filterUnits="userSpaceOnUse" color-interpolation-filters="sRGB">
<feFlood flood-opacity="0" result="BackgroundImageFix"/>
<feColorMatrix in="SourceAlpha" type="matrix" values="0 0 0 0 0 0 0 0 0 0 0 0 0 0 0 0 0 0 127 0" result="hardAlpha"/>
<feOffset dy="4"/>
<feGaussianBlur stdDeviation="3"/>
<feComposite in2="hardAlpha" operator="out"/>
<feColorMatrix type="matrix" values="0 0 0 0 0.219608 0 0 0 0 0.847059 0 0 0 0 0.8 0 0 0 0.66 0"/>
<feBlend mode="normal" in2="BackgroundImageFix" result="effect1_dropShadow_1603_4841"/>
<feBlend mode="normal" in="SourceGraphic" in2="effect1_dropShadow_1603_4841" result="shape"/>
</filter>
</defs>
</svg>
