<svg width="20" height="20" viewBox="0 0 20 20" fill="none" xmlns="http://www.w3.org/2000/svg">
<path d="M17.8949 9.47264H20.0002C20.0002 4.07263 15.9234 0 10.516 0V2.10526C14.7918 2.10526 17.8949 5.20316 17.8949 9.47264Z" fill="white"/>
<path d="M10.5266 6.31566C12.7403 6.31566 13.6845 7.25987 13.6845 9.47356H15.7898C15.7898 6.07882 13.9214 4.21039 10.5266 4.21039V6.31566ZM14.1287 12.0451C13.9265 11.8613 13.6607 11.7633 13.3875 11.7717C13.1143 11.7801 12.855 11.8944 12.6645 12.0904L10.1456 14.6809C9.53925 14.5651 8.3203 14.1851 7.06557 12.9336C5.81083 11.6778 5.43083 10.4557 5.3182 9.85356L7.90662 7.33356C8.10284 7.14316 8.21729 6.88389 8.22574 6.61061C8.23419 6.33734 8.13597 6.07149 7.95188 5.86934L4.06241 1.5925C3.87824 1.38972 3.62228 1.26671 3.34888 1.24961C3.07549 1.23251 2.80619 1.32266 2.59819 1.50092L0.313982 3.45987C0.131993 3.64252 0.02337 3.88561 0.00871786 4.14303C-0.00707162 4.40618 -0.308124 10.6399 4.52556 15.4757C8.74241 19.6915 14.0245 19.9999 15.4793 19.9999C15.6919 19.9999 15.8224 19.9936 15.8572 19.9915C16.1145 19.9771 16.3575 19.8679 16.5393 19.6851L18.4972 17.3999C18.6755 17.192 18.7659 16.9228 18.749 16.6494C18.7321 16.376 18.6093 16.12 18.4066 15.9357L14.1287 12.0451Z" fill="white"/>
</svg>
