<svg width="71" height="66" viewBox="0 0 71 66" fill="none" xmlns="http://www.w3.org/2000/svg">
<path d="M41.7483 33.0077C41.7483 34.8383 41.0588 36.5939 39.8314 37.8886C38.604 39.1833 36.9391 39.911 35.2029 39.9119C33.4662 39.9119 31.8006 39.1845 30.5726 37.8897C29.3445 36.5949 28.6546 34.8388 28.6546 33.0077C28.6546 31.1772 29.3441 29.4215 30.5716 28.1268C31.799 26.8322 33.4638 26.1044 35.2 26.1036C36.9367 26.1036 38.6023 26.831 39.8303 28.1258C41.0584 29.4205 41.7483 31.1766 41.7483 33.0077ZM49.5031 0C45.5613 0 40.4041 2.96421 35.1883 8.096C29.9754 2.992 24.8153 0.0617543 20.8764 0.0617543C19.6756 0.0617543 18.5833 0.348912 17.6374 0.92014C13.6106 3.3687 12.7086 10.9985 14.7879 20.5735C5.87328 23.4759 0.074707 28.1168 0.074707 33.0077C0.074707 37.9172 5.90257 42.5704 14.8435 45.4512C12.7818 55.0633 13.7014 62.7054 17.7369 65.1509C18.6741 65.7283 19.7576 66 20.9642 66C24.9031 66 30.0633 63.0358 35.2791 57.8978C40.4919 63.0049 45.6521 65.9352 49.591 65.9352C50.7917 65.9352 51.8841 65.6573 52.83 65.086C56.8539 62.6406 57.7588 55.0108 55.6795 45.4327C64.5619 42.5549 70.3604 37.9048 70.3604 33.0077C70.3604 28.0982 64.5326 23.4451 55.5916 20.558C57.6534 10.9552 56.7338 3.30695 52.6982 0.858386C51.7669 0.290246 50.6863 0.00308772 49.5031 0ZM49.4885 3.36561V3.38414C50.1474 3.38414 50.6775 3.52 51.1226 3.77628C53.0731 4.95579 53.9194 9.44225 53.2605 15.2132C53.1023 16.6335 52.8446 18.1311 52.5283 19.6595C49.7169 18.9308 46.6536 18.3719 43.4293 18.0107C41.4964 15.2163 39.4903 12.6782 37.4696 10.455C42.1319 5.88519 46.5101 3.37796 49.4914 3.3687L49.4885 3.36561ZM20.8764 3.42737C23.8401 3.42737 28.2388 5.92225 32.9128 10.4674C30.9038 12.6905 28.9006 15.2132 26.9971 18.0076C23.7551 18.3688 20.6889 18.9277 17.8804 19.6688C17.5524 18.1558 17.3094 16.6922 17.1366 15.2842C16.463 9.51635 17.2947 5.03298 19.2276 3.83803C19.784 3.56014 20.399 3.44281 20.8764 3.42737ZM35.1736 12.8449C36.5061 14.29 37.8386 15.9079 39.1565 17.6741C37.8679 17.6124 36.5501 17.5691 35.2176 17.5691C33.8704 17.5691 32.5379 17.6 31.2347 17.6741C32.5233 15.9079 33.8558 14.2931 35.1736 12.8449ZM35.2176 20.9533C37.3847 20.9533 39.5431 21.0582 41.6663 21.2404C42.8553 23.0375 44.015 24.9549 45.1308 26.9836C46.2202 28.9597 47.2101 30.9667 48.1121 32.9923C47.2101 35.0147 46.2202 37.0372 45.1454 39.0133C44.0326 41.0512 42.8816 42.9903 41.6897 44.7874C39.5577 44.9819 37.3964 45.09 35.2176 45.09C33.0504 45.09 30.8921 44.9819 28.7689 44.8028C27.5799 43.0058 26.4201 41.0852 25.3043 39.0596C24.2149 37.0835 23.2251 35.0765 22.3231 33.0509C23.2104 31.0223 24.2149 28.9968 25.2897 27.0175C26.4026 24.9796 27.5535 23.0467 28.7454 21.2497C30.8774 21.0521 33.0387 20.9471 35.2176 20.9471V20.9533ZM24.5722 21.7375C23.8694 22.9016 23.1665 24.0935 22.5105 25.3193C21.8516 26.5235 21.2366 27.7339 20.6509 28.9443C19.8748 26.9187 19.2158 24.8994 18.6711 22.9325C20.5454 22.4693 22.5222 22.0556 24.5722 21.7375ZM45.8336 21.7375C47.869 22.0556 49.8311 22.4477 51.7084 22.9325C51.1812 24.8839 50.5223 26.8909 49.7755 28.9011C49.1898 27.6968 48.5748 26.4834 47.9012 25.2761C47.2423 24.0657 46.5394 22.8862 45.8366 21.7375H45.8336ZM54.8038 23.8218C56.2213 24.2849 57.5684 24.8006 58.8306 25.3594C63.9029 27.6444 67.1829 30.6333 67.1829 33.0046C67.1683 35.376 63.8883 38.3773 58.816 40.6467C57.586 41.2025 56.2388 41.7027 54.8478 42.169C54.0278 39.2109 52.9559 36.1294 51.6264 32.9676C52.9442 29.8274 53.9985 26.7613 54.8038 23.8156V23.8218ZM15.5756 23.8341C16.3898 26.7983 17.4646 29.8768 18.7971 33.0355C17.4792 36.1757 16.4191 39.2418 15.6166 42.1875C14.1992 41.7243 12.8521 41.2056 11.6045 40.6437C6.53221 38.368 3.25221 35.376 3.25221 33.0046C3.25221 30.6333 6.53221 27.6258 11.6045 25.3594C12.8345 24.8036 14.1816 24.3034 15.5756 23.8341ZM49.7755 37.0495C50.5516 39.0782 51.2105 41.1006 51.7552 43.0644C49.8809 43.5492 47.9012 43.9599 45.8512 44.2686C46.5541 43.1107 47.2569 41.9158 47.9159 40.6931C48.5748 39.4888 49.1869 38.2599 49.7755 37.0495ZM20.6509 37.1113C21.2366 38.3217 21.8516 39.529 22.5251 40.7394C23.1987 41.9436 23.8869 43.1231 24.5898 44.2686C22.5544 43.9537 20.5923 43.5585 18.7151 43.0768C19.2422 41.1315 19.9041 39.1183 20.6479 37.1082L20.6509 37.1113ZM52.5547 46.3343C52.8827 47.8566 53.1404 49.3232 53.2986 50.7281C53.9721 56.496 53.1404 60.9794 51.2076 62.1774C50.7771 62.4553 50.2177 62.5726 49.5588 62.5726C46.5951 62.5726 42.1964 60.0808 37.5224 55.5326C39.5313 53.3095 41.5345 50.7899 43.4381 47.9986C46.68 47.6342 49.7462 47.0754 52.5547 46.3343ZM17.9097 46.3652C20.7211 47.0877 23.7844 47.6466 27.0088 48.0079C28.9416 50.8022 30.9477 53.3404 32.9684 55.5604C28.2974 60.1395 23.9133 62.6467 20.932 62.6467C20.2877 62.6313 19.743 62.4924 19.3125 62.2392C17.3621 61.0658 16.5157 56.5763 17.1746 50.8053C17.3328 49.385 17.5934 47.8905 17.9097 46.3652ZM31.264 48.3413C32.5526 48.4031 33.8704 48.4463 35.2029 48.4463C36.5501 48.4463 37.8826 48.4154 39.1858 48.3413C37.8972 50.1075 36.5647 51.7224 35.2469 53.1736C33.9144 51.7224 32.5818 50.1075 31.264 48.3413Z" fill="#F5F5F5"/>
</svg>
