<svg width="60" height="57" viewBox="0 0 60 57" fill="none" xmlns="http://www.w3.org/2000/svg">
<path d="M41.5843 39.7094C43.7593 39.5219 45.4417 37.6094 45.3342 35.3244C45.2167 33.0395 43.3443 31.2045 41.0618 31.2045H40.9093C39.7766 31.2449 38.7063 31.7334 37.9338 32.5628C37.1612 33.3921 36.7495 34.4942 36.7894 35.6269C36.8644 36.8244 37.3544 37.7994 38.0244 38.5094C35.4044 43.6043 31.472 47.3492 25.5121 50.4967C21.5046 52.5917 17.2722 53.3816 13.1523 52.8217C9.70731 52.3342 7.01235 50.7967 5.36238 48.3242C2.89242 44.5768 2.66742 40.5344 4.72489 36.4894C6.22486 33.5645 8.47233 31.432 9.97231 30.382C9.51949 29.1264 9.16836 27.8365 8.92232 26.5246C-2.17 34.4694 -1.04002 45.3293 2.32993 50.4617C4.83989 54.2066 9.97231 56.6016 15.5897 56.6016C17.0897 56.6016 18.6647 56.4916 20.1971 56.1166C29.9395 54.2441 37.3169 48.4017 41.5493 39.7869L41.5843 39.7094ZM54.9541 30.3445C49.1542 23.5246 40.6093 19.7797 30.8695 19.7797H29.5945C28.962 18.3947 27.502 17.5322 25.8496 17.5322H25.7371C23.3796 17.5322 21.5421 19.5572 21.6196 21.9146C21.6946 24.1596 23.6046 26.0346 25.8896 26.0346H26.0746C26.885 26.0033 27.6693 25.7393 28.3338 25.2743C28.9983 24.8093 29.515 24.1628 29.822 23.4121H31.2095C36.9819 23.4121 42.4468 25.0971 47.4292 28.392C51.2467 30.9045 53.9841 34.1995 55.5216 38.1344C56.8666 41.3543 56.7941 44.5018 55.4091 47.1267C53.2716 51.2442 49.6742 53.4191 44.9193 53.4191C41.9218 53.4191 39.0018 52.4817 37.5019 51.8092C36.6019 52.5542 35.1019 53.7916 34.0169 54.5416C37.3119 56.0366 40.6468 56.8991 43.8668 56.8991C51.1717 56.8991 56.6016 52.7817 58.664 48.8092C60.909 44.3143 60.724 36.7494 54.9891 30.2695L54.9541 30.3445ZM16.2247 41.0543C16.2997 43.3018 18.2072 45.1743 20.4946 45.1743H20.6446C21.2076 45.1616 21.7623 45.0363 22.2761 44.8059C22.7899 44.5755 23.2524 44.2447 23.6363 43.8328C24.0202 43.4209 24.3178 42.9363 24.5116 42.4076C24.7054 41.8789 24.7914 41.3168 24.7646 40.7543C24.7646 38.5044 22.8171 36.6369 20.5321 36.6369H20.3821C20.2321 36.6369 20.0071 36.6369 19.8171 36.7094C16.7097 31.4645 15.3972 25.8421 15.8872 19.7797C16.1872 15.2098 17.6872 11.2373 20.3796 7.94237C22.6296 5.13242 26.862 3.74244 29.747 3.67244C37.8369 3.51994 41.2093 13.5998 41.4693 17.6072L45.2142 18.7322C44.3518 6.4424 36.7144 0 29.4095 0C22.5496 0 16.2247 4.98242 13.6747 12.2873C10.1923 22.0246 12.4773 31.392 16.7497 38.8844C16.3747 39.3719 16.1497 40.2319 16.2247 41.0543Z" fill="#F5F5F5"/>
</svg>
