<svg width="61" height="60" viewBox="0 0 61 60" fill="none" xmlns="http://www.w3.org/2000/svg">
<path d="M50.4647 0.025C58.0472 1.3375 60.1972 6.52 60.0372 11.95L60.0747 11.8725L56.6622 56.5925L12.2997 59.6325H12.3397C8.65721 59.4775 0.449707 59.14 0.074707 47.665L4.18721 40.165L11.2347 56.63L12.4922 59.56L19.5047 36.7L19.4297 36.7175L19.4697 36.6425L42.6072 44.0325L39.1172 30.455L36.6422 20.705L58.6922 19.2825L57.1547 18.0075L41.3247 5.1025L50.4722 0L50.4647 0.025ZM12.8997 12.5C21.8022 3.6675 33.2922 -1.5525 37.7047 2.9C42.1097 7.3425 37.4422 18.1625 28.5222 26.99C19.6147 35.82 8.26471 41.325 3.86221 36.8825C-0.552793 32.44 3.97471 21.34 12.8922 12.5075L12.8997 12.5Z" fill="#F0F0F0"/>
</svg>
