<svg width="60" height="61" viewBox="0 0 60 61" fill="none" xmlns="http://www.w3.org/2000/svg">
<path d="M59.587 29.9506L57.0687 28.3915C57.0478 28.1466 57.0242 27.9019 56.998 27.6575L59.162 25.6402C59.2687 25.5389 59.3481 25.4122 59.3926 25.272C59.4371 25.1317 59.4453 24.9824 59.4165 24.8381C59.3877 24.6938 59.3228 24.5591 59.2278 24.4467C59.1329 24.3343 59.011 24.2478 58.8735 24.1952L56.1069 23.1602C56.0386 22.9209 55.9661 22.6829 55.8894 22.4462L57.6155 20.0494C57.702 19.9296 57.7565 19.7897 57.7736 19.643C57.7908 19.4962 57.7701 19.3476 57.7135 19.2111C57.657 19.0746 57.5664 18.9548 57.4505 18.8633C57.3345 18.7717 57.1971 18.7113 57.0512 18.6879L54.1354 18.2144C54.0216 17.994 53.9044 17.7755 53.7837 17.5588L55.0087 14.8686C55.0704 14.7344 55.0965 14.5866 55.0846 14.4394C55.0726 14.2923 55.0228 14.1507 54.9402 14.0283C54.8578 13.9057 54.7456 13.806 54.6142 13.7387C54.4827 13.6713 54.3363 13.6385 54.1887 13.6433L51.2274 13.7473C51.0754 13.5549 50.9193 13.3659 50.7591 13.1803L51.4399 10.2977C51.4735 10.154 51.4699 10.004 51.4294 9.86206C51.389 9.72008 51.313 9.59078 51.2086 9.48636C51.1042 9.38195 50.975 9.30588 50.833 9.26534C50.6911 9.22481 50.5411 9.22115 50.3973 9.25471L47.5143 9.93572C47.3261 9.77764 47.1363 9.62155 46.9448 9.46746L47.0485 6.50616C47.0556 6.358 47.0242 6.21053 46.9575 6.07805C46.8908 5.94558 46.7909 5.83261 46.6677 5.7501C46.5444 5.66759 46.4019 5.61834 46.254 5.60714C46.1061 5.59593 45.9578 5.62315 45.8235 5.68615L43.1335 6.91367C42.9155 6.79467 42.698 6.67566 42.4777 6.56191L42.002 3.64361C41.9772 3.49846 41.9161 3.36195 41.8243 3.24684C41.7324 3.13174 41.6129 3.0418 41.4769 2.98543C41.3409 2.92907 41.1928 2.90812 41.0464 2.92454C40.9001 2.94097 40.7603 2.99423 40.6402 3.07935L38.2409 4.80563C38.0042 4.72979 37.7663 4.65811 37.5271 4.59063L36.4921 1.82408C36.4396 1.68657 36.3531 1.56461 36.2406 1.46961C36.1282 1.37461 35.9935 1.30967 35.8491 1.28085C35.7048 1.25204 35.5555 1.26029 35.4152 1.30483C35.2749 1.34938 35.1481 1.42877 35.0468 1.53558L33.0296 3.70211C32.7853 3.67457 32.5406 3.6509 32.2955 3.63111L30.7365 1.11257C30.659 0.986955 30.5506 0.883258 30.4217 0.811337C30.2928 0.739415 30.1476 0.70166 30 0.70166C29.8524 0.70166 29.7072 0.739415 29.5783 0.811337C29.4494 0.883258 29.341 0.986955 29.2635 1.11257L27.7045 3.63086C27.4595 3.6519 27.2149 3.67557 26.9705 3.70186L24.9507 1.53533C24.85 1.42721 24.7234 1.34663 24.5829 1.30128C24.4423 1.25592 24.2925 1.24729 24.1476 1.27621C24.0028 1.30513 23.8677 1.37063 23.7554 1.46649C23.643 1.56234 23.557 1.68536 23.5056 1.82383L22.4704 4.59013C22.2299 4.65863 21.9946 4.73188 21.7566 4.80513L19.3598 3.07935C19.2397 2.99423 19.0999 2.94097 18.9535 2.92456C18.8072 2.90815 18.6591 2.92912 18.523 2.98551C18.387 3.0419 18.2675 3.13188 18.1757 3.24701C18.0839 3.36215 18.0227 3.49869 17.9981 3.64386L17.5223 6.56191C17.3019 6.67568 17.0834 6.79295 16.8668 6.91367L14.1762 5.68615C14.0418 5.62465 13.8939 5.59859 13.7466 5.61046C13.5993 5.62232 13.4575 5.67172 13.3346 5.75393C13.2118 5.83615 13.1121 5.94844 13.045 6.08012C12.9779 6.2118 12.9456 6.35847 12.9512 6.50616L13.0552 9.46746C12.8625 9.62003 12.6726 9.77614 12.4857 9.93572L9.60291 9.25446C9.45915 9.22086 9.30921 9.22449 9.16724 9.26499C9.02528 9.30549 8.89599 9.38153 8.7916 9.48592C8.68721 9.59031 8.61117 9.7196 8.57067 9.86156C8.53017 10.0035 8.52655 10.1535 8.56014 10.2972L9.2384 13.18C9.0814 13.3675 8.92465 13.5573 8.77264 13.747L5.81134 13.6433C5.66365 13.6376 5.51698 13.6699 5.3853 13.7371C5.25363 13.8042 5.14133 13.9039 5.05911 14.0267C4.9769 14.1495 4.92751 14.2914 4.91564 14.4387C4.90378 14.586 4.92983 14.7339 4.99133 14.8683L6.21885 17.5586C6.09806 17.7752 5.98079 17.9937 5.86709 18.2141L2.95155 18.6876C2.80641 18.7123 2.66991 18.7734 2.55481 18.8652C2.43971 18.957 2.34976 19.0765 2.29338 19.2125C2.23699 19.3485 2.216 19.4966 2.23238 19.6429C2.24876 19.7892 2.30197 19.929 2.38704 20.0491L4.11307 22.4459C4.0379 22.683 3.96539 22.921 3.89556 23.1597L1.12927 24.1947C0.991731 24.2472 0.869751 24.3337 0.774724 24.4461C0.679698 24.5586 0.614728 24.6933 0.585886 24.8376C0.557044 24.982 0.565272 25.1313 0.609801 25.2716C0.65433 25.4119 0.733706 25.5387 0.840511 25.64L3.00455 27.6575C2.97708 27.9017 2.9535 28.1463 2.9338 28.3913L0.415504 29.9503C0.288705 30.0269 0.183833 30.135 0.11104 30.264C0.0382476 30.393 0 30.5387 0 30.6868C0 30.835 0.0382476 30.9806 0.11104 31.1096C0.183833 31.2387 0.288705 31.3467 0.415504 31.4233L2.9338 32.9824C2.9538 33.2279 2.9793 33.4734 3.00455 33.7164L0.840511 35.7362C0.732394 35.8368 0.651833 35.9634 0.606494 36.104C0.561156 36.2446 0.552549 36.3944 0.581493 36.5393C0.610437 36.6841 0.675968 36.8191 0.77185 36.9315C0.867733 37.0439 0.990775 37.1298 1.12927 37.1812L3.89556 38.2164C3.96381 38.457 4.03731 38.695 4.11307 38.9302L2.38704 41.327C2.29968 41.4467 2.24464 41.587 2.22721 41.7341C2.20978 41.8813 2.23055 42.0305 2.28752 42.1674C2.3445 42.3042 2.43575 42.424 2.55249 42.5154C2.66923 42.6067 2.80752 42.6664 2.95405 42.6888L5.8696 43.162C5.9836 43.382 6.1001 43.5998 6.2216 43.8175L4.99408 46.5081C4.93258 46.6425 4.90653 46.7904 4.91839 46.9377C4.93026 47.085 4.97965 47.2269 5.06186 47.3497C5.14408 47.4725 5.25638 47.5722 5.38805 47.6393C5.51973 47.7065 5.6664 47.7387 5.81409 47.7331L8.77264 47.6294C8.92715 47.8216 9.0814 48.0114 9.2409 48.1986L8.56264 51.0839C8.52883 51.2276 8.53233 51.3775 8.5728 51.5195C8.61328 51.6614 8.68938 51.7907 8.79387 51.8949C8.89837 51.9991 9.02779 52.0749 9.16983 52.1151C9.31187 52.1552 9.46181 52.1583 9.60541 52.1242L12.488 51.4459C12.6755 51.6054 12.8655 51.7597 13.0577 51.9117L12.954 54.873C12.9474 55.0209 12.979 55.1681 13.046 55.3002C13.1129 55.4323 13.2128 55.5449 13.336 55.6272C13.4591 55.7094 13.6015 55.7584 13.7492 55.7695C13.8968 55.7806 14.0449 55.7534 14.179 55.6905L16.8693 54.4655C17.0868 54.587 17.3045 54.7032 17.5248 54.8172L18.0006 57.7328C18.0249 57.8782 18.0858 58.015 18.1774 58.1304C18.2691 58.2459 18.3886 58.3362 18.5246 58.3928C18.6607 58.4495 18.809 58.4707 18.9555 58.4544C19.102 58.4381 19.242 58.3849 19.3623 58.2998L21.7591 56.5738C21.9959 56.6501 22.2338 56.7226 22.4729 56.7913L23.5079 59.5578C23.5587 59.6968 23.6444 59.8204 23.7568 59.9168C23.8691 60.0131 24.0044 60.0789 24.1495 60.1079C24.2947 60.1368 24.4448 60.128 24.5856 60.0822C24.7263 60.0364 24.8529 59.9552 24.9532 59.8463L26.973 57.6823C27.216 57.71 27.4615 57.733 27.707 57.7558L29.266 60.2741C29.344 60.3991 29.4525 60.5022 29.5814 60.5737C29.7102 60.6452 29.8551 60.6827 30.0025 60.6827C30.1499 60.6827 30.2948 60.6452 30.4237 60.5737C30.5525 60.5022 30.661 60.3991 30.739 60.2741L32.298 57.7558C32.5435 57.733 32.7891 57.71 33.0321 57.6823L35.0493 59.8463C35.1506 59.9531 35.2773 60.0324 35.4176 60.0769C35.5579 60.1214 35.7072 60.1297 35.8515 60.1008C35.9958 60.072 36.1304 60.0071 36.2429 59.9121C36.3553 59.8172 36.4418 59.6953 36.4944 59.5578L37.5296 56.7913C37.7688 56.723 38.0068 56.6504 38.2434 56.5738L40.6402 58.2998C40.7599 58.3871 40.9001 58.4422 41.0473 58.4596C41.1945 58.477 41.3437 58.4563 41.4805 58.3993C41.6174 58.3423 41.7372 58.2511 41.8286 58.1343C41.9199 58.0176 41.9796 57.8793 42.002 57.7328L42.4777 54.8172C42.6977 54.7032 42.9155 54.5845 43.1332 54.4655L45.8238 55.6905C45.958 55.7511 46.1055 55.7766 46.2523 55.7646C46.3991 55.7525 46.5405 55.7033 46.663 55.6215C46.7855 55.5397 46.8853 55.4281 46.9527 55.2971C47.0202 55.1662 47.0533 55.0202 47.0488 54.873L46.945 51.9117C47.1373 51.7606 47.3263 51.6053 47.5118 51.4459L50.3946 52.1242C50.5381 52.1576 50.6877 52.1539 50.8294 52.1136C50.971 52.0732 51.1001 51.9974 51.2044 51.8934C51.3087 51.7893 51.3848 51.6605 51.4256 51.5189C51.4663 51.3773 51.4704 51.2277 51.4374 51.0842L50.7591 48.1986C50.9161 48.0114 51.0729 47.8216 51.2249 47.6291L54.1862 47.7329C54.3343 47.7399 54.4818 47.7086 54.6143 47.6418C54.7467 47.5751 54.8597 47.4753 54.9422 47.352C55.0247 47.2287 55.074 47.0862 55.0852 46.9383C55.0964 46.7904 55.0692 46.6421 55.0062 46.5078L53.7812 43.8178C53.8999 43.5998 54.0189 43.3823 54.1329 43.162L57.0485 42.6888C57.1936 42.6641 57.3302 42.603 57.4453 42.5112C57.5604 42.4193 57.6504 42.2998 57.7068 42.1638C57.7632 42.0278 57.7842 41.8796 57.7678 41.7333C57.7514 41.587 57.6981 41.4472 57.613 41.327L55.8869 38.9302L56.1044 38.2164L58.871 37.1814C59.0095 37.1301 59.1326 37.0441 59.2285 36.9317C59.3244 36.8193 59.3899 36.6842 59.4188 36.5394C59.4477 36.3945 59.4391 36.2446 59.3937 36.104C59.3483 35.9634 59.2677 35.8368 59.1595 35.7362L56.9955 33.7164C57.0207 33.4734 57.046 33.2279 57.0662 32.9824L59.5845 31.4233C59.7113 31.3467 59.8162 31.2387 59.889 31.1096C59.9618 30.9806 60 30.835 60 30.6868C60 30.5387 59.9618 30.393 59.889 30.264C59.8162 30.135 59.7113 30.0269 59.5845 29.9503L59.587 29.9506ZM42.7335 50.8387C42.2729 50.7374 41.8711 50.4581 41.6159 50.0615C41.3607 49.665 41.2728 49.1836 41.3714 48.7225C41.4701 48.2613 41.7472 47.858 42.1423 47.6006C42.5374 47.3431 43.0183 47.2525 43.48 47.3486C43.7124 47.3945 43.9333 47.4862 44.1299 47.6184C44.3264 47.7505 44.4948 47.9205 44.625 48.1184C44.7552 48.3162 44.8448 48.538 44.8884 48.7709C44.9321 49.0037 44.9289 49.2429 44.8792 49.4745C44.8295 49.7061 44.7342 49.9254 44.5988 50.1198C44.4635 50.3142 44.2908 50.4797 44.0908 50.6067C43.8908 50.7337 43.6676 50.8196 43.4341 50.8594C43.2006 50.8992 42.9615 50.8922 42.7307 50.8387H42.7335ZM41.878 45.0531C41.6692 45.0081 41.4536 45.0048 41.2436 45.0434C41.0336 45.0819 40.8333 45.1615 40.6541 45.2777C40.4749 45.3938 40.3204 45.5442 40.1994 45.7201C40.0784 45.8961 39.9934 46.0942 39.9492 46.3031L39.0559 50.4744C36.2971 51.7269 33.2346 52.4232 30.0075 52.4232C26.8165 52.4278 23.6633 51.7331 20.7696 50.3882L19.8761 46.2171C19.8319 46.0083 19.7468 45.8103 19.6258 45.6344C19.5049 45.4586 19.3503 45.3084 19.1711 45.1925C18.9919 45.0765 18.7916 44.9972 18.5816 44.9589C18.3716 44.9207 18.1561 44.9243 17.9475 44.9696L14.265 45.7591C13.5807 45.0545 12.9448 44.3044 12.3617 43.514H30.281C30.4835 43.514 30.62 43.4788 30.62 43.294V36.9539C30.62 36.7689 30.486 36.7337 30.281 36.7337H25.0394V32.7144H30.7088C31.225 32.7144 33.4751 32.8611 34.1938 35.7364C34.4191 36.6197 34.9126 39.4975 35.2518 40.4187C35.5883 41.4513 36.9601 43.514 38.4231 43.514H47.3523C47.461 43.5125 47.5695 43.5016 47.6763 43.4813C47.0572 44.3224 46.3789 45.1182 45.6465 45.8628L41.878 45.0531ZM17.092 50.7527C16.8613 50.8062 16.6222 50.8132 16.3887 50.7734C16.1552 50.7336 15.9319 50.6477 15.732 50.5207C15.532 50.3937 15.3593 50.2282 15.2239 50.0338C15.0886 49.8394 14.9933 49.6201 14.9435 49.3885C14.8938 49.1569 14.8907 48.9177 14.9343 48.6849C14.978 48.452 15.0675 48.2302 15.1978 48.0324C15.328 47.8345 15.4963 47.6645 15.6929 47.5324C15.8895 47.4002 16.1104 47.3085 16.3428 47.2626C16.8022 47.1718 17.279 47.2652 17.6702 47.5227C18.0614 47.7802 18.3358 48.1812 18.4341 48.6391C18.5324 49.097 18.4468 49.5752 18.1957 49.9706C17.9447 50.366 17.5483 50.6469 17.092 50.7527ZM10.2939 23.1852C10.397 23.4004 10.4559 23.6341 10.4671 23.8725C10.4783 24.1109 10.4416 24.3491 10.359 24.5731C10.2765 24.797 10.1499 25.0021 9.98675 25.1762C9.82356 25.3504 9.6271 25.49 9.40899 25.5869C9.19088 25.6837 8.95555 25.7358 8.71694 25.7401C8.47833 25.7444 8.24128 25.7008 8.01982 25.6119C7.79837 25.5229 7.597 25.3905 7.42765 25.2223C7.25829 25.0542 7.12439 24.8538 7.03386 24.633C6.8583 24.2035 6.85696 23.7225 7.03013 23.292C7.20329 22.8615 7.53733 22.5154 7.96141 22.3271C8.38549 22.1388 8.86624 22.1231 9.30169 22.2834C9.73715 22.4436 10.0931 22.7672 10.2939 23.1854V23.1852ZM8.20588 28.1385L12.0427 26.4325C12.2379 26.3458 12.4141 26.2216 12.5612 26.0668C12.7083 25.912 12.8234 25.7297 12.9001 25.5304C12.9767 25.331 13.0133 25.1185 13.0077 24.9051C13.0022 24.6916 12.9546 24.4813 12.8677 24.2862L12.0782 22.4994H15.1863V36.5059H8.9169C8.1438 33.7876 7.90322 30.9454 8.20838 28.1358L8.20588 28.1385ZM25.0419 26.7793V22.6512H32.4423C32.8248 22.6512 35.1403 23.0942 35.1403 24.8255C35.1403 26.263 33.3636 26.7793 31.9033 26.7793H25.0419ZM51.9359 30.4948C51.9359 31.0416 51.9159 31.5856 51.8751 32.1223H49.6251C49.4001 32.1223 49.3088 32.2688 49.3088 32.4916V33.5241C49.3088 35.9567 47.9371 36.4857 46.7348 36.6197C45.5908 36.7489 44.3227 36.1414 44.166 35.4404C43.49 31.6438 42.3665 30.8313 40.5897 29.4318C42.794 28.032 45.0873 25.9667 45.0873 23.2029C45.0873 20.2189 43.0397 18.3384 41.6449 17.4146C39.6887 16.1238 37.5221 15.8658 36.9374 15.8658H13.6702C16.8858 12.2702 21.198 9.83608 25.9379 8.94095L28.6815 11.8185C28.8285 11.9731 29.0045 12.0972 29.1996 12.1837C29.3947 12.2701 29.6049 12.3171 29.8182 12.322C30.0315 12.327 30.2437 12.2898 30.4425 12.2125C30.6414 12.1352 30.823 12.0194 30.977 11.8718L34.0446 8.93595C37.1723 9.52255 40.135 10.7826 42.7272 12.6286C45.3193 14.4747 47.4788 16.8626 49.0558 19.6266L46.955 24.3722C46.781 24.7664 46.77 25.2134 46.9246 25.6156C47.0792 26.0178 47.3868 26.3424 47.7801 26.5185L51.8246 28.3155C51.8954 29.0343 51.9309 29.7581 51.9309 30.4948H51.9359ZM28.684 6.49616C29.026 6.16994 29.4836 5.99294 29.9561 6.0041C30.19 6.00962 30.4206 6.06118 30.6347 6.15581C30.8487 6.25045 31.042 6.38632 31.2035 6.55566C31.3651 6.725 31.4916 6.9245 31.5761 7.14277C31.6605 7.36104 31.7011 7.5938 31.6956 7.82776C31.6901 8.06172 31.6385 8.2923 31.5439 8.50634C31.4492 8.72037 31.3134 8.91368 31.144 9.0752C30.7974 9.37442 30.349 9.52893 29.8917 9.50676C29.4343 9.4846 29.003 9.28745 28.687 8.95611C28.3709 8.62478 28.1943 8.18462 28.1938 7.72673C28.1932 7.26884 28.3687 6.82826 28.684 6.49616ZM49.5316 23.2714C49.6259 23.0574 49.7616 22.8641 49.9309 22.7027C50.1001 22.5412 50.2995 22.4147 50.5178 22.3305C50.736 22.2463 50.9687 22.2061 51.2025 22.212C51.4364 22.2179 51.6667 22.27 51.8804 22.3652C52.2034 22.5077 52.4768 22.7429 52.6661 23.0409C52.8554 23.3389 52.9521 23.6863 52.9438 24.0393C52.9356 24.3923 52.8228 24.7348 52.6198 25.0237C52.4167 25.3125 52.1326 25.5346 51.8033 25.6619C51.474 25.7892 51.1143 25.8159 50.7698 25.7387C50.4253 25.6615 50.1114 25.4838 49.868 25.2281C49.6245 24.9725 49.4623 24.6503 49.402 24.3025C49.3417 23.9546 49.3859 23.5967 49.5291 23.2739L49.5316 23.2714Z" fill="#F0F0F0"/>
</svg>
