<svg width="33" height="27" viewBox="0 0 33 27" fill="none" xmlns="http://www.w3.org/2000/svg">
<path d="M3.23171 26.1662C2.34299 26.1662 1.58246 25.85 0.950122 25.2177C0.316707 24.5842 0 23.8232 0 22.9345V3.54421C0 2.65549 0.316707 1.89496 0.950122 1.26262C1.58246 0.629207 2.34299 0.3125 3.23171 0.3125H29.0854C29.9741 0.3125 30.7352 0.629207 31.3686 1.26262C32.0009 1.89496 32.3171 2.65549 32.3171 3.54421V22.9345C32.3171 23.8232 32.0009 24.5842 31.3686 25.2177C30.7352 25.85 29.9741 26.1662 29.0854 26.1662H3.23171ZM16.1585 14.5724C16.2932 14.5724 16.4343 14.5519 16.5819 14.511C16.7305 14.4711 16.8722 14.4108 17.0069 14.33L28.439 7.17988C28.6545 7.04522 28.8161 6.87718 28.9238 6.67573C29.0315 6.47321 29.0854 6.25076 29.0854 6.00838C29.0854 5.46977 28.8565 5.0658 28.3986 4.79649C27.9408 4.52718 27.4695 4.54065 26.9848 4.83689L16.1585 11.6235L5.33232 4.83689C4.84756 4.54065 4.37627 4.53365 3.91845 4.81588C3.46062 5.0992 3.23171 5.4967 3.23171 6.00838C3.23171 6.27769 3.28557 6.51307 3.39329 6.71451C3.50102 6.91703 3.6626 7.07215 3.87805 7.17988L15.3102 14.33C15.4449 14.4108 15.5865 14.4711 15.7352 14.511C15.8828 14.5519 16.0239 14.5724 16.1585 14.5724Z" fill="#38D8CC"/>
</svg>
