<svg width="101" height="101" viewBox="0 0 101 101" fill="none" xmlns="http://www.w3.org/2000/svg">
<g filter="url(#filter0_d_1761_6346)">
<path d="M65.2206 28.0296C65.2206 24.1502 68.3667 21 72.2411 21C76.1154 21 79.2615 24.1502 79.2615 28.0296C79.2615 31.909 76.1154 35.0592 72.2411 35.0592C68.3667 35.0592 65.2206 31.909 65.2206 28.0296Z" stroke="#38D8CC" stroke-width="3.21086"/>
<path fill-rule="evenodd" clip-rule="evenodd" d="M60.1807 26.1929C60.0642 26.9221 60.0059 27.6513 60.0059 28.3805C60.0059 34.9434 65.3077 40.2491 71.8329 40.2491C72.5612 40.2491 73.2604 40.1646 73.9886 40.0479V63.5839C73.9886 73.475 68.1625 79.3378 58.2581 79.3378H36.7335C26.8261 79.3378 21 73.475 21 63.5839V42.0022C21 32.0849 26.8261 26.1929 36.7335 26.1929H60.1807ZM54.005 58.2169L62.4238 47.34L62.3072 47.3983C62.7733 46.7566 62.8607 45.9399 62.5403 45.2107C62.2228 44.4815 61.5207 43.9856 60.7662 43.9273C59.9768 43.8398 59.1932 44.1898 58.7242 44.8315L51.6775 53.9612L43.6054 47.6025C43.1102 47.2233 42.5275 47.0746 41.9449 47.1358C41.3652 47.2233 40.8409 47.5413 40.4884 48.008L31.8686 59.2407L31.6909 59.5033C31.1957 60.4337 31.4288 61.6296 32.3027 62.2743C32.7105 62.5368 33.1475 62.7118 33.6427 62.7118C34.3156 62.741 34.9536 62.388 35.3614 61.8367L42.6732 52.4124L50.9754 58.6574L51.2376 58.8295C52.1698 59.3253 53.335 59.0949 54.005 58.2169Z" stroke="#38D8CC" stroke-width="3.21086"/>
</g>
<defs>
<filter id="filter0_d_1761_6346" x="0.12937" y="0.12937" width="100.003" height="100.079" filterUnits="userSpaceOnUse" color-interpolation-filters="sRGB">
<feFlood flood-opacity="0" result="BackgroundImageFix"/>
<feColorMatrix in="SourceAlpha" type="matrix" values="0 0 0 0 0 0 0 0 0 0 0 0 0 0 0 0 0 0 127 0" result="hardAlpha"/>
<feOffset/>
<feGaussianBlur stdDeviation="9.63258"/>
<feColorMatrix type="matrix" values="0 0 0 0 0.219608 0 0 0 0 0.847059 0 0 0 0 0.8 0 0 0 1 0"/>
<feBlend mode="normal" in2="BackgroundImageFix" result="effect1_dropShadow_1761_6346"/>
<feBlend mode="normal" in="SourceGraphic" in2="effect1_dropShadow_1761_6346" result="shape"/>
</filter>
</defs>
</svg>
