<svg width="90" height="90" viewBox="0 0 90 90" fill="none" xmlns="http://www.w3.org/2000/svg">
<g filter="url(#filter0_d_1761_6357)">
<path d="M25.5672 19H34.3062C37.9518 19 40.8733 21.9772 40.8733 25.6301V34.4555C40.8733 38.1317 37.9518 41.083 34.3062 41.083H25.5672C21.9475 41.083 19 38.1317 19 34.4555V25.6301C19 21.9772 21.9475 19 25.5672 19Z" stroke="#38D8CC" stroke-width="2.84981"/>
<path d="M25.5672 48.6934H34.3062C37.9518 48.6934 40.8733 51.6473 40.8733 55.3235V64.1489C40.8733 67.7992 37.9518 70.7764 34.3062 70.7764H25.5672C21.9475 70.7764 19 67.7992 19 64.1489V55.3235C19 51.6473 21.9475 48.6934 25.5672 48.6934Z" stroke="#38D8CC" stroke-width="2.84981"/>
<path d="M64.1431 19H55.4041C51.7585 19 48.837 21.9772 48.837 25.6301V34.4555C48.837 38.1317 51.7585 41.083 55.4041 41.083H64.1431C67.7628 41.083 70.7103 38.1317 70.7103 34.4555V25.6301C70.7103 21.9772 67.7628 19 64.1431 19Z" stroke="#38D8CC" stroke-width="2.84981"/>
<path d="M55.4041 48.6934H64.1431C67.7628 48.6934 70.7103 51.6473 70.7103 55.3235V64.1489C70.7103 67.7992 67.7628 70.7764 64.1431 70.7764H55.4041C51.7585 70.7764 48.837 67.7992 48.837 64.1489V55.3235C48.837 51.6473 51.7585 48.6934 55.4041 48.6934Z" stroke="#38D8CC" stroke-width="2.84981"/>
</g>
<defs>
<filter id="filter0_d_1761_6357" x="0.475357" y="0.476334" width="88.7583" height="88.8237" filterUnits="userSpaceOnUse" color-interpolation-filters="sRGB">
<feFlood flood-opacity="0" result="BackgroundImageFix"/>
<feColorMatrix in="SourceAlpha" type="matrix" values="0 0 0 0 0 0 0 0 0 0 0 0 0 0 0 0 0 0 127 0" result="hardAlpha"/>
<feOffset/>
<feGaussianBlur stdDeviation="8.54943"/>
<feColorMatrix type="matrix" values="0 0 0 0 0.219608 0 0 0 0 0.847059 0 0 0 0 0.8 0 0 0 1 0"/>
<feBlend mode="normal" in2="BackgroundImageFix" result="effect1_dropShadow_1761_6357"/>
<feBlend mode="normal" in="SourceGraphic" in2="effect1_dropShadow_1761_6357" result="shape"/>
</filter>
</defs>
</svg>
