<svg width="31" height="17" viewBox="0 0 31 17" fill="none" xmlns="http://www.w3.org/2000/svg">
<path d="M17.8254 0.57571C18.1706 0.245354 18.63 0.06272 19.1067 0.0663451C19.5833 0.0699701 20.0399 0.259571 20.3801 0.59514C20.7203 0.930708 20.9175 1.386 20.9301 1.86494C20.9427 2.34388 20.7697 2.80901 20.4476 3.16217L10.6696 15.454C10.5015 15.6361 10.2985 15.7822 10.073 15.8836C9.84738 15.985 9.60377 16.0396 9.35669 16.0442C9.10962 16.0488 8.86417 16.0033 8.635 15.9103C8.40583 15.8174 8.19766 15.679 8.02294 15.5033L1.5386 8.98542C1.35802 8.81628 1.21318 8.61232 1.11273 8.3857C1.01227 8.15907 0.958254 7.91444 0.953899 7.66637C0.949545 7.41831 0.994942 7.17191 1.08738 6.94187C1.17982 6.71182 1.31741 6.50285 1.49194 6.32742C1.66647 6.15199 1.87437 6.01369 2.10323 5.92077C2.33208 5.82785 2.57722 5.78222 2.824 5.78659C3.07079 5.79097 3.31417 5.84527 3.53962 5.94624C3.76508 6.04722 3.96799 6.1928 4.13626 6.37432L9.26786 11.53L17.7764 0.629903C17.7917 0.610885 17.808 0.592788 17.8254 0.57571ZM15.5709 13.2371L17.8254 15.5033C18.0001 15.6786 18.2081 15.8167 18.4371 15.9094C18.666 16.0021 18.9112 16.0475 19.1579 16.0429C19.4047 16.0383 19.648 15.9838 19.8734 15.8826C20.0988 15.7815 20.3015 15.6357 20.4696 15.454L30.2525 3.16217C30.4283 2.98778 30.5672 2.77957 30.6611 2.54998C30.755 2.3204 30.802 2.07415 30.7991 1.82593C30.7962 1.57772 30.7436 1.33264 30.6444 1.10531C30.5452 0.877994 30.4014 0.6731 30.2217 0.502868C30.0419 0.332637 29.8299 0.200558 29.5983 0.114521C29.3666 0.0284838 29.1201 -0.0097482 28.8734 0.00210892C28.6268 0.013966 28.385 0.0756696 28.1626 0.183533C27.9402 0.291396 27.7416 0.443208 27.5789 0.629903L19.0679 11.53L17.8793 10.3328L15.5684 13.2371H15.5709Z" fill="#0A0A0A"/>
</svg>
