<svg xmlns="http://www.w3.org/2000/svg" width="24.938" height="28.5" viewBox="0 0 24.938 28.5">
  <defs>
    <style>
      .cls-1 {
        fill: #fff;
      }
    </style>
  </defs>
  <g id="bxl-discord" transform="translate(-4.5 -4.5)">
    <path id="Path_132" data-name="Path 132" class="cls-1" d="M14.389,16.456a1.589,1.589,0,1,0,1.452,1.583A1.518,1.518,0,0,0,14.389,16.456Zm5.2,0a1.589,1.589,0,1,0,1.452,1.583A1.518,1.518,0,0,0,19.591,16.456Z"/>
    <path id="Path_133" data-name="Path 133" class="cls-1" d="M26.517,4.5H7.421A2.928,2.928,0,0,0,4.5,7.435V26.7a2.929,2.929,0,0,0,2.921,2.936H23.58L22.822,27l1.826,1.7,1.724,1.6L29.438,33V7.435A2.928,2.928,0,0,0,26.517,4.5Zm-5.5,18.611s-.513-.612-.939-1.157a4.5,4.5,0,0,0,2.579-1.695,8.268,8.268,0,0,1-1.639.843,10.018,10.018,0,0,1-5.757.6,11.916,11.916,0,0,1-2.094-.615,8.1,8.1,0,0,1-1.039-.482c-.044-.032-.086-.044-.128-.072a.176.176,0,0,1-.058-.045c-.257-.141-.4-.24-.4-.24a4.43,4.43,0,0,0,2.494,1.681c-.427.54-.956,1.183-.956,1.183a5.164,5.164,0,0,1-4.344-2.166,19.08,19.08,0,0,1,2.052-8.307,7.04,7.04,0,0,1,4-1.5l.143.171a9.622,9.622,0,0,0-3.748,1.868s.315-.171.842-.413a10.718,10.718,0,0,1,3.234-.9,1.561,1.561,0,0,1,.243-.028,11.634,11.634,0,0,1,7.167,1.34,9.5,9.5,0,0,0-3.549-1.809l.2-.228a7.027,7.027,0,0,1,4,1.5,19.08,19.08,0,0,1,2.052,8.307,5.218,5.218,0,0,1-4.361,2.165Z"/>
  </g>
</svg>
