<svg xmlns="http://www.w3.org/2000/svg" width="35.136" height="34.277" viewBox="0 0 35.136 34.277">
  <defs>
    <style>
      .cls-1 {
        fill: #fff;
      }
    </style>
  </defs>
  <path id="github" class="cls-1" d="M17.568,0a17.186,17.186,0,0,1,8.818,2.356A17.487,17.487,0,0,1,32.78,8.75a17.186,17.186,0,0,1,2.356,8.818A17.074,17.074,0,0,1,31.784,27.9a17.212,17.212,0,0,1-8.658,6.348,1.025,1.025,0,0,1-.915-.16.894.894,0,0,1-.3-.686q0-.068.012-1.75t.012-3.076a4.074,4.074,0,0,0-1.19-3.248,15.706,15.706,0,0,0,2.344-.412,9.338,9.338,0,0,0,2.15-.892A6.384,6.384,0,0,0,27.094,22.5a7.1,7.1,0,0,0,1.212-2.4,11.538,11.538,0,0,0,.47-3.442,6.775,6.775,0,0,0-1.808-4.712,6.09,6.09,0,0,0-.183-4.666,2.994,2.994,0,0,0-1.852.252,12.357,12.357,0,0,0-2.1,1.006l-.87.549a16.524,16.524,0,0,0-8.784,0q-.366-.252-.972-.618a13.759,13.759,0,0,0-1.909-.881A3.147,3.147,0,0,0,8.35,7.274a6.09,6.09,0,0,0-.183,4.666,6.775,6.775,0,0,0-1.808,4.712,11.434,11.434,0,0,0,.468,3.432,7.328,7.328,0,0,0,1.2,2.4,6.2,6.2,0,0,0,1.842,1.532,9.291,9.291,0,0,0,2.15.892,15.767,15.767,0,0,0,2.344.412,3.863,3.863,0,0,0-1.12,2.356,4.571,4.571,0,0,1-1.03.344,6.394,6.394,0,0,1-1.3.114,2.705,2.705,0,0,1-1.5-.492,4.021,4.021,0,0,1-1.27-1.43,3.687,3.687,0,0,0-1.11-1.19A3.349,3.349,0,0,0,5.9,24.475l-.458-.068a1.493,1.493,0,0,0-.664.1q-.183.1-.114.264a1.26,1.26,0,0,0,.206.32,1.683,1.683,0,0,0,.3.274l.16.114a2.755,2.755,0,0,1,1,.87,5.735,5.735,0,0,1,.72,1.166l.228.526A2.9,2.9,0,0,0,8.28,29.45a3.566,3.566,0,0,0,1.532.686,9.675,9.675,0,0,0,1.59.16,6.815,6.815,0,0,0,1.27-.08l.526-.092q0,.87.012,2.024t.012,1.246a.894.894,0,0,1-.3.686,1.025,1.025,0,0,1-.915.16,17.206,17.206,0,0,1-8.658-6.348A17.073,17.073,0,0,1,0,17.568,17.186,17.186,0,0,1,2.356,8.75,17.487,17.487,0,0,1,8.75,2.356,17.187,17.187,0,0,1,17.568,0ZM6.656,25.231q.068-.16-.16-.274-.228-.068-.3.046-.068.16.16.274Q6.565,25.415,6.656,25.231Zm.71.778q.16-.114-.046-.366-.228-.206-.366-.068-.16.114.046.366Q7.228,26.169,7.366,26.009Zm.686,1.03q.206-.16,0-.434-.183-.3-.388-.138-.206.114,0,.412T8.052,27.039Zm.96.96q.183-.183-.092-.434-.274-.274-.458-.068-.206.183.092.434Q8.829,28.205,9.012,28Zm1.3.572q.068-.252-.3-.366-.344-.092-.434.16t.3.344q.344.138.434-.138Zm1.442.114q0-.3-.388-.252-.366,0-.366.252,0,.3.388.252Q11.758,28.937,11.758,28.685Zm1.326-.228q-.046-.252-.412-.206-.366.068-.32.344t.412.183q.366-.092.32-.32Z"/>
</svg>
