<svg xmlns="http://www.w3.org/2000/svg" width="1448.478" height="487" viewBox="0 0 1448.478 487">
  <defs>
    <style>
      .cls-1, .cls-2, .cls-3, .cls-4, .cls-5 {
        fill: #fff;
      }

      .cls-1 {
        stroke: #707070;
      }

      .cls-3 {
        font-size: 20px;
        font-family: SegoeUI, Segoe UI;
        letter-spacing: 0.06em;
      }

      .cls-5 {
        fill-rule: evenodd;
      }

      .cls-6, .cls-8 {
        stroke: none;
      }

      .cls-7 {
        fill: none;
      }

      .cls-8 {
        fill: #707070;
      }
    </style>
  </defs>
  <g id="Services" transform="translate(-84.5 -516)">
    <g id="Ellipse_20" data-name="Ellipse 20" class="cls-1" transform="translate(419 516)">
      <ellipse class="cls-6" cx="1" cy="243.5" rx="1" ry="243.5"/>
      <ellipse class="cls-7" cx="1" cy="243.5" rx="0.5" ry="243"/>
    </g>
    <g id="Path_148" data-name="Path 148" class="cls-2" transform="translate(84.5 659) rotate(-90)">
      <path class="cls-6" d="M 1.745158791542053 1404.192993164062 C 1.592144370079041 1388.7666015625 1.430026412010193 1367.185668945312 1.2743239402771 1336.999145507812 C 0.760505735874176 1237.373291015625 0.4999603033065796 1082.102661132812 0.4999603033065796 875.5000610351562 C 0.4999603033065796 552.4899291992188 0.7015837430953979 268.6227722167969 0.9999637603759766 116.9226455688477 C 1.298343777656555 268.62255859375 1.49996030330658 552.4893188476562 1.49996030330658 875.5000610351562 C 1.49996030330658 1100.312622070312 1.619960308074951 1239.404663085938 1.691596627235413 1322.509521484375 C 1.723277807235718 1359.219116210938 1.746076226234436 1385.63818359375 1.745158791542053 1404.192993164062 Z"/>
      <path class="cls-8" d="M 0.9999603033065796 -0.0001220703125 C 1.552323937416077 -0.0001220703125 1.99996030330658 391.974853515625 1.99996030330658 875.5000610351562 C 1.99996030330658 1359.025146484375 2.552324056625366 1442.933471679688 1.99996030330658 1442.933471679688 C 1.447778463363647 1442.933471679688 -3.981590270996094e-05 1359.025146484375 -3.981590270996094e-05 875.5000610351562 C -3.981590270996094e-05 391.974853515625 0.4477784633636475 -0.0001220703125 0.9999603033065796 -0.0001220703125 Z"/>
    </g>
    <g id="Path_147" data-name="Path 147" class="cls-2" transform="translate(84.5 849.5) rotate(-90)">
      <path class="cls-6" d="M 1.745430946350098 1408.45947265625 C 1.593037247657776 1392.661010742188 1.431293845176697 1370.616088867188 1.275051474571228 1339.85546875 C 0.7606878280639648 1238.576538085938 0.4999605417251587 1082.344970703125 0.4999605417251587 875.5000610351562 C 0.4999605417251587 552.4899291992188 0.7015839815139771 268.6227416992188 0.9999639987945557 116.9226226806641 C 1.298344016075134 268.6225280761719 1.499960541725159 552.4893188476562 1.499960541725159 875.5000610351562 C 1.499960541725159 1099.401733398438 1.619415044784546 1239.968017578125 1.690687775611877 1323.953735351562 C 1.722967624664307 1361.935668945312 1.746209144592285 1389.269653320312 1.745430946350098 1408.45947265625 Z"/>
      <path class="cls-8" d="M 0.9999605417251587 0 C 1.552324175834656 0 1.999960541725159 391.9747314453125 1.999960541725159 875.5000610351562 C 1.999960541725159 1359.025268554688 2.552324295043945 1448.4775390625 1.999960541725159 1448.4775390625 C 1.447778701782227 1448.4775390625 -3.957748413085938e-05 1359.025268554688 -3.957748413085938e-05 875.5000610351562 C -3.957748413085938e-05 391.9747314453125 0.4477787017822266 0 0.9999605417251587 0 Z"/>
    </g>
    <g id="Ellipse_21" data-name="Ellipse 21" class="cls-1" transform="translate(779 516)">
      <ellipse class="cls-6" cx="1" cy="243.5" rx="1" ry="243.5"/>
      <ellipse class="cls-7" cx="1" cy="243.5" rx="0.5" ry="243"/>
    </g>
    <g id="Ellipse_22" data-name="Ellipse 22" class="cls-1" transform="translate(1139 516)">
      <ellipse class="cls-6" cx="1" cy="243.5" rx="1" ry="243.5"/>
      <ellipse class="cls-7" cx="1" cy="243.5" rx="0.5" ry="243"/>
    </g>
    <g id="Services-2" data-name="Services">
      <text id="Software_Services" data-name="Software &amp; Services" class="cls-3" transform="translate(154.5 636)"><tspan x="0" y="0">Software &amp; Services</tspan></text>
      <text id="IT_Services" data-name="IT Services" class="cls-3" transform="translate(201 825)"><tspan x="0" y="0">IT Services</tspan></text>
      <text id="Education" class="cls-3" transform="translate(204.5 970.5)"><tspan x="0" y="0">Education</tspan></text>
      <text id="Hardware" class="cls-3" transform="translate(558 643)"><tspan x="0" y="0">Hardware</tspan></text>
      <text id="Consulting" class="cls-3" transform="translate(546 825)"><tspan x="0" y="0">Consulting</tspan></text>
      <text id="E-commerce" class="cls-3" transform="translate(544.5 971)"><tspan x="0" y="0">E-commerce</tspan></text>
      <text id="Design" class="cls-3" transform="translate(927.5 643)"><tspan x="0" y="0">Design</tspan></text>
      <text id="Internet_Of_Things" data-name="Internet Of Things" class="cls-3" transform="translate(870 825)"><tspan x="0" y="0">Internet Of Things</tspan></text>
      <text id="Science" class="cls-3" transform="translate(923.5 971)"><tspan x="0" y="0">Science</tspan></text>
      <text id="Cloud_Services" data-name="Cloud Services" class="cls-3" transform="translate(1253.5 643)"><tspan x="0" y="0">Cloud Services</tspan></text>
      <text id="Media_Entertainment" data-name="Media &amp; Entertainment" class="cls-3" transform="translate(1210 825)"><tspan x="0" y="0">Media &amp; Entertainment</tspan></text>
      <text id="Fintech" class="cls-3" transform="translate(1290 970.5)"><tspan x="0" y="0">Fintech</tspan></text>
    </g>
    <g id="education-2" data-name="education" transform="translate(231.341 882.75)">
      <path id="Path_157" data-name="Path 157" class="cls-4" d="M40.5,39.375H37.125V34.313a8.448,8.448,0,0,0-8.437-8.438H18.563a8.448,8.448,0,0,0-8.438,8.437v5.063H6.75V34.313A11.826,11.826,0,0,1,18.563,22.5H28.688A11.826,11.826,0,0,1,40.5,34.313Z" transform="translate(1.125 10.125)"/>
      <path id="Path_158" data-name="Path 158" class="cls-4" d="M6.188,6.75A1.688,1.688,0,0,0,4.5,8.438V23.625H7.875V8.438A1.688,1.688,0,0,0,6.188,6.75Z" transform="translate(0 2.25)"/>
      <path id="Path_159" data-name="Path 159" class="cls-4" d="M4.5,2.25V5.625h8.438V17.438a11.813,11.813,0,0,0,23.625,0V5.625H45V2.25ZM16.313,5.625H33.188v5.063H16.313Zm8.438,20.25a8.438,8.438,0,0,1-8.437-8.437V14.063H33.188v3.375A8.437,8.437,0,0,1,24.75,25.875Z"/>
    </g>
    <g id="download" transform="translate(227.571 547.453)">
      <path id="Path_151" data-name="Path 151" class="cls-5" d="M1.783,18a1.783,1.783,0,0,1,1.783,1.783V32.26A3.565,3.565,0,0,0,7.13,35.825H49.911a3.565,3.565,0,0,0,3.565-3.565V19.783a1.783,1.783,0,1,1,3.565,0V32.26a7.13,7.13,0,0,1-7.13,7.13H7.13A7.13,7.13,0,0,1,0,32.26V19.783A1.783,1.783,0,0,1,1.783,18Z" transform="translate(0 9.205)"/>
      <path id="Path_152" data-name="Path 152" class="cls-5" d="M11.443,17.068a1.783,1.783,0,0,1,2.521,0l8.174,8.174,8.174-8.174a1.783,1.783,0,1,1,2.521,2.521L23.4,29.026a1.783,1.783,0,0,1-2.524,0l-9.432-9.437A1.783,1.783,0,0,1,11.443,17.068Z" transform="translate(6.383 8.355)"/>
      <path id="Path_153" data-name="Path 153" class="cls-5" d="M18.658,2.25A1.783,1.783,0,0,1,20.44,4.033v28.52a1.783,1.783,0,0,1-3.565,0V4.033A1.783,1.783,0,0,1,18.658,2.25Z" transform="translate(9.863)"/>
    </g>
    <g id="broadcast-pin" transform="translate(227.572 714.764)">
      <path id="Path_154" data-name="Path 154" class="cls-5" d="M11.6,8.186a26.613,26.613,0,0,0,0,37.639,1.9,1.9,0,1,1-2.688,2.688,30.415,30.415,0,0,1,0-43.014A1.9,1.9,0,0,1,11.6,8.188Zm8.067,8.067a15.208,15.208,0,0,0,0,21.5,1.9,1.9,0,1,1-2.692,2.692,19.009,19.009,0,0,1,0-26.887,1.9,1.9,0,0,1,2.692,2.692Zm21.5-2.692a1.9,1.9,0,0,1,2.692,0,19.009,19.009,0,0,1,0,26.887,1.9,1.9,0,0,1-2.692-2.692,15.208,15.208,0,0,0,0-21.5,1.9,1.9,0,0,1,0-2.692ZM49.233,5.5a1.9,1.9,0,0,1,2.688,0,30.415,30.415,0,0,1,0,43.01,1.9,1.9,0,1,1-2.688-2.688,26.613,26.613,0,0,0,0-37.639,1.9,1.9,0,0,1,0-2.688Z" transform="translate(0)"/>
      <path id="Path_155" data-name="Path 155" class="cls-4" d="M28.708,21.1a7.6,7.6,0,1,1-7.6-7.6A7.6,7.6,0,0,1,28.708,21.1Z" transform="translate(9.312 5.902)"/>
      <path id="Path_156" data-name="Path 156" class="cls-5" d="M18.776,19.125a1.9,1.9,0,0,1,1.9,1.9V45.738a1.9,1.9,0,0,1-3.8,0V21.026A1.9,1.9,0,0,1,18.776,19.125Z" transform="translate(11.64 9.782)"/>
    </g>
    <g id="data-base" transform="translate(578.599 546.328)">
      <path id="Path_160" data-name="Path 160" class="cls-4" d="M38.835,3.375H10.315A3.565,3.565,0,0,0,6.75,6.94V46.156a3.565,3.565,0,0,0,3.565,3.565h28.52A3.565,3.565,0,0,0,42.4,46.156V6.94A3.565,3.565,0,0,0,38.835,3.375Zm0,3.565v10.7H10.315V6.94ZM10.315,31.9V21.2h28.52V31.9Zm0,14.26V35.46h28.52v10.7Z" transform="translate(0 0)"/>
      <path id="Path_161" data-name="Path 161" class="cls-4" d="M14.815,9.658a1.783,1.783,0,1,1-1.783-1.783A1.783,1.783,0,0,1,14.815,9.658Z" transform="translate(2.63 2.63)"/>
      <path id="Path_162" data-name="Path 162" class="cls-4" d="M14.815,18.658a1.783,1.783,0,1,1-1.783-1.783A1.783,1.783,0,0,1,14.815,18.658Z" transform="translate(2.63 7.89)"/>
      <path id="Path_163" data-name="Path 163" class="cls-4" d="M14.815,27.658a1.783,1.783,0,1,1-1.783-1.783A1.783,1.783,0,0,1,14.815,27.658Z" transform="translate(2.63 13.151)"/>
    </g>
    <path id="headset" class="cls-4" d="M45.4,17.232h-.113a16.887,16.887,0,0,0-33.548,0h-.112a9.381,9.381,0,1,0,0,18.763h3.753V19.108a13.134,13.134,0,0,1,26.268,0V37.871A7.505,7.505,0,0,1,35.7,45.208,7.505,7.505,0,1,0,35.8,48.96,11.258,11.258,0,0,0,45.4,37.871V35.995a9.381,9.381,0,1,0,0-18.763ZM6,26.614a5.629,5.629,0,0,1,5.629-5.629V32.242A5.629,5.629,0,0,1,6,26.614ZM28.518,51.005a3.753,3.753,0,1,1,3.753-3.753A3.753,3.753,0,0,1,28.518,51.005ZM45.4,32.242V20.985a5.629,5.629,0,0,1,0,11.258Z" transform="translate(574.657 717.414)"/>
    <g id="shopping-cart" transform="translate(578.686 882.75)">
      <path id="Path_164" data-name="Path 164" class="cls-4" d="M15.75,32.625a3.375,3.375,0,1,1-3.375-3.375A3.375,3.375,0,0,1,15.75,32.625Z" transform="translate(4.5 13.5)"/>
      <path id="Path_165" data-name="Path 165" class="cls-4" d="M31.5,32.625a3.375,3.375,0,1,1-3.375-3.375A3.375,3.375,0,0,1,31.5,32.625Z" transform="translate(12.375 13.5)"/>
      <path id="Path_166" data-name="Path 166" class="cls-4" d="M47.25,10.688H9.822L8.437,3.6A1.687,1.687,0,0,0,6.75,2.25H0V5.625H5.367l6.445,32.4a1.687,1.687,0,0,0,1.687,1.35H43.875V36H14.883L13.5,29.25H43.875a1.687,1.687,0,0,0,1.687-1.317l3.375-15.187a1.687,1.687,0,0,0-1.687-2.058ZM42.525,25.875H12.858L10.5,14.063H45.139Z"/>
    </g>
    <path id="brush" class="cls-4" d="M44.661,0c-1.8.1-28.414,22.821-30.6,30.82L19.105,36.1C33.523,24.082,38.153,11.352,46.3.024L44.663,0h0ZM12.472,32.43C3.36,35.781,9.072,42.411,0,45.655c10.274,2.314,14.827-1.919,17.516-7.926l-5.044-5.3h0Z" transform="translate(937.5 549.703)"/>
    <g id="iot-connect" transform="translate(932.159 717.456)">
      <path id="Path_167" data-name="Path 167" class="cls-4" d="M54.729,34.112h-7.5v-7.5H43.483V43.483H13.5V13.5H30.363V9.747h-7.5V2.25H19.118v7.5H13.5A3.752,3.752,0,0,0,9.747,13.5v5.623H2.25v3.748h7.5V34.112H2.25V37.86h7.5v5.623A3.752,3.752,0,0,0,13.5,47.232h5.623v7.5h3.748v-7.5H34.112v7.5H37.86v-7.5h5.623a3.753,3.753,0,0,0,3.748-3.748V37.86h7.5Z" transform="translate(0 0)"/>
      <path id="Path_168" data-name="Path 168" class="cls-4" d="M40.488,2.25a7.5,7.5,0,0,0-7.5,7.5,7.414,7.414,0,0,0,1.063,3.785l-5.588,5.586H12.375V37.86H31.117V21.769L36.7,16.183a7.412,7.412,0,0,0,3.785,1.061,7.5,7.5,0,1,0,0-14.994ZM27.369,34.112H16.123V22.867H27.369ZM40.488,13.5a3.748,3.748,0,1,1,3.748-3.748A3.748,3.748,0,0,1,40.488,13.5Z" transform="translate(6.743)"/>
    </g>
    <path id="chemistry" class="cls-4" d="M43.7,38.73,31.5,21.951V5.625h3.375V2.25H14.625V5.625H18V21.951L5.8,38.73A6.78,6.78,0,0,0,11.282,49.5H38.216A6.78,6.78,0,0,0,43.7,38.73ZM21.375,23.049V5.625h6.75V23.049l4.51,6.2H16.865ZM38.219,46.125H11.283a3.408,3.408,0,0,1-2.756-5.41l5.883-8.09H35.09l5.885,8.09a3.408,3.408,0,0,1-2.756,5.41Z" transform="translate(935.9 882.75)"/>
    <g id="cloud-check" transform="translate(1296.203 545.203)">
      <path id="Path_169" data-name="Path 169" class="cls-5" d="M18.543,10.147A23.276,23.276,0,0,1,33.671,4.5,21.616,21.616,0,0,1,55.413,23.773,13.565,13.565,0,0,1,53.4,50.8H15.913A15.712,15.712,0,0,1,0,35.3,15.6,15.6,0,0,1,12.383,20.178a17.708,17.708,0,0,1,6.162-10.03Zm2.748,3.186c-3.186,2.748-4.852,6.061-4.852,8.653v1.886l-1.872.206A11.448,11.448,0,0,0,4.209,35.3a11.5,11.5,0,0,0,11.7,11.289H53.4a9.382,9.382,0,1,0,0-18.751h-2.1v-2.1c0-9.344-7.825-17.024-17.623-17.024a19.067,19.067,0,0,0-12.378,4.63Z" transform="translate(0 0)"/>
      <path id="Path_170" data-name="Path 170" class="cls-5" d="M33.785,14.118a2.1,2.1,0,0,1,0,2.98L21.158,29.724a2.1,2.1,0,0,1-2.98,0l-6.313-6.313a2.107,2.107,0,1,1,2.98-2.98l4.824,4.826L30.807,14.116a2.1,2.1,0,0,1,2.98,0Z" transform="translate(9.793 7.833)"/>
    </g>
    <path id="video" class="cls-4" d="M43.021,49.666H6.542A4.292,4.292,0,0,1,2.25,45.375V11.042A4.292,4.292,0,0,1,6.542,6.75H43.021a4.292,4.292,0,0,1,4.292,4.292v8.711l11.631-8.3a2.146,2.146,0,0,1,3.389,1.74V43.229a2.146,2.146,0,0,1-3.391,1.738l-11.629-8.3v8.711A4.292,4.292,0,0,1,43.021,49.666ZM6.542,11.042V45.375H43.021V32.5a2.146,2.146,0,0,1,3.391-1.738l11.629,8.3V17.349l-11.631,8.3a2.146,2.146,0,0,1-3.389-1.738V11.042Z" transform="translate(1304.25 713.004)"/>
    <g id="dollar-solid" transform="translate(1304.5 883)">
      <path id="Path_171" data-name="Path 171" class="cls-4" d="M25.5,2A23.5,23.5,0,1,0,49,25.5,23.5,23.5,0,0,0,25.5,2ZM36.736,33.71c-1.469,4.406-5.3,5.64-8.666,5.875v2.938a1.836,1.836,0,0,1-3.672,0V39.585a16.847,16.847,0,0,1-9.18-3.8,1.839,1.839,0,1,1,2.512-2.688,13.38,13.38,0,0,0,6.683,2.849V26.719a14.144,14.144,0,0,1-5.478-2.071,7.05,7.05,0,0,1-2.805-8.577c.867-2.218,3.554-4.744,8.284-5.155V8.242a1.836,1.836,0,0,1,3.672,0v2.732a14.2,14.2,0,0,1,7.2,2.938,1.836,1.836,0,0,1-2.438,2.7,10.487,10.487,0,0,0-4.759-1.924v9c.881.191,1.821.4,2.805.7a8.592,8.592,0,0,1,5.42,4.142,6.815,6.815,0,0,1,.426,5.17Z"/>
      <path id="Path_172" data-name="Path 172" class="cls-4" d="M21.468,19.781q-.881-.264-1.718-.441V27.8c2.938-.294,4.509-1.322,5.185-3.378a3.158,3.158,0,0,0-.22-2.321,5.126,5.126,0,0,0-3.246-2.321Z" transform="translate(8.32 8.128)"/>
      <path id="Path_173" data-name="Path 173" class="cls-4" d="M14.018,13.385A3.393,3.393,0,0,0,15.487,17.6a9.591,9.591,0,0,0,3.408,1.351v-8.4c-3.084.367-4.509,1.895-4.876,2.835Z" transform="translate(5.518 4.008)"/>
    </g>
  </g>
</svg>
