<svg id="instagram" xmlns="http://www.w3.org/2000/svg" width="34.278" height="34.278" viewBox="0 0 34.278 34.278">
  <defs>
    <style>
      .cls-1, .cls-2 {
        fill: #fff;
      }

      .cls-1 {
        fill-rule: evenodd;
      }
    </style>
  </defs>
  <path id="Path_129" data-name="Path 129" class="cls-1" d="M18.29,10.5a7.79,7.79,0,1,0,7.79,7.79A7.79,7.79,0,0,0,18.29,10.5Zm-4.674,7.79a4.674,4.674,0,1,0,4.674-4.674A4.674,4.674,0,0,0,13.616,18.29Z" transform="translate(-1.151 -1.152)"/>
  <path id="Path_130" data-name="Path 130" class="cls-2" d="M27.058,7.5a1.558,1.558,0,1,0,1.558,1.558A1.558,1.558,0,0,0,27.058,7.5Z" transform="translate(-0.571 -1.268)"/>
  <path id="Path_131" data-name="Path 131" class="cls-1" d="M7.732,1.5A6.232,6.232,0,0,0,1.5,7.732V29.546a6.232,6.232,0,0,0,6.232,6.232H29.546a6.232,6.232,0,0,0,6.232-6.232V7.732A6.232,6.232,0,0,0,29.546,1.5ZM29.546,4.616H7.732A3.116,3.116,0,0,0,4.616,7.732V29.546a3.116,3.116,0,0,0,3.116,3.116H29.546a3.116,3.116,0,0,0,3.116-3.116V7.732A3.116,3.116,0,0,0,29.546,4.616Z" transform="translate(-1.5 -1.5)"/>
</svg>
