<svg xmlns="http://www.w3.org/2000/svg" width="34.278" height="34.278" viewBox="0 0 34.278 34.278">
  <defs>
    <style>
      .cls-1 {
        fill: #fff;
      }
    </style>
  </defs>
  <path id="linkedin-rect" class="cls-1" d="M6.724.009A6.737,6.737,0,0,0,.007,6.727V27.571a6.736,6.736,0,0,0,6.718,6.716H27.569a6.735,6.735,0,0,0,6.716-6.716V6.727A6.737,6.737,0,0,0,27.569.009Zm1.69,5.656a2.7,2.7,0,1,1-.034,5.381H8.346a2.7,2.7,0,1,1,.068-5.381Zm15.263,7.143c3.406,0,5.959,2.226,5.959,7.011v8.931H24.46V20.419c0-2.094-.749-3.523-2.622-3.523a2.835,2.835,0,0,0-2.657,1.893,3.535,3.535,0,0,0-.171,1.263v8.7H13.833s.068-14.115,0-15.577H19.01v2.206a5.139,5.139,0,0,1,4.666-2.571Zm-17.886.367h5.176V28.751H5.791Z" transform="translate(-0.007 -0.009)"/>
</svg>
