<svg xmlns="http://www.w3.org/2000/svg" width="1448.478" height="487" viewBox="0 0 1448.478 487">
  <defs>
    <style>
      .cls-1, .cls-2, .cls-3, .cls-4, .cls-5 {
        fill: #fff;
      }

      .cls-1 {
        stroke: #707070;
      }

      .cls-3 {
        font-size: 20px;
        font-family: SegoeUI, Segoe UI;
        letter-spacing: 0.06em;
      }

      .cls-5 {
        fill-rule: evenodd;
      }

      .cls-6, .cls-8 {
        stroke: none;
      }

      .cls-7 {
        fill: none;
      }

      .cls-8 {
        fill: #707070;
      }
    </style>
  </defs>
  <g id="Services" transform="translate(-84.5 -516)">
    <g id="Ellipse_20" data-name="Ellipse 20" class="cls-1" transform="translate(419 516)">
      <ellipse class="cls-6" cx="1" cy="243.5" rx="1" ry="243.5"/>
      <ellipse class="cls-7" cx="1" cy="243.5" rx="0.5" ry="243"/>
    </g>
    <g id="Path_148" data-name="Path 148" class="cls-2" transform="translate(84.5 659) rotate(-90)">
      <path class="cls-6" d="M 1.745158791542053 1404.192993164062 C 1.592144370079041 1388.7666015625 1.430026412010193 1367.185668945312 1.2743239402771 1336.999145507812 C 0.760505735874176 1237.373291015625 0.4999603033065796 1082.102661132812 0.4999603033065796 875.5000610351562 C 0.4999603033065796 552.4899291992188 0.7015837430953979 268.6227722167969 0.9999637603759766 116.9226455688477 C 1.298343777656555 268.62255859375 1.49996030330658 552.4893188476562 1.49996030330658 875.5000610351562 C 1.49996030330658 1100.312622070312 1.619960308074951 1239.404663085938 1.691596627235413 1322.509521484375 C 1.723277807235718 1359.219116210938 1.746076226234436 1385.63818359375 1.745158791542053 1404.192993164062 Z"/>
      <path class="cls-8" d="M 0.9999603033065796 -0.0001220703125 C 1.552323937416077 -0.0001220703125 1.99996030330658 391.974853515625 1.99996030330658 875.5000610351562 C 1.99996030330658 1359.025146484375 2.552324056625366 1442.933471679688 1.99996030330658 1442.933471679688 C 1.447778463363647 1442.933471679688 -3.981590270996094e-05 1359.025146484375 -3.981590270996094e-05 875.5000610351562 C -3.981590270996094e-05 391.974853515625 0.4477784633636475 -0.0001220703125 0.9999603033065796 -0.0001220703125 Z"/>
    </g>
    <g id="Path_147" data-name="Path 147" class="cls-2" transform="translate(84.5 849.5) rotate(-90)">
      <path class="cls-6" d="M 1.745430946350098 1408.45947265625 C 1.593037247657776 1392.661010742188 1.431293845176697 1370.616088867188 1.275051474571228 1339.85546875 C 0.7606878280639648 1238.576538085938 0.4999605417251587 1082.344970703125 0.4999605417251587 875.5000610351562 C 0.4999605417251587 552.4899291992188 0.7015839815139771 268.6227416992188 0.9999639987945557 116.9226226806641 C 1.298344016075134 268.6225280761719 1.499960541725159 552.4893188476562 1.499960541725159 875.5000610351562 C 1.499960541725159 1099.401733398438 1.619415044784546 1239.968017578125 1.690687775611877 1323.953735351562 C 1.722967624664307 1361.935668945312 1.746209144592285 1389.269653320312 1.745430946350098 1408.45947265625 Z"/>
      <path class="cls-8" d="M 0.9999605417251587 0 C 1.552324175834656 0 1.999960541725159 391.9747314453125 1.999960541725159 875.5000610351562 C 1.999960541725159 1359.025268554688 2.552324295043945 1448.4775390625 1.999960541725159 1448.4775390625 C 1.447778701782227 1448.4775390625 -3.957748413085938e-05 1359.025268554688 -3.957748413085938e-05 875.5000610351562 C -3.957748413085938e-05 391.9747314453125 0.4477787017822266 0 0.9999605417251587 0 Z"/>
    </g>
    <g id="Ellipse_21" data-name="Ellipse 21" class="cls-1" transform="translate(779 516)">
      <ellipse class="cls-6" cx="1" cy="243.5" rx="1" ry="243.5"/>
      <ellipse class="cls-7" cx="1" cy="243.5" rx="0.5" ry="243"/>
    </g>
    <g id="Ellipse_22" data-name="Ellipse 22" class="cls-1" transform="translate(1139 516)">
      <ellipse class="cls-6" cx="1" cy="243.5" rx="1" ry="243.5"/>
      <ellipse class="cls-7" cx="1" cy="243.5" rx="0.5" ry="243"/>
    </g>
    <g id="Services-2" data-name="Services">
      <text id="Web_Applications" data-name="Web Applications" class="cls-3" transform="translate(167 637)"><tspan x="0" y="0">Web Applications</tspan></text>
      <text id="Cloud_Computing" data-name="Cloud Computing" class="cls-3" transform="translate(166 825)"><tspan x="0" y="0">Cloud Computing</tspan></text>
      <text id="Devops" class="cls-3" transform="translate(217 978)"><tspan x="0" y="0">Devops</tspan></text>
      <text id="APIs" class="cls-3" transform="translate(584 643)"><tspan x="0" y="0">APIs</tspan></text>
      <text id="Process_Automation" data-name="Process Automation" class="cls-3" transform="translate(507 831)"><tspan x="0" y="0">Process Automation</tspan></text>
      <text id="Information_Security" data-name="Information Security" class="cls-3" transform="translate(504 984)"><tspan x="0" y="0">Information Security</tspan></text>
      <text id="Blockchain" class="cls-3" transform="translate(908 643)"><tspan x="0" y="0">Blockchain</tspan></text>
      <text id="Artificial_Intelligence" data-name="Artificial Intelligence" class="cls-3" transform="translate(858 831)"><tspan x="0" y="0">Artificial Intelligence</tspan></text>
      <text id="Business_Analytics" data-name="Business Analytics" class="cls-3" transform="translate(871 984)"><tspan x="0" y="0">Business Analytics</tspan></text>
      <text id="Internet_of_Things" data-name="Internet of Things" class="cls-3" transform="translate(1237 643)"><tspan x="0" y="0">Internet of Things</tspan></text>
      <text id="Network_Security" data-name="Network Security" class="cls-3" transform="translate(1241 831)"><tspan x="0" y="0">Network Security</tspan></text>
      <text id="Mobile_Applications" data-name="Mobile Applications" class="cls-3" transform="translate(1227 984)"><tspan x="0" y="0">Mobile Applications</tspan></text>
    </g>
    <g id="application-line" transform="translate(224 536)">
      <path id="Path_134" data-name="Path 134" class="cls-4" d="M5,7H9v4H5Z" transform="translate(3.005 3.005)"/>
      <path id="Path_135" data-name="Path 135" class="cls-4" d="M9,7h4v4H9Z" transform="translate(7.012 3.005)"/>
      <path id="Path_136" data-name="Path 136" class="cls-4" d="M13,7h4v4H13Z" transform="translate(11.019 3.005)"/>
      <path id="Path_137" data-name="Path 137" class="cls-4" d="M62.052,4H6A4,4,0,0,0,2,8V56.045a4,4,0,0,0,4,4H62.052a4,4,0,0,0,4-4V8A4,4,0,0,0,62.052,4ZM6,8H62.052v8.407H6ZM6,56.045V19.613H62.052V56.045Z"/>
    </g>
    <path id="cloud" class="cls-4" d="M72.466,38.649A14.494,14.494,0,0,1,57.973,53.142H16.909A16.28,16.28,0,0,1,4.964,48.178,16.849,16.849,0,0,1,2.679,27.118a16.648,16.648,0,0,1,7.057-6.172q-.074-1.057-.074-1.622A18.613,18.613,0,0,1,15.325,5.662,18.628,18.628,0,0,1,28.986,0,18.712,18.712,0,0,1,39.8,3.321,19.283,19.283,0,0,1,46.875,12,9.141,9.141,0,0,1,53.14,9.662a9.314,9.314,0,0,1,6.832,2.83,9.3,9.3,0,0,1,2.83,6.832,9.351,9.351,0,0,1-1.548,5.207,14.179,14.179,0,0,1,8.04,5.077,14.024,14.024,0,0,1,3.17,9.04Z" transform="translate(222 719.952)"/>
    <path id="azuredevops" class="cls-4" d="M0,22.191l5.614-7.411,21-8.536V.068L45.032,13.543l-37.62,7.3v20.55L0,39.261Zm59.971-11.12V47.683L45.595,59.926,22.348,52.289v7.636L7.41,41.395l37.623,4.493V13.543Z" transform="translate(228 875.932)"/>
    <path id="api" class="cls-4" d="M50.291,42.285a7.728,7.728,0,0,0-4,1.141L40.1,37.219a12.01,12.01,0,0,0,0-13.893l6.185-6.2a7.727,7.727,0,0,0,4,1.141,8.007,8.007,0,1,0-8.007-8.007,7.728,7.728,0,0,0,1.141,4l-6.206,6.185a12.01,12.01,0,0,0-13.893,0l-6.2-6.185a7.728,7.728,0,0,0,1.141-4,8.007,8.007,0,1,0-8.007,8.007,7.728,7.728,0,0,0,4-1.141l6.185,6.206a12.01,12.01,0,0,0,0,13.893l-6.185,6.2a7.728,7.728,0,0,0-4-1.141,8.007,8.007,0,1,0,8.007,8.007,7.728,7.728,0,0,0-1.141-4L23.33,40.1a12.01,12.01,0,0,0,13.893,0l6.206,6.185a7.728,7.728,0,0,0-1.141,4,8.007,8.007,0,1,0,8.007-8.007Zm0-36.031a4,4,0,1,1-4,4A4,4,0,0,1,50.291,6.253Zm-44.038,4a4,4,0,1,1,4,4A4,4,0,0,1,6.253,10.257Zm4,44.038a4,4,0,1,1,4-4A4,4,0,0,1,10.257,54.295ZM30.274,38.281a8.007,8.007,0,1,1,8.007-8.007A8.007,8.007,0,0,1,30.274,38.281ZM50.291,54.295a4,4,0,1,1,4-4A4,4,0,0,1,50.291,54.295Z" transform="translate(575.75 537.75)"/>
    <g id="security" transform="translate(577.312 885.25)">
      <path id="Path_138" data-name="Path 138" class="cls-4" d="M19.321,24.548l-5.227-5.227L11.25,22.166l8.071,8.071L35.464,14.095,32.619,11.25Z" transform="translate(5.357 7.143)"/>
      <path id="Path_139" data-name="Path 139" class="cls-4" d="M28.714,58.75,16.252,52.1A22.16,22.16,0,0,1,4.5,32.518V6.286A4.039,4.039,0,0,1,8.536,2.25H48.893a4.039,4.039,0,0,1,4.036,4.036V32.518A22.16,22.16,0,0,1,41.176,52.1ZM8.536,6.286V32.518a18.13,18.13,0,0,0,9.617,16.026l10.561,5.632,10.561-5.63a18.13,18.13,0,0,0,9.617-16.028V6.286Z" transform="translate(0 0)"/>
    </g>
    <path id="chain-broken" class="cls-4" d="M14.787,42.81,6.166,51.431a1.142,1.142,0,0,1-1.551,0,1.142,1.142,0,0,1,0-1.551l8.622-8.622a1.1,1.1,0,0,1,1.551,1.551Zm5.692,1.381V54.968a1.079,1.079,0,1,1-2.158,0V44.191a1.079,1.079,0,1,1,2.158,0Zm-7.544-7.544a1.039,1.039,0,0,1-1.079,1.079H1.078a1.079,1.079,0,1,1,0-2.158H11.856a1.039,1.039,0,0,1,1.079,1.079Zm42.573,4.311a9.191,9.191,0,0,1-2.863,6.838l-4.951,4.918a9.716,9.716,0,0,1-13.708-.067L22.736,41.362a9.81,9.81,0,0,1-1.415-1.887l8.05-.606L38.566,48.1a3.164,3.164,0,0,0,2.29.926,3.048,3.048,0,0,0,2.29-.892L48.1,43.215a3.08,3.08,0,0,0,.943-2.257,3.118,3.118,0,0,0-.943-2.29L38.868,29.4l.606-8.05a9.79,9.79,0,0,1,1.887,1.415L52.677,34.085a9.5,9.5,0,0,1,2.829,6.87ZM34.725,16.573l-8.05.606L17.48,7.95a3.118,3.118,0,0,0-2.29-.943,3.252,3.252,0,0,0-2.29.909L7.95,12.833a3.08,3.08,0,0,0-.943,2.257,3.118,3.118,0,0,0,.943,2.29l9.229,9.229-.606,8.083a9.791,9.791,0,0,1-1.887-1.415L3.368,21.961a9.5,9.5,0,0,1-2.829-6.87A9.191,9.191,0,0,1,3.4,8.253L8.353,3.335A9.3,9.3,0,0,1,15.19.539,9.225,9.225,0,0,1,22.061,3.4L33.31,14.686a9.81,9.81,0,0,1,1.415,1.887ZM56.046,19.4a1.039,1.039,0,0,1-1.079,1.079H44.189a1.079,1.079,0,1,1,0-2.158H54.967A1.039,1.039,0,0,1,56.046,19.4ZM37.724,1.078V11.856a1.079,1.079,0,1,1-2.158,0V1.078a1.079,1.079,0,1,1,2.158,0ZM51.431,6.164,42.81,14.786a1.142,1.142,0,0,1-1.551,0,1.142,1.142,0,0,1,0-1.551l8.622-8.622a1.1,1.1,0,0,1,1.551,1.551Z" transform="translate(931.978 540.001)"/>
    <g id="microbit" transform="translate(563.586 712.452)">
      <path id="Path_140" data-name="Path 140" class="cls-4" d="M14.573,29.147A7.073,7.073,0,1,0,7.5,22.073,7.073,7.073,0,0,0,14.573,29.147Z" transform="translate(10.183 10.183)"/>
      <path id="Path_141" data-name="Path 141" class="cls-4" d="M36.647,22.073A7.073,7.073,0,1,1,29.573,15,7.073,7.073,0,0,1,36.647,22.073Z" transform="translate(30.55 10.183)"/>
      <path id="Path_142" data-name="Path 142" class="cls-5" d="M24.757,7.5a24.757,24.757,0,0,0,0,49.513H60.123a24.757,24.757,0,1,0,0-49.513ZM60.123,18.11H24.757a14.147,14.147,0,1,0,0,28.293H60.123a14.147,14.147,0,0,0,0-28.293Z" transform="translate(0 0)"/>
    </g>
    <path id="probot" class="cls-4" d="M32.688.06a4.749,4.749,0,0,0-1.464,9.263L29.5,16.35H6.69A6.69,6.69,0,0,0,0,23.04V58.532a6.69,6.69,0,0,0,6.69,6.69h52a6.692,6.692,0,0,0,6.69-6.69V23.04a6.692,6.692,0,0,0-6.69-6.69H35.8L34.117,9.334A4.749,4.749,0,0,0,32.685.06ZM10.713,21.42H54.667A5.434,5.434,0,0,1,60.1,26.852v27.56a5.432,5.432,0,0,1-5.432,5.432H10.713a5.432,5.432,0,0,1-5.432-5.432V26.852A5.434,5.434,0,0,1,10.713,21.42Zm8.864,6.3A12.463,12.463,0,1,0,32.04,40.181,12.462,12.462,0,0,0,19.577,27.718Zm26.539,0A12.463,12.463,0,1,0,58.579,40.181,12.462,12.462,0,0,0,46.116,27.718ZM19.577,30.633a9.55,9.55,0,1,1-9.55,9.55,9.549,9.549,0,0,1,9.55-9.55Zm26.539,0a9.55,9.55,0,1,1-9.55,9.55,9.549,9.549,0,0,1,9.55-9.55ZM19.577,35.162a5.02,5.02,0,1,0,5.02,5.02A5.02,5.02,0,0,0,19.577,35.162Zm26.539,0a5.02,5.02,0,1,0,5.02,5.02A5.02,5.02,0,0,0,46.116,35.162ZM27.247,52.868v5.88h1.923v-5.88H27.247Zm2.933,0v5.88H32.1v-5.88H30.18Zm2.931,0v5.88h1.923v-5.88H33.111Zm2.933,0v5.88h1.923v-5.88H36.044Zm2.933.082v5.72a2.942,2.942,0,0,0,2.259-2.857v0A2.943,2.943,0,0,0,38.977,52.95Zm-12.743.076a2.942,2.942,0,0,0-1.992,2.78v0a2.937,2.937,0,0,0,1.992,2.78V53.024Z" transform="translate(927.312 701.871)"/>
    <g id="md-analytics" transform="translate(933.529 889.056)">
      <path id="Path_143" data-name="Path 143" class="cls-4" d="M39.807,12.855,30.381,27.277a5.188,5.188,0,1,1-9.211,3.275,5.716,5.716,0,0,1,.086-.962l-6.227-3.621a5.154,5.154,0,0,1-3.6,1.448,5.217,5.217,0,0,1-2.551-.67L2.25,32.952v6.184a4.627,4.627,0,0,0,4.616,4.616h39.21a4.627,4.627,0,0,0,4.616-4.616V16.151l-6.335-4.205a5.18,5.18,0,0,1-4.551.907Z" transform="translate(0 4.607)"/>
      <path id="Path_144" data-name="Path 144" class="cls-4" d="M11.44,21.645a5.191,5.191,0,0,1,5.189,5.189c0,.228-.022.454-.043.67l6.5,3.633a5.145,5.145,0,0,1,3.286-1.167,5.45,5.45,0,0,1,1.124.118l9.448-14.637a5.129,5.129,0,0,1-.962-3.006,5.189,5.189,0,1,1,10.378,0,5.682,5.682,0,0,1-.14,1.222l4.465,2.984V7.991a4.627,4.627,0,0,0-4.616-4.616H6.866A4.627,4.627,0,0,0,2.25,7.991V32.78L6.575,28.64a5.188,5.188,0,0,1,4.865-6.994Z" transform="translate(0 0)"/>
    </g>
    <g id="iot-connect" transform="translate(1289.727 537.75)">
      <path id="Path_145" data-name="Path 145" class="cls-4" d="M58.3,36.279H50.291V28.272h-4V46.288H14.26V14.26H32.276v-4H24.269V2.25h-4v8.007H14.26a4.007,4.007,0,0,0-4,4v6.005H2.25v4h8.007v12.01H2.25v4h8.007v6.005a4.007,4.007,0,0,0,4,4h6.005V58.3h4V50.291h12.01V58.3h4V50.291h6.005a4.009,4.009,0,0,0,4-4V40.283H58.3Z" transform="translate(0 0)"/>
      <path id="Path_146" data-name="Path 146" class="cls-4" d="M42.4,2.25a8.014,8.014,0,0,0-8.007,8.007A7.918,7.918,0,0,0,35.529,14.3l-5.968,5.966H12.375V40.283H32.392V23.1l5.966-5.966A7.916,7.916,0,0,0,42.4,18.264a8.007,8.007,0,0,0,0-16.014ZM28.389,36.279H16.378V24.269h12.01ZM42.4,14.26a4,4,0,1,1,4-4A4,4,0,0,1,42.4,14.26Z" transform="translate(7.891 0)"/>
    </g>
    <path id="network" class="cls-4" d="M58.216,30.047h-9.39V45.07h3.756a3.808,3.808,0,0,1,3.756,3.756v7.512a3.584,3.584,0,0,1-1.115,2.671,3.65,3.65,0,0,1-2.641,1.085H41.314a3.706,3.706,0,0,1-3.756-3.756V48.826a3.659,3.659,0,0,1,1.085-2.641,3.58,3.58,0,0,1,2.671-1.115H45.07V30.047H18.779V45.07h3.756a3.808,3.808,0,0,1,3.756,3.756v7.512a3.584,3.584,0,0,1-1.115,2.671,3.65,3.65,0,0,1-2.641,1.085H11.268a3.706,3.706,0,0,1-3.756-3.756V48.826A3.659,3.659,0,0,1,8.6,46.185a3.58,3.58,0,0,1,2.671-1.115h3.756V30.047H1.878a1.8,1.8,0,0,1-1.32-.558,1.842,1.842,0,0,1,0-2.641,1.8,1.8,0,0,1,1.32-.558H30.047V15.023H26.291a3.706,3.706,0,0,1-3.756-3.756V3.756A3.659,3.659,0,0,1,23.62,1.115,3.58,3.58,0,0,1,26.291,0H37.558A3.609,3.609,0,0,1,40.2,1.115a3.609,3.609,0,0,1,1.115,2.641v7.512A3.584,3.584,0,0,1,40.2,13.938a3.65,3.65,0,0,1-2.641,1.085H33.8V26.291H58.216a1.878,1.878,0,0,1,0,3.756Z" transform="translate(1292.312 707)"/>
    <g id="mobile" transform="translate(1297.537 881.552)">
      <path id="Path_149" data-name="Path 149" class="cls-4" d="M38.962,1.125H10.68A3.654,3.654,0,0,0,7.031,4.774V52.213a3.654,3.654,0,0,0,3.649,3.649H38.962a3.654,3.654,0,0,0,3.649-3.649V4.774a3.654,3.654,0,0,0-3.649-3.649Zm0,3.649V8.423H10.68V4.774Zm0,7.3,0,25.544H10.68V12.073Zm0,40.141H10.68V41.266H38.964V52.213Z"/>
      <path id="Path_150" data-name="Path 150" class="cls-4" d="M16.875,28.125h3.649v3.649H16.875Z" transform="translate(6.122 16.79)"/>
    </g>
  </g>
</svg>
