<svg xmlns="http://www.w3.org/2000/svg" width="211.271" height="207.511" viewBox="0 0 211.271 207.511">
  <defs>
    <style>
      .cls-1, .cls-2 {
        fill: none;
        stroke: #fff;
        stroke-width: 5px;
      }

      .cls-1 {
        stroke-linecap: round;
      }

      .cls-2 {
        stroke-linecap: square;
        stroke-dashoffset: 700px;
      }
    </style>
  </defs>
  <g id="service" transform="translate(2.5 2.5)">
    <g id="Group_11" data-name="Group 11" transform="translate(0 0)">
      <path id="Path_124" data-name="Path 124" class="cls-1" d="M102.777,152.947V134.085a61.554,61.554,0,0,0,11.569-3.535,63.228,63.228,0,0,0,10.673-5.745l13.2,12.988,17.321-17.364-13.2-13A62.473,62.473,0,0,0,151.46,85.2l17.925-.108V60.672l-18.077.108a61.1,61.1,0,0,0-9.346-22.085l12.5-12.514L136.966,8.967l-12.476,12.5a63.209,63.209,0,0,0-22.35-9.054L102.248-5.4H77.47l.043,17.957a63.888,63.888,0,0,0-11.6,3.568,62.058,62.058,0,0,0-10.641,5.734L42.342,9.107,25.032,26.493l12.907,12.74a62.334,62.334,0,0,0-9.108,22.215l-18.325.032V85.948l18.476-.065a62.072,62.072,0,0,0,3.583,11.5,60.756,60.756,0,0,0,5.774,10.574L25.1,121.129,42.6,138.31l13.22-13.139a62.832,62.832,0,0,0,22.35,9.065l.011,18.7c8.2.065,24.606.011,24.606.011Z" transform="translate(36.885 49.543)"/>
      <path id="Path_125" data-name="Path 125" class="cls-2" d="M59.217,21.81A21.346,21.346,0,1,1,37.871.49,21.333,21.333,0,0,1,59.217,21.81Z" transform="translate(89.058 100.541)"/>
      <path id="Path_123" data-name="Path 123" class="cls-1" d="M122.519,35.393a63.576,63.576,0,0,0-22.345-9.058l.106-17.818H75.517l.048,17.962a62.091,62.091,0,0,0-22.239,9.29L40.4,23.012,23.091,40.4,36,53.133a62.367,62.367,0,0,0-9.108,22.212l-18.323.029V99.845l18.478-.068a61.728,61.728,0,0,0,3.587,11.5,60.8,60.8,0,0,0,5.772,10.575" transform="translate(-8.568 -8.517)"/>
    </g>
  </g>
</svg>
