<svg xmlns="http://www.w3.org/2000/svg" width="41.133" height="34.278" viewBox="0 0 41.133 34.278">
  <defs>
    <style>
      .cls-1 {
        fill: #fff;
      }
    </style>
  </defs>
  <path id="twitter" class="cls-1" d="M41.133,7.011a11.054,11.054,0,0,1-1.536,2.2,11.338,11.338,0,0,1-2.774,2.339q.046.367.069.688A24.958,24.958,0,0,1,35.127,21.8a25.176,25.176,0,0,1-10.019,12.45c-4.843,2.779-10.486,3.37-15.683,2.866A18.008,18.008,0,0,1,0,33.47a17.56,17.56,0,0,0,12.565-3.623c-3.855.1-6.657-2.691-7.979-5.915a5.366,5.366,0,0,0,1.788.091,16.636,16.636,0,0,0,2.018-.275A9.459,9.459,0,0,1,2.66,19.3,9.589,9.589,0,0,1,1.7,15.081,8.056,8.056,0,0,0,5.5,16.227,9.833,9.833,0,0,1,1.765,10.15,11.251,11.251,0,0,1,2.8,4.671a28.82,28.82,0,0,0,9.791,7.337,20.282,20.282,0,0,0,7.681,1.605A10.265,10.265,0,0,1,21.3,7.1a8.871,8.871,0,0,1,5.3-3.852,7.817,7.817,0,0,1,7.842,2.43,13.958,13.958,0,0,0,5.457-2.018,8.279,8.279,0,0,1-3.76,4.861,23.844,23.844,0,0,0,5-1.513Z" transform="translate(0 -2.999)"/>
</svg>
